<?xml version="1.0" encoding="UTF-8"?>
<svg width="120px" height="120px" viewBox="0 0 120 120" version="1.1" xmlns="http://www.w3.org/2000/svg" xmlns:xlink="http://www.w3.org/1999/xlink">
    <title>Arizona Cardinals Logo-01</title>
    <defs>
        <circle id="path-1" cx="60" cy="60" r="50"></circle>
    </defs>
    <g id="Page-1" stroke="none" stroke-width="1" fill="none" fill-rule="evenodd">
        <g id="Arizona-Cardinals-Logo-01">
            <circle id="Mask" fill="#F0F2F5" cx="60" cy="60" r="60"></circle>
            <mask id="mask-2" fill="white">
                <use xlink:href="#path-1"></use>
            </mask>
            <use id="Mask" fill="#FFFFFF" xlink:href="#path-1"></use>
            <g mask="url(#mask-2)" fill-rule="nonzero">
                <g transform="translate(25.000000, 24.000000)">
                    <path d="M75.8749768,58.212511 C70.2215472,57.0175726 58.9958376,58.1853533 52.5985356,71.7777778 C52.5985356,71.7777778 41.65685,58.6606129 26.4412798,56.3522092 C27.0363777,49.0467903 17.4066123,47.1050153 15.567219,34.5445832 C15.567219,34.5445832 8.08792088,28.3933661 4.34150937,18.6980704 L6.32967721,19.3362761 C6.32967721,19.3362761 3.42181268,16.1045109 1.19019571,10.5236053 L3.30008812,11.2161265 C3.30008812,11.2161265 1.16314581,8.3102535 0,0 C25.819132,17.8290243 39.4117081,11.609913 55.1141766,20.5312145 C65.7718382,26.5873797 68.314529,33.6348005 69.2071758,40.6550637 C69.1936509,40.6686425 77.0786975,47.8518519 75.8749768,58.212511" id="path8" fill="#FFFFFF"></path>
                    <path d="M75.9966737,55.4895211 C76.1736257,46.8270694 69.2316628,40.6605784 69.2316628,40.6605784 C68.4830197,35.1748039 66.4548776,27.2598056 55.6335826,21.4003044 C39.2042704,12.5242946 30.1252719,19.7719237 4.22222222,4.22222222 C4.7666899,7.13195176 6.46815139,11.1628615 8.64602209,13.6588222 L5.96451879,12.7912422 C7.91099073,16.8088046 11.0280682,20.4659876 12.6614712,21.6539047 L9.66689899,20.7329353 C12.8520349,28.3809858 19.0589664,32.9190961 19.0589664,32.9190961 C20.4745824,44.6380986 29.240512,46.6268587 29.9483199,53.8344456 C41.3549178,55.5696054 53.4284885,67.5555556 53.4284885,67.5555556 C59.7307018,56.9043438 68.5374665,54.8354994 75.9966737,55.4895211" id="path10" fill="#000000"></path>
                    <path d="M60.1162712,40.2634524 C57.7482348,44.4970454 53.7277775,43.3162474 52.3095579,38.0458561 L55.1980418,38.2474558 C52.66086,36.5626586 50.3578796,34.1002626 48.5753468,31.6666667 C48.0548992,43.3162474 57.9434027,48.5434387 61.2222222,40.3642523 C60.8579089,40.3498523 60.4935957,40.3210523 60.1162712,40.2634524" id="path12" fill="#FFFFFF"></path>
                    <path d="M52.472917,24.0188679 C40.2824708,17.6589797 25.386136,21.78826 6.33333333,10.5555556 C8.216297,15.9196366 20.0022547,22.2131377 20.0022547,22.2131377 L9.58318914,18.9867226 C12.2332861,23.3815514 23.1126317,28.8784067 23.1126317,28.8784067 L13.3909601,25.8909853 C17.4218971,32.2641509 26.5577579,36.5660377 26.5577579,36.5660377 L20.9367626,36.1809923 C21.6620523,42.1691125 30.3515809,47.3340321 30.8118609,51.9545772 C34.7451628,53.3885395 39.8082429,55.884696 43.7554926,59.1111111 C51.3012952,55.5793152 49.2230612,43.6163522 34.8288501,26.6610762 C54.6208904,27.802935 54.0769231,41.7840671 65.4444444,39.765898 C64.6075717,35.9951083 64.0775523,30.0866527 52.472917,24.0188679" id="path14" fill="#97233F"></path>
                    <path d="M73.8888889,53.4096244 C71.3405546,50.8339202 66.0005777,48.2061815 59.4952821,47.4126565 C62.2613133,46.6321401 65.4115155,44.9019953 66.7048912,42.2222222 C69.4709224,44.0044014 73.3126324,49.0647496 73.8888889,53.4096244 L73.8888889,53.4096244 Z M59.9818987,57 C61.0575775,53.2925469 59.1111111,49.9233177 59.1111111,49.9233177 C64.8096476,49.350939 71.0972463,52.0437207 73.6455806,54.2291667 C69.6502022,53.422633 64.2077797,54.5934077 59.9818987,57 L59.9818987,57 Z" id="path16" fill="#FFB612"></path>
                    <path d="M60.1162712,40.2634524 C57.7482348,44.4970454 53.7277775,43.3162474 52.3095579,38.0458561 L55.1980418,38.2474558 C52.66086,36.5626586 50.3578796,34.1002626 48.5753468,31.6666667 C48.0548992,43.3162474 57.9434027,48.5434387 61.2222222,40.3642523 C60.8579089,40.3498523 60.4935957,40.3210523 60.1162712,40.2634524" id="path18" fill="#FFFFFF"></path>
                </g>
            </g>
        </g>
    </g>
</svg>