<?xml version="1.0" encoding="UTF-8"?>
<svg width="120px" height="120px" viewBox="0 0 120 120" version="1.1" xmlns="http://www.w3.org/2000/svg" xmlns:xlink="http://www.w3.org/1999/xlink">
    <title>Cincinnati Bengals logo</title>
    <defs>
        <circle id="path-1" cx="60" cy="60" r="50"></circle>
    </defs>
    <g id="Page-1" stroke="none" stroke-width="1" fill="none" fill-rule="evenodd">
        <g id="Cincinnati-Bengals-logo">
            <circle id="Mask" fill="#F0F2F5" cx="60" cy="60" r="60"></circle>
            <mask id="mask-2" fill="white">
                <use xlink:href="#path-1"></use>
            </mask>
            <use id="Mask" fill="#FFFFFF" xlink:href="#path-1"></use>
            <g id="cincinnati-bengals-logo" mask="url(#mask-2)" fill-rule="nonzero">
                <g transform="translate(20.000000, 32.000000)">
                    <path d="M0,38.5999474 L10.3202196,56.3380282 L57.974121,56.3380282 C73.3498889,56.3380282 80,48.3061833 80,39.6883016 C80,33.9849069 75.9534701,29.354169 71.8337472,27.2559477 C71.6654757,27.1958573 71.5479382,27.0427361 71.5332876,26.8645262 C71.5186371,26.6863162 71.6095873,26.5160265 71.7657823,26.4292171 C75.3731538,23.7606563 77.7989805,20.333387 77.7989805,15.0433576 C77.7989805,8.76439093 73.3237485,0 55.8410665,0 L10.7541498,0 L0.5384917,17.7904055 L8.04077898,17.7904055 C8.8760785,17.7932883 9.55169756,18.4718153 9.55169259,19.3078224 L9.55169259,37.0982279 C9.54882419,37.9321923 8.8740425,38.6075415 8.04077898,38.6104124 L0,38.6104124" id="Path" fill="#FFFFFF"></path>
                    <path d="M44.2376473,25.4928568 L36.6886726,25.4928568 L36.6886726,18.5720031 C36.6945211,17.8473817 37.3125192,17.2629267 38.0728288,17.2629267 L44.2376473,17.2629267 C47.8471006,17.2629267 49.1886726,19.0185098 49.1886726,21.3220784 C49.1886726,23.7524955 47.8471006,25.5080787 44.2376473,25.5080787 M44.2376473,41.4199634 L38.0728288,41.4199634 C37.7052937,41.4213087 37.3524015,41.2827546 37.092513,41.0350577 C36.8326245,40.7873607 36.6872508,40.4510229 36.6886623,40.1007292 L36.6886623,33.1748015 L44.2376473,33.1748015 C47.8471006,33.1748015 49.1886623,34.8694974 49.1886623,37.2339533 C49.1886623,39.5984092 47.8471006,41.4047317 44.2376473,41.4047317 L44.2376473,41.4199634 Z M65.7559516,28.7959916 C65.563264,28.7237501 65.4320057,28.5515784 65.4194452,28.3545954 C65.4068846,28.1576124 65.5153006,27.9715581 65.6973912,27.8776085 C70.6750296,26.0814338 73.5817575,22.8848518 73.5817575,17.2527788 C73.6509653,9.69768256 66.6609768,4.50704225 55.252336,4.50704225 L12.0826353,4.50704225 L4.50704225,17.2730745 L9.72424618,17.2730745 C10.7503711,17.2730745 11.5822096,18.0658909 11.5822096,19.0438795 L11.5822096,39.6237789 C11.5836242,40.0943041 11.3884997,40.5460199 11.0399105,40.8792084 C10.6913213,41.212397 10.2179325,41.3996597 9.72424618,41.3996578 L4.56560271,41.3996578 L12.1944325,54.084507 L57.3072755,54.084507 C70.1852513,54.084507 75.4929577,45.925612 75.4929577,39.9282153 C75.4929577,34.651318 71.4150208,30.0949202 65.7559516,28.7959916 Z" id="Shape" fill="#F05025"></path>
                    <path d="M28.5451672,50.4581247 C20.7277256,36.1250387 18.6430746,19.6414827 21.5667977,4.50704225 L14.1767096,4.50704225 L6.76056338,17.2577069 L11.8679585,17.2577069 C12.8724861,17.2577069 13.6868166,18.0501988 13.6868166,19.0277872 L13.6868166,34.8114261 C17.5776365,40.8949722 22.6196563,46.2045094 28.5451672,50.4581247 M65.5008193,5.92209214 C56.531608,18.8654876 51.674371,35.3693311 53.8528313,50.3972623 C56.5341993,37.4698318 63.7939861,25.8687871 74.365798,17.6178092 C74.365798,17.4910126 74.365798,17.3692878 74.365798,17.2424913 C74.407491,12.0387594 71.1814935,7.98126869 65.5112425,5.92209214 L65.5008193,5.92209214 Z M50.4600617,4.50704225 C48.8293902,8.67981593 47.4528706,12.9425014 46.3376642,17.2729224 C46.1187758,17.2729224 45.8842526,17.2729224 45.6445177,17.2729224 L39.6198761,17.2729224 C38.8755691,17.272901 38.2705783,17.8571384 38.2648529,18.5814632 L38.2648529,25.4994849 L44.6074038,25.4994849 C44.1904736,27.9796261 43.8412945,30.545989 43.6224062,33.1782861 L38.2648529,33.1782861 L38.2648529,40.086164 C38.263461,40.4363144 38.4057749,40.7725146 38.6601934,41.0201101 C38.9146119,41.2677057 39.2600767,41.4062031 39.6198761,41.4048485 L43.3201317,41.4048485 C43.3709381,45.6573646 43.7840728,49.8984542 44.5552875,54.084507 L39.046597,54.084507 C34.7000995,43.874846 28.7171509,26.5899355 34.6636181,4.53747343 L50.4600617,4.50704225 Z" id="Shape" fill="#010101"></path>
                </g>
            </g>
        </g>
    </g>
</svg>