<?xml version="1.0" encoding="UTF-8"?>
<svg width="120px" height="120px" viewBox="0 0 120 120" version="1.1" xmlns="http://www.w3.org/2000/svg" xmlns:xlink="http://www.w3.org/1999/xlink">
    <title>denver bronco logo</title>
    <defs>
        <circle id="path-1" cx="60" cy="60" r="50"></circle>
    </defs>
    <g id="Page-1" stroke="none" stroke-width="1" fill="none" fill-rule="evenodd">
        <g id="denver-bronco-logo">
            <circle id="Mask" fill="#F0F2F5" cx="60" cy="60" r="60"></circle>
            <mask id="mask-2" fill="white">
                <use xlink:href="#path-1"></use>
            </mask>
            <use id="Mask" fill="#FFFFFF" xlink:href="#path-1"></use>
            <g mask="url(#mask-2)">
                <g transform="translate(20.000000, 37.000000)">
                    <path d="M0.0104207373,12.4672821 C1.49016543,14.3513884 3.05848639,15.5451748 4.77269767,15.5347941 C7.1434154,15.5347941 7.18509835,14.09706 9.78507229,13.9776814 C6.48690895,10.9101694 7.10694282,3.21803285 10.6812557,0 C10.3269506,8.06065325 12.7654032,10.3340377 17.4547349,9.91361732 C14.714081,8.35650465 13.8752117,5.0761873 14.2868308,1.03288474 C16.0479354,3.33741149 18.0799792,4.63500538 19.5805653,4.588292 C22.2430637,4.51043636 26.0831054,0.207615022 32.465807,0.285470656 C39.2392862,0.368516665 44.5747037,4.11596782 48.7534193,10.6662218 C52.9529764,10.5676046 56.7357041,11.6056798 59.6014068,15.1247544 L68.4590335,19.0434879 L67.3752768,19.6922849 C70.558812,21.6023431 73.7162954,23.7823008 76.8998307,26.0712564 L79.2601277,27.1404738 C78.0304807,29.6059022 78.4629413,31.0488266 80,31.9000482 L77.9731666,37.163089 C75.6649733,34.0177214 73.2838348,31.8585252 70.6786505,31.8481444 C67.9692588,31.8481444 69.1624332,34.7599451 75.3315097,34.8793238 L72.2521818,37.8066956 L66.3644653,37.4226078 C66.5195827,36.9120008 66.5012683,36.3646787 66.3123616,35.8654951 C65.8955321,34.6786292 64.1900048,33.3948764 61.1957796,32.0142365 C57.1785854,34.0903867 53.3802267,33.6751566 49.7329686,31.1941571 C41.8392601,34.8741334 40.9743389,37.3239907 40.3907776,46.630334 L39.5675394,46.6666667 C36.8633581,38.0921662 35.1387261,31.8273829 22.925622,29.341193 C10.8323564,26.8705743 1.47974469,24.7996144 0,12.4724725 L0.0104207373,12.4672821 Z" id="Path" fill="#1E196A"></path>
                    <path d="M49.7544969,11.1111111 C50.4492122,11.4500602 51.613882,12.0028079 51.9969971,13.1239471 C48.6548367,12.119512 45.2013867,11.5518063 41.7192967,11.4344164 C32.3048823,11.1789009 20.8778366,13.9895708 8.88888889,22.3433614 C12.4646296,24.2623345 15.856475,25.0340955 19.2942943,25.9049338 C26.3691527,21.1127156 32.6931055,19.5900521 40.7180893,19.2719615 C40.2992168,18.3854793 39.4308226,17.436422 39.0272748,16.5499398 C42.4804186,16.9358203 46.7304419,18.9643 49.9281757,20.5808263 C49.9984926,20.6435046 50.0756196,20.6977432 50.1580447,20.7424789 C50.3776974,24.6847172 51.8692921,27.4380265 56.0069349,28.2097874 C57.5393952,28.032491 59.465187,27.7561171 60.9108078,26.6089049 C61.8405004,26.9843562 65.1352901,28.7938227 65.666543,29.6594465 C64.1340827,29.0806258 63.0562523,28.2202166 61.2428409,28.0168472 C59.5065317,28.9895035 57.5584042,29.5005775 55.577846,29.5030084 C50.2806416,28.7886081 49.1364045,25.9727236 47.4609146,21.6498195 C45.5904924,21.2154643 43.6713116,21.0400699 41.7550541,21.1283594 C36.5497973,21.2743682 30.5170119,23.3706378 26.5223987,27.6726835 C29.1582304,28.7938227 31.6305997,29.7115925 33.8066934,31.3802647 C36.5292643,28.5075662 40.28647,26.8998748 44.2018824,26.9322102 C39.9109935,28.4027276 38.271261,29.7376655 36.0287608,33.5286803 C37.0095354,33.9145608 38.4296153,37.2779783 39.5636359,40 C41.3821554,32.3032491 46.1378906,30.2226233 49.9230675,28.6582431 C51.6240984,29.6594465 53.3966442,31.0361011 55.6442526,30.9005215 C57.4652453,30.8312187 59.2520346,30.3747731 60.890375,29.560369 C63.6130462,30.9370237 66.6115602,32.1676695 67.699607,35.3850782 C69.1350114,35.4685118 70.4427109,35.7240273 71.2753477,35.8439631 C71.2753477,35.8439631 72.2969879,34.8010429 72.2969879,34.6133173 C69.3291231,34.3265142 67.5974429,33.1115122 67.699607,31.4845568 C67.7557972,30.3373446 68.8234112,29.6177296 70.2230583,29.7637385 C71.8576826,29.9358203 74.3607011,31.2551143 76.7973129,33.7216205 C76.9259183,33.7406409 77.0556004,33.7510922 77.1855362,33.7529081 C77.4511627,33.0645808 77.8751434,32.2615323 77.7576547,31.4063377 C75.6479677,29.7272363 76.9301262,27.5788207 76.8381785,26.9947854 C72.5779389,24.5543522 68.665057,21.003209 64.3639517,18.9590854 C64.6428098,18.7182947 64.9088181,18.4624119 65.1608311,18.1925391 C62.948435,17.0528273 60.6510722,16.0938174 58.2903007,15.3245086 C57.2686605,12.6911352 52.5078172,10.9546731 49.7596051,11.1528279 L49.7544969,11.1111111 Z M57.0694407,15.0220618 C55.9660693,13.5567589 55.2917867,12.9362214 53.6520542,12.4147613 C54.0460714,12.7130013 54.3734305,13.0933951 54.612396,13.5306859 C54.0765727,13.4464363 53.5324005,13.4324172 52.9930963,13.4889691 C54.8218323,14.078219 55.5727378,14.2294424 57.0796571,15.0220618 L57.0694407,15.0220618 Z M70.9637474,25.0393101 C68.7008144,22.6510229 59.0616391,17.1287605 57.9020775,17.1443712 C59.5520264,18.651424 61.7434446,20.4765343 62.0908023,21.0084236 C62.4383088,20.8844148 62.7554489,20.6851866 63.0204949,20.4243883 C64.4456829,21.1805054 68.2870501,23.720016 70.9637474,25.0393101 L70.9637474,25.0393101 Z M73.4054675,26.9322102 C73.5127397,28.4548736 74.968577,29.1744886 75.8625122,29.8210991 C75.4742889,29.4195748 74.6212193,28.1680706 74.6774095,27.7352587 C74.7233833,27.4067389 75.1269312,27.2815884 75.3976659,26.9165664 C74.7446324,26.7418118 74.058501,26.7418118 73.4054675,26.9165664 L73.4054675,26.9322102 Z" id="Shape" fill="#FFFFFF"></path>
                    <path d="M13.3333333,4.03653766 C14.3618439,6.61257924 15.0972555,8.95963935 18.3746336,9.04073695 C20.6554756,9.10275277 26.080469,6.82247893 30.1838529,6.72706998 C31.7825739,6.6889064 34.5163869,7.78133885 36.27498,10.6340664 C40.1119105,10.3192168 43.799627,11.034784 46.6666667,11.1111111 C43.6610711,6.04012556 36.9517719,2.13312916 31.6227018,2.22376766 C23.3733014,2.36211064 21.8491873,6.18323898 17.7671196,5.83976677 C16.1316359,5.65052289 14.5986982,5.02178441 13.3706368,4.03653766 L13.3333333,4.03653766 Z" id="Path" fill="#F58220"></path>
                    <path d="M9.5093842,2.22222222 C8.99438548,3.9420839 8.79685849,5.75813473 8.92843656,7.56341852 C9.45391332,12.0731039 12.9012116,15.4755068 17.0260313,15.5555556 C22.3921528,13.3089956 27.5697213,11.0624356 33.3333333,10.5007957 C33.0020913,8.91697089 30.403115,7.94533371 28.4105665,7.90601891 C25.1440101,7.83862211 19.4772226,10.7142189 15.7265431,10.4109333 C11.9758636,10.1076477 10.1871564,8.72601329 9.5093842,2.22783862 L9.5093842,2.22222222 Z" id="Path" fill="#F58220"></path>
                    <path d="M2.23852879,16.1969195 C3.42347239,19.0452567 5.11391946,20.0196879 7.99474566,19.9996996 C11.6963356,19.9996996 13.8161888,18.6904639 15.5555556,17.5661202 C14.3053857,17.0214382 12.190968,15.4023834 10.3755039,15.5672871 C7.17941749,15.8571179 6.923948,17.9359044 2.22222222,16.1969195 L2.23852879,16.1969195 Z" id="Path" fill="#F58220"></path>
                    <path d="M62.2222222,21.1209433 C62.0414639,21.0029493 61.858446,20.8923299 61.6731687,20.7890851 C61.6768497,20.8357052 61.6768497,20.8825829 61.6731687,20.929203 C61.6257197,21.3200583 61.1105584,21.7846598 60.8597561,21.6666657 C60.6089539,21.5486717 60.5886186,20.5604717 60.981768,20.3613567 L60.3649302,20 C60.0928572,20.3028595 59.9621023,20.7238681 60.0095714,21.1441947 C60.0570405,21.5645213 60.2775845,21.9385705 60.6089539,22.1607658 C60.951491,22.2769042 61.3234088,22.2269317 61.6296823,22.0236163 C61.9359558,21.8203009 62.146917,21.4833372 62.2086653,21.0988195 L62.2222222,21.1209433 Z" id="Path" fill="#F58220"></path>
                </g>
            </g>
        </g>
    </g>
</svg>