<?xml version="1.0" encoding="UTF-8"?>
<svg width="120px" height="120px" viewBox="0 0 120 120" version="1.1" xmlns="http://www.w3.org/2000/svg" xmlns:xlink="http://www.w3.org/1999/xlink">
    <title>Philadelphia Eagles Logo-01</title>
    <defs>
        <circle id="path-1" cx="60" cy="60" r="50"></circle>
    </defs>
    <g id="Page-1" stroke="none" stroke-width="1" fill="none" fill-rule="evenodd">
        <g id="Philadelphia-Eagles-Logo-01">
            <circle id="Mask" fill="#F0F2F5" cx="60" cy="60" r="60"></circle>
            <mask id="mask-2" fill="white">
                <use xlink:href="#path-1"></use>
            </mask>
            <use id="Mask" fill="#FFFFFF" xlink:href="#path-1"></use>
            <g mask="url(#mask-2)">
                <g transform="translate(20.000000, 32.000000)">
                    <path d="M46.5973588,4.05271137 L42.6973869,8.12781341 C49.0812026,5.48571429 63.0177016,0.940408163 63.0177016,0.940408163 L58.5557741,5.29539359 C70.7389716,1.70169096 80,0 80,0 C80,0 77.3138522,6.21341108 73.3127283,12.4492128 C74.088227,12.3708455 79.1458275,11.7774927 79.1458275,11.7774927 C79.1458275,11.7774927 74.582748,19.300758 69.3228435,24.7193003 L72.2674909,25.4469971 C72.2674909,25.4469971 67.6819331,32.0298542 61.6240517,37.4148105 C52.9137398,45.1395918 48.4293341,43.9528863 48.4293341,43.9528863 C41.9668446,48.6213411 36.7856139,46.24793 36.7856139,46.24793 C36.7856139,46.24793 39.0221972,40.6166764 36.7069402,40.0233236 C34.6164653,39.4859475 31.4470357,41.1092711 31.0536668,41.7586006 C30.6378196,43.1804082 28.9069963,46.7853061 27.1199775,48.9683965 C23.6808092,53.1554519 19.8819893,54.8571429 19.8819893,54.8571429 C19.8819893,54.8571429 16.8811464,52.3046064 16.8699073,47.9720117 C16.8699073,47.9720117 14.8131498,50.1439067 11.4526552,50.8604082 C9.10368081,51.3530029 5.90053386,50.9499708 2.61871312,48.218309 C0.415847148,46.3822741 0,40.2248397 0,40.2248397 C0,40.2248397 2.06799663,36.2840816 6.05788143,32.8359184 C5.16999157,32.0746356 4.63051419,31.1342274 4.46192751,30.5408746 C15.0716493,25.9283965 15.0828885,21.5174344 23.5234616,16.1660641 C31.8291655,10.8930612 37.0553526,8.46367347 46.5973588,4.05271137" id="Path" stroke="none" fill="#FFFFFF" fill-rule="nonzero"></path>
                    <path d="M41.8796331,8.47862402 L38.5958035,12.0190559 C45.0750094,9.07059333 58.7631612,4.26653468 58.7631612,4.26653468 L54.7938183,8.26232754 C68.8136701,3.79978964 77.7142857,2.28571429 77.7142857,2.28571429 C77.7142857,2.28571429 74.8063827,8.95675308 70.9365498,14.6259976 C72.8051263,14.4438532 76.7191858,13.9771082 76.7191858,13.9771082 C76.7191858,13.9771082 72.8051263,20.7164512 67.0335469,26.4312318 C67.6748335,26.5336881 70.2952632,27.1484254 70.2952632,27.1484254 C70.2952632,27.1484254 66.8124136,32.4533812 60.7644176,37.9177133 C53.0358085,44.8847367 49.6082422,44.0650869 49.6082422,44.0650869 C49.6082422,44.0650869 49.6856389,43.7918703 49.6745822,43.3706614 C49.6635256,43.1315969 49.6192989,42.9266844 49.6192989,42.9039164 C43.6708129,48.6642331 38.7174268,46.7175648 38.7174268,46.7175648 C38.7174268,46.7175648 40.9177032,41.2304646 37.5454203,40.1262142 C34.9360472,39.2724123 30.9224777,41.4695292 30.6018344,42.6534678 C30.2590778,43.9398626 28.600578,47.4916785 26.9420782,49.5863392 C24.0894585,53.2064592 20.9272522,54.8571429 20.9272522,54.8571429 C20.9272522,54.8571429 18.0525192,52.5803378 19.047619,45.920683 C19.2687524,44.4635278 18.9923357,43.9057106 18.8375424,43.655262 C18.3621058,42.9153004 14.6912929,43.7235662 13.795703,45.8296108 C13.165473,47.3209181 16.8141726,48.5845449 16.8141726,48.5845449 C16.8141726,48.5845449 15.1225028,50.4970612 12.1814298,51.1231826 C10.32391,51.5102394 7.4602337,51.3963992 4.44176404,48.6983852 C2.66164091,47.1046217 2.28571429,41.7313618 2.28571429,41.7313618 C2.28571429,41.7313618 4.4859907,37.5761925 8.78703355,33.9902246 C7.93567031,33.4210233 7.29438372,32.4533812 7.12853374,32.0777083 C15.7748461,28.2412918 16.9579093,22.8224958 26.7209448,16.7548104 C31.2652343,13.9315721 36.0527704,11.1538699 41.8796331,8.47862402" id="Path" stroke="none" fill="#004C54" fill-rule="nonzero"></path>
                    <path d="M63.4900144,26.6780146 C63.8418264,26.7562087 65.2490746,27.0131321 66.0406517,27.3482496 C63.0832317,32.2186243 54.2549485,41.7694737 49.32958,42.1604442 C49.2746093,41.3226504 48.9557797,40.607733 48.5709853,40.1162273 C46.7239721,43.5567672 41.0619971,45.6680076 38.7202483,45.1094784 C41.5677269,34.4974235 29.4851823,38.5411749 28.5506816,41.4566974 C26.142968,49.0191828 20.0302338,52.5714286 20.0302338,52.5714286 C20.0302338,52.5714286 18.0732794,50.3149706 18.9198271,45.2211842 C19.5354982,41.4678679 17.2047434,41.5795738 17.2047434,41.5795738 C16.2702427,41.5348915 12.7411282,41.9705442 11.6197274,44.4727551 C10.718209,46.4946308 13.8625291,47.913295 13.8625291,47.913295 C13.8625291,47.913295 9.31096088,51.5995878 4.05576859,47.0308188 C2.76945584,45.9137604 2.28571429,41.1774328 2.28571429,41.1774328 C4.81436329,36.9102696 8.14558351,34.2069883 9.5308434,33.2016357 C8.06862463,32.6319359 7.60687133,31.8611656 7.60687133,31.8611656 C14.6651003,28.5658433 17.4356201,23.1034276 23.4494071,19.037335 C30.0788651,14.5579308 35.1471573,12.3573257 35.1471573,12.3573257 L33.2341793,14.8036836 C33.2341793,14.8036836 34.8393217,14.1111074 35.5319517,13.7536487 C41.8425801,10.6147146 52.5288707,7.18534526 52.5288707,7.18534526 L49.1976504,10.469497 C49.1976504,10.469497 54.7276959,8.54815652 61.6869777,7.02895708 C65.3919982,6.22467502 73.1428571,4.57142857 73.1428571,4.57142857 C73.1428571,4.57142857 71.3178322,10.011503 67.4588939,15.5297716 C69.7896487,15.3622128 72.3073036,15.2281658 72.3073036,15.2281658 C72.3073036,15.2281658 69.6027485,20.757605 63.4900144,26.6780146" id="Path" stroke="none" fill="#000000" fill-rule="nonzero"></path>
                    <path d="M36.6857143,20.48 C36.6095238,20.5485714 36.5333333,20.5942857 36.4571429,20.6628571 C36.522449,20.6171429 36.5986395,20.5485714 36.6639456,20.5028571 C36.6748299,20.48 36.6857143,20.48 36.6857143,20.48" id="Path" stroke="none" fill="#000000" fill-rule="nonzero"></path>
                    <path d="M36.5371429,20.5828571 C36.56,20.5828571 36.5828571,20.56 36.6057143,20.56 C36.5828571,20.56 36.56,20.56 36.5371429,20.5828571" id="Path" stroke="none" fill="#000000" fill-rule="nonzero"></path>
                    <path d="M44.5933501,31.7237978 C44.5933501,31.7237978 41.1243255,30.0440373 35.6439447,31.8252598 C35.6439447,31.8252598 43.1921806,27.3609301 52.7517726,29.2548881 C46.5482076,27.1805531 40.966129,28.1613528 37.6666008,29.2661617 C35.7343428,30.0102167 34.5817678,30.6302625 34.5817678,30.6302625 C34.5817678,30.6302625 35.0676573,30.2807821 35.9716376,29.7396512 C38.208989,28.0937115 41.2825221,26.312489 44.322156,25.0723974 C46.43521,24.2043333 50.6387186,23.0882508 52.3449815,22.9867888 C52.3449815,22.9867888 47.9493771,22.2427338 43.9379643,23.2573542 C43.9379643,23.2573542 50.2884262,20.7884446 56.458092,20.6531619 C58.5259471,20.6080676 63.2492443,20.856086 63.2492443,20.856086 C56.4354925,18.8381187 49.3731461,18.4435441 44.5481511,19.1763255 C41.8023108,19.8527391 39.6440577,20.5291527 39.6440577,20.5291527 C39.6440577,20.5291527 40.0169496,20.3375022 40.7401339,20.0331161 C42.4802961,19.0072221 49.610441,15.1742117 62.8763524,13.1111503 C62.8763524,13.1111503 61.1813893,12.9082262 59.1135343,12.9082262 C56.9891805,12.9082262 52.8195712,13.6184605 52.8195712,13.6184605 C55.8366056,12.2430861 61.5316817,10.9128061 68.5714286,10.2251189 C68.5714286,10.2251189 57.8140625,8.95120662 44.7967457,13.0209618 C44.6837481,13.066056 44.6272494,13.0998767 44.6272494,13.0998767 C44.6272494,13.0998767 46.0058194,12.1078034 47.5538857,11.0819095 C48.6951609,10.3265809 50.344925,9.14285714 50.344925,9.14285714 C50.344925,9.14285714 43.6667702,10.7324291 34.6269669,15.0163819 C32.0732224,16.2226528 30.7285517,16.9441606 30.7285517,16.9441606 C31.1240431,16.4932182 32.9320037,14.9036463 33.3726941,14.3399683 C26.6606401,17.6205742 24.2085935,19.7963713 20.2197802,24.0126828 C16.6603576,27.7780518 16.8185542,28.4319183 11.4285714,31.3404967 C11.4285714,31.3404967 15.4060849,32.9638894 19.4400972,30.3484235 C20.1406819,29.8974811 20.7960677,29.2661617 21.4175542,28.6010217 C22.8413232,26.9550819 22.3667335,25.2640479 24.2650922,24.0465034 C23.9938981,24.6778228 23.5532077,25.466972 23.5080087,26.2899419 C24.4232888,25.0385767 26.2199497,23.392637 28.2087065,22.2089132 C33.2935959,19.1875991 36.6609226,18.6690153 36.6609226,18.6690153 C36.5253256,18.7141096 36.4010283,18.7592038 36.276731,18.804298 C29.3273821,21.6903294 28.1974067,25.4556984 28.1635074,25.850273 C28.0844092,26.69579 30.6720529,24.801832 32.7851069,24.5425401 C30.5590553,25.3316893 28.6493969,27.2143738 27.722817,29.3901709 C27.3273256,30.3146028 27.2143281,31.3630439 26.1182519,32.1860137 C25.8131586,32.4678527 25.4063674,32.7496917 24.8639792,32.9864365 C23.4063109,33.640303 22.389333,33.3133697 22.0503404,33.0878985 C21.8469448,32.9526158 21.7226475,32.7158711 21.7226475,32.7158711 C22.434532,32.9187951 23.3950112,32.7384182 24.2650922,32.1860137 C24.9091782,31.7801656 25.3950677,31.2390347 25.654962,30.6979038 C25.654962,30.6979038 25.654962,30.6979038 25.654962,30.6979038 C25.7905591,30.4047913 26.0617532,29.8411133 25.6662618,29.1083319 C25.4741659,28.7363044 25.056075,28.5333803 24.5927851,28.4657389 C24.6266844,28.386824 24.8639792,27.7667782 25.6323625,26.8536199 C24.5927851,27.5976748 23.9260996,28.4882861 23.5758072,28.8941342 C24.0616967,28.950502 24.4910873,29.1759732 24.7283822,29.5705478 C25.1916721,30.3484235 24.7622814,31.4645059 23.7566033,32.0620046 C22.7509252,32.6595033 21.5531512,32.512947 21.0898613,31.7350713 C21.0333625,31.6336093 20.9881635,31.5321473 20.9542642,31.4306852 C20.8977655,31.4645059 20.8525665,31.487053 20.7960677,31.5208737 C20.4796746,31.6787035 19.8468883,31.949269 19.8468883,31.949269 C20.1406819,32.0169103 20.5474731,32.050731 20.7960677,32.0056368 C20.875166,33.0991721 21.564451,34.869121 25.4402667,33.8770477 C24.3328908,34.9593095 21.6661488,34.8916681 20.0502839,34.0461511 C20.2649792,34.2152545 20.5248736,34.3843579 20.8299669,34.5760085 C25.6888613,37.586049 31.2822396,34.7563854 32.6495099,33.9672362 C32.9885025,33.7530386 33.3161954,33.5613881 33.655188,33.3922847 C33.655188,33.3922847 32.2427187,34.6436498 31.2822396,36.5714286 C32.9998023,34.4069051 37.9490946,30.923375 44.5933501,31.7237978" id="Path" stroke="none" fill="#FFFFFF" fill-rule="nonzero"></path>
                    <path d="M44.5933501,31.7237978 C44.5933501,31.7237978 41.1243255,30.0440373 35.6439447,31.8252598 C35.6439447,31.8252598 43.1921806,27.3609301 52.7517726,29.2548881 C46.5482076,27.1805531 40.966129,28.1613528 37.6666008,29.2661617 C35.7343428,30.0102167 34.5817678,30.6302625 34.5817678,30.6302625 C34.5817678,30.6302625 35.0676573,30.2807821 35.9716376,29.7396512 C38.208989,28.0937115 41.2825221,26.312489 44.322156,25.0723974 C46.43521,24.2043333 50.6387186,23.0882508 52.3449815,22.9867888 C52.3449815,22.9867888 47.9493771,22.2427338 43.9379643,23.2573542 C43.9379643,23.2573542 50.2884262,20.7884446 56.458092,20.6531619 C58.5259471,20.6080676 63.2492443,20.856086 63.2492443,20.856086 C56.4354925,18.8381187 49.3731461,18.4435441 44.5481511,19.1763255 C41.8023108,19.8527391 39.6440577,20.5291527 39.6440577,20.5291527 C39.6440577,20.5291527 40.0169496,20.3375022 40.7401339,20.0331161 C42.4802961,19.0072221 49.610441,15.1742117 62.8763524,13.1111503 C62.8763524,13.1111503 61.1813893,12.9082262 59.1135343,12.9082262 C56.9891805,12.9082262 52.8195712,13.6184605 52.8195712,13.6184605 C55.8366056,12.2430861 61.5316817,10.9128061 68.5714286,10.2251189 C68.5714286,10.2251189 57.8140625,8.95120662 44.7967457,13.0209618 C44.6837481,13.066056 44.6272494,13.0998767 44.6272494,13.0998767 C44.6272494,13.0998767 46.0058194,12.1078034 47.5538857,11.0819095 C48.6951609,10.3265809 50.344925,9.14285714 50.344925,9.14285714 C50.344925,9.14285714 43.6667702,10.7324291 34.6269669,15.0163819 C32.0732224,16.2226528 30.7285517,16.9441606 30.7285517,16.9441606 C31.1240431,16.4932182 32.9320037,14.9036463 33.3726941,14.3399683 C26.6606401,17.6205742 24.2085935,19.7963713 20.2197802,24.0126828 C16.6603576,27.7780518 16.8185542,28.4319183 11.4285714,31.3404967 C11.4285714,31.3404967 15.4060849,32.9638894 19.4400972,30.3484235 C20.1406819,29.8974811 20.7960677,29.2661617 21.4175542,28.6010217 C22.8413232,26.9550819 22.3667335,25.2640479 24.2650922,24.0465034 C23.9938981,24.6778228 23.5532077,25.466972 23.5080087,26.2899419 C24.4232888,25.0385767 26.2199497,23.392637 28.2087065,22.2089132 C33.2935959,19.1875991 36.6609226,18.6690153 36.6609226,18.6690153 C36.5253256,18.7141096 36.4010283,18.7592038 36.276731,18.804298 C29.3273821,21.6903294 28.1974067,25.4556984 28.1635074,25.850273 C28.0844092,26.69579 30.6720529,24.801832 32.7851069,24.5425401 C30.5590553,25.3316893 28.6493969,27.2143738 27.722817,29.3901709 C27.3273256,30.3146028 27.2143281,31.3630439 26.1182519,32.1860137 C25.8131586,32.4678527 25.4063674,32.7496917 24.8639792,32.9864365 C23.4063109,33.640303 22.389333,33.3133697 22.0503404,33.0878985 C21.8469448,32.9526158 21.7226475,32.7158711 21.7226475,32.7158711 C22.434532,32.9187951 23.3950112,32.7384182 24.2650922,32.1860137 C24.9091782,31.7801656 25.3950677,31.2390347 25.654962,30.6979038 C25.654962,30.6979038 25.654962,30.6979038 25.654962,30.6979038 C25.7905591,30.4047913 26.0617532,29.8411133 25.6662618,29.1083319 C25.4741659,28.7363044 25.056075,28.5333803 24.5927851,28.4657389 C24.6266844,28.386824 24.8639792,27.7667782 25.6323625,26.8536199 C24.5927851,27.5976748 23.9260996,28.4882861 23.5758072,28.8941342 C24.0616967,28.950502 24.4910873,29.1759732 24.7283822,29.5705478 C25.1916721,30.3484235 24.7622814,31.4645059 23.7566033,32.0620046 C22.7509252,32.6595033 21.5531512,32.512947 21.0898613,31.7350713 C21.0333625,31.6336093 20.9881635,31.5321473 20.9542642,31.4306852 C20.8977655,31.4645059 20.8525665,31.487053 20.7960677,31.5208737 C20.4796746,31.6787035 19.8468883,31.949269 19.8468883,31.949269 C20.1406819,32.0169103 20.5474731,32.050731 20.7960677,32.0056368 C20.875166,33.0991721 21.564451,34.869121 25.4402667,33.8770477 C24.3328908,34.9593095 21.6661488,34.8916681 20.0502839,34.0461511 C20.2649792,34.2152545 20.5248736,34.3843579 20.8299669,34.5760085 C25.6888613,37.586049 31.2822396,34.7563854 32.6495099,33.9672362 C32.9885025,33.7530386 33.3161954,33.5613881 33.655188,33.3922847 C33.655188,33.3922847 32.2427187,34.6436498 31.2822396,36.5714286 C32.9998023,34.4069051 37.9490946,30.923375 44.5933501,31.7237978" id="Path" stroke="#FFFFFF" stroke-width="0.2344" fill="none"></path>
                    <path d="M26.3829787,26.6390661 C26.5896657,27.3669515 27.9270517,26.6159586 27.9270517,26.6159586 C27.9270517,26.6159586 26.1155015,28.0717294 25.3860182,29.6430377 C25.3860182,29.7354676 25.3860182,30.0474185 25.1428571,30.4864605 C25.325228,30.5211217 25.5075988,30.5442291 25.6534954,30.5326754 C26.1276596,30.4864605 26.674772,30.1629558 26.674772,30.1629558 C26.674772,30.1629558 26.6869301,31.0988085 25.6413374,32 C26.8206687,31.1565772 26.9544073,30.0820797 27.3799392,29.1346732 C28.3768997,26.904802 30.4316109,24.9637742 32.8267477,24.1665664 C30.5531915,24.4323023 27.768997,26.3848839 27.8419453,25.5067999 C27.8784195,25.1024191 29.0942249,21.2434709 36.5714286,18.2857143 C36.4984802,18.3088218 36.3161094,18.3781442 36.2917933,18.3781442 C29.4468085,20.8275364 25.8480243,24.6864845 26.3829787,26.6390661" id="Path" stroke="none" fill="#A4ABAE" fill-rule="nonzero"></path>
                    <path d="M24.2626365,30.3265321 C24.6408874,30.6836759 24.2626365,31.2011699 23.4148325,31.4854271 C22.5670286,31.7696844 21.562707,31.7113752 21.184456,31.3542315 C21.1192403,31.2959223 21.0931541,31.2376131 21.0670678,31.1793039 C20.9105501,31.2449017 20.7409894,31.3032109 20.5714286,31.3542315 C20.610558,31.4271179 20.6627305,31.4927158 20.7279462,31.551025 C21.2627149,32.0539416 22.6452874,32.1486941 23.8061266,31.7623957 C24.9669659,31.3760974 25.4626051,30.6545213 24.9278365,30.1516046 C24.6539306,29.8965019 24.1582914,29.750729 23.5974364,29.7142857 C23.4670051,29.8017495 23.3235306,29.9037906 23.1670129,30.0131203 C23.6365659,30.0204089 24.0539463,30.12245 24.2626365,30.3265321" id="Path" stroke="none" fill="#004C54" fill-rule="nonzero"></path>
                    <path d="M22.1770297,29.4632786 C22.7568302,29.0684847 23.0155104,28.3497573 22.7568302,27.8537341 C22.6051901,27.5804152 22.3286699,27.4285714 22.0075496,27.4285714 C21.7845495,27.742382 21.5169493,28.0966842 21.213669,28.4307406 C21.195829,28.7141824 21.2582691,29.0684847 21.5526293,29.3215577 C21.5526293,29.3215577 21.204749,29.3519265 20.9817489,29.1697139 C20.8568688,29.0583617 20.8033487,28.9368867 20.7765887,28.8660262 C20.7052287,28.9267638 20.6427886,28.9875013 20.5714286,29.0482388 C20.5892686,29.1292222 20.6071086,29.2203285 20.6517086,29.2911889 C20.9193088,29.7770891 21.5972293,29.8580725 22.1770297,29.4632786" id="Path" stroke="none" fill="#000000" fill-rule="nonzero"></path>
                    <path d="M21.1561462,31.6028532 C21.820598,32.0943982 22.8571429,31.9909151 22.8571429,31.9909151 C21.9534884,31.3441454 21.7940199,30.4386678 21.8471761,29.7142857 C21.448505,30.1023475 21.0232558,30.4645386 20.5714286,30.8267296 C20.5980066,31.0078251 20.7574751,31.3441454 21.1561462,31.6028532" id="Path" stroke="none" fill="#FFFFFF" fill-rule="nonzero"></path>
                    <path d="M63.2638957,22.0126955 C63.2638957,22.0126955 58.6419192,21.7338622 56.6184224,21.7845591 C50.5811038,21.9366501 44.3668674,24.7123096 44.3668674,24.7123096 C48.2922302,23.5843018 52.5935433,24.4081277 52.5935433,24.4081277 C50.9238819,24.5221959 46.7994866,25.7769461 44.7428177,26.7528629 C41.7683878,28.159704 38.7607859,30.1495603 36.5714286,32 C40.0766117,29.6172421 50.0503505,24.0152261 62.7110277,27.1077417 C62.7110277,27.1077417 63.5403297,26.3726355 65.7407444,23.6096503 C68.0738474,20.6692256 68.5714286,18.8568087 68.5714286,18.8568087 C68.5714286,18.8568087 57.8236746,17.5386873 50.0503505,18.9075057 C48.3696318,19.1990133 46.5672821,19.6552861 44.9639649,20.1115589 C49.6854576,19.3004073 56.5963076,19.7440058 63.2638957,22.0126955" id="Path" stroke="none" fill="#A4ABAE" fill-rule="nonzero"></path>
                    <path d="M38.6705539,32.7778082 C47.2686381,30.412798 53.2461474,33.2820235 53.9716785,36.2953106 C53.9716785,36.2953106 54.0041649,36.2833055 54.058309,36.2472901 C54.4048313,36.0311978 55.7367763,35.4069312 57.7509371,33.2099928 C59.8625573,30.9050082 61.1945023,29.0562185 61.7142857,27.8076852 C52.910454,22.9215982 43.2078301,25.8628545 38.4431487,27.9037263 C41.6051645,26.7272237 46.9546022,25.6707725 52.8996252,27.8917211 C43.7384423,25.8748596 36.5047897,30.6288903 36.5047897,30.6288903 C41.7459392,28.7320801 45.0812162,30.5208441 45.0812162,30.5208441 C38.724698,29.66848 33.9816743,33.3780646 32.3465223,35.6830491 C32.2165764,35.9711722 32.0974594,36.2592952 32,36.5714286 C33.4727197,35.0227671 35.0428988,33.7742338 38.6705539,32.7778082" id="Path" stroke="none" fill="#A4ABAE" fill-rule="nonzero"></path>
                    <path d="M69.2914286,9.61764706 C62.1714286,10.3739496 56.4228571,11.8613445 53.36,13.3991597 C53.36,13.3991597 57.5771429,12.605042 59.7257143,12.605042 C61.8171429,12.605042 63.5314286,12.8319328 63.5314286,12.8319328 C50.1142857,15.1386555 42.9028571,19.4243697 41.1428571,20.5714286 C42.9257143,19.7394958 46.7885714,18.1260504 52.3085714,16.9285714 C57.52,15.7941176 63.5771429,15.5042017 66.0114286,15.2394958 C69.4857143,11.5336134 70.8571429,6.85714286 70.8571429,6.85714286 C70.8571429,6.85714286 64.8,7.39915966 57.9314286,8.79831933 C50.7885714,10.2605042 46.16,12.3151261 45.2457143,12.7436975 C58.4228571,8.19327731 69.2914286,9.61764706 69.2914286,9.61764706" id="Path" stroke="none" fill="#A4ABAE" fill-rule="nonzero"></path>
                    <path d="M34.2857143,37.0552054 C34.2857143,37.0552054 36.6231869,35.0045894 40.5968903,35.7515025 C46.4756339,36.8515018 46.3003235,41.1428571 46.3003235,41.1428571 C46.3003235,41.1428571 48.9416675,39.825574 50.2857143,37.1231066 C50.2857143,37.1231066 48.6261087,35.2897744 45.6224564,34.6650834 C37.8036106,33.0626153 34.2857143,37.0552054 34.2857143,37.0552054" id="Path" stroke="none" fill="#A4ABAE" fill-rule="nonzero"></path>
                    <path d="M16.9187977,36.7560726 C16.3548036,36.9124244 15.1478562,37.0687762 15.7231302,36.2765938 C15.7231302,36.2765938 16.4563225,35.9117729 17.4263924,35.4427175 C17.843748,35.7658446 18.2836634,35.9847371 19.4229315,36.0889716 C19.4229315,36.0889716 17.369993,36.6309912 16.9187977,36.7560726 L16.9187977,36.7560726 Z M19.276293,34.2857143 C17.8211882,34.6922289 15.9712876,34.577571 14.9560982,34.3274081 C13.7829905,35.0778967 9.55303467,36.7456491 6.85714286,40.9567241 C6.99250144,42.3847371 7.15041979,44.2088413 7.79337307,45.2094928 C10.3764661,48.9827827 14.8996988,47.58604 14.8996988,47.58604 C14.8996988,47.58604 8.03025059,44.7717078 15.3734538,40.6648674 C17.7196693,39.3515123 24.2056015,38.3717078 28.0633212,39.5182876 C28.3904377,39.6329456 28.7965135,39.8935319 28.7739537,39.966496 C28.367878,41.7906003 26.7548548,46.8772452 24.058963,48.3261052 C22.5700186,46.3143788 26.4954175,41.7072127 22.4910594,41.530014 C22.4910594,41.530014 23.483689,42.958027 23.0550535,44.8759423 C22.8632955,45.720242 22.242902,47.9612843 23.3483304,50.2857143 C23.3483304,50.2857143 29.4394668,46.918939 31.2442479,39.1534667 C31.4811254,38.3821312 31.6390438,37.7358772 32,37.1521638 C24.1830417,40.0186133 19.276293,34.2857143 19.276293,34.2857143" id="Shape" stroke="none" fill="#A4ABAE" fill-rule="nonzero"></path>
                    <path d="M11.608563,35.6131341 C10.9257481,36.8750024 12.3583205,36.612796 13.0277469,36.3669775 C13.563288,36.1703227 16,35.3017641 16,35.3017641 C14.6477587,35.1378851 14.1256061,34.7937392 13.6302306,34.2857143 C12.4788173,35.0395577 11.608563,35.6131341 11.608563,35.6131341" id="Path" stroke="none" fill="#000000" fill-rule="nonzero"></path>
                </g>
            </g>
        </g>
    </g>
</svg>