<?xml version="1.0" encoding="UTF-8"?>
<svg width="120px" height="120px" viewBox="0 0 120 120" version="1.1" xmlns="http://www.w3.org/2000/svg" xmlns:xlink="http://www.w3.org/1999/xlink">
    <title>jacksonville jaguars logo</title>
    <defs>
        <circle id="path-1" cx="60" cy="60" r="50"></circle>
    </defs>
    <g id="Page-1" stroke="none" stroke-width="1" fill="none" fill-rule="evenodd">
        <g id="jacksonville-jaguars-logo">
            <circle id="Mask" fill="#F0F2F5" cx="60" cy="60" r="60"></circle>
            <mask id="mask-2" fill="white">
                <use xlink:href="#path-1"></use>
            </mask>
            <use id="Mask" fill="#FFFFFF" xlink:href="#path-1"></use>
            <g mask="url(#mask-2)" id="Path">
                <g transform="translate(20.000000, 30.000000)">
                    <path d="M65.357631,40.3630507 C65.357631,40.3630507 70.9274999,38.7951476 73.5773442,34.3370766 C76.6948082,33.6837837 80,30.2134916 80,27.1351753 C80.0310701,24.9124808 78.9493617,22.8227525 77.1208616,21.5743459 C77.1208616,21.5743459 76.0817069,18.8305155 72.0549827,16.1964384 C72.7050901,15.4228448 73.0960055,14.4626675 73.1720739,13.4526081 C73.1720739,11.9996846 72.0549827,11.1059799 70.05461,9.64783005 C68.0542373,8.18968022 66.1421928,7.46321848 63.6897879,5.93712619 C61.2373829,4.41103389 55.8233872,1.75605141 52.3370234,1.00868429 C49.8468824,0.387819182 47.2954377,0.0494816612 44.7304115,0 C40.7036872,0 39.1813257,0.653292934 39.1813257,0.653292934 C39.1813257,0.653292934 37.960319,0.130658587 35.2325381,0.130658587 C32.5047571,0.130658587 30.8525012,0.355391356 25.0488226,1.93897343 C19.2451439,3.5225555 14.7715832,4.63054032 10.0382338,4.9284419 C5.30488443,5.22634347 3.15383433,5.45107624 1.68862629,5.45107624 C0.223418247,5.45107624 0,7.52070826 0,8.11651142 C0,12.0937588 5.1957732,17.3201023 7.94433722,18.8096102 C7.79820432,19.7417913 7.71660757,20.6830554 7.70013588,21.6266093 C7.70013588,22.9541005 8.11060196,28.2327074 12.5218134,33.3283923 C18.3878413,39.5634201 24.1395623,40.4048614 28.0363922,42.939638 C31.9332221,45.4744146 33.2321654,48.2391503 35.3104746,51.3749564 C38.4279386,56.6587896 43.732823,60.2597403 49.4689566,60.2597403 C58.7797822,60.2597403 62.9779669,51.1345446 62.9779669,49.1746658 C62.9779669,47.8837589 61.419235,47.6067627 61.419235,47.6067627 C61.419235,47.6067627 62.6246543,43.8542481 61.6790236,40.4048614 C60.7280434,41.9605093 59.6413033,43.4279325 58.4316654,44.7897636 C58.4316654,44.7897636 56.0208266,42.6992262 56.5040335,40.3107872 C57.9036084,39.8234623 59.1729463,39.0187524 60.2138156,37.9589327 C61.9546982,37.5954719 63.5452184,36.7098901 64.7757044,35.4189297 C64.9598204,35.7409387 65.1775413,36.0422853 65.4251761,36.3178608 L66.6669659,35.4032507 L66.7449025,36.6157624 L67.3008502,36.4851038 C66.9050729,37.8906461 66.2454626,39.2069842 65.357631,40.3630507 L65.357631,40.3630507 Z" stroke="none" fill="#231F20" fill-rule="nonzero"></path>
                    <path d="M58.1294683,46.7532468 C58.1294683,46.7532468 58.6956716,45.5888531 56.1038961,44.6753247 C56.2764583,45.1412424 56.3355409,45.619442 56.2793394,46.095317 L58.1294683,46.7532468 Z" stroke="none" fill="#185465" fill-rule="nonzero"></path>
                    <path d="M64.4155844,25.3090607 C66.7692362,25.2222215 69.7944463,25.6520757 69.7304884,27.2499175 C70.3227307,27.8341046 70.8446134,28.4497639 71.2910619,29.0909091 C72.427092,28.4380131 73.2822649,27.5889285 73.7662338,26.6333589 C67.6134809,24.7315798 65.726722,24.6490826 64.4155844,25.3090607 Z" stroke="none" fill="#185465" fill-rule="nonzero"></path>
                    <path d="M61.3504599,23.4718203 L65.2289813,26.5116904 L59.851112,28.4284557 C59.851112,28.4284557 60.2832158,27.2055195 59.9396152,27.0407975 C56.0610939,24.9742848 49.4389742,23.1373847 42.7595877,21.9144485 C36.0802012,20.6915123 32.5556926,20.6016639 32.5556926,20.6016639 L34.8151265,21.0409226 L37.1422393,21.9493895 L29.1769538,22.4934714 L29.1769538,24.0957674 L26.7457196,24.3104052 C26.1938763,23.157351 25.5743541,23.5367108 24.8455045,23.0724942 C24.3804364,22.7465055 24.051863,22.2721816 23.9188242,21.7347518 C23.8459392,21.4502319 23.4867205,21.4701982 22.8151376,21.2855099 C22.1435547,21.1008216 21.867633,21.2555604 21.7270692,21.4851729 C21.5865053,21.7147855 22.3153549,21.684836 22.3153549,21.684836 C22.0550515,21.9493895 20.9513649,22.0292548 20.9513649,22.0292548 L20.9513649,22.1141116 L21.5865053,22.2139431 C21.3067077,22.6071259 21.3432518,23.1327028 21.6750085,23.4867951 C21.9590881,23.6956822 22.3540516,23.6956822 22.6381312,23.4867951 C22.6381312,23.4867951 22.3465914,23.8861212 22.4507127,24.0159022 C22.5548341,24.1456832 22.1071122,24.559984 22.1071122,24.9742848 C22.1071122,25.7529708 23.1066774,26.1323306 23.1066774,26.1323306 L18.6606945,27.8494329 L18.2806515,28.5282872 C18.311904,28.8607257 18.1623885,29.1851615 17.8849903,29.3868384 C17.6314909,29.5223014 17.4223703,29.7228062 17.2810863,29.9658613 C17.1457285,30.1156085 15.6619988,31.1688312 15.6619988,31.1688312 C15.120504,30.7025828 14.655409,30.1607323 14.2823906,29.5615436 C14.7952769,29.1483398 15.1017003,28.5462341 15.1257737,27.9043402 L14.3865119,27.8045087 C15.2298951,27.305351 15.3183983,26.8960418 15.3183983,26.8960418 C15.1622162,27.0957048 14.8342339,26.9659238 14.8342339,26.9659238 C14.6780518,26.2022126 14.1262085,26.1522969 13.93879,25.6231898 C13.7513715,25.0940827 12.9704612,25.2637963 12.9704612,25.2637963 C13.1345342,25.0573139 13.3333535,24.8784949 13.558747,24.7346892 C13.7982261,23.7363739 14.0793539,23.7064244 14.0793539,23.3620057 C14.0793539,22.6332355 12.6685092,22.4984629 12.6164485,22.6681765 C12.5643878,22.8378901 12.9079884,23.0125953 12.9079884,23.0125953 C12.4568558,23.1303302 12.029318,23.319266 11.6429136,23.5716519 C11.0598339,19.2239888 11.8511564,18.4153534 11.8511564,18.4153534 C15.750502,18.2805809 17.6246868,16.3638155 17.6246868,16.3638155 L15.8181809,16.428706 L14.3708937,15.7049275 L17.5726261,14.661688 C22.6745737,14.5468817 26.3656766,11.2075171 26.3656766,11.2075171 C26.3656766,11.2075171 23.3669809,12.9745352 20.1183938,12.9745352 C17.2753316,12.9074007 14.5403199,11.9165479 12.3613511,10.1642776 L12.278054,9.78491784 C12.8611337,9.70505262 12.7413942,9.3905833 12.9860794,9.11105503 C13.2307646,8.83152675 13.636838,8.99125719 13.6212198,8.87645093 C13.6056016,8.76164468 13.3296799,8.74666995 13.3296799,8.74666995 L13.3296799,8.54700689 C13.3296799,8.54700689 14.1938874,8.54700689 14.1938874,8.18262181 C14.1938874,7.81823674 13.5899834,8.13270605 12.7830427,7.75334624 L12.3301147,6.75503096 C14.7767321,6.56303857 17.2003785,6.16042633 19.5717566,5.55206105 C19.7697504,5.88941662 20.1089963,6.12927971 20.503643,6.21094913 L19.9830361,6.51044372 C20.2215831,6.55268958 20.4642821,6.56943057 20.7066796,6.56035948 C20.958293,6.48650286 21.2193089,6.44619221 21.4823839,6.44056165 C21.8572209,6.44056165 22.393446,6.51044372 22.3101489,6.21094913 C22.2268518,5.91145455 21.6333599,5.71179149 21.6333599,5.71179149 L21.6854206,5.58201051 L22.5652463,5.79664829 C22.4236381,5.51954691 22.4236381,5.19523223 22.5652463,4.91813084 L29.9422459,3.32082639 C29.9422459,3.32082639 30.3899679,4.37404901 31.2177328,4.31914167 C32.5088379,4.15441965 32.3526559,4.60366153 33.0086206,4.65357729 C32.7059096,4.30182835 32.4456859,3.918365 32.2329163,3.5105063 L32.3370377,3.4456158 L33.1491844,4.05458812 C33.9405069,3.41067477 34.8880114,3.74511039 34.9400721,3.61033782 C34.9921328,3.47556526 34.5079684,3.11118018 34.5964716,3.03131496 C34.6849748,2.95144974 35.2524363,3.5304726 35.4034123,3.43064107 C35.5543883,3.33080955 35.1639331,2.48723313 35.1639331,2.48723313 C37.3023235,2.43806951 39.4417285,2.52812484 41.5673979,2.75677826 L41.6038404,2.88655925 C40.8645786,3.03630654 41.72358,3.81499246 41.72358,3.81499246 L41.5153372,3.87988295 C41.5153372,3.87988295 41.0676153,3.43563265 40.8801968,3.43563265 C40.6927783,3.43563265 40.515772,3.60035467 40.515772,3.89485768 C40.515772,4.18936069 41.1717367,4.55873734 41.6194586,4.55873734 C41.9070676,4.55088405 42.1873396,4.46992214 42.4316053,4.32413325 C42.4316053,4.50882158 43.5873527,4.42396478 43.535292,4.15941123 C43.4832313,3.89485768 42.8428848,3.40069162 42.8428848,3.40069162 L44.066311,3.96473975 L44.5140329,3.25094432 C46.2025056,3.568267 47.8669553,3.99349976 49.4962409,4.52379631 C49.1944966,4.55879012 48.9055789,4.66138795 48.6528577,4.82329089 C48.3977604,4.95307188 48.6528577,5.32244853 48.6528577,5.32244853 C48.5970689,5.2864383 48.5280586,5.27457958 48.4626988,5.28977159 C48.3973389,5.30496359 48.3416537,5.34580605 48.3092572,5.40231375 C48.5026325,5.7759038 48.9178512,5.99486512 49.350471,5.95138716 L49.2151132,5.65189257 C49.4148943,5.65242468 49.5933466,5.77179676 49.6628351,5.95138716 C49.6628351,5.95138716 50.1261753,5.95138716 50.5791033,5.9014714 C50.9077156,5.91168711 51.2231583,6.02774208 51.4745471,6.23091544 L51.3860439,5.95138716 L51.7140263,5.55206105 L51.9378872,5.83158933 L52.5001427,5.83158933 L53.1196649,6.36069642 L53.2081681,5.86153878 C53.2723646,5.99535732 53.390874,6.09816254 53.5361504,6.14605864 C53.6507857,6.0114281 53.7901808,5.8980777 53.9474299,5.81162302 C53.8433085,5.48217898 54.6033945,5.02295395 54.6033945,5.02295395 C54.7075159,4.25924276 53.6871264,4.15941123 53.4476472,4.20932699 C53.2081681,4.25924276 53.3955865,4.54376261 53.2394045,4.57371207 C53.0832224,4.60366153 53.0676042,4.20932699 52.9478646,4.2292933 C52.828125,4.2492596 52.8801857,4.55873734 52.8801857,4.55873734 C52.8801857,4.55873734 52.3595788,4.50882158 52.2086028,4.62362784 C52.0038845,4.83901612 51.8192314,5.07117927 51.6567595,5.31745696 L48.673682,3.87988295 L49.501447,3.58038837 L49.657629,3.76507669 C49.9856114,2.21269643 48.0333355,2.34247742 47.9135959,2.37741845 C47.7938564,2.41235949 48.1582812,3.13613807 47.9812748,3.18605383 C47.8042685,3.23596959 47.460668,2.65694673 47.309692,2.65694673 C47.019053,2.77225426 46.7416514,2.91611361 46.481927,3.0862223 C45.6095311,2.75834903 44.7014363,2.52560932 43.7747711,2.39239318 C44.7258781,2.18291672 45.6986741,2.07742098 46.6745515,2.07792208 C50.3130568,2.12901634 53.8976387,2.9290861 57.1856047,4.42396478 C58.4454734,4.97303818 58.4767098,5.42228006 58.4767098,5.42228006 C58.3023816,5.33351066 58.1192654,5.26160984 57.9300726,5.20764227 C57.8936301,5.55705262 59.9812638,6.365688 59.9812638,6.365688 C59.4970994,5.86653036 59.6324571,5.62194312 59.6324571,5.62194312 C60.2207429,6.2808312 60.527901,6.03624396 60.7049073,6.12110076 C60.8819137,6.20595756 67.1344025,9.43051592 67.8059854,9.78990942 C68.4775683,10.1493029 68.529629,10.5536206 68.3265923,10.6334858 C68.1235556,10.7133511 67.8944886,10.254126 67.8944886,10.254126 C67.6185669,10.5037048 67.6185669,11.0977024 67.8059854,11.1476182 C67.9934039,11.197534 67.8059854,10.9828962 68.0662888,11.0128456 C68.3265923,11.0427951 68.2537073,11.2474497 68.685811,11.3472813 C69.0018429,11.4315844 69.3034603,11.5593664 69.5812549,11.7266411 L69.6176974,11.2773992 L70.3257228,12.1209756 C70.7868532,12.1183112 71.2281139,12.3007532 71.5426164,12.6241079 C71.8571188,12.9474626 72.0161738,13.382233 71.9812527,13.8231032 C71.9958824,14.3512172 71.7673906,14.8587474 71.3565244,15.2107614 C69.2988421,13.7230986 67.0166673,12.544865 64.5886348,11.7166579 C66.6710624,12.7149732 70.346547,15.709919 71.4502337,16.9578131 C72.5539203,18.2057072 72.756957,18.5451344 72.756957,19.1191657 C72.756957,19.693197 72.3612957,20.117481 72.3612957,20.377043 C72.3422708,20.6388342 72.5379178,20.8700452 72.8090176,20.9061501 C73.3296245,20.9061501 74.2094502,19.8179864 74.2094502,19.8179864 C74.2094502,19.8179864 75.8441558,20.9410911 75.8441558,22.3437241 C75.8441558,23.7463571 74.0012074,23.2022752 72.5174778,24.430203 C69.9049178,23.4349737 67.1703994,22.7639935 64.380392,22.4335725 C62.352574,22.1784174 60.3028188,22.1232216 58.263261,22.2688504 L61.3504599,23.4718203 Z" stroke="none" fill="#C9942B" fill-rule="nonzero"></path>
                    <path d="M12.8200774,7.77526821 C14.9012295,9.5173024 17.4361367,10.490329 20.0574993,10.5533597 C23.278152,10.5533597 26.2610037,8.55448899 26.2610037,8.55448899 C26.2610037,8.55448899 22.5957665,12.3320158 17.5295712,12.4618859 L14.3502752,13.6420102 L15.7874204,14.4607566 L17.5812671,14.3873518 C17.5812671,14.3873518 15.7202158,16.5556183 11.8481951,16.7080745 C11.8481951,16.7080745 11.0624178,17.622812 11.6414116,22.5409373 C12.0221312,22.2480526 12.4449609,22.026675 12.8924516,21.8859401 C12.8924516,21.8859401 12.5512589,21.6826652 12.6029548,21.4963298 C12.6546506,21.3099944 14.0556087,21.4568041 14.0556087,22.2811971 C14.0556087,22.6708075 13.7816206,22.7272727 13.53865,23.8339921 C13.314836,23.9966668 13.11741,24.1989488 12.9544867,24.432524 C12.9544867,24.432524 13.7247552,24.2405421 13.9160299,24.839074 C14.1073046,25.4376059 14.6501112,25.4940711 14.8051989,26.3579898 C14.8051989,26.3579898 15.1308828,26.5047995 15.2859704,26.2789385 C15.2859704,26.2789385 15.1980875,26.7476002 14.3606144,27.3066064 L15.0946957,27.419537 C15.0767808,28.1565045 14.7698808,28.8495548 14.252053,29.3224167 C14.6155835,30.009057 15.0722407,30.6315898 15.6064848,31.1688312 C15.6064848,31.1688312 17.0798172,29.9774139 17.2142264,29.8080181 C17.3545204,29.5330714 17.5621756,29.3062582 17.8138985,29.1530209 C18.0893529,28.9248818 18.2378206,28.5578763 18.2067871,28.1818182 L18.584167,27.4138905 L22.9679768,25.4884246 C22.9679768,25.4884246 21.9754161,25.0592885 21.9754161,24.1784303 C21.9754161,23.7097685 22.4200006,23.2467532 22.3166088,23.094297 C22.2132171,22.9418408 22.502714,22.4957651 22.502714,22.4957651 C22.2206251,22.7320606 21.8284293,22.7320606 21.5463404,22.4957651 C21.2169085,22.0952119 21.1806205,21.5006734 21.4584574,21.0559006 L20.8277678,20.9429701 L20.8277678,20.8469791 C20.8277678,20.8469791 21.9237202,20.7566347 22.1821996,20.4573687 C22.1821996,20.4573687 21.463627,20.4912479 21.5980362,20.2315076 C21.7324455,19.9717674 22.0116032,19.8023715 22.6784799,20.0056465 C23.3453566,20.2089215 23.7123973,20.1919819 23.7744324,20.513834 C23.9065389,21.1217807 24.2328098,21.6583412 24.6946189,22.0271033 C25.418361,22.5522304 26.0335419,22.1230943 26.5815181,23.4274421 L28.9957153,23.1846414 L28.9957153,21.3721062 L36.9051834,20.7566347 L34.6253956,19.6837945 L32.3817948,19.1869001 C32.3817948,19.1869001 35.871266,19.2885375 42.5141854,20.6719368 C43.9409914,20.9712027 45.3626278,21.2987013 46.7532468,21.6544325 C45.9379549,20.7228196 45.074973,19.8424315 44.1684532,19.0175042 C40.2089006,17.8402934 36.1837092,16.9443853 32.1181458,16.3354037 C32.1181458,16.3354037 35.8867748,16.4709204 42.8140214,18.0293619 C40.4101635,15.8949746 38.3940245,15.3020892 38.3940245,14.336533 C38.3940245,13.7097685 39.5106553,12.7442123 39.5106553,12.7442123 L41.1390752,11.3438735 L44.7577862,9.81931112 L44.6492248,8.69000565 L44.9283825,8.43591191 C44.9283825,8.43591191 44.6647336,7.67363072 45.4711892,7.74138905 L45.5177155,7.67363072 C45.5177155,7.67363072 42.2298581,6.31846414 34.4806471,6.23376623 L35.2715939,7.09768492 C34.753813,7.12377924 34.2349364,7.10110934 33.7207178,7.0299266 C33.5494123,7.59675362 33.6176012,8.21741959 33.906823,8.72388481 L33.0745194,8.65612648 L34.1911502,9.26595144 C34.0022532,9.25185049 33.8164839,9.32410702 33.6782633,9.46544311 C33.5400427,9.6067792 33.4617978,9.80448784 33.4622385,10.0112931 C33.4622385,10.6719368 32.516204,10.7058159 32.516204,10.7058159 L32.6247654,11.1293055 L31.9733974,10.8074534 L32.3611164,11.3325805 C30.5621001,11.4511575 30.0192935,11.0107284 30.4070125,10.417843 C30.5621001,10.1976285 30.4070125,9.92659514 30.0813286,9.60474308 L30.0813286,9.23207228 C30.0813286,9.23207228 30.9343104,9.38452851 31.1979594,9.41840768 C30.8621595,9.14378313 30.4839509,8.93723231 30.0813286,8.80858272 C30.1898899,8.28345567 30.5982873,8.53754941 30.8412578,7.80914737 C31.1416414,7.88983551 31.4369257,7.99168613 31.7252572,8.11405985 C31.7252572,8.11405985 31.5546609,7.72444946 30.5465914,7.41953698 C30.5465914,7.41953698 31.0635501,7.35177866 31.4616083,7.31789949 C31.661267,7.31808888 31.8254995,7.14617881 31.8338186,6.9282891 C28.1634118,7.216262 24.5033441,8.43591191 22.3011001,9.06267645 L23.0455206,8.18181818 C21.6103444,8.61240878 20.1337358,8.85689317 18.646202,8.91022021 C16.5887064,8.91022021 14.6914679,8.30604178 12.8200774,7.77526821 Z" stroke="none" fill="#8B6728" fill-rule="nonzero"></path>
                    <path d="M65.2195772,21.8181818 L64.4656487,21.7488022 C62.6793528,21.5945848 60.8776691,21.5493219 59.080445,21.6135121 L58.7622285,21.5094427 C58.1224405,20.8571851 57.1827838,20.3826454 56.1038961,20.166948 C57.3624159,19.8833248 58.6752919,19.7393939 59.9959297,19.7402597 C62.1940719,19.7402597 63.5599554,20.2606104 64.5146051,20.2606104 C65.3517595,20.2606104 65.2342641,19.8859608 65.2342641,19.8859608 C65.7238281,20.1877619 65.3811333,20.6872948 64.3677359,20.7289225 C64.4746026,21.1485845 64.7740533,21.5314955 65.2195772,21.8181818 Z" stroke="none" fill="#8B6728" fill-rule="nonzero"></path>
                    <path d="M71.5142733,13.5064935 C71.6283186,13.7682567 71.6884216,14.0691881 71.6879174,14.375917 C71.696631,14.8358466 71.560539,15.2778499 71.3158229,15.5844156 C70.7671731,15.0308366 70.1978896,14.5186008 69.6103896,14.0498832 C70.7204716,14.1846438 71.197993,14.0977015 71.5142733,13.5064935 Z" stroke="#231F20" stroke-width="0.1" fill="none"></path>
                    <path d="M40.5194805,29.376815 C44.7992549,31.193192 44.2704606,35.675713 44.5027347,38.4427669 C44.5521548,43.530747 45.2934552,46.5421089 49.5534615,48.8311688 C49.5534615,48.8311688 53.0128635,46.8448384 54.025974,43.3979709 C51.7575948,41.7727915 51.8811448,38.9526271 51.8811448,37.4974011 C51.8811448,33.615028 51.0706564,30.6461545 47.0528082,29.8866752 C49.8351557,31.9314271 49.9241117,38.6498976 49.9241117,39.5580861 C49.9241117,42.6438027 50.7691942,44.0618514 50.7691942,44.0618514 C50.7691942,44.0618514 49.3409554,43.6263458 48.9208852,38.6870749 C48.7083791,30.1362942 44.0085345,28.2774289 40.5194805,29.376815 Z" stroke="none" fill="#185465" fill-rule="nonzero"></path>
                    <path d="M52.6126258,18.2562707 C53.9206444,17.505304 55.3691499,17.0943589 56.8457276,17.0553279 C58.4850297,17.0795169 60.1173264,17.2945943 61.715047,17.6969275 C62.1596465,17.0734565 62.37899,16.2926278 62.3312264,15.5034247 C62.3312264,13.0905716 60.3624583,11.6099572 60.3624583,11.6099572 C60.7482959,12.3922322 60.9546042,13.2654642 60.9636089,14.1544205 C60.9636089,15.8818039 59.6410776,16.671465 58.1382013,16.671465 C56.6925503,16.6227816 55.28422,16.1574546 54.0553871,15.3224607 L51.1097494,14.0118428 L50.5236276,12.8109 L50.5987714,11.7141486 C50.7307541,11.4883956 50.9257761,11.3153027 51.1548357,11.2206105 L51.0796919,10.82578 L51.3952959,11.1383541 C51.3952959,11.1383541 52.3120505,10.7928774 52.3120505,10.0416027 C52.3120505,9.59741842 51.8762164,9.35064935 51.5606123,9.35064935 C51.2450083,9.35064935 51.1548357,9.49871079 50.9143755,9.49871079 C50.6739152,9.49871079 50.7490591,9.23549045 50.3132249,9.49871079 C49.8773908,9.76193113 48.5548596,10.2225667 48.5548596,10.2225667 C48.5548596,10.2225667 47.8334789,10.4528845 47.5028461,9.90999257 C47.2799827,9.54733063 46.8996892,9.33918606 46.5009285,9.36161686 C45.8797396,9.47677576 46.4408134,9.855155 46.4408134,9.855155 L46.3957272,9.92096008 C46.3957272,9.92096008 45.7444807,9.80580118 45.8346533,10.4693358 L45.2034452,12.5750985 L41.7818967,13.556691 L40.5194805,14.911179 L40.5194805,15.0427891 C41.5377675,14.6859288 42.6091584,14.5463097 43.6755209,14.6315073 L44.9329275,16.5234035 L47.4878173,18.0862743 L49.606873,18.6949713 L51.0195768,19.2707658 C51.0195768,19.2707658 52.7328559,20.1426831 55.2226211,22.8571429 C55.2376498,22.8461753 55.2075923,21.3820122 52.6126258,18.2562707 Z" stroke="none" fill="#231F20" fill-rule="nonzero"></path>
                    <path d="M51.3977007,11.4285714 C51.2290365,11.5105699 51.0859055,11.627857 50.9809453,11.7700769 L50.9090909,12.6133004 L51.469555,13.5366302 L54.2862465,14.5442822 C55.4612869,15.1862568 56.8079671,15.5440175 58.1903343,15.5814471 C58.9394739,15.6123652 59.675569,15.4009092 60.2597403,14.9869746 C59.8251537,15.1369613 59.3612219,15.2100298 58.8945071,15.2019966 C58.0657867,15.2019966 57.3759847,14.9237328 55.6802214,13.7727327 C54.3704309,12.8359085 52.9315578,12.0482998 51.3977007,11.4285714 L51.3977007,11.4285714 Z" stroke="none" fill="#8B6728" fill-rule="nonzero"></path>
                    <path d="M60.0001155,13.5064935 C60.4878217,14.1088169 60.7555724,14.8286601 60.7674407,15.5694342 C60.8158911,16.216256 60.5933936,16.8562142 60.142401,17.3672038 C58.5217058,17.0374562 56.8659374,16.8611812 55.2030628,16.8413562 C53.7052526,16.8733455 52.2359183,17.2101514 50.9090909,17.8256351 C52.2460898,17.8027118 53.4258204,18.5950327 53.7598817,19.7402597 C56.3408325,18.3664926 59.3303283,17.7133122 62.3376623,17.8660849 C62.2157034,16.2435978 61.1079094,14.6525717 60.0001155,13.5064935 Z" stroke="none" fill="#8B6728" fill-rule="nonzero"></path>
                    <path d="M65.4488689,19.0816692 C65.4488689,19.0816692 65.567035,19.7402597 64.7251012,19.7402597 C63.7650013,19.7402597 62.3913198,18.8255507 60.1806282,18.8255507 C58.8524507,18.8240218 57.5320794,19.0770355 56.2663746,19.5756121 L56.1038961,19.5329257 C56.881753,18.9579908 57.7070494,18.4877962 58.5656908,18.1303718 C60.6926815,17.2705453 64.1933536,17.5998406 65.4488689,19.0816692 Z" stroke="none" fill="#231F20" fill-rule="nonzero"></path>
                    <path d="M43.918649,20.5670978 C39.7292531,19.291642 35.4703879,18.321355 31.1688312,17.6623377 C31.1688312,17.6623377 35.1528077,17.8091045 42.4758921,19.496923 C48.607609,20.7994786 56.9471812,23.7776221 59.9310649,25.7283978 C60.2917541,26.1686983 60.2589642,26.1136607 60.2589642,26.4805778 C60.2589642,26.8474949 59.8982749,27.0126076 59.6359555,27.0126076 C59.3736361,27.0126076 59.3736361,27.0492993 58.3079633,26.4010791 C57.2422906,25.752859 51.9467169,23.0560185 43.918649,20.5670978 Z" stroke="none" fill="#231F20" fill-rule="nonzero"></path>
                    <path d="M65.0246138,9.35064935 C64.9977448,9.42610462 64.9529633,9.43190887 64.9037035,9.46673438 C64.8523428,9.513364 64.7945854,9.54685438 64.7335336,9.56540666 C64.6171015,9.59442792 64.4738005,9.59442792 64.4155844,9.75114271 C64.460366,9.75114271 64.4782786,9.8846405 64.5006694,9.94268302 C64.5287636,10.0115126 64.5650316,10.0741898 64.6081452,10.1284191 C64.7131034,10.2307464 64.8091982,10.3475129 64.8947472,10.4766742 C64.8096622,10.4766742 64.7290554,10.4070231 64.6663612,10.3605891 C64.603667,10.3141551 64.4961912,10.3141551 64.4469315,10.2677211 C64.46035,10.4539147 64.5355231,10.6233648 64.6529267,10.7320612 C64.7963042,10.9064717 64.9698193,11.0338472 65.1589585,11.1035333 L65.3022595,11.1615759 C65.3604755,11.1615759 65.4231697,11.1615759 65.4813858,11.2080099 C65.5396018,11.2544439 65.6470776,11.3357034 65.7276844,11.3705289 C65.7709478,11.3904183 65.8161917,11.4021466 65.8620291,11.4053544 C65.8933762,11.4053544 65.9918957,11.4575927 66.0142865,11.4053544 C66.0366773,11.3531162 65.9829394,11.2312269 65.9695049,11.1964014 C65.9560704,11.1615759 65.8620291,11.0454908 65.8217257,10.9526228 C65.7814223,10.8597548 65.8485947,10.8249293 65.9471141,10.8771675 C66.034589,10.9386608 66.1184126,11.0085047 66.1978909,11.0861206 C66.2833543,11.1734755 66.3828079,11.234953 66.4889711,11.2660524 C66.5029482,11.0945708 66.4845045,10.9212568 66.4352332,10.7610825 C66.3891569,10.5691571 66.3212362,10.3872208 66.2337162,10.2212871 C66.1323955,10.0947267 66.0213569,9.98192465 65.9023325,9.8846405 C65.8476868,9.8343488 65.7891563,9.7915544 65.7276844,9.75694696 C65.6963373,9.75694696 65.6246868,9.68729594 65.5978179,9.69890445 C65.5709489,9.71051295 65.5619926,9.76855547 65.5306455,9.78596822 C65.4142134,9.85561924 65.3380848,9.72792571 65.288825,9.62925343 C65.2435482,9.54037225 65.1941999,9.45509017 65.1410459,9.37386636 L65.0246138,9.35064935 Z" stroke="none" fill="#231F20" fill-rule="nonzero"></path>
                    <path d="M60.7952061,7.27272727 C60.7952061,7.35619042 60.8290574,7.47918875 60.7952061,7.5450807 C60.7613548,7.61097266 60.6321044,7.5450807 60.5674793,7.48797434 C60.5028541,7.43086798 60.4228419,7.36497602 60.3982228,7.48797434 C60.3736037,7.61097266 60.4597706,7.67686462 60.4782349,7.75154218 C60.5306042,7.80952845 60.5556058,7.90469715 60.5428601,7.99753882 C60.5021332,8.01329193 60.4586195,7.99650453 60.4289967,7.95361085 C60.3618125,7.92438048 60.3026613,7.86604361 60.2597403,7.78668456 C60.2627649,7.84225822 60.2766226,7.89551519 60.2997463,7.94043246 C60.3227696,7.99898193 60.3542369,8.04988877 60.392068,8.08978757 L60.5920984,8.32699862 C60.6547814,8.43128892 60.7451628,8.49340691 60.841367,8.49831772 C60.9624508,8.49446661 61.0831262,8.5197112 61.1983442,8.57299527 C61.2692126,8.59855273 61.3313941,8.65928361 61.3737554,8.74431436 C61.4100087,8.84429898 61.4615429,8.9313726 61.5245475,8.99909661 C61.6118225,9.1118994 61.709075,9.20789361 61.8138222,9.28462843 C61.859983,9.31537801 62.0630908,9.41641235 62.0784777,9.28462843 C62.0491971,9.24257654 62.0270852,9.19147396 62.0138525,9.13527332 C61.9642312,9.06597131 61.9299847,8.97736744 61.9153761,8.88049108 C61.9153761,8.81020632 61.9153761,8.79263513 61.9584595,8.78384954 C61.9941624,8.77141745 62.0316307,8.7903956 62.0538586,8.83217031 C62.0969421,8.90684786 62.1184838,8.99909661 62.1584899,9.06938136 C62.2006932,9.13728473 62.2565971,9.1848576 62.3185141,9.20555808 C62.3615976,9.12648773 62.3185141,9.09573815 62.3185141,9.0034894 C62.3185141,8.91124066 62.3339011,8.8453487 62.3185141,8.78384954 C62.2967223,8.73966651 62.2669427,8.70474861 62.2323472,8.6828152 C62.2323472,8.6828152 62.1554125,8.65206562 62.1461803,8.63888723 C62.1369481,8.62570884 62.2138829,8.5202817 62.2477342,8.50710331 C62.2558913,8.38114075 62.2256109,8.25627279 62.1646446,8.16446512 C62.0949437,8.09802957 62.0395424,8.00526024 62.0046204,7.89650449 C61.94615,7.89650449 61.94615,7.97996764 61.9030665,8.01071722 C61.859983,8.0414668 61.8107448,7.97996764 61.7738161,7.93603966 C61.7032658,7.86077662 61.6373728,7.77700583 61.5768632,7.68565022 C61.5415366,7.61326284 61.492408,7.5568553 61.4353032,7.52311672 C61.3700779,7.50802543 61.3035756,7.50802543 61.2383503,7.52311672 C61.1802636,7.52705697 61.1230513,7.54487531 61.0690938,7.57583029 C61.0290877,7.57583029 60.9767721,7.61975826 60.9429208,7.57583029 C60.9090695,7.53190231 60.9244565,7.44404637 60.8906052,7.3913328 L60.7952061,7.27272727 Z" stroke="none" fill="#231F20" fill-rule="nonzero"></path>
                    <path d="M58.2471897,9.35064935 C58.2868901,9.39608049 58.3297459,9.43670945 58.3752161,9.4720233 C58.4103478,9.51624946 58.4511042,9.55237652 58.4957115,9.57883238 C58.5898485,9.70506129 58.382747,9.81187037 58.3337958,9.87012987 C58.2848445,9.92838937 58.1455217,10.083748 58.1907075,10.2293968 C58.2169992,10.2885186 58.2396613,10.3502031 58.2584861,10.4138852 C58.2584861,10.4915645 58.2584861,10.5886637 58.281079,10.666343 C58.3309763,10.8076411 58.4157021,10.9237083 58.5220698,10.9964802 C58.6124414,11.0353198 58.6350343,10.904236 58.687751,10.8508314 C58.7383922,10.8238577 58.7952601,10.8238577 58.8459013,10.8508314 C58.9069063,10.8767681 58.9701259,10.8930703 59.0341753,10.899381 C59.0718302,10.899381 59.3015245,10.899381 59.2186839,11.0207549 C59.1358433,11.1421289 59.007817,10.9819153 58.9400383,11.0595946 C58.9400383,11.1227091 59.0266444,11.1372739 59.0605337,11.1615487 C59.1078742,11.1935521 59.1521122,11.2326635 59.1923256,11.2780677 C59.2478387,11.3389333 59.315857,11.3777229 59.3881306,11.3897318 C59.4376556,11.4048148 59.4892249,11.4048148 59.5387499,11.3897318 C59.5877011,11.3897318 59.6291214,11.3363272 59.6743072,11.3169074 C59.7344855,11.3116349 59.794872,11.3116349 59.8550503,11.3169074 C59.9128107,11.2949222 59.9742676,11.2949222 60.032028,11.3169074 C60.0968266,11.3590572 60.1634613,11.3963408 60.2315985,11.4285714 C60.1999506,11.3676549 60.1734417,11.3025525 60.1525234,11.2343731 C60.1229624,11.1682154 60.1098218,11.0919735 60.1148686,11.0159 C60.133696,10.9382207 60.2315985,10.9624954 60.2541914,10.8702512 C60.2767843,10.778007 60.2240675,10.7440223 60.2090056,10.671198 C60.1980222,10.5918248 60.1660954,10.5197874 60.118634,10.4672897 C60.0809792,10.4235951 60.0357935,10.3799005 59.9981386,10.3313509 C59.9735039,10.2985918 59.9554126,10.2586048 59.9454219,10.2148319 C59.8886417,10.0705196 59.8060349,9.94570591 59.7044311,9.85071004 C59.6012171,9.76517535 59.4914376,9.69359075 59.3768342,9.63709188 C59.312821,9.59825222 59.2751662,9.54484768 59.1998565,9.53999272 C59.1245469,9.53513776 59.0454718,9.53999272 59.0379408,9.59339726 C59.0304099,9.6468018 59.0981885,9.71962617 59.109485,9.77788567 C59.1207814,9.83614516 59.0755956,9.90896954 59.000286,9.87983979 C58.9108152,9.82237517 58.8273169,9.75060382 58.7517642,9.66622163 C58.6915165,9.61767205 58.6312688,9.58368734 58.5672556,9.53999272 C58.5032424,9.49629809 58.4505257,9.41861876 58.3789815,9.37492414 L58.2471897,9.35064935 Z" stroke="none" fill="#231F20" fill-rule="nonzero"></path>
                    <path d="M56.1038961,10.4415362 C56.1038961,10.4415362 56.1038961,10.4146714 56.0838391,10.4146714 C56.0637821,10.4146714 56.0838391,10.4146714 56.0838391,10.4146714 C56.0838391,10.4146714 56.0102968,10.3116894 55.9935826,10.2758695 C55.9734049,10.2183824 55.9436752,10.1678407 55.9066689,10.1281127 C55.826441,10.0475181 55.7328416,9.97140101 55.6492708,9.89976136 C55.5571223,9.82188855 55.4766311,9.72166895 55.4119296,9.6042478 C55.3923734,9.55143944 55.3700312,9.50056573 55.345073,9.45201354 C55.3079818,9.40691754 55.2632279,9.37463972 55.2147025,9.35798649 C55.0943605,9.31768919 54.9539615,9.45201354 54.8804192,9.55051806 C54.8068768,9.64902258 54.7667628,9.75648206 54.6865348,9.7475271 C54.6063068,9.73857214 54.4692507,9.63559014 54.3522515,9.61768023 C54.3355374,9.85946406 54.5528215,9.84155414 54.623021,10.0116983 L54.6397352,10.0116983 C54.6397352,10.074383 54.6798492,10.1415452 54.6397352,10.1907974 C54.5996212,10.2400497 54.5193932,10.1907974 54.4692507,10.1505001 C54.4191082,10.1102028 54.422451,10.1102028 54.3957084,10.0967704 C54.3689657,10.083338 54.3489087,10.0385632 54.3188232,10.0161758 C54.2927811,10.0048796 54.2642875,10.0106765 54.2419241,10.0318206 C54.2195607,10.0529647 54.205941,10.0869849 54.2051669,10.1236353 C54.2051669,10.1594551 54.2319095,10.1907974 54.2352524,10.2310947 C54.2387482,10.2682602 54.2387482,10.3058663 54.2352524,10.3430317 C54.2345424,10.4017369 54.2192519,10.4584525 54.1917955,10.5042209 C54.1550244,10.5579507 54.101539,10.5848155 54.1082247,10.6743651 C54.1149104,10.7639147 54.2085097,10.8086894 54.261995,10.8534642 C54.3154804,10.898239 54.3589372,10.9295814 54.3723085,10.992266 C54.3824886,10.9962233 54.3908984,11.0058724 54.3953811,11.0187385 C54.3998637,11.0316045 54.399983,11.0464358 54.3957084,11.0594282 C54.3388802,11.0997255 54.2653379,11.0325634 54.2051669,11.0146534 C54.1484537,11.0078051 54.0913955,11.0078051 54.0346824,11.0146534 C53.981197,11.1579327 54.1884527,11.301212 54.2653379,11.3370319 C54.3840134,11.3798988 54.5069111,11.3980212 54.6297067,11.3907616 C54.7132775,11.3907616 54.7868198,11.422104 54.8703907,11.4265814 C54.9539615,11.4310589 55.0141325,11.4265814 55.0876748,11.4265814 C55.1507307,11.4185083 55.2120265,11.394182 55.2681878,11.3549418 C55.3243223,11.3154963 55.371622,11.2567775 55.405244,11.1847976 C55.4687578,11.0683832 55.5489858,10.9609237 55.6191853,10.8489867 C55.6893848,10.7370498 55.7963555,10.6385453 55.7127846,10.5042209 C55.6733691,10.4560293 55.6308624,10.4125792 55.585757,10.3743741 C55.5523286,10.3430317 55.4888148,10.2400497 55.5356145,10.1818425 C55.5824141,10.1236353 55.6492708,10.1818425 55.6760135,10.1818425 C55.7264744,10.217304 55.7755652,10.2561583 55.8230981,10.2982569 C55.8566775,10.3198067 55.8881198,10.3468804 55.9166974,10.3788515 C55.9523434,10.4057224 55.9891834,10.4296469 56.0270109,10.4504912 L56.1038961,10.4415362 Z" stroke="none" fill="#231F20" fill-rule="nonzero"></path>
                    <path d="M56.1038961,8.27223416 C56.1193524,8.30482057 56.1451128,8.32654484 56.157993,8.35370018 C56.1708732,8.38085552 56.2198181,8.46232153 56.2352743,8.48947687 C56.2582259,8.54425942 56.2832063,8.59510948 56.3099796,8.64154676 L56.3846849,8.75559918 C56.4052932,8.79904773 56.449086,8.81534093 56.4619662,8.88594481 C56.5143263,8.90406591 56.5648475,8.94079476 56.6113767,8.99456616 L56.7530591,9.10318751 C56.8817657,9.20187065 57.0179918,9.24973818 57.154922,9.24439527 C57.1672332,9.13492375 57.1559138,9.01957804 57.1240094,8.92939335 C57.0905209,8.84249627 57.039,8.76646132 57.036424,8.64697783 C57.1162813,8.56008075 57.2347793,8.82620306 57.2940283,8.92939335 C57.3532773,9.03258363 57.451167,9.2063778 57.5207202,9.33672342 C57.558859,9.35529133 57.5985033,9.35529133 57.6366422,9.33672342 C57.685587,9.30413702 57.688163,9.24982634 57.7190756,9.18465353 C57.7860527,9.0380147 57.8968226,9.07060111 57.9766799,9.06517004 C58.0677211,9.07510814 58.1499675,8.95125104 58.1750353,8.76646132 C58.1840791,8.67694762 58.1840791,8.58442164 58.1750353,8.49490794 C58.1631275,8.41807746 58.1448077,8.34634764 58.1209384,8.2830963 C58.0857959,8.18207023 58.0421346,8.09554235 57.9921362,8.02783612 C57.9431914,7.95180117 57.8349975,7.88662836 57.8066611,7.76714487 C57.7783246,7.64766139 57.8556059,7.62050605 57.9019747,7.64766139 C57.9483435,7.67481672 58.0024404,7.82688662 58.0436571,7.75628274 C58.0436571,7.70197206 57.9921362,7.66395459 57.9689518,7.62593711 C57.9457674,7.58791964 57.9071268,7.51731576 57.8787903,7.45757402 C57.8249806,7.33588962 57.7490145,7.26866233 57.6701307,7.27291772 C57.5905592,7.28446216 57.5118925,7.31544565 57.4357107,7.36524587 C57.3867659,7.36524587 57.2347793,7.36524587 57.2090189,7.44128081 C57.2476596,7.52274683 57.4279826,7.73998954 57.389342,7.90835263 C57.3713097,7.98438758 57.2863002,7.98438758 57.2579637,7.95180117 C57.2296272,7.91921477 57.216747,7.86490409 57.1935626,7.83231769 C57.1703782,7.79973128 57.1214334,7.77257594 57.1085532,7.71826526 C57.0724617,7.67506783 57.0380114,7.6260416 57.0055114,7.57162644 C56.9679542,7.52566282 56.9292583,7.48396514 56.8895895,7.44671188 C56.7999653,7.37573206 56.7027331,7.35880591 56.6088007,7.39783227 C56.5628201,7.42350717 56.5186465,7.46185531 56.4774225,7.51188469 C56.4387818,7.56619537 56.4104453,7.64766139 56.3692286,7.69654099 C56.3203526,7.73631103 56.2737026,7.78730839 56.2301223,7.84861089 C56.1863295,7.9300769 56.2430025,8.00068078 56.271339,8.07128466 C56.2996754,8.14188854 56.330588,8.16904388 56.3511963,8.23421669 C56.3718047,8.2993895 56.3511963,8.36456231 56.3769567,8.42973513 C56.3175637,8.45622155 56.2559375,8.41497512 56.214666,8.32111377 L56.1038961,8.27223416 Z" stroke="none" fill="#231F20" fill-rule="nonzero"></path>
                    <path d="M51.2643122,7.44620063 C51.291637,7.42043625 51.3562227,7.51061157 51.3760952,7.54067001 C51.3959677,7.57072846 51.4531012,7.62225721 51.4655215,7.66519784 C51.5002984,7.7854316 51.3537386,7.86272474 51.3115095,7.90995943 C51.2692804,7.95719412 51.1699178,8.00872288 51.1475612,8.11607445 C51.1252046,8.22342603 51.2146309,8.33507167 51.2245672,8.44242324 C51.2307777,8.49049721 51.2307777,8.54034741 51.2245672,8.58842138 C51.1610469,8.58970692 51.0993607,8.55162357 51.0506826,8.48106981 C51.0050484,8.43445105 50.9577571,8.39285905 50.9090909,8.35654198 C50.9090909,8.46389356 50.9960332,8.58842138 51.0506826,8.61847982 C51.065587,8.68289077 51.1301727,8.70865515 51.1624656,8.74730171 C51.1947584,8.78594828 51.2345035,8.86324141 51.2245672,8.94053455 C51.2146309,9.01782768 51.1475612,8.98776924 51.1053321,8.94053455 C51.0647621,8.89154793 51.0155274,8.8687508 50.9662244,8.8761236 C50.9662244,8.94912267 50.9264794,8.98776924 50.9413838,9.06506238 C50.9562881,9.14235551 50.988581,9.16382582 51.0109376,9.21106052 C51.0342814,9.28104579 51.0742561,9.3297313 51.1202365,9.34417647 C51.1756016,9.35280698 51.2313037,9.35280698 51.2866688,9.34417647 C51.3736111,9.34417647 51.4630375,9.34417647 51.5499797,9.34417647 C51.5909381,9.33726459 51.6315957,9.3257899 51.6716989,9.30982397 C51.7164121,9.30982397 51.7561572,9.24111896 51.7959022,9.21964864 C51.8356472,9.19817833 51.8455835,9.21964864 51.8381313,9.13376738 C51.8320398,9.07830624 51.8211536,9.02474609 51.8058385,8.97488705 C51.7834819,8.91047611 51.6990237,8.82888891 51.7015077,8.75588984 C51.7660934,8.72153734 51.7959022,8.79453641 51.8455835,8.85035923 C51.8872778,8.89647943 51.9324037,8.93259357 51.979723,8.9577108 C52.0832157,8.99631462 52.1911363,8.97675632 52.2877471,8.90188798 C52.3803641,8.826563 52.4644798,8.72332473 52.5361536,8.59700951 C52.6032234,8.49824606 52.7075541,8.54118669 52.7845602,8.44242324 C52.8615662,8.34365979 52.7646877,8.24489634 52.7547514,8.15042696 C52.7448151,8.05595757 52.7671717,8.04736945 52.8118849,8.04307538 C52.8332536,8.03666237 52.8551018,8.03666237 52.8764706,8.04307538 C52.9013112,8.04307538 52.9137316,8.08601601 52.9360882,8.09460414 C52.9584447,8.10319227 52.9783173,8.04736945 52.9832854,7.98725256 C52.9882555,7.9159427 52.9882555,7.84385928 52.9832854,7.77254942 C52.9658969,7.62655127 52.854114,7.56214033 52.7870442,7.49772938 C52.7199745,7.43331844 52.6429685,7.37749562 52.5684465,7.3216728 C52.4797693,7.26899756 52.384518,7.25861388 52.2927153,7.29161436 C52.322524,7.32596686 52.3274922,7.36461343 52.3498488,7.40755406 C52.3722053,7.45049469 52.3895938,7.45049469 52.3920779,7.47196501 C52.3945619,7.49343532 52.3125878,7.52349376 52.2877471,7.51490564 C52.1883845,7.46767094 52.1163466,7.26584998 52.0095318,7.37320156 C51.9745454,7.41464118 51.9420858,7.46211979 51.9126533,7.51490564 C51.871226,7.55104491 51.8239023,7.56164938 51.7785137,7.54496408 C51.7340348,7.53464917 51.6900381,7.51886424 51.6468583,7.49772938 C51.6021451,7.49772938 51.5524638,7.49772938 51.5102347,7.45908282 C51.4796002,7.4365233 51.4466545,7.42484099 51.4133562,7.42473031 L51.2643122,7.44620063 Z" stroke="none" fill="#231F20" fill-rule="nonzero"></path>
                    <path d="M45.2984879,9.35064935 C45.2962541,9.3067769 45.263893,9.2670879 45.2134242,9.24632379 C45.149452,9.21770579 45.0907982,9.18261535 45.0390437,9.14199823 C44.9837523,9.09309562 44.8051186,8.94964798 44.907195,8.88770467 C44.9493262,8.87131527 44.9934971,8.85820888 45.0390437,8.84858259 L45.1411201,8.80620033 C45.1954371,8.78357719 45.2479826,8.75853983 45.2984879,8.73121633 C45.4133238,8.67905355 45.464362,8.59428904 45.5536789,8.51930504 C45.6111327,8.47769997 45.6573741,8.42785515 45.6897807,8.37259722 C45.723656,8.31949297 45.7787972,8.27608347 45.8471485,8.24871062 C45.9875036,8.18676731 46.1406182,8.31717426 46.2724669,8.32695479 C46.1755186,8.28407948 46.1168099,8.20407641 46.1193523,8.11830366 C46.1400594,8.06836195 46.1882319,8.02786303 46.251201,8.00745776 C46.3294016,7.98043467 46.404765,7.94882581 46.4766197,7.91291272 C46.7105448,7.80206681 46.901938,7.52169186 46.5914556,7.38802474 C46.4824299,7.33002566 46.3471553,7.30881604 46.2171755,7.32934161 C46.1746437,7.32934161 46.1321118,7.37172387 46.08958,7.38476457 C46.027711,7.4051856 45.9612791,7.41625555 45.8939335,7.4173663 C45.738567,7.42194025 45.5832996,7.4065122 45.4345897,7.37172387 C45.3537793,7.35216283 45.2602092,7.34564248 45.1751455,7.31956109 C45.0771235,7.28379813 44.9687012,7.26807491 44.86041,7.27391866 C44.86041,7.30326022 44.9157014,7.29673987 44.9369673,7.31304074 C44.9540417,7.33429806 44.9669395,7.35736669 44.9752459,7.38150439 C45.0135246,7.45648839 44.9752459,7.47604943 44.8816759,7.48582995 C44.7881059,7.49561047 44.558434,7.44996804 44.4988894,7.58689534 C44.4393448,7.72382264 44.2394452,7.70752177 44.0310392,7.70752177 C43.9629883,7.70752177 43.886431,7.70752177 43.886431,7.75968455 C43.886431,7.81184733 43.9587351,7.84770924 44.0140265,7.87705081 C44.1841538,7.9650755 44.350028,8.02375862 44.4393448,8.18024697 C44.5286617,8.33673531 44.3755471,8.26501148 44.2692175,8.21610888 C44.1693095,8.16211843 44.0640811,8.11415829 43.9544819,8.07266123 C43.7843546,8.01723828 43.6227336,7.94225428 43.4483531,7.8900915 C43.3045698,7.86416188 43.1533899,7.87922671 43.0230347,7.93247376 C42.9010413,7.97064147 42.7940596,8.03242548 42.7125524,8.11178332 C42.6530078,8.18350714 42.5636909,8.33347513 42.6104759,8.41497948 C42.6875089,8.52458267 42.8022449,8.61591334 42.9422243,8.67905355 C43.0002984,8.70977367 43.0531604,8.74591318 43.099592,8.78663929 C43.1341865,8.82528743 43.1547381,8.87029699 43.1591366,8.91704624 C43.0757781,8.92110824 42.9921562,8.91337224 42.912452,8.89422502 C42.8741733,8.89422502 42.6827801,8.83228172 42.6827801,8.89422502 C42.7593374,8.89422502 42.8358947,8.98224971 42.912452,9.0083311 C42.9737535,9.02195356 43.0334976,9.0393994 43.0910857,9.06049388 C43.1463771,9.0833151 43.2101748,9.12895753 43.2867321,9.12243719 C43.2186812,9.22676275 43.6865314,9.2072017 43.7588355,9.2072017 C43.8942733,9.22083827 44.0320099,9.20736015 44.1586347,9.16807962 C44.2224325,9.1452584 44.2777238,9.16807962 44.2862302,9.0963558 C44.2919008,9.05750518 44.2798805,9.01834619 44.2522047,8.98550989 C44.2266856,8.94964798 44.1841538,8.87140381 44.2522047,8.84532242 C44.3202557,8.81924103 44.443598,8.91704624 44.4861298,8.9463878 C44.577674,9.01427337 44.677355,9.07539981 44.7838527,9.12895753 C44.8635444,9.17093288 44.9474533,9.2079977 45.0347905,9.23980344 L45.2984879,9.35064935 Z" stroke="none" fill="#231F20" fill-rule="nonzero"></path>
                    <path d="M37.0027324,6.23376623 C37.0027324,6.1788906 37.0231377,6.10343661 37.0231377,6.04170152 L37.0231377,5.86678544 C37.0231377,5.86678544 37.0231377,5.80162063 37.0231377,5.78790172 C37.0231377,5.77418282 37.0690496,5.75360445 37.0818029,5.74331527 C37.1222312,5.71181547 37.1613957,5.6774705 37.1991334,5.64042346 C37.2635711,5.56431382 37.3126975,5.46758681 37.3419706,5.35918585 C37.3889239,5.24403809 37.4093448,5.11271323 37.4006358,4.98191588 C37.3840726,4.91963492 37.3627003,4.85985978 37.3368693,4.80357007 C37.3211876,4.75591246 37.2976354,4.71368672 37.2680014,4.6800999 C37.1964374,4.60024838 37.1059122,4.55764502 37.012935,4.56005946 C36.9201406,4.54276622 36.825735,4.54975384 36.7349128,4.58063782 C36.6919226,4.60338264 36.6458918,4.6138931 36.5997276,4.61150536 C36.5385117,4.61150536 36.5104544,4.56691891 36.4798465,4.5017541 C36.455144,4.45181947 36.4338039,4.39902103 36.4160799,4.34398665 C36.4007759,4.2994002 36.3931239,4.24452457 36.37782,4.20336785 C36.362516,4.16221112 36.3115027,4.1210544 36.3064014,4.20336785 C36.3103214,4.22780164 36.3154337,4.25186179 36.3217054,4.27539211 C36.323272,4.31080132 36.323272,4.34630444 36.3217054,4.38171365 C36.3627564,4.59684746 36.3833262,4.81811951 36.3829213,5.04022124 C36.3829213,5.06422933 36.3829213,5.08480769 36.3676173,5.09509687 C36.3523133,5.10538605 36.3140534,5.04365096 36.2936481,5.01278342 L36.2273308,4.88588352 C36.1763176,4.77613226 36.143159,4.66981072 36.0513351,4.628654 C35.9675731,4.61023888 35.8819852,4.64151197 35.8166741,4.71439717 C35.7543806,4.75989655 35.6969039,4.81641874 35.6457797,4.88245379 C35.5878191,4.95786872 35.5619408,5.06741507 35.5769118,5.17398059 C35.5947664,5.2768724 35.6712863,5.35232639 35.6763876,5.46550738 C35.6763876,5.63013428 35.5233478,5.46550738 35.4850879,5.42435066 C35.426461,5.3612256 35.3756648,5.28597692 35.3345988,5.20141841 C35.3168289,5.31576126 35.3230098,5.43449222 35.3524534,5.54439111 C35.3863783,5.67026624 35.4374081,5.78656572 35.5029425,5.88736381 C35.5361012,5.9250908 35.5769118,5.9628178 35.6100704,5.99368534 C35.6525821,6.02487052 35.6969459,6.05125573 35.7427049,6.07256906 C35.8407123,6.1455496 35.9560781,6.16401693 36.0640884,6.12401497 C36.2047053,6.02036716 36.3524901,5.93536659 36.5053531,5.87021517 C36.5924748,5.84438156 36.6836415,5.86399541 36.7604194,5.9250908 C36.7987476,5.95810687 36.8346224,5.99600876 36.8675473,6.03827179 C36.8905032,6.06570961 36.9211112,6.15488251 36.9440671,6.16860142 L37.0027324,6.23376623 Z" stroke="none" fill="#231F20" fill-rule="nonzero"></path>
                    <path d="M40.270105,10.9695996 C40.1929751,10.897013 40.0894793,10.836727 39.967977,10.7936108 C39.9056331,10.7757136 39.8145151,10.745885 39.876859,10.6892107 C39.9392029,10.6325363 39.9919554,10.6414849 40.0399122,10.6146391 C40.1555014,10.5460695 40.2455331,10.4625805 40.3036748,10.3700445 C40.3453865,10.3249145 40.3622279,10.2725386 40.3516316,10.2209015 C40.3225137,10.1790882 40.2819475,10.140736 40.2317395,10.1075528 C40.1860475,10.0796298 40.1572506,10.0427535 40.1502129,10.0031527 C40.2749007,9.94647831 40.4091798,10.0538613 40.5194805,10.0687756 C40.4907064,10.038947 40.4715237,10.0031527 40.4427496,9.97630692 C40.3992746,9.93816309 40.336974,9.90988588 40.2653093,9.89576967 C40.1981698,9.87787251 40.1166431,9.85400962 40.1406216,9.79435241 C40.1646,9.73469519 40.255718,9.74960949 40.3036748,9.71978088 C40.3516316,9.68995228 40.3324489,9.67802083 40.3420402,9.64520936 C40.3516316,9.61239789 40.3660187,9.58555215 40.3420402,9.56467212 C40.3180618,9.54379209 40.2125568,9.49308346 40.1598043,9.47518629 L39.9487942,9.39763191 C39.9008374,9.37973475 39.7809453,9.34095756 39.7186015,9.352889 C39.5219784,9.39464905 39.8145151,9.65117508 39.4788173,9.5050149 C39.3306999,9.44262501 39.1692799,9.39342831 38.999249,9.35885472 C38.8330011,9.33897648 38.6608483,9.36039189 38.5196807,9.41851194 C38.3464497,9.47562901 38.1650254,9.52256407 37.9777685,9.5587064 C37.8926143,9.57115023 37.8125764,9.5945176 37.74278,9.6273122 C37.6516621,9.68100369 37.74278,9.70486658 37.7763498,9.75259235 C37.8199567,9.79603841 37.8599727,9.84083952 37.8962419,9.88682109 C37.9403651,9.92364758 37.9608788,9.96936836 37.9537901,10.0150841 C37.8145339,9.99614845 37.6793305,9.96711565 37.5509527,9.92858114 L37.3687168,9.89875253 C37.2775988,9.88085537 37.244029,9.87488965 37.1864808,9.92559828 C37.1289326,9.97630692 37.1577067,10.0240327 37.1193412,10.0717585 C37.0809758,10.1194842 36.9898578,10.1403643 36.9179225,10.1552786 C36.8096412,10.1847695 36.7053917,10.2196844 36.6062032,10.2596787 C36.5266495,10.2798955 36.4559667,10.3115904 36.3999888,10.3521474 C36.2992794,10.4565475 36.4287629,10.5669134 36.5342679,10.6295534 C36.6397729,10.6921935 36.7740521,10.7429022 36.7404823,10.8264223 C36.6493643,10.8264223 36.4431499,10.8025594 36.3856017,10.853268 C36.4211233,10.8696982 36.4547735,10.8876383 36.4863111,10.9069595 C36.563042,10.9427538 36.6445686,10.9636339 36.7212995,10.9964453 C36.7980305,11.0292568 36.9514923,11.0739997 37.047406,11.1217255 C37.1433197,11.1694513 37.1672981,11.1843656 37.0761801,11.1992799 C36.9850621,11.2141942 36.8603744,11.1992799 36.759665,11.1992799 C36.759665,11.1992799 36.7980305,11.1992799 36.8172132,11.2201599 C36.8363959,11.2410399 36.8795571,11.2649028 36.9131269,11.2768342 C36.9789556,11.2892362 37.0463267,11.2982156 37.1145456,11.30368 C37.2573479,11.3185589 37.3983495,11.3394876 37.5365657,11.3663201 C37.728393,11.4140458 37.9489944,11.4677373 38.1264347,11.3872001 C38.030521,11.3693029 37.74278,11.3126286 37.8099196,11.2112113 C37.8482851,11.154537 37.9873599,11.1903313 38.0401124,11.2112113 C38.11844,11.2485041 38.2018863,11.2814424 38.2894879,11.3096457 C38.6683469,11.4200116 38.9608835,11.1396226 39.1814849,11.0113596 C39.2718786,10.9397626 39.3909584,10.8842128 39.5267741,10.8502851 C39.6466662,10.832388 39.9296115,10.8294051 40.0063424,10.9188909 L40.270105,10.9695996 Z" stroke="none" fill="#231F20" fill-rule="nonzero"></path>
                    <path d="M16.8100317,21.2766483 C16.7271289,21.2816926 16.6440377,21.2816926 16.5611349,21.2766483 C16.4751524,21.2766483 16.4027461,21.1866703 16.3303398,21.1916691 C16.1581721,20.9990957 15.9344327,20.8728946 15.6922592,20.831757 C15.4627469,20.7617087 15.2203352,20.7617087 14.990823,20.831757 C14.7858959,20.9922543 14.6056062,21.1880281 14.4568264,21.4116153 C14.3658507,21.5203193 14.2854612,21.6392761 14.2169805,21.7665286 C14.1525575,21.9246472 14.1127777,22.0936508 14.0993202,22.2664066 C14.0359647,22.6163211 13.7463394,22.5063479 13.5064935,22.641315 C13.6875093,22.641315 13.8775759,22.641315 14.0585917,22.641315 C14.2396075,22.641315 14.474928,22.641315 14.5111311,22.7512881 C14.3934709,22.8412661 14.1717265,22.86626 14.0585917,23.026221 C14.1174218,23.0812075 14.1717265,23.0812075 14.2169805,23.1561892 C14.2646833,23.2476921 14.3026471,23.3449814 14.3301153,23.4461184 C14.351287,23.6119238 14.351287,23.7801909 14.3301153,23.9459963 C14.3256138,24.1613793 14.3346865,24.3768473 14.3572677,24.5908388 C14.3748105,24.7902894 14.4081239,24.9876612 14.4568264,25.1806947 C14.6854043,25.1307199 14.9206338,25.1307199 15.1492118,25.1806947 C15.1220594,25.2706728 14.990823,25.310663 14.9138913,25.3606508 L14.6152152,25.5606019 C14.5081599,25.6239963 14.4286708,25.7322686 14.394627,25.8610657 C14.3605832,25.9898629 14.3748431,26.1283705 14.4341994,26.2454347 C14.5194793,26.4883995 14.6797681,26.6902434 14.8867389,26.8152955 C15.1161128,26.9601241 15.3787595,27.0278769 15.6424798,27.0102479 C16.1447986,26.9452637 16.4298985,26.2554322 16.7512015,25.9055177 C16.9638951,25.6805726 17.2716219,25.6205873 17.4435869,25.3306581 C17.6104856,25.0315774 17.6851137,24.6807916 17.6562805,24.3309023 C17.6259229,24.1872093 17.5705942,24.051395 17.4933663,23.931 C17.4020707,23.8162018 17.2850077,23.7299962 17.1539617,23.681061 C17.0083321,23.6023356 16.8357024,23.6156838 16.7014222,23.7160525 C16.5780685,23.7644892 16.4507657,23.7996441 16.321289,23.8210268 C16.4074064,23.7049025 16.5116207,23.6067155 16.6290159,23.5310977 C16.6787952,23.4961062 16.8281332,23.4361209 16.859811,23.3811343 C16.8799372,23.2739682 16.8799372,23.1633797 16.859811,23.0562136 C16.8307936,22.9462711 16.7814885,22.8441533 16.7149984,22.7562869 C16.6003393,22.5562118 16.5162515,22.336668 16.4661017,22.1064456 C16.454673,22.0029929 16.425491,21.9028961 16.3801192,21.8115177 C16.3167636,21.7315372 16.1855272,21.6365604 16.1040701,21.7015445 C16.1629002,21.5565799 16.5566096,21.4965946 16.687846,21.4316105 L16.8100317,21.2766483 Z" stroke="none" fill="#231F20" fill-rule="nonzero"></path>
                    <path d="M21.4542028,15.9419369 C21.4542028,15.8783776 21.3131252,15.787011 21.2831087,15.7512589 C21.2149437,15.6947187 21.1379669,15.6594027 21.0579848,15.6479749 C20.9891581,15.6154207 20.9175925,15.5940772 20.8448676,15.5844156 C20.7608213,15.5844156 20.7428114,15.6559199 20.6797767,15.7115343 C20.5356974,15.8426254 20.3586,15.7115343 20.2115191,15.787011 C20.0817418,15.8570273 19.9848147,16.0044706 19.9503754,16.184257 C20.0074067,16.184257 20.0044051,16.2200091 20.0464282,16.2438438 C20.0687123,16.256027 20.0918319,16.2653391 20.1154662,16.2716511 C20.1791963,16.2937942 20.2446949,16.3057964 20.3105736,16.3074032 C20.3223185,16.3358755 20.3223185,16.3702975 20.3105736,16.3987698 C20.2655488,16.3987698 20.2115191,16.4305494 20.160491,16.4345219 C20.1086356,16.4424698 20.0562604,16.4424698 20.0044051,16.4345219 C19.9383688,16.4345219 19.7822829,16.3193206 19.7402597,16.4345219 C19.8333109,16.5457508 19.7402597,16.6371173 19.7402597,16.7602636 C19.7641475,16.9028713 19.8090259,17.0378556 19.8723324,17.1575095 L19.8963456,17.1575095 C19.9263621,17.3402426 20.091453,17.4792787 20.1965108,17.5547554 C20.3059648,17.5985619 20.4186852,17.6265325 20.5326958,17.6381771 C20.6089624,17.6561202 20.6863767,17.6641035 20.763823,17.6620118 C20.763823,17.5547554 20.694785,17.5110584 20.625747,17.4753063 C20.556709,17.4395541 20.4216347,17.3958571 20.4996776,17.3124354 C20.5777206,17.2290138 20.7368081,17.3362702 20.7998428,17.3481876 C20.8628775,17.3601049 20.9769402,17.403802 21.0729931,17.4117469 C21.2170724,17.4117469 21.4241863,17.4753063 21.5322458,17.3362702 C21.5810969,17.2514712 21.6223924,17.1594966 21.6553135,17.0621705 C21.7033399,16.9708039 21.7933895,16.9310793 21.8113994,16.8238229 C21.8204426,16.7301889 21.8204426,16.6354123 21.8113994,16.5417783 C21.8113994,16.4186321 21.7603713,16.3789075 21.7183482,16.2835684 C21.660289,16.238764 21.6041704,16.1896935 21.5502557,16.1365874 C21.4981886,16.0936463 21.4374294,16.0728505 21.3761599,16.0770005 C21.3161269,16.0770005 21.2170724,16.0770005 21.1810525,16.037276 C21.1450327,15.9975514 21.1810525,15.9181022 21.2350823,15.890295 L21.4542028,15.9419369 Z" stroke="none" fill="#231F20" fill-rule="nonzero"></path>
                    <path d="M27.012987,14.5843334 C26.9553204,14.5557596 26.874587,14.5843334 26.788087,14.5843334 C26.7028233,14.5679769 26.6215723,14.5468884 26.545887,14.5214711 C26.3785665,14.4736515 26.1947492,14.4416761 26.0038204,14.4271776 C25.9634538,14.3443137 25.9115538,14.3157399 26.0038204,14.2414481 C26.0919672,14.1899261 26.1603687,14.1308557 26.2056537,14.067148 C26.2737354,13.9344583 26.2021769,13.793704 26.0153537,13.6928316 C25.5188128,13.5364755 24.9240101,13.4754981 24.3430205,13.5213889 C24.3949205,13.5556774 24.4814205,13.567107 24.5448539,13.6013955 C24.6082872,13.635684 24.6371205,13.6814021 24.7812872,13.6785447 C24.821359,13.7018751 24.8455725,13.7308698 24.8504872,13.7614086 L24.8908538,13.7614086 C24.9773538,13.8785611 24.0892872,13.8014119 23.9508872,13.7985545 C23.8556463,13.7897685 23.7573339,13.8011696 23.6798539,13.8299857 C23.5991206,13.8614169 23.5875873,13.915707 23.4895539,13.9471382 C23.3915206,13.9785693 23.1723873,14.0071431 23.0339873,14.0557185 C22.7914962,14.1514388 22.5212718,14.2285012 22.2324207,14.2843087 C22.0940207,14.3071678 21.9094874,14.3185973 21.9902207,14.4100334 C22.070954,14.5014695 22.2035873,14.5214711 22.2727873,14.558617 C22.2989805,14.562973 22.3273275,14.562973 22.3535207,14.558617 C22.3737796,14.5962677 22.3341977,14.6354933 22.261254,14.6500531 C22.1343874,14.6843416 22.0248207,14.6271941 21.9210207,14.5986203 L21.4596874,14.4643235 C21.4170354,14.5437886 21.4271452,14.6279464 21.4885207,14.7043433 C21.4885207,14.7472039 21.5692541,14.7814925 21.5634874,14.8243531 C21.5577207,14.8672138 21.4885207,14.8957876 21.4250874,14.9329335 C21.1194541,15.1300925 22.001754,15.1472368 22.1805207,15.2615319 C21.9786874,15.3329664 21.6384541,15.2615319 21.4366207,15.2386729 C21.223413,15.2029626 20.9924285,15.2029626 20.7792208,15.2386729 C21.1365416,15.3430316 21.5262494,15.417375 21.932554,15.458691 C22.154999,15.4856645 22.3802288,15.5066493 22.607254,15.5215533 C22.796375,15.5489663 22.9890425,15.5699689 23.1839206,15.5844156 C23.3612372,15.583161 23.5383104,15.5774388 23.7144539,15.5672713 C23.873708,15.5631766 24.024007,15.5295107 24.1354205,15.4729779 C24.2489584,15.4201479 24.4007964,15.392321 24.5563872,15.3958287 C24.7133361,15.4060377 24.8723049,15.4060377 25.0292538,15.3958287 C25.2426205,15.3643975 25.6059204,15.2758188 25.6059204,15.1558089 C25.6059204,15.0357991 25.3060538,14.9643646 25.4790538,14.8243531 C25.5482538,14.770063 25.6174538,14.7643482 25.7212538,14.7357744 C25.8250538,14.7072006 25.8769538,14.6700547 25.9634538,14.6443383 C26.1700756,14.5931695 26.4103739,14.5869573 26.6266204,14.6271941 L27.012987,14.5843334 Z" stroke="none" fill="#231F20" fill-rule="nonzero"></path>
                    <path d="M31.0969614,17.2540517 C30.995924,17.2315767 30.9036725,17.3529418 30.8070281,17.3709218 C30.68776,17.3910456 30.5660761,17.3910456 30.446808,17.3709218 C30.2198896,17.3251568 30.014324,17.2033797 29.8625486,17.0248065 C29.5814012,16.6831861 29.4540063,16.2516656 29.1508942,15.9325203 C29.0718215,15.8426202 28.9312478,15.7796901 28.8961044,15.67181 C28.7028182,15.6282863 28.5053562,15.6071765 28.3074521,15.60888 C28.2327723,15.60888 27.8681593,15.5234749 27.8681593,15.67181 C27.9867683,15.67181 28.5314914,15.8246402 28.3469884,16.0538854 C28.2152006,16.2112106 27.7363714,16.0538854 27.5518684,16.0898455 C27.3673655,16.1258055 27.393723,16.2471706 27.3410079,16.3775258 C27.2882928,16.5078809 27.2311847,16.606771 27.1784696,16.7191461 C27.1257544,16.8315213 26.9544302,17.2585467 27.0335029,17.4158719 C27.1125756,17.573197 27.2795069,17.4743069 27.3805443,17.505772 C27.4878623,17.5253191 27.5915864,17.561708 27.6880492,17.6136521 C27.5566754,17.7160734 27.4076571,17.7923139 27.2487564,17.8384023 C27.090611,18.1800227 27.6880492,18.526138 27.9033027,18.7014432 C28.008733,18.7913433 28.188843,18.8902334 28.2459511,19.0205886 C28.3294167,19.2318538 28.1009844,19.2992789 27.9560178,19.3756939 C27.9560178,19.488069 28.1580925,19.5420091 28.2327723,19.5689791 C28.3132097,19.601004 28.397385,19.6221591 28.4831692,19.6319092 C28.5646696,19.6442261 28.6443549,19.6668752 28.7203873,19.6993343 C28.996615,19.7752476 29.2904599,19.7448605 29.5462578,19.6139292 C29.6560179,19.5415999 29.7809723,19.4969266 29.9108708,19.483574 C30.0558374,19.483574 30.200804,19.483574 30.3501636,19.483574 C30.5767169,19.4450338 30.7960477,19.3707302 31.0003169,19.2633188 C31.1101401,19.2048838 31.180427,19.1599337 31.1672482,19.0385686 C31.1490406,18.9239593 31.1004134,18.8166705 31.0266745,18.7284132 C30.9432089,18.6160381 30.8377786,18.508158 30.74992,18.4002779 C30.6620615,18.2923978 30.5742029,18.2654278 30.5039161,18.1890127 C30.4457456,18.1246463 30.4022377,18.0478895 30.3765212,17.9642624 C30.3369848,17.8339073 30.3765212,17.7754722 30.4819514,17.7260272 C30.5873817,17.6765821 30.8289927,17.519257 31.0222816,17.4383469 L31.0969614,17.2540517 Z" stroke="none" fill="#231F20" fill-rule="nonzero"></path>
                    <path d="M35.1644243,17.0230463 C35.044236,16.9988245 34.9614396,16.8938635 34.8439221,16.8696417 C34.8349511,16.8432466 34.8295059,16.8144401 34.827897,16.7848655 C34.9041996,16.7237358 34.9931298,16.7092824 35.0762862,16.7444959 C35.1533096,16.8073777 35.237657,16.8471327 35.3246753,16.8615678 C35.2792709,16.8857896 35.2178413,16.7202741 35.1884619,16.6799045 C35.1590826,16.6395349 35.0816279,16.5951283 35.0282109,16.5345739 C34.9267185,16.4336498 34.8813141,16.2600604 34.7611258,16.1591364 C34.7130504,16.1187667 34.3364605,16.0138057 34.4032317,15.876549 C34.4326111,15.8119576 34.5901913,15.876549 34.5501285,15.7877358 C34.4855216,15.7217595 34.4154862,15.6688306 34.3418022,15.6302943 C34.2727271,15.6054458 34.2017734,15.5945855 34.1308049,15.5979986 C34.048442,15.5798879 33.9647787,15.5798879 33.8824158,15.5979986 C33.8263279,15.5979986 33.8583781,15.5979986 33.8289988,15.66259 C33.8140644,15.7204938 33.7952717,15.7759511 33.7729109,15.8281054 C33.7141522,15.9330665 33.6393683,15.876549 33.5512303,15.8926968 C33.5165092,15.8926968 33.3776249,15.9411404 33.3776249,16.0097688 C33.3776249,16.0783971 33.5458886,16.1349146 33.591293,16.1591364 C33.6366975,16.1833581 33.7648983,16.2439126 33.7141522,16.3488736 C33.663406,16.4538346 33.5485594,16.3488736 33.5138383,16.3286888 C33.4319192,16.2617571 33.339847,16.2283572 33.2467532,16.2318017 C33.2467532,16.3690584 33.4817881,16.4982412 33.5619137,16.5547587 C33.5939639,16.5789805 33.682102,16.6112762 33.64471,16.7122002 C33.6073181,16.8131243 33.5245218,16.7444959 33.484459,16.7444959 C33.5579986,16.7562179 33.6271903,16.802856 33.682102,16.8777157 C33.7581485,16.935776 33.8297923,17.0061638 33.89577,17.0876377 C33.9571996,17.1845248 33.9224785,17.273338 33.9545288,17.3863729 C33.9886008,17.4778676 34.0396728,17.5522553 34.1014256,17.6003319 C34.2153907,17.6830062 34.3480253,17.6830062 34.4619905,17.6003319 C34.5154075,17.5518884 34.5875204,17.4994079 34.6382666,17.4428904 C34.6890128,17.3863729 34.7077087,17.2975598 34.7664675,17.2329684 C34.8252262,17.168377 34.90001,17.0674529 34.9774647,17.0836008 L35.1644243,17.0230463 Z" stroke="none" fill="#231F20" fill-rule="nonzero"></path>
                    <path d="M19.7402597,9.38698034 C19.4703997,9.38698034 19.2496052,9.47155763 18.9895583,9.48212979 C18.6963541,9.45938958 18.4060143,9.42051068 18.1210997,9.36583602 C17.8267069,9.3446917 17.5715666,9.32002333 17.3605851,9.48565385 C17.180624,9.64074708 16.9746173,9.77923882 16.7472669,9.89796812 C16.6147902,9.96844919 16.6442294,10.024834 16.5510051,10.0988392 C16.4577807,10.1728443 16.3694629,10.155224 16.2762385,10.1657962 C16.160781,10.1822683 16.0475122,10.205849 15.9376869,10.2362773 C15.8167981,10.2489813 15.6982913,10.2714424 15.5844156,10.3032343 C15.6704465,10.3140281 15.7584316,10.3140281 15.8444625,10.3032343 C15.9701549,10.3097739 16.0939881,10.328748 16.2124534,10.3596191 C16.4381545,10.4019078 16.5510051,10.4547686 16.3694629,10.613351 C16.2615189,10.7085004 16.2075469,10.810698 16.325304,10.9023234 C16.3894265,10.9433237 16.4623221,10.9766413 16.541192,11.0009969 C16.6000705,11.0221412 16.6736687,11.0327134 16.7374538,11.0573818 C16.8012389,11.0820501 16.7914258,11.1172907 16.8797436,11.1172907 C16.8870137,11.1381126 16.8870137,11.1599017 16.8797436,11.1807236 C16.6834818,11.2300604 16.2909582,11.0996704 16.1732011,11.2582528 C16.3531803,11.3856184 16.604546,11.4466642 16.8552109,11.4238833 C17.1442664,11.4354973 17.4310425,11.381229 17.674604,11.268825 C17.7763041,11.2091169 17.9070905,11.1811902 18.0376884,11.1912958 C18.132151,11.200114 18.2278054,11.200114 18.3222681,11.1912958 C18.4007728,11.1912958 18.4056793,11.1560553 18.4645579,11.1137666 C18.5662432,11.0322244 18.7149135,10.9892519 18.8668946,10.9974728 C18.9895707,10.9948991 19.1044411,10.9536471 19.1809135,10.8847031 C19.3650273,10.7992323 19.4339637,10.6296892 19.3428295,10.4864851 C19.3083787,10.4291691 19.2852576,10.3686743 19.2741379,10.3067583 C19.2741379,10.2045608 19.3428295,10.155224 19.3673623,10.0741708 C19.384974,9.99866659 19.3695455,9.92109765 19.3232034,9.85215542 C19.2790669,9.80036373 19.2444343,9.74469252 19.2201659,9.6865249 C19.2201659,9.5349906 19.4605866,9.55613492 19.5832503,9.50327411 L19.7402597,9.38698034 Z" stroke="none" fill="#231F20" fill-rule="nonzero"></path>
                    <path d="M29.8206751,4.17750569 C29.5194324,4.17750569 29.272961,4.33250422 28.9991039,4.22090528 C28.8931811,4.17210468 28.7567952,4.14973013 28.6211812,4.15890586 C28.4776299,4.14740383 28.3318773,4.16858461 28.2158727,4.2178053 C27.9639242,4.31700436 27.6681585,4.36970386 27.4381186,4.46270298 C27.2080787,4.5557021 27.1861701,4.58980177 26.9561301,4.59290174 C26.8032151,4.58355099 26.6489653,4.58355099 26.4960503,4.59290174 C26.1579907,4.64721503 25.8541047,4.75471151 25.6197076,4.9028988 C25.4553934,4.986598 25.1212877,5.26249538 25.2198763,5.39579412 C25.3946317,5.43855446 25.592835,5.43855446 25.7675904,5.39579412 C25.8114076,5.39579412 25.9538133,5.33999465 26.0085847,5.36479441 C26.0633561,5.38959418 26.0085847,5.49809314 25.9209504,5.52599288 C25.7347276,5.60039217 25.5375505,5.66859153 25.3732363,5.73679088 C25.208922,5.80499023 25.0226992,5.82049008 24.9350649,5.93828896 C25.1184797,5.94208033 25.3020863,5.93480605 25.4827791,5.91658917 C25.6339278,5.88513401 25.792887,5.86734959 25.9538133,5.86388967 C25.9538133,5.90728926 26.0907418,5.92278911 26.1564675,5.95688879 C26.2256267,6.00428717 26.3006714,6.04883312 26.3810303,6.09018752 C26.4974821,6.13845477 26.6296396,6.17322049 26.7699073,6.19248655 C27.1307378,6.23141203 27.4991391,6.24288002 27.8653356,6.22658623 C28.1775327,6.22658623 28.4952069,6.22658623 28.7964497,6.22658623 C28.9440885,6.22398112 29.0900928,6.20829074 29.2291439,6.18008667 C29.3859066,6.14197667 29.5219903,6.0810016 29.623498,6.00338835 C29.5468181,5.95688879 29.1688953,6.00338835 29.042921,6.00338835 C28.9498096,5.88248949 29.1908039,5.85148979 29.3386867,5.83288996 C29.4959682,5.81672539 29.6420838,5.77591292 29.7604266,5.71509108 C29.9904665,5.61279206 30.0507151,5.45469356 30.2369379,5.33379471 C30.3299978,5.28281199 30.4373437,5.2409113 30.5546121,5.20979588 C30.6928422,5.15723354 30.8229354,5.09812168 30.9434891,5.03309756 C31.1755841,4.89901542 31.2346839,4.69707959 31.091372,4.52780236 C30.9444314,4.4351486 30.7547588,4.36751715 30.5436578,4.33250422 C30.3049884,4.34740199 30.0759747,4.39414942 29.8754466,4.46890292 C29.8042437,4.49370268 29.2565296,4.63320136 29.3277324,4.46890292 C29.3825038,4.36660389 29.7604266,4.35110404 29.8754466,4.25810492 L29.8206751,4.17750569 Z" stroke="none" fill="#231F20" fill-rule="nonzero"></path>
                    <path d="M32.9984481,9.50357509 C32.9118362,9.75603492 32.9463124,10.0324742 33.0925427,10.2580494 L32.6821857,10.2278704 L33.2467532,10.4994811 C33.1512471,10.4932007 33.0573223,10.5253831 32.9874381,10.588333 C32.9175539,10.6512829 32.8779933,10.7393406 32.8782161,10.8314498 C32.8782161,11.1256948 32.399902,11.1407843 32.399902,11.1407843 L32.4547905,11.3294028 L32.1254594,11.1860527 L32.3214898,11.4199397 C31.4119088,11.4727529 31.1374663,11.2765896 31.3334967,11.0125236 C31.4119088,10.914442 31.3334967,10.7937261 31.1688312,10.650376 L31.1688312,10.4843916 C31.1688312,10.4843916 31.600098,10.5522943 31.7333987,10.5673838 C31.5636186,10.4450684 31.3723967,10.3530725 31.1688312,10.2957731 C31.2237197,10.061886 31.430205,10.1750572 31.5530507,9.85063325 C31.7049243,9.88657105 31.8542198,9.93193443 32,9.98643862 C32,9.98643862 31.9137466,9.81290954 31.4040676,9.67710417 C31.4040676,9.67710417 31.6654415,9.6469252 31.8666993,9.63183572 C31.9676466,9.63192006 32.0506824,9.55535282 32.0548885,9.45830663 C32.1881892,9.44321715 32.2456914,9.35519515 32.4547905,9.35519515 C32.6492302,9.33402907 32.8445176,9.38732865 32.9984481,9.50357509 L32.9984481,9.50357509 Z" stroke="none" fill="#231F20" fill-rule="nonzero"></path>
                    <path d="M58.2545613,34.2824321 C58.2545613,34.2824321 58.657811,37.2076593 56.1038961,40.5194805 C56.1038961,40.5194805 60.5772796,39.6689739 62.9376347,33.5930063 C63.1224279,34.5120482 63.1733588,35.4624365 63.0881812,36.4022554 C63.0881812,36.4022554 64.319437,36.0092182 66.2765423,32.6716241 C66.3870528,33.3855563 66.6521968,34.052145 67.0454051,34.6045937 L68.7551839,32.8778075 C68.9220483,33.4795805 69.0179625,34.1063323 69.0401471,34.7399015 C69.5774235,34.4396695 70.0858255,34.0702284 70.556366,33.6381089 C70.556366,33.6381089 70.556366,34.83655 68.7713139,38.9537752 C71.2875922,37.3880698 73.7662338,33.9860434 73.7662338,32.5105433 C73.6932533,31.7211599 73.1217916,31.1349744 72.4597047,31.1703511 C71.9826105,31.203373 71.5292407,31.4306972 71.1746822,31.8146743 C70.8952984,31.4577983 70.5076065,31.251052 70.0993497,31.2412266 C69.6191276,31.2999625 69.1744004,31.5710308 68.8519639,32.001528 C68.8519639,32.001528 68.9272371,31.3572048 68.2551543,31.3572048 C67.5830714,31.3572048 64.5291269,33.8507355 58.2545613,34.2824321 Z" stroke="none" fill="#FFFFFF" fill-rule="nonzero"></path>
                    <path d="M62.3269398,42.7807487 C61.2624779,44.828841 60.0182092,46.7485396 58.6132748,48.5103132 C58.6132748,48.5103132 58.2855984,47.5542944 57.8946863,47.3447561 C57.3051651,47.8507936 56.7550811,48.4138339 56.250556,49.027611 C56.0095048,48.5127584 55.7141324,48.0333802 55.3710037,47.600131 C54.9572663,47.9742857 54.5725968,48.3883453 54.2212622,48.8377169 C54.2212622,48.8377169 55.3710037,46.5458911 54.2615031,42.5974026 C54.2615031,42.5974026 52.8070801,47.7638328 48.9267026,50.710466 C48.7427439,50.8938121 48.6795081,51.9480519 50.1339311,51.9480519 C51.5421619,51.9017565 52.862615,51.1580937 53.7498682,49.911601 C55.2721649,49.648995 56.8177086,49.6093848 58.3488342,49.7937357 C58.3488342,49.7937357 59.1249097,50.6384372 59.6997805,50.6384372 C60.2746512,50.6384372 62.5108985,47.9013424 62.3269398,42.7807487 Z" stroke="none" fill="#FFFFFF" fill-rule="nonzero"></path>
                    <path d="M13.5064935,7.61147401 L12.5778163,7.61147401 L12.5778163,7.27272727 C12.5778163,7.27272727 13.5064935,7.30164468 4.15584416,7.49167334 C4.15584416,7.49167334 7.85581208,8.42116134 9.87531649,9.35064935 C10.1307349,9.22653171 10.410172,9.14122898 10.7008073,9.09865482 C11.0349346,9.09865482 11.06933,8.96646097 11.4722482,8.9540678 C11.8751663,8.94167463 11.8407709,8.73099068 11.8407709,8.73099068 L12.4549754,8.73099068 C12.3199242,8.52096978 12.0834145,8.37033217 11.8063754,8.3178849 C12.3421482,8.03309174 12.9119712,7.79632636 13.5064935,7.61147401 Z" stroke="none" fill="#FFFFFF" fill-rule="nonzero"></path>
                    <path d="M2.07792208,8.31374669 C2.6676365,8.56912607 3.19067465,8.97701861 3.60136595,9.501808 C3.60136595,11.4048564 5.09007333,13.0176093 6.97080697,14.705624 L5.72525514,14.705624 C6.6909661,15.3259653 7.72906995,15.8032888 8.81184175,16.1248466 C8.40186906,16.3600688 7.94582844,16.4854222 7.48192983,16.4904039 C7.48192983,16.4904039 9.10958323,17.6623377 12.9405235,17.6623377 C16.1313197,17.6623377 17.5108552,16.5871691 17.5108552,16.5871691 L14.9254667,16.2054842 C14.9254667,16.2054842 19.4809112,15.7270342 21.8181818,13.6519588 C21.8181818,13.6519588 20.3840604,14.6679931 15.4762884,14.6679931 C10.5685165,14.6679931 8.4049284,13.1520054 8.4049284,13.1520054 C8.4049284,13.1520054 11.2731713,13.7272206 13.099319,13.3401599 C8.97063721,10.2329226 7.00554348,8.23848489 2.07792208,8.31374669 Z" stroke="none" fill="#FFFFFF" fill-rule="nonzero"></path>
                    <path d="M68.5714286,29.215679 C70.1302788,29.2790497 71.6058025,29.9788002 72.6899281,31.1688312 C72.6899281,31.1688312 75.464021,30.6366371 76.7933783,28.773958 C75.4991361,28.8431432 75.1329357,28.5770462 75.1329357,28.2949833 C75.1329357,28.0129205 75.4339223,27.965023 76.2114709,27.965023 L77.2448581,27.965023 C77.2448581,27.965023 77.8267655,27.7521454 77.9220779,25.8362468 C76.9187894,26.8208058 75.6997938,27.1028687 75.4991361,26.6451818 C75.2483139,26.0810561 77.2950226,25.8362468 77.8919793,24.8463659 C77.9236254,24.3279642 77.8194535,23.8103813 77.5909927,23.3509007 C76.8435427,24.6920297 76.3970793,24.8995853 76.0860599,24.6707419 C75.5844156,24.3194938 77.0893484,23.7234365 77.2799732,22.7335556 L76.5676384,21.8181818 C74.4707653,26.3258654 70.9141074,25.4051697 68.5714286,29.215679 Z" stroke="none" fill="#FFFFFF" fill-rule="nonzero"></path>
                    <path d="M18.2986049,31.0471378 C18.5089444,30.8331796 18.7430681,30.6417033 18.9968393,30.4760923 L18.8445927,31.0120736 L18.9390906,31.0120736 C19.2120471,30.7039494 19.579182,30.485011 19.9890671,30.3859272 C19.9890671,30.3859272 19.726573,30.6514132 20.1203142,30.7966792 C20.8710474,31.0621653 21.7897768,30.9219085 22.7820046,31.0471378 C23.1211296,31.1898471 23.5113044,31.1693715 23.8319812,30.9920369 C24.1671156,30.8654387 24.5219051,30.7926565 24.8819577,30.7766425 C24.4939868,30.9139349 24.1374636,31.1214424 23.8319812,31.3877614 C24.1729829,31.606232 24.3882926,31.9634343 24.4147181,32.3545315 C24.4441543,32.9499085 24.1080198,33.5072614 23.5537374,33.7821453 C23.0969091,33.9845968 22.7502167,34.3608322 22.5982587,34.8190437 L23.1599962,34.47842 C23.0869668,35.1633618 22.4951497,35.6916815 21.7740272,35.7156853 C21.0600431,35.7156853 20.8710474,35.3399975 20.6295528,35.3399975 C20.4773062,35.3399975 20.0100666,35.8409146 20.0100666,35.8409146 C20.0100666,35.8409146 20.0468158,35.3399975 20.8920469,34.5335209 C20.5885592,34.6442493 20.3130393,34.8149552 20.083565,35.0344381 C18.8865917,34.3531908 17.5373719,34.2830624 17.5373719,33.2461639 C17.5810278,32.8787621 17.7082379,32.524887 17.9101136,32.2092655 C17.7150751,32.2309058 17.5489959,32.3545853 17.4796232,32.5298525 L17.4218745,31.9738344 L15.5844156,33.4214849 C16.5008084,34.3293626 17.4908595,35.166824 18.5453494,35.9260705 C21.1236576,37.7479825 23.9184512,39.2729836 26.8716632,40.4693888 C30.0215928,41.7216816 32.6832832,43.1693321 34.1637501,44.7071476 C35.644217,46.2449632 36.9356881,48.4990902 38.284908,50.3975661 C39.6341278,52.296042 42.7840574,55.6171225 45.9917356,56.4085716 L45.3355003,57.1799839 C47.1589518,57.4176775 49.0090683,57.3991133 50.8268775,57.1248831 L49.8346497,58.1818182 C54.9690349,57.6809011 59.168941,55.4618382 61.5103886,51.2240794 C61.5103886,51.2240794 60.6336582,50.4877312 58.1767132,50.4877312 C54.5595441,50.4877312 51.2416183,52.7067941 48.03394,52.7067941 C44.9417591,52.7067941 42.5793119,50.0068508 40.8363509,47.4321368 C39.0933899,44.8574228 36.0432081,39.041775 36.0432081,34.7639428 C36.0432081,27.8262407 41.1775933,27.220131 41.1775933,27.220131 C41.1775933,27.220131 34.5784909,25.8225722 30.4205838,25.5220219 C40.563357,25.9478015 51.8243552,28.7228823 57.2264844,31.2775596 C57.3842782,31.4334618 57.4190926,31.6685082 57.3127577,31.860027 C57.2064228,32.0515458 56.9830606,32.1560911 56.7592449,32.1191004 C56.2710058,32.1191004 54.7537897,31.1172662 50.9108756,29.9000376 C51.8453548,31.6532475 54.113304,34.7288786 58.4812064,34.7288786 C62.5866146,34.7288786 64.2560772,32.1541646 69.6004577,32.0139078 C69.7474544,29.063506 68.2669875,28.3972862 64.8755634,26.7893423 C62.9526862,25.8639711 60.9416068,25.1158802 58.8696977,24.5552519 L58.7332007,24.5552519 C59.9038351,25.1474105 61.0145434,25.8416344 62.0511265,26.6290488 L61.6521355,26.8444431 C62.5410448,27.4699414 63.3313251,28.2138652 63.998833,29.0534876 C63.998833,29.0534876 61.8043821,29.9150651 60.4131632,29.8349183 C60.3777587,30.0792211 60.1451326,30.2523499 59.8881749,30.2256337 C59.5521824,30.2256337 58.2764609,29.5844598 55.1632806,28.3121303 C52.0501002,27.0398008 43.8025346,24.2697291 32.6885331,22.8571429 C32.6885331,22.8571429 34.4787431,23.35806 35.1559779,23.6786469 C34.600618,23.5348024 34.0223898,23.4889675 33.4497661,23.5433993 L34.2529981,24.0443164 C34.2529981,24.0443164 28.9138675,23.8289221 25.7324387,24.4751052 C25.7324387,24.4751052 27.8008924,25.0411415 28.6198741,26.0529941 C27.917878,26.0626672 27.2169116,26.107813 26.5199211,26.1882417 C26.6179961,26.3676346 26.6870275,26.5601668 26.7246665,26.7592872 C26.7246665,26.9396174 26.0474316,27.3854336 26.0474316,27.3854336 L26.5724199,27.3854336 L26.5724199,28.6026622 C26.5724199,28.6026622 25.8584358,29.5644231 23.8739802,29.1035793 L23.9474786,28.7980199 L22.766255,28.9082217 C23.1924535,28.7157584 23.6000246,28.4877922 23.9842278,28.2269744 C23.9842278,28.2269744 22.7715049,28.7278915 22.5090107,28.0967359 C22.5090107,28.0967359 18.4981004,29.0434693 16.5661436,30.5512298 C17.1608358,30.637785 17.7391437,30.8065288 18.2828552,31.0521469" stroke="none" fill="#FFFFFF" fill-rule="nonzero"></path>
                    <path d="M45.491046,11.1532427 C45.491046,11.1532427 42.1620036,11.7071393 40.5194805,14.3745888 L40.7834574,14.3017076 C40.7834574,14.3017076 42.2206652,12.6983227 46.1069921,12.6983227 C50.6190422,12.6983227 53.5227884,15.2345861 56.1038961,15.5844156 C55.0762344,15.310216 54.1983017,14.6452984 53.6596653,13.7332348 C53.5862837,13.9675517 53.5966457,14.2198765 53.6889961,14.4474699 C51.8264922,13.4125578 50.7559191,12.9898473 50.6092653,11.4156148 C50.3182811,11.6988435 50.1589028,12.0895866 50.1693037,12.4942555 L49.8662191,12.2610359 C49.8662191,12.2610359 49.7928922,12.5671367 50.2915153,12.8295088 C50.4626114,12.9169661 50.1986345,13.1501857 50.1986345,13.1501857 C49.8314168,13.0835675 49.4768461,12.960632 49.1476152,12.7857801 C49.1476152,12.7857801 49.5289153,12.7566276 49.3969268,12.6108654 C49.1687513,12.3985478 48.9624177,12.1641716 48.7809806,11.9112065 C48.5463345,11.619682 49.176946,11.7654442 49.176946,11.7654442 C48.9881384,11.5332113 48.7133453,11.3861453 48.414346,11.3573099 C48.5084967,11.2389108 48.6612796,11.1826685 48.8103114,11.2115476 C49.0742883,11.2552763 48.7516499,10.9345993 49.1036191,10.8325657 C49.5958883,10.6595236 50.0077966,10.3140349 50.2621845,9.86081728 C50.4919422,9.49641162 50.9172383,9.96285087 50.9172383,9.96285087 C50.9172383,9.96285087 50.7999153,9.35064935 49.8662191,9.35064935 C49.1885211,9.36397988 48.5300729,9.57705504 47.9743845,9.96285087 L48.6294383,10.2932453 C48.4139299,10.3129419 48.1969223,10.2778299 47.9988268,10.1912118 C47.6468575,10.0454495 47.4122114,10.4827363 47.4122114,10.9491755 C47.4122114,11.5905295 48.160146,11.7362918 48.160146,12.0861212 C48.160146,12.4359506 48.1014845,12.7274752 47.8228422,12.3776457 L47.8521729,12.6983227 C47.1335691,12.1735786 46.5029575,12.2124485 46.062996,11.4447672 L46.5762844,11.6488344 C46.5762844,11.6488344 46.5322883,11.4593435 45.9603383,11.1629602 C45.9603383,11.1629602 45.872346,10.9297406 46.0336652,10.9297406 L46.0336652,10.2883866 L44.728446,10.2883866 L44.728446,10.4147139 L45.491046,11.1532427 Z" stroke="none" fill="#FFFFFF" fill-rule="nonzero"></path>
                    <path d="M54.025974,16.9053677 L54.025974,16.8273311 L51.6381979,16.3357005 L51.5851362,16.4761664 C51.6911414,16.5472339 51.7431179,16.6461291 51.726634,16.7453927 C51.7181868,16.8917445 51.6180511,17.0291615 51.4502633,17.1246582 C51.2824755,17.2201549 51.0621859,17.2651086 50.8422725,17.2487287 C50.5995036,17.2565066 50.3637513,17.1935808 50.1970651,17.0765132 C50.0303789,16.9594457 49.9494571,16.7999639 49.9755982,16.6400433 C49.9755982,16.6400433 50.6300257,16.6400433 50.6300257,16.370817 C50.6300257,15.9611248 48.0535858,15.5280217 44.6753247,15.590451 C47.5937178,17.0770482 49.2857962,17.6623377 50.5239023,17.6623377 C51.9919425,17.6662245 54.025974,16.9053677 54.025974,16.9053677 Z" stroke="none" fill="#185465" fill-rule="nonzero"></path>
                    <path d="M50.4054897,17.6623377 C50.4054897,17.6623377 50.9090909,17.6623377 50.9090909,17.0698723 C50.9090909,16.4774069 50.0969773,15.893528 48.8311688,15.5844156 C48.8311688,15.5844156 49.6568933,16.5804443 50.4054897,17.6623377 Z" stroke="none" fill="#FFFFFF" fill-rule="nonzero"></path>
                    <path d="M43.9303569,13.5273828 C43.4863083,13.4924891 43.0392221,13.5013323 42.5974026,13.5537481 C42.8192083,13.9894427 43.134504,14.3833428 43.5259775,14.7138205 C43.5259775,14.7138205 42.8969429,14.6742725 42.6123796,14.621542 C44.5444145,16.3089199 46.3117022,16.9021387 49.1024192,16.8625908 L48.6880551,17.0603304 C49.8043571,17.1058946 50.9050727,17.3091582 51.9480519,17.6623377 C47.7644726,15.2411261 48.0190818,16.269372 43.9303569,13.5273828 Z" stroke="none" fill="#FFFFFF" fill-rule="nonzero"></path>
                    <path d="M33.2467532,29.7695832 C32.9335995,29.780753 32.6250871,29.8249234 32.3327113,29.9004486 C32.3327113,29.9004486 31.761435,29.0909091 30.9342271,29.0909091 C30.1070191,29.0909091 28.777088,29.6448046 28.777088,29.6448046 L28.841071,29.440898 C27.4060251,29.440898 27.012987,29.4926355 27.012987,29.8517545 C27.012987,30.2108736 27.5842632,30.2534809 28.2195224,30.6460771 C28.3823482,30.5396259 28.5955244,30.4740242 28.8227901,30.4604309 L28.0412842,30.9504153 C28.3647819,30.8165892 28.7772432,30.8249851 29.0878623,30.971719 C29.6408577,31.2212763 30.9159462,30.9382418 31.4369501,30.7434654 C31.3285154,30.8916892 31.1588849,31.0162617 30.9479377,31.1025844 C30.9479377,31.1025844 32.1224816,31.3430116 32.6434855,30.907808 C32.9542598,30.5821661 32.4652474,30.1256589 32.4652474,30.1256589 C32.6892327,29.9748386 32.9545102,29.8539708 33.2467532,29.7695832 Z" stroke="none" fill="#231F20" fill-rule="nonzero"></path>
                    <path d="M30.021371,33.49428 C28.739109,33.8330009 27.3286207,33.5377058 25.8145652,33.49428 L26.0266316,33.2467532 C25.7260678,33.2892089 25.4348744,33.3727235 25.1635706,33.49428 C24.7739602,33.6810107 23.8961039,33.7418068 23.8961039,34.4105633 C23.9159719,34.7633263 24.1084504,35.0912046 24.423804,35.3094763 L24.9169818,34.8274505 C24.9544589,35.0058943 24.9101265,35.1901441 24.7936873,35.3398743 C26.5691271,36.3473517 28.561565,35.7741318 29.3555811,36.4732864 L30.287687,35.9130942 C30.287687,35.9130942 30.3222094,36.0824546 29.8487588,36.7512112 C30.2299432,37.1595403 30.7970685,37.3980931 31.3973368,37.4025974 C31.9595594,37.4025974 32.3097156,37.3114033 32.3836923,36.6252765 L32.610554,36.39512 L32.2603978,36.39512 C32.3078007,36.1832228 32.2638436,35.9633755 32.1371034,35.7784744 C32.1371034,35.7784744 32.2751932,35.6351694 32.699326,35.9000665 C32.699326,35.9000665 32.8571429,35.9000665 33.0494822,35.7003081 L33.2467532,35.496207 L33.0346868,35.496207 C32.8916653,34.5495257 32.0483314,34.0848702 31.4466546,34.2846286 C31.3723971,33.9039364 30.9872299,33.6318702 30.5490712,33.6506127 C30.2531646,33.6506127 29.6712149,33.9589355 29.2322867,33.9589355 L30.021371,33.49428 Z" stroke="none" fill="#231F20" fill-rule="nonzero"></path>
                </g>
            </g>
        </g>
    </g>
</svg>