<?xml version="1.0" encoding="UTF-8"?>
<svg width="120px" height="120px" viewBox="0 0 120 120" version="1.1" xmlns="http://www.w3.org/2000/svg" xmlns:xlink="http://www.w3.org/1999/xlink">
    <title>Carolina Panthers</title>
    <defs>
        <circle id="path-1" cx="60" cy="60" r="50"></circle>
    </defs>
    <g id="Page-1" stroke="none" stroke-width="1" fill="none" fill-rule="evenodd">
        <g id="Carolina-Panthers">
            <circle id="Mask" fill="#F0F2F5" cx="60" cy="60" r="60"></circle>
            <mask id="mask-2" fill="white">
                <use xlink:href="#path-1"></use>
            </mask>
            <use id="Mask" fill="#FFFFFF" xlink:href="#path-1"></use>
            <g mask="url(#mask-2)" fill-rule="nonzero">
                <g transform="translate(20.000000, 38.000000)">
                    <path d="M61.9342342,22.2033131 C61.9342342,22.2033131 62.8840116,20.200316 62.4541123,17.7447185 C62.4541123,17.7447185 60.6545341,17.1091521 57.395298,17.7447185 C57.395298,17.7447185 55.8356635,21.1151464 53.8461298,22.7522114 C53.8461298,22.7522114 55.355776,19.3432643 54.4559869,16.7913689 C54.4559869,16.7913689 57.1953448,15.7417214 60.5545575,15.9728364 C63.9137702,16.2039515 64.6635945,16.8876669 64.6635945,16.8876669 C64.6635945,16.8876669 63.8237913,20.7492142 61.9342342,22.2033131 L61.9342342,22.2033131 Z M59.7747403,29.2523222 C61.3343748,28.1545257 61.1644146,25.9974519 61.1644146,25.9974519 C61.5443255,26.8448738 61.7542763,27.9908192 61.5443255,28.7997219 C61.3343748,29.6086246 60.7845036,30.4271571 58.5050379,30.6293828 C56.2255721,30.8316085 54.9158791,30.1382633 54.9158791,30.1382633 C55.9256424,29.1656541 56.9154105,26.5270906 56.9154105,26.5270906 C57.4252909,28.3952706 56.9953917,29.261952 56.9953917,29.261952 C58.095134,29.589365 59.7747403,29.2523222 59.7747403,29.2523222 L59.7747403,29.2523222 Z M63.3638991,28.8960199 C63.9137702,32.7575672 60.3446067,34.3753726 58.3650707,34.3753726 C56.3855346,34.3753726 53.6561743,33.5664699 52.616418,30.3212294 C51.5766617,27.0759888 51.5766617,23.0699946 52.9163477,21.1151464 C52.9163477,21.1151464 52.0265563,24.9766937 52.5164415,27.1722868 C53.0163243,29.3678798 53.956104,31.22643 55.7856752,31.5634728 C57.6152464,31.9005156 60.3446067,31.8042176 61.3343748,30.7064211 C62.3241428,29.6086246 62.7240491,28.0389682 61.734281,25.8915242 C60.744513,23.7440801 58.764977,20.9803293 62.0342107,18.2165784 C62.0342107,18.2165784 60.5945482,19.8825328 61.1444193,22.3188706 C61.6842927,24.7455787 62.814028,25.0344725 63.3638991,28.8960199 L63.3638991,28.8960199 Z M50.5569007,12.9298216 C43.0886511,11.9379528 36.9700851,13.4113112 36.9700851,13.4113112 C42.9786769,11.5431312 48.4473951,11.7742463 51.1467625,12.0727699 C50.8968211,12.3712935 50.7068656,12.6601873 50.5569007,12.9298216 L50.5569007,12.9298216 Z M50.2069827,14.7113334 C42.9086933,14.2202139 37.1300476,15.943947 37.1300476,15.943947 C42.3888151,13.9987287 47.3076623,13.7387242 50.2369757,13.8157626 C50.1669921,14.1624352 50.1769898,14.4609588 50.2069827,14.7113334 L50.2069827,14.7113334 Z M37.9298602,24.870766 C35.1405139,21.5773765 36.3202374,17.1861905 36.3202374,17.1861905 C36.3202374,17.1861905 36.420214,20.9610697 39.8394126,24.2833486 C43.2586113,27.6152573 47.4976177,28.5204579 47.4976177,28.5204579 C47.4976177,28.5204579 40.7092088,28.1641555 37.9298602,24.870766 L37.9298602,24.870766 Z M52.9163477,10.5512625 C52.5364368,10.8112669 52.2065141,11.0616415 51.9165821,11.3120162 C43.9284543,9.49198512 36.9400922,10.7823775 36.9400922,10.7823775 C45.5880653,8.59641429 52.9163477,10.5512625 52.9163477,10.5512625 Z M46.6878075,6.52600859 L46.6878075,6.52600859 L46.6878075,6.52600859 C46.8077794,6.47785962 49.2472077,5.49562064 51.7266266,6.0348891 C54.2760291,6.59341715 55.8556588,8.2593715 55.8556588,8.2593715 C55.8556588,8.2593715 53.5661954,7.59491572 49.3371866,7.67195407 C49.3371866,7.67195407 49.1672264,7.37343046 49.6071233,6.75712365 C49.587128,6.75712365 48.917285,6.56452777 46.6878075,6.52600859 L46.6878075,6.52600859 L46.6878075,6.52600859 Z M65.433414,7.20972396 C66.7331094,6.95934932 67.9228306,7.60454551 68.4826994,8.1052948 C68.4826994,8.1052948 65.4734047,7.56602634 64.0637351,8.81789955 C64.0537374,8.81789955 64.1337187,7.4600986 65.433414,7.20972396 Z M79.7900492,16.7721093 C76.8507381,15.2217125 73.5115207,14.7498526 70.9521206,14.6535547 C70.9521206,14.6535547 69.9123643,14.6728143 69.7524018,14.6631845 C69.8023901,14.2491033 69.7923924,13.8831711 69.7224088,13.5557582 C70.3622588,13.5364986 71.1620714,13.517239 71.2820433,13.5076092 L71.3820198,13.4979794 C76.5108178,13.3342729 79.2301804,14.6439249 79.2301804,14.6439249 L78.9702413,14.451329 C76.4708271,13.3342729 73.8314458,12.9298216 71.5419823,12.862413 L71.4520034,12.862413 C71.4520034,12.862413 70.3422635,12.862413 69.5024604,12.8720428 C69.2725143,12.4001829 68.9325939,12.0535103 68.5926736,11.7935059 C69.6724205,11.7838761 70.9221276,11.7935059 71.6419589,11.8223952 L71.6919472,11.8223952 C75.6410216,11.8609144 77.7905178,12.7661151 77.7905178,12.7661151 L77.5305788,12.5735192 C75.571038,11.7646165 73.5715067,11.4083141 71.6919472,11.2831268 C71.6919472,11.2831268 69.2425213,11.1579395 67.3629618,11.1675693 C67.9128329,11.5623908 68.3227369,12.1401784 68.3627275,12.9587109 C68.492697,15.5009765 65.7733344,16.5217347 65.7733344,16.5217347 C66.4131844,16.1076535 67.5629149,14.7209632 67.2629852,12.9201918 C66.9630555,11.1194203 64.5436226,10.2623686 64.5436226,10.2623686 C64.5436226,10.2623686 61.7042881,11.4660929 61.0844333,13.6905753 C61.0844333,13.6905753 61.1344216,11.3697949 57.1153636,9.86754708 C57.1153636,9.86754708 59.0049207,9.31864883 61.0344451,9.45346595 C63.0639694,9.58828306 64.5336249,10.2719984 64.5336249,10.2719984 C64.5336249,10.2719984 64.9035382,9.31864883 66.9030696,8.99123584 C68.902601,8.66382284 71.0520972,9.13568275 71.0520972,9.13568275 C70.6521909,8.43270779 70.1922987,7.41194963 68.1927673,6.62230653 C66.193236,5.83266343 64.3936577,6.54526818 64.3936577,6.54526818 C64.3936577,6.54526818 64.2636882,5.61117817 62.8040303,4.70597754 C60.4345856,3.23261907 54.1760525,2.35630782 52.966336,2.28889927 C51.7566195,2.2311205 53.8761228,2.97261464 54.715926,3.44447454 C55.675701,3.9741132 56.7554479,4.86968404 56.8454269,5.7171059 C56.8654222,5.94822096 56.8154339,6.14081684 56.7054597,6.31415313 C56.6154807,6.07340828 56.4455206,5.77488467 56.1255956,5.38006312 C54.4059986,3.26150845 50.0570179,2.33704824 46.7977818,2.5489037 C43.528548,2.76075917 40.9391549,3.94522382 40.9391549,3.94522382 C40.9791455,4.23411764 39.7394361,5.245246 36.3102398,5.61117817 C33.0510037,5.95785075 30.741545,5.38006312 29.9117394,5.26450559 L29.8517535,5.2548758 C29.5118332,5.21635662 29.2618917,5.22598641 29.1619152,5.46673126 L29.1519175,5.49562064 L29.1419199,5.53413982 C29.1319222,5.69784632 29.2318988,5.91933158 29.2318988,5.91933158 L29.1819105,5.83266343 C29.4118566,6.26600416 30.8015309,8.72160161 32.6311021,9.9927344 C32.6311021,9.9927344 33.7208467,9.77124914 35.0205421,9.63643203 C35.0205421,9.63643203 14.9752402,19.0254811 6.85714286,33.7109168 C10.3963134,33.3064655 15.0552214,33.0560908 20.1040381,33.4798018 L20.0740451,33.4798018 L20.0740451,33.4798018 C20.8038741,32.2953371 24.4630165,25.6989283 33.1709756,21.6447851 C33.1709756,21.6447851 26.7324846,25.9589327 24.4430212,34.0190702 C27.3523393,34.4909301 30.331641,35.2324243 33.2409592,36.320591 C42.5987659,39.8354658 50.4869171,43.5044173 59.3848317,43.4273789 L60.8944779,43.3599703 L60.8944779,43.3503406 C58.5350309,38.6124819 56.2055768,36.4361485 56.2055768,36.4361485 C57.9651644,36.7443019 59.3848317,36.2531824 59.4148247,36.2531824 C59.5447942,36.2050335 59.6647661,36.1568845 59.754745,36.1183653 C62.6640631,34.6064877 63.1539483,32.0545923 63.3838944,30.2249314 C63.6538311,28.1063768 63.2639225,26.7485758 63.2639225,26.7485758 C63.2639225,26.7485758 68.3027415,20.383282 69.5824416,15.3757892 C69.5824416,15.3757892 70.2322893,15.2891211 70.7221745,15.2987509 C76.7207686,15.3661594 80,16.974335 80,16.974335 L79.7900492,16.7721093 L79.7900492,16.7721093 Z M73.2915723,5.93859116 C73.3115676,5.90007199 73.3215653,5.86155281 73.3315629,5.82303364 L73.3615559,5.7267357 L73.3615559,5.7267357 C73.241584,5.4089525 73.0116379,5.38969291 72.5317504,5.41858229 C71.8219167,5.54376961 71.172069,5.63043776 70.6221979,5.67858673 L70.6221979,5.67858673 L70.532219,5.68821652 L70.4722331,5.69784632 L70.2322893,5.7171059 L70.2022963,5.7171059 C69.4924627,5.77488467 69.0425681,5.77488467 69.0425681,5.77488467 C70.852144,7.09416643 71.0620948,9.13568275 71.0620948,9.13568275 L71.1520737,9.05864439 C72.541748,8.095665 73.2915723,5.93859116 73.2915723,5.93859116 L73.2915723,5.93859116 Z" id="path8" fill="#000000"></path>
                    <path d="M55.3415465,15.6409057 C56.1908257,18.2292904 54.765924,21.6869818 54.765924,21.6869818 C56.6437746,20.0265085 58.1158585,16.6078872 58.1158585,16.6078872 C61.1921363,15.9632329 62.8906946,16.6078872 62.8906946,16.6078872 C63.2964613,19.098597 62.4,21.1302349 62.4,21.1302349 C64.1834862,19.6553439 64.9855832,15.7288131 64.9855832,15.7288131 C64.9855832,15.7288131 64.2778506,15.0353213 61.1072084,14.8009016 C57.9365662,14.5762493 55.3415465,15.6409057 55.3415465,15.6409057 L55.3415465,15.6409057 Z M65.6933159,5.92225356 C64.4665793,6.17620829 64.4005242,7.55342432 64.4005242,7.55342432 C65.7310616,6.28365068 68.5714286,6.8306301 68.5714286,6.8306301 C68.0429882,6.31295315 66.9200524,5.66829883 65.6933159,5.92225356 Z M60.3522936,28.2800372 C60.3522936,28.2800372 58.7669725,28.6218994 57.7289646,28.2898047 C57.7289646,28.2898047 58.1347313,27.4107307 57.6534731,25.5158377 C57.6534731,25.5158377 56.7287025,28.1921298 55.7661861,29.1786463 C55.7661861,29.1786463 57.0023591,29.8819055 59.1538663,29.6767882 C61.3053735,29.471671 61.8243775,28.6512018 62.0225426,27.8209652 C62.2207077,27.0004961 62.0225426,25.8381648 61.6639581,24.9786257 C61.6639581,24.9883932 61.8243775,27.1665434 60.3522936,28.2800372 L60.3522936,28.2800372 Z M52.7465269,4.74038732 C50.406291,4.19340791 48.1132372,5.17992435 48,5.2287618 C48.1132372,5.17992435 50.3024902,4.23247786 52.5861075,4.70131736 C51.2838794,4.44736264 50.7365662,5.46318155 50.7365662,5.46318155 C50.321363,6.09806838 50.4817824,6.39109306 50.4817824,6.39109306 C54.4828309,6.31295315 56.6343381,6.98690993 56.6343381,6.98690993 C56.6343381,6.98690993 55.1528178,5.29713423 52.7465269,4.74038732 L52.7465269,4.74038732 Z" id="path10" fill="#BFC0BF"></path>
                    <path d="M69.3489333,14.2759542 C68.0709801,19.4925272 63.039039,26.1235939 63.039039,26.1235939 L63.039039,26.1235939 C66.8429468,22.8632358 69.3788854,17.1049418 70.4871105,14.1956992 C69.98791,14.1856674 69.3489333,14.2759542 69.3489333,14.2759542 L69.3489333,14.2759542 Z M69.4986935,13.513532 C69.6584377,13.513532 70.6967747,13.5035001 70.6967747,13.5035001 C70.7966148,13.1824803 70.9064389,12.7611417 71.026247,12.3197394 C70.9064389,12.3297712 70.1077181,12.349835 69.4687415,12.3698987 C69.5386295,12.7009505 69.5486135,13.0921934 69.4986935,13.513532 L69.4986935,13.513532 Z M60.9024609,21.4888695 C60.3633244,18.9508061 61.7910378,17.2152924 61.7910378,17.2152924 C58.5262665,20.0944394 60.5031005,22.9735864 61.4915175,25.2106936 C62.4799345,27.4478009 62.0805741,29.0829959 61.0921571,30.2266292 C60.1037401,31.3702625 57.3880894,31.4705812 55.5510316,31.1194657 C53.7239577,30.7683502 52.7854608,28.8321991 52.2862603,26.5449325 C51.7970438,24.2576659 52.6856207,20.2348856 52.6856207,20.2348856 C51.3477633,22.2713554 51.3477633,26.4446138 52.3861004,29.8253543 C53.4244374,33.2060948 56.1500722,34.048772 58.1269061,34.048772 C60.1037401,34.048772 63.6680317,32.3634177 63.1189111,28.3406374 C62.5797746,24.3178571 61.4515815,24.016901 60.9024609,21.4888695 L60.9024609,21.4888695 Z M73.1428571,3.94312705 L73.1328731,3.87290396 L73.1228891,3.84280834 L73.1029211,3.78261712 L73.0929371,3.7525215 L73.0729691,3.70236215 L73.0629851,3.68229841 L73.033033,3.64217092 L73.013065,3.62210718 L72.983113,3.5819797 L72.963145,3.56191595 L72.9232089,3.53182034 L72.9032409,3.52178847 L72.8633049,3.50172473 L72.8433368,3.49169286 L72.8034008,3.47162911 L72.7834328,3.46159724 L72.7434967,3.45156537 L72.7235287,3.4415335 L72.6835927,3.43150163 L72.6736087,3.43150163 L72.6336726,3.42146976 L72.6236886,3.42146976 L72.5937366,3.42146976 L72.5837526,3.42146976 L72.5538006,3.42146976 C70.0577981,3.45156537 68.001092,2.59885633 68.001092,2.59885633 L67.8313638,2.53866511 C62.2802543,0.50219529 56.5194805,-0.0896851012 51.3876994,0.0106336091 L51.3876994,0.000601738102 C49.0913771,0.0206654802 47.4240474,0.21127103 47.4240474,0.21127103 C40.0558481,0.833247034 34.7743068,2.60888821 34.7743068,2.60888821 C34.7743068,2.60888821 32.7675208,3.18070485 30.1017901,3.04025866 C30.1017901,3.04025866 29.1133731,3.02019492 28.9136929,3.65220279 C28.7439647,4.05347763 28.7239967,4.53500744 29.1033891,5.5883539 C29.5426855,6.8022103 31.2799033,9.07944502 31.2898873,9.09950876 C26.01833,11.2463292 12.3003003,18.9809017 0,34.5303018 C0,34.5303018 2.5958426,33.8481346 6.68928669,33.3666048 C14.7963028,18.0780333 34.8142428,8.28692721 34.8142428,8.28692721 C33.5163215,8.4273734 32.4280644,8.65810644 32.4280644,8.65810644 C30.6009906,7.34393133 29.2132132,4.77577235 28.983581,4.32433815 L29.033501,4.41462499 C29.033501,4.41462499 28.9336609,4.18389196 28.9436449,4.01335015 L28.953629,3.97322267 L28.963613,3.94312705 C29.0734371,3.70236215 29.3230373,3.68229841 29.6525097,3.72242589 L29.7124137,3.73245776 C30.5410865,3.85284021 32.8374088,4.45475248 36.1021801,4.09360512 C39.5266955,3.71239402 40.7647128,2.65904756 40.7247767,2.35809143 C40.7247767,2.35809143 43.3206193,1.11413942 46.5754066,0.903470131 C49.8401778,0.682768968 54.1832222,1.64582859 55.8904879,3.85284021 C56.1999922,4.25411505 56.3797044,4.57513493 56.4695605,4.8259317 C56.5793846,4.6553899 56.6293046,4.4447206 56.6093366,4.2039557 C56.5194805,3.32115105 55.4412074,2.38818704 54.4827425,1.83643414 C53.6341016,1.35490433 51.5274755,0.572418387 52.7355407,0.632609613 C53.9436059,0.70283271 60.1935962,1.61573297 62.5598066,3.15060924 C64.017472,4.09360512 64.1472641,5.06669661 64.1472641,5.06669661 C64.1472641,5.06669661 65.9443859,4.32433815 67.9411879,5.14695158 C69.9479739,5.969565 70.3972544,7.03294333 70.7966148,7.76526992 C70.7966148,7.76526992 70.5869506,5.63851326 68.7798448,4.26414693 C68.7798448,4.26414693 69.2291252,4.26414693 69.9379899,4.2039557 L69.967942,4.2039557 L70.2075582,4.18389196 L70.2674623,4.17386009 L70.3573184,4.16382822 L70.3573184,4.16382822 C70.9064389,4.11366886 71.5553996,4.02338202 72.2642643,3.8929677 C72.7534808,3.85284021 72.983113,3.88293583 73.0929371,4.21398757 L73.0929371,4.21398757 L73.0629851,4.31430628 C73.0530011,4.35443377 73.033033,4.39456125 73.023049,4.43468873 C73.023049,4.43468873 72.2742483,6.68182784 70.8864709,7.69504682 L70.7966148,7.77530179 C70.7966148,7.77530179 68.6400686,7.28374011 66.6532507,7.62482372 C64.6664327,7.96590734 64.2870403,8.95906257 64.2870403,8.95906257 C64.2870403,8.95906257 66.7031707,9.85189909 67.002691,11.727859 C67.3022113,13.6038189 66.1540502,15.0484083 65.5150735,15.4797787 C65.5150735,15.4797787 68.2307242,14.4164004 68.1009321,11.7679865 C68.0609961,10.9052455 67.6416676,10.3133652 67.1025311,9.90205845 C68.989509,9.89202657 71.4256074,10.0224409 71.4256074,10.0224409 C71.4355914,9.29011431 71.3157833,8.68820205 71.036231,8.16654476 C72.4839125,6.90252901 73.013065,4.98644164 73.0929371,4.23405131 L73.0929371,4.23405131 L73.0929371,4.23405131 C73.1029211,4.2039557 73.1129051,4.14376447 73.1129051,4.12370073 L73.1129051,4.08357325 C73.1129051,4.05347763 73.1129051,4.03341389 73.1129051,4.00331828 L73.1428571,3.94312705 L73.1428571,3.94312705 Z M56.8888889,8.51766024 C60.9024609,10.0826321 60.8525409,12.500313 60.8525409,12.500313 C61.4715495,10.1829508 64.2970243,8.9490307 64.2970243,8.9490307 C64.2970243,8.9490307 62.8293748,8.23676785 60.8026208,8.09632166 C58.7758668,7.95587547 56.8888889,8.51766024 56.8888889,8.51766024 L56.8888889,8.51766024 Z M68.3405483,10.5440982 C68.6800047,10.8149587 69.019461,11.1761061 69.2490932,11.6676677 C70.0877501,11.647604 71.1959752,11.6576359 71.1959752,11.6576359 C71.2758473,11.2964885 71.3457353,10.945373 71.3956554,10.6042894 L71.3956554,10.5741938 C70.6668227,10.5440982 69.4188214,10.5340663 68.3405483,10.5440982 L68.3405483,10.5440982 Z M59.1852112,36.0250506 C59.1552592,36.0350825 57.7375297,36.536676 55.980344,36.2156562 C55.980344,36.2156562 58.3066183,38.4728271 60.6628447,43.4185396 L60.6628447,43.4285714 L60.7527008,43.4185396 C60.5230685,41.1714004 59.5646036,37.3994169 59.3449553,36.697186 L59.1852112,36.0250506 Z M39.6265356,23.545403 C36.2120042,20.0743757 36.1121641,16.1519141 36.1121641,16.1519141 C36.1121641,16.1519141 34.9440349,20.7364792 37.7195897,24.1573472 C40.5051285,27.5882471 47.2742873,27.9594263 47.2742873,27.9594263 C47.2742873,27.9594263 43.041067,27.0164304 39.6265356,23.545403 L39.6265356,23.545403 Z M19.8981319,33.1258399 L19.8981319,33.1258399 L19.9380679,33.1258399 C20.0678601,33.1358718 20.4772045,33.1759992 20.4971725,33.1759992 C20.5570766,33.1759992 21.2559573,33.2562542 21.2559573,33.2562542 C22.2443742,33.3666048 23.2527593,33.507051 24.2711283,33.6775928 C26.5574666,25.2708849 32.987169,20.7866385 32.987169,20.7866385 C24.2811123,25.0200881 20.6269646,31.8919197 19.8981319,33.1258399 L19.8981319,33.1258399 Z M36.7411567,9.47068799 C36.7411567,9.47068799 43.7199797,8.12641727 51.6972037,10.0224409 C51.98674,9.76161225 52.3162123,9.5007836 52.6956047,9.22992309 C52.6956047,9.22992309 45.3773254,7.19345327 36.7411567,9.47068799 Z M36.7810928,12.1993569 C36.7810928,12.1993569 42.8913069,10.6745125 50.3493623,11.6977634 C50.4891385,11.416871 50.6888187,11.1159148 50.9384189,10.8049268 C48.2427362,10.5039707 42.7814828,10.2632058 36.7810928,12.1993569 L36.7810928,12.1993569 Z M51.3277953,4.49487996 C48.9116649,4.01335015 46.5953746,4.98644164 46.4755665,5.036601 L46.4755665,5.036601 L46.4755665,5.036601 L46.4755665,5.036601 C48.7020007,5.07672848 49.3809134,5.26733403 49.3809134,5.26733403 C49.3809134,5.26733403 49.959986,4.23405131 51.3277953,4.49487996 L51.3277953,4.49487996 Z M36.9308529,14.8578027 C36.9308529,14.8578027 42.7115947,13.0620978 49.989938,13.5737232 C49.950002,13.3128946 49.950002,13.0019066 50.01989,12.6407592 C47.1045591,12.5605043 42.1824422,12.8213329 36.9308529,14.8578027 Z" id="path12" fill="#0085CA"></path>
                </g>
            </g>
        </g>
    </g>
</svg>