<?xml version="1.0" encoding="UTF-8"?>
<svg width="120px" height="120px" viewBox="0 0 120 120" version="1.1" xmlns="http://www.w3.org/2000/svg" xmlns:xlink="http://www.w3.org/1999/xlink">
    <title>New England Patriots-01</title>
    <defs>
        <circle id="path-1" cx="60" cy="60" r="50"></circle>
    </defs>
    <g id="Page-1" stroke="none" stroke-width="1" fill="none" fill-rule="evenodd">
        <g id="New-England-Patriots-01">
            <circle id="Mask" fill="#F0F2F5" cx="60" cy="60" r="60"></circle>
            <mask id="mask-2" fill="white">
                <use xlink:href="#path-1"></use>
            </mask>
            <use id="Mask" fill="#FFFFFF" xlink:href="#path-1"></use>
            <g mask="url(#mask-2)">
                <g transform="translate(10.000000, 39.000000)">
                    <g id="Group" stroke-width="1" fill="none" fill-rule="evenodd">
                        <path d="M97.3047337,3.58239158 C87.9983254,6.3064588 80.3286547,-0.182022922 68.7903317,0.00961999775 L68.776805,0.00961999775 C68.776805,0.00961999775 52.90992,-0.469487302 37.6517391,5.33455542 C22.2853441,10.8922001 11.7480011,15.0946556 1.8058353,16.2992682 C-0.534293517,16.6688653 -0.750721615,20.2690144 2.04931691,20.4469685 C11.2475111,20.8028768 17.4698189,20.1458154 23.5433324,18.9138252 C22.67762,21.6105148 25.3694445,21.8842904 25.4100248,21.8842904 C32.6333125,22.8014387 38.490398,22.0485558 44.1986891,20.8439432 C42.7377994,22.6234846 43.9146272,24.2250718 45.1726155,24.4851586 C66.7072113,28.3453946 74.9179523,39.3785513 82.7905243,47.2222222 C84.9953856,46.9347578 89.7297502,44.0874916 88.2012268,38.338204 C88.2012268,38.338204 88.7828773,37.0651475 88.7828773,36.0521777 L91.5017553,34.4095241 C91.5017553,34.4095241 90.351981,28.6054814 90.2031867,27.9347312 C91.6911299,27.1544707 94.4100079,25.771904 94.4100079,25.771904 C94.4100079,25.771904 99.3202203,8.27764312 99.9153976,6.0326832 C100.442941,4.03412132 98.3733474,3.26754964 97.3047337,3.58239158 Z M2.06284366,18.3799628 C19.2688775,16.0118038 33.4719714,7.7437807 48.0808681,4.40371838 C48.5407778,6.21063734 49.3794367,9.81078648 49.3794367,9.81078648 C28.4670717,14.25964 26.2622104,19.1602232 2.06284366,18.3799628 Z M25.396498,19.8172847 C36.826607,18.1335647 43.7387793,13.821599 50.2180955,12.4390322 C50.5968447,14.0543083 51.0973347,15.7106507 51.4219768,17.0110848 C34.4188444,21.6926475 25.396498,19.8172847 25.396498,19.8172847 Z M92.6650563,24.3482708 C91.0283188,25.1422201 89.4321616,25.9772357 87.8360044,26.8670064 C88.3906014,29.002456 88.68819,31.3021711 89.18868,33.423932 L86.6997569,34.8886314 L86.7132836,36.4354636 L85.9287318,38.5024694 C86.8485512,39.7344596 86.5915428,41.514001 85.8746247,42.7459912 C85.2659207,43.7452721 84.2919943,44.498155 83.3315946,45.059395 C83.3315946,45.059395 69.3449287,25.8266591 45.5243112,22.4592192 C52.2335822,21.3914944 54.7766124,18.2841413 66.3555156,18.3115189 C62.2433817,16.0118038 56.9814736,15.8338497 52.1659484,16.9289521 C51.9089401,15.9022936 51.0161741,12.206323 51.0161741,12.206323 C54.1138013,11.3165523 57.3196425,10.9332664 60.5931175,10.7005572 C57.4549101,9.49594454 53.9920605,9.35905674 50.3804166,9.67389868 C49.9475604,7.85329094 49.582338,6.08743832 49.0953748,4.1846979 C55.2500488,2.76106478 62.1351677,2.04924822 68.7362247,2.09031456 C76.4464757,2.15875846 86.7809174,5.6904637 86.7809174,5.6904637 C90.2708205,6.67605586 94.3288473,6.66236708 97.8999109,5.58095346 C97.3858942,7.83960216 92.6650563,24.3482708 92.6650563,24.3482708 Z" id="Shape" fill="#FFFFFF" fill-rule="nonzero"></path>
                        <path d="M88.025379,12.890762 C87.7954241,11.9462362 87.3355144,9.22216894 87.2002468,8.9757709 L84.8465913,12.0557464 C84.8465913,12.0557464 81.6813303,11.2207308 79.9093253,10.8511338 C81.0185193,12.0283688 82.1006598,13.0960937 83.088113,14.2733288 C82.1547668,15.7106507 80.9644122,17.0658399 79.976959,18.4347179 C81.7760176,17.8187228 83.6156565,17.2711716 85.4282418,16.6277989 C86.7403371,17.9692994 88.133593,19.42031 89.4186348,20.7070554 C89.2022067,18.9685803 88.68819,17.2164165 88.5258689,15.5600741 L92.624476,14.1501297 C91.1500596,13.6710224 89.5403756,13.3561805 88.025379,12.890762 Z" id="Path" fill="#FFFFFF" fill-rule="nonzero"></path>
                    </g>
                    <path d="M88.7956267,6.25705146 C88.7956267,6.25705146 78.3818297,2.8325303 70.6123737,2.77943695 C63.9742596,2.73961693 57.0362718,3.41655716 50.8207071,4.81025764 C51.3114096,6.6552516 51.6794364,8.36751218 52.1156164,10.1328661 C55.7549931,9.82757934 59.244433,9.94703938 62.4067378,11.1283665 C59.1081267,11.3540132 55.8776687,11.7123933 52.7562557,12.5884336 C52.7562557,12.5884336 53.655877,16.1722348 53.9148588,17.1677352 C58.7673611,16.1058681 64.069674,16.2916949 68.2133838,18.5083423 C56.5455693,18.4817956 53.9830119,21.48157 47.2222222,22.5301637 C71.2257518,25.8086781 85.3198175,44.4444444 85.3198175,44.4444444 C86.3012225,43.9002376 87.2826274,43.1834773 87.8823749,42.2012503 C88.604798,40.9933766 88.8637798,39.2678427 87.9368974,38.0865156 L88.7274736,36.0822416 L88.713843,34.5823544 L91.2218779,33.1621073 C90.7175448,31.1047399 90.417671,28.8748192 89.8588154,26.8041784 C91.4535985,25.9414115 93.0756428,25.1317379 94.7249483,24.3618843 C94.7249483,24.3618843 99.4820363,8.35423884 100,6.1641381 C96.4015152,7.19945845 92.3123278,7.19945845 88.7956267,6.25705146 Z M85.9331956,32.2993403 L85.3334481,33.0426472 C86.0149793,33.2815673 86.7646637,33.7195875 87.4325643,33.9850542 L87.3780418,34.8080012 L85.5515381,34.8610945 C84.72007,35.4583947 84.0658,36.0424216 83.2207013,36.6397218 C83.2207013,36.6397218 85.0063131,36.3477084 85.9331956,36.0955149 L87.6506543,36.0955149 C87.4598255,36.5866284 87.2553662,37.0113753 87.0372762,37.4626687 L85.3334481,37.5290354 C85.3334481,37.5290354 86.3693756,38.7236358 87.078168,39.4934894 C87.8823749,40.8208232 85.6742137,42.4401704 85.6742137,42.4401704 C81.7349633,38.1528823 77.4549472,33.6532208 72.2207874,30.7596331 C72.7523818,29.9632329 73.542958,29.5252127 74.4698404,29.6313994 C76.4190197,30.0030529 78.0819559,31.2772933 78.5453972,31.7551335 C79.1451446,32.3789803 80.2492252,33.9850542 80.5763602,34.2239743 C80.4127927,32.9364605 79.9357208,31.6356734 79.6222165,30.3348863 L73.7201561,26.392705 C74.3335342,24.7866311 76.4735422,23.6716707 78.3273072,23.6185774 C80.1265496,23.565484 81.8849001,23.5787574 83.2207013,24.6140777 C80.1401802,24.5742577 79.0360996,26.0741449 78.586289,27.4678453 C78.5590278,27.574032 84.8700069,27.4412987 84.8700069,27.4412987 C85.1017275,26.8174518 85.1971419,26.1272382 85.6605831,25.5963047 C86.137655,24.9193645 87.0372762,24.6804444 87.8142218,24.6538977 C87.9641586,25.1582846 89.3408517,32.246247 89.3408517,32.246247 C88.1958792,32.246247 87.1599518,32.2197003 85.9331956,32.2993403 Z M91.4672291,20.8179031 C90.1723198,19.5702093 88.7547348,18.1632355 87.4461949,16.8624484 C85.6333219,17.4730219 83.7795569,18.0039555 81.9530533,18.614529 C82.9344582,17.2739219 84.1475838,15.9598614 85.0880969,14.5794343 C84.0930613,13.4379272 83.0026113,12.4026069 81.8849001,11.2610998 C83.6568813,11.6062066 86.8600781,12.4291536 86.8600781,12.4291536 L89.2318067,9.44265254 C89.3681129,9.69484596 89.8315542,12.3229669 90.0632748,13.2388272 C91.5899047,13.6901207 93.211949,14.0086808 94.7113177,14.4732476 L90.5676079,15.8404014 C90.7311754,17.4332019 91.2491391,19.1321892 91.4672291,20.8179031 Z" id="Shape" fill="#0D254C" fill-rule="nonzero"></path>
                    <path d="M85.2777778,27.0534603 C84.8280423,27.6016395 84.7354497,28.3005679 84.510582,28.9583829 C84.510582,28.9583829 78.3994709,29.0954277 78.4126984,28.9857919 C78.8492063,27.5605261 79.9338624,25.9982154 82.9100529,26.0393289 C81.6137566,24.984084 79.9074074,24.9703795 78.1613757,25.0114929 C76.3624339,25.0663109 74.2857143,26.2174871 73.6904762,27.8757291 L79.4047619,31.9459594 C79.7089947,33.2889984 80.1719577,34.6320373 80.3306878,35.9613718 C80.0132275,35.7283957 78.9417989,34.0701537 78.3597884,33.4123387 C77.9100529,32.9189774 76.2830688,31.6033474 74.4047619,31.219622 C73.505291,31.1236907 72.7380952,31.562234 72.2222222,32.3845027 C77.2883598,35.3720792 81.4550265,40.0178977 85.2777778,44.4444444 C85.2777778,44.4444444 87.4074074,42.772498 86.6402116,41.4020501 C85.952381,40.6071903 84.9470899,39.3737871 84.9470899,39.3737871 L86.6005291,39.3052647 C86.8121693,38.8530169 87.010582,38.4144736 87.1957672,37.8937034 L85.5291005,37.8937034 C84.6296296,38.1540885 82.8968254,38.455587 82.8968254,38.455587 C83.7037037,37.8388855 84.3386243,37.2358884 85.1587302,36.6191868 L86.9312169,36.5643689 L86.984127,35.7146912 C86.3359788,35.4543061 85.6084656,35.0020583 84.9470899,34.7416732 L85.5291005,33.9742223 C86.7063492,33.8919955 87.7248677,33.9194044 88.8888889,33.9056999 C88.8888889,33.9056999 87.5529101,26.587508 87.4074074,26.0667378 C86.6137566,26.0941468 85.7539683,26.3408274 85.2777778,27.0534603 Z" id="Path" fill="#D6D6D6" fill-rule="nonzero"></path>
                    <g id="Group" stroke-width="1" fill="none" fill-rule="evenodd" transform="translate(2.777778, 5.555556)">
                        <path d="M48.7801535,8.48834263 C42.2149123,9.94637428 35.2110746,14.4792647 23.629386,16.2693234 C23.629386,16.2693234 32.7713816,18.2614854 50,13.3243882 C49.6710526,11.9385363 49.1639254,10.1917855 48.7801535,8.48834263 Z" id="Path" fill="#C0001D" fill-rule="nonzero"></path>
                        <path d="M46.6282895,0 C31.8256579,3.52237347 17.4342105,12.2416914 0,14.739112 C24.5202851,15.5619615 26.754386,10.3938889 47.9440789,5.70220296 C47.9303728,5.71663892 47.0942982,1.90554631 46.6282895,0 Z" id="Path" fill="#C0001D" fill-rule="nonzero"></path>
                    </g>
                </g>
            </g>
        </g>
    </g>
</svg>