<?xml version="1.0" encoding="UTF-8"?>
<svg width="120px" height="120px" viewBox="0 0 120 120" version="1.1" xmlns="http://www.w3.org/2000/svg" xmlns:xlink="http://www.w3.org/1999/xlink">
    <title>SF 49ers-01</title>
    <defs>
        <circle id="path-1" cx="60" cy="60" r="50"></circle>
    </defs>
    <g id="Page-1" stroke="none" stroke-width="1" fill="none" fill-rule="evenodd">
        <g id="SF-49ers-01">
            <circle id="Mask" fill="#F0F2F5" cx="60" cy="60" r="60"></circle>
            <mask id="mask-2" fill="white">
                <use xlink:href="#path-1"></use>
            </mask>
            <use id="Mask" fill="#FFFFFF" xlink:href="#path-1"></use>
            <g mask="url(#mask-2)" fill-rule="nonzero">
                <g transform="translate(20.000000, 36.000000)">
                    <ellipse id="Oval" fill="#FFFFFF" cx="40" cy="23.2" rx="40" ry="23.2"></ellipse>
                    <ellipse id="Oval" fill="#0C0D0C" cx="38.8" cy="24.4" rx="38.8" ry="22"></ellipse>
                    <ellipse id="Oval" fill="#C7A564" cx="41.2" cy="22.8" rx="34" ry="21.2"></ellipse>
                    <ellipse id="Oval" fill="#C9203D" cx="42" cy="22.8" rx="30.8" ry="18.8"></ellipse>
                    <path d="M65.7681996,21.5002368 L65.6827207,21.5002368 L65.6827207,20.8400222 L65.0583532,20.8400222 L53.2622671,20.8400222 C52.9946811,19.5471019 52.1919228,18.3470243 51.0435326,17.4117203 C49.9137247,16.2082041 48.2710436,15.3072863 46.4016575,14.9634245 L45.6249146,14.8155639 C43.8298581,14.4682636 42.4175982,14.1897355 36.7202448,14.2172445 C36.7202448,14.2172445 35.6238852,14.1828583 34.5609738,14.0521908 C34.2933878,13.9902957 34.0555335,13.9146461 33.8511274,13.8321193 C33.9291734,13.3919762 34.7988281,12.7902181 35.7762606,12.6733051 C35.8766054,12.656112 42.0422344,11.6073336 48.3899707,15.4104448 L48.5460626,15.5032875 L52.7159456,15.5032875 L52.7159456,9.59574226 L52.0023827,9.59574226 L52.0023827,8.93552767 L46.2790139,8.93552767 C46.2790139,8.93552767 45.5988993,9.41693414 45.3164474,9.61637397 C43.6700497,9.23468741 35.5978699,7.601344 28.6257661,10.4244491 C25.6971852,11.5454385 23.8798298,13.6601884 24.0061899,15.8058858 C24.0730864,16.8890504 24.6305574,17.8312317 25.6005569,18.5636572 C26.3141197,19.3854869 27.4327782,20.0285084 28.8896357,20.4170722 C30.9522783,20.967251 32.6990207,21.1941998 34.3937325,21.2836038 L34.3937325,21.4727278 L34.3937325,23.9760415 L35.1072954,23.9760415 L35.1072954,24.6362561 L37.2851487,24.6362561 C38.1882517,24.6362561 38.418673,25.0970309 38.4744201,25.2689618 C35.6982146,25.1004695 31.4725846,24.3680439 28.3618965,21.7065538 L28.2466858,21.5896408 L28.224387,21.5896408 C28.0534292,21.4383416 27.8824714,21.2801652 27.7189466,21.1185502 L27.5331229,20.9328648 L24.4038525,20.9328648 L24.4038525,29.3402851 L25.1174153,29.3402851 L25.1174153,30.0004997 L27.6706325,30.0004997 C28.0459963,30.02457 29.2315512,29.9007798 30.0491753,27.6897486 C31.3759563,28.1161372 34.6501692,29.0273709 38.6788262,29.1305294 L38.6788262,34.360667 C38.5376002,36.1178006 34.3565678,36.6679794 32.8997103,36.7195587 L32.2976416,36.7401904 L32.2976416,39.3397854 L33.0112045,39.3397854 L33.0112045,40 L51.3668658,40 L51.3668658,37.5138794 L50.8985902,37.400405 C50.8131113,37.3797733 50.7350653,37.3591416 50.6533029,37.3385099 L50.6533029,36.771138 L50.080966,36.7264359 C49.0477865,36.6404705 48.2561777,36.4754169 47.6392431,36.2725384 C46.4871364,35.6742189 46.2864469,35.1859352 46.264148,35.1102856 L46.264148,32.3215667 L51.6456013,32.3215667 C52.2142217,32.4006549 52.7010797,32.6310423 53.1136082,32.930202 C53.8903511,33.8139268 54.2396996,34.8214417 54.2471325,34.8386348 L54.384642,35.2478303 L54.8454847,35.251269 L54.8603506,35.251269 C54.9235307,35.3991295 54.9606954,35.4954108 54.9606954,35.4988494 L55.0982049,35.9080449 L55.5590476,35.9080449 L57.9896211,35.9080449 L57.9896211,25.7916316 L57.3615371,25.7916316 L57.2760582,25.7916316 L57.2760582,25.131417 L56.6479742,25.131417 L54.3995079,25.131417 L54.2954467,25.5956304 C53.5410026,28.9551599 49.3413879,28.9070193 45.6063323,28.4015425 C46.3384775,28.2158571 47.0743392,27.9957856 47.8064844,27.7241348 C49.805947,26.9882706 51.3074022,25.9876329 52.2439535,24.8185028 L60.3049839,24.8185028 C60.8661714,24.8356959 61.3455964,24.9629248 61.7469755,25.2070666 C62.5943314,26.355565 62.5088525,28.0439262 62.5088525,28.064558 L62.4754043,28.6766319 L63.1369365,28.6766319 L63.2261319,28.6766319 C63.2261319,28.7041408 63.2261319,28.7213339 63.2261319,28.7247725 L63.1889671,29.3368465 L63.8504994,29.3368465 L66.4,29.3368465 L66.4,21.507114 L65.7681996,21.5002368 L65.7681996,21.5002368 Z" id="Path" fill="#0C0D0C"></path>
                    <path d="M53.6,21.2629229 L60.6401958,21.2629229 C64.6614867,21.3718449 64.3717345,25.6 64.3717345,25.6 L66.4,25.6 L66.4,19.2 L54.2499847,19.2 C54.2460691,19.196705 54.2186601,20.6291947 53.6,21.2629229" id="Path" fill="#FFFFFF"></path>
                    <path d="M39.4103086,28.9465472 L39.4103086,34.9119663 C39.2309572,38.0409067 33.6,38.2973115 33.6,38.2973115 L33.6,40 L49.1731161,40 L49.1731161,38.2973115 C44.5438195,37.8245651 44.5235156,35.032156 44.5235156,35.032156 L44.5235156,31.0498682 L50.0563371,31.0498682 C52.5875607,31.4785451 53.5587655,35.2324723 53.5587655,35.2324723 L55.2,35.2324723 L55.2,24.8 L53.6162933,24.8 C52.5164969,31.0859251 44.3813881,28.2574591 43.7790381,28.4137059 C43.7790381,28.4137059 41.7757167,29.0066421 39.4103086,28.9465472" id="Path" fill="#FFFFFF"></path>
                    <path d="M43.8723608,20.3412998 C46.1795791,21.0430006 46.3936889,22.8720242 45.0425819,24.5821804 C43.3149369,26.2769988 40.6754791,26.3460186 40.6754791,26.3460186 C40.6754791,26.3460186 31.7899201,27.3429706 26.6069849,21.5184701 L24.3920554,21.5184701 L24.3920554,29.597616 L26.3338103,29.597616 C26.3338103,29.597616 27.515106,29.7855031 28.2755652,26.8253224 C28.2755652,26.8253224 37.3973834,30.6827599 46.0762157,27.1014015 C54.4818734,23.6350759 51.2813002,16.0390683 45.500334,14.8465603 C43.2780214,14.390263 42.3920495,13.9953166 36.0093609,14.0298265 C36.0093609,14.0298265 34.8575975,13.9914822 33.7353665,13.8342705 C30.2173201,12.921676 32.2181398,10.5596666 34.2817158,10.2835875 C34.2817158,10.2835875 40.6201059,8.98754989 47.2316706,13.4354897 L50.5688312,13.4354897 L50.5688312,8.14014066 L45.7144439,8.14014066 L44.6845016,8.95687444 C44.6845016,8.95687444 35.6881961,6.34946143 28.2201919,9.74293278 C23.1996849,11.8978829 22.2140413,17.2929272 27.6996835,18.9340636 C32.5282299,20.3796441 35.606982,19.773804 40.5019763,19.96936 C41.8604665,20.0268764 43.0491453,20.0805585 43.8723608,20.3412998" id="Path" fill="#FFFFFF"></path>
                    <path d="M35.8952654,25.3527882 L33.6,25.3527882 L33.6,23.2 C35.380302,23.2 39.010794,23.2154046 41.5782543,23.2 C44.1641062,23.2 44.5061891,24.7635635 43.4174093,25.8226275 C42.3911608,26.8200732 40.2393495,27.5286832 37.693959,27.0434394 C37.693959,27.0434394 37.4842953,25.3527882 35.8952654,25.3527882" id="Path" fill="#FFFFFF"></path>
                </g>
            </g>
        </g>
    </g>
</svg>