<svg viewBox="0 0 960 960" xmlns="http://www.w3.org/2000/svg" xmlns:xlink="http://www.w3.org/1999/xlink" id="1f904c86-2dcf-4b4b-9a6b-1eee1b2ce69a" overflow="hidden"><style>
.MsftOfcResponsive_Fill_962893 {
 fill:#962893; 
}
</style>
<g><path d="M361.104 136.471C361.104 136.471 367.742 145.795 362.112 157.276 360.712 160.132 359.066 162.852 357.29 165.329 357.283 165.339 357.295 165.351 357.304 165.343 364.029 159.641 370.907 150.771 375.798 140.798 384.243 123.576 374.286 109.59 374.286 109.59 374.286 109.59 350.637 123.525 342.192 140.747 337.671 149.967 335.769 158.25 336.399 163.964 336.4 163.974 336.414 163.976 336.419 163.967L339.709 157.243C345.338 145.761 361.104 136.471 361.104 136.471Z" class="MsftOfcResponsive_Fill_962893" fill="#962893"/><path d="M348.514 177.804 348.514 172.433C348.514 171.499 347.876 170.633 346.954 170.484 345.779 170.293 344.764 171.194 344.764 172.333L344.764 177.804 331.146 177.804C331.14 177.804 331.136 177.808 331.136 177.814L331.136 208.811C331.136 208.811 333.667 213.134 333.667 220.201 333.667 227.268 331.136 235.554 331.136 235.554L331.136 262.297C331.136 262.297 333.667 264.467 333.667 273.534 333.667 282.601 331.136 289.04 331.136 289.04L331.136 315.783 331.136 317.333 360.133 317.333C360.133 317.333 360 321.4 360 307.933 360 294.466 362.142 284.776 362.142 284.776L362.142 258.033C362.142 258.033 359.8 254.2 359.8 245.933 359.8 237.666 362.142 231.29 362.142 231.29L362.142 204.547C362.142 204.547 359.4 199.933 359.4 192.067 359.4 184.338 362.047 178.029 362.14 177.81 362.143 177.803 362.135 177.804 362.127 177.804L348.514 177.804Z" class="st1" fill="#F1F1F1"/><path d="M331.136 317.333 362.142 317.333 362.142 284.776 331.136 315.783Z" class="st2" fill="#E5E5E5"/><path d="M331.136 289.04 362.142 258.033 362.142 231.29 331.136 262.296Z" class="st2" fill="#E5E5E5"/><path d="M362.057 177.889 331.136 208.81 331.136 235.553 362.143 204.546 362.143 177.924C362.142 177.88 362.089 177.858 362.057 177.889Z" class="st2" fill="#E5E5E5"/></g><g><path d="M497.104 136.471C497.104 136.471 503.742 145.795 498.112 157.276 496.712 160.132 495.066 162.852 493.29 165.329 493.283 165.339 493.295 165.351 493.304 165.343 500.029 159.641 506.907 150.771 511.798 140.798 520.243 123.576 510.286 109.59 510.286 109.59 510.286 109.59 486.637 123.525 478.192 140.747 473.671 149.967 471.769 158.25 472.399 163.964 472.4 163.974 472.414 163.976 472.419 163.967L475.709 157.243C481.338 145.761 497.104 136.471 497.104 136.471Z" class="MsftOfcResponsive_Fill_962893" fill="#962893"/><path d="M484.514 177.804 484.514 172.433C484.514 171.499 483.876 170.633 482.954 170.484 481.779 170.293 480.764 171.194 480.764 172.333L480.764 177.804 467.146 177.804C467.141 177.804 467.136 177.808 467.136 177.814L467.136 208.811C467.136 208.811 469.667 213.134 469.667 220.201 469.667 227.268 467.136 235.554 467.136 235.554L467.136 262.297C467.136 262.297 469.667 264.467 469.667 273.534 469.667 282.601 467.136 289.04 467.136 289.04L467.136 315.783 467.136 317.333 496.133 317.333C496.133 317.333 496 321.4 496 307.933 496 294.466 498.142 284.776 498.142 284.776L498.142 258.033C498.142 258.033 495.8 254.2 495.8 245.933 495.8 237.666 498.142 231.29 498.142 231.29L498.142 204.547C498.142 204.547 495.4 199.933 495.4 192.067 495.4 184.338 498.047 178.029 498.14 177.81 498.143 177.803 498.135 177.804 498.127 177.804L484.514 177.804Z" class="st1" fill="#F1F1F1"/><path d="M467.136 317.333 498.142 317.333 498.142 284.776 467.136 315.783Z" class="st2" fill="#E5E5E5"/><path d="M467.136 289.04 498.142 258.033 498.142 231.29 467.136 262.296Z" class="st2" fill="#E5E5E5"/><path d="M498.125 177.821 467.136 208.81 467.136 235.553 498.143 204.546 498.143 177.827C498.142 177.819 498.132 177.815 498.125 177.821Z" class="st2" fill="#E5E5E5"/></g><g><path d="M631.104 136.471C631.104 136.471 637.742 145.795 632.112 157.276 630.712 160.132 629.066 162.852 627.29 165.329 627.283 165.339 627.295 165.351 627.304 165.343 634.029 159.641 640.907 150.771 645.798 140.798 654.243 123.576 644.286 109.59 644.286 109.59 644.286 109.59 620.637 123.525 612.192 140.747 607.671 149.967 605.769 158.25 606.399 163.964 606.4 163.974 606.414 163.976 606.419 163.967L609.709 157.243C615.338 145.761 631.104 136.471 631.104 136.471Z" class="MsftOfcResponsive_Fill_962893" fill="#962893"/><path d="M618.514 177.804 618.514 172.433C618.514 171.499 617.876 170.633 616.954 170.484 615.779 170.293 614.764 171.194 614.764 172.333L614.764 177.804 601.146 177.804C601.141 177.804 601.136 177.808 601.136 177.814L601.136 208.811C601.136 208.811 603.667 213.134 603.667 220.201 603.667 227.268 601.136 235.554 601.136 235.554L601.136 262.297C601.136 262.297 603.667 264.467 603.667 273.534 603.667 282.601 601.136 289.04 601.136 289.04L601.136 315.783 601.136 317.333 630.133 317.333C630.133 317.333 630 321.4 630 307.933 630 294.466 632.142 284.776 632.142 284.776L632.142 258.033C632.142 258.033 629.8 254.2 629.8 245.933 629.8 237.666 632.142 231.29 632.142 231.29L632.142 204.547C632.142 204.547 629.4 199.933 629.4 192.067 629.4 184.338 632.047 178.029 632.14 177.81 632.143 177.803 632.135 177.804 632.127 177.804L618.514 177.804Z" class="st1" fill="#F1F1F1"/><path d="M601.136 317.333 632.142 317.333 632.142 284.776 601.136 315.783Z" class="st2" fill="#E5E5E5"/><path d="M601.136 289.04 632.142 258.033 632.142 231.29 601.136 262.296Z" class="st2" fill="#E5E5E5"/><path d="M632.125 177.821 601.136 208.81 601.136 235.553 632.143 204.546 632.143 177.827C632.142 177.819 632.132 177.815 632.125 177.821Z" class="st2" fill="#E5E5E5"/></g><g><path d="M763.835 568.614 191.163 567.896 179.907 583.547 180.011 694.833 780.107 694.832 780.107 583.476Z" class="st3" fill="#D1D1D1"/><path d="M738.444 329.011 221.655 329.01C198.656 329.01 180.009 347.642 179.998 370.633L179.901 575.547 186.701 580.511 773.232 580.614 780.101 575.547 780.101 370.654C780.101 347.655 761.451 329.011 738.444 329.011Z" class="st4" fill="#505050"/><path d="M179.7 575.477C179.7 575.472 179.704 575.474 179.709 575.473 186.322 574.414 192.591 577.923 198.926 578.12 203.315 578.211 206.504 577.498 210.591 575.687 219.045 571.976 229.624 572.668 237.954 576.033 245.124 578.12 251.054 575.29 257.996 573.255 262.046 572.396 265.647 572.37 269.709 572.694 276.077 573.074 281.355 577.018 287.585 576.568 290.389 576.573 292.088 576.327 294.812 575.463 315.609 567.795 321.441 582.57 338.243 578.846 348.098 575.08 358.428 575.266 367.887 578.613 379.751 580.9 388.645 574.214 400.991 577.166 421.107 584.07 420.668 575.794 437.894 574.545 444.381 573.751 450.579 577.407 456.838 577.191 464.841 577.137 471.727 571.208 480.004 571.483 485.13 570.995 490.724 572.243 495.591 573.746 500.458 574.568 504.664 573.84 509.261 571.558 514.357 569.205 521.09 568.314 526.721 568.587 530.966 568.628 535.263 569.986 539.241 571.239 543.25 571.951 546.847 571.723 550.736 569.941 554.029 568.395 560.083 567.026 563.95 566.976 568.705 566.707 573.826 567.122 578.475 568.673 578.475 568.673 579.235 568.928 579.235 568.928L580.594 569.405C583.781 570.742 587.138 570.84 590.341 570.362 594.534 569.101 600.965 566.619 605.895 566.683 611.032 566.424 616.227 566.864 621.267 568.577 621.267 568.577 622.768 569.11 622.768 569.11L624.905 569.918C627.569 570.916 630.249 570.912 632.954 570.692 633.748 570.588 634.265 570.498 635.345 570.152L637.53 569.398C645.284 566.697 653.298 566.55 661.226 568.492 666.774 570.026 669.527 572.238 674.923 571.874 677.736 571.944 680.283 570.664 683.043 569.938 689.615 568.201 696.126 568.353 702.748 569.835 707.563 570.883 710.356 573.335 714.83 573.762 721.715 574.946 728.108 570.661 735.215 571.238 740.068 571.266 745.588 572.234 749.911 574.326 753.898 576.29 756.736 577.167 761.011 577.284 767.316 577.499 773.803 574.16 780.294 575.474 780.299 575.475 780.302 575.473 780.302 575.478 780.302 575.635 780.302 583.309 780.302 583.473 780.302 583.478 780.298 583.476 780.293 583.476 775.377 583.949 772.38 586.14 767.716 587.991 751.608 594.056 744.218 583.928 731.294 589.118 709.099 599.531 702.532 586.312 688.813 591.482 679.745 595.707 668.226 596.366 658.791 592.935 655.309 591.583 653.124 591.579 649.735 591.867 648.269 592.01 647.256 592.329 646.023 592.821 638.935 595.893 631.099 596.808 623.387 595.714 618.099 595.235 614.105 592.252 608.869 592.35 605.662 592.351 605.073 592.551 601.717 593.787 592.079 597.523 580.283 597.098 570.835 592.987 566.951 591.699 563.398 591.62 559.352 592.993 553.536 595.222 546.058 595.951 539.733 595.049 535.783 594.588 531.7 593.208 528.067 591.564 520.156 587.869 512.301 593.374 504.042 593.091 498.84 593.064 493.537 592.315 488.673 590.153 484.892 588.145 480.622 587.105 476.368 587.362 471.89 587.68 466.673 590.192 461.818 589.931 457.857 589.96 454.194 589.598 450.355 588.48 445.635 587.012 442.53 584.628 437.713 584.437 429.739 583.401 422.311 588.436 414.178 587.031 409.16 586.976 404.303 584.396 399.751 582.954 382.071 579.522 380.108 591.036 357.632 582.351 347.824 579.608 339.481 587.156 329.913 587.609 320.878 588.731 312.052 583.144 303.192 586.46 295.089 590.306 284.784 591.806 276.046 588.775 271.592 587.155 268.966 586.231 264.464 586.477 259.788 586.414 256.501 588.656 251.722 589.611 244.285 591.12 236.13 590.02 229.419 586.98 215.566 582.372 208.333 592.852 192.455 587.393 187.795 585.691 184.557 583.738 179.712 583.477 179.707 583.477 179.703 583.479 179.703 583.474 179.7 583.301 179.7 575.64 179.7 575.477Z" class="st5" fill="#FFFFFF"/><path d="M795.808 501.701 790.745 469.589C789.445 461.364 788.557 436.902 788.083 419.126L788.083 356.257C788.083 333.258 769.439 314.614 746.44 314.614L215.205 314.614C192.18 314.614 173.525 333.299 173.562 356.323L173.846 534.426C173.658 546.201 172.633 557.951 170.795 569.588L165.745 601.7C164.263 611.078 170.578 619.551 180.047 619.612 180.103 619.612 180.151 619.566 180.151 619.509L180.151 527.112C180.151 520.017 186.956 514.406 194.147 514.738 200.889 515.049 206.057 520.9 206.057 527.649L206.057 534.275C206.057 539.6 210.069 544.25 215.395 544.588 221.207 544.963 226.057 540.35 226.057 534.613L226.057 489.825C226.057 483.162 231.082 477.35 237.72 476.925 245.008 476.45 251.057 482.212 251.057 489.387L251.057 534.274C251.057 539.599 255.069 544.249 260.395 544.587 266.207 544.962 271.057 540.349 271.057 534.612L271.057 474.7C271.057 468.05 276.082 462.238 282.72 461.8 290.008 461.337 296.057 467.1 296.057 474.275L296.057 541.788C296.057 547.113 300.069 551.763 305.395 552.113 311.207 552.488 316.057 547.875 316.057 542.126L316.033 534.364C316.007 527.602 321.483 522.114 328.245 522.114L328.833 522.114C335.558 522.114 341.021 527.552 341.058 534.276 341.058 539.601 345.07 544.251 350.396 544.589 356.208 544.964 361.058 540.351 361.058 534.614L361.058 489.826C361.058 483.163 366.083 477.351 372.721 476.926 380.009 476.451 386.058 482.213 386.058 489.388L386.058 539.3C386.058 544.625 390.07 549.275 395.396 549.613 401.208 549.988 406.058 545.375 406.058 539.638L406.058 474.701C406.058 468.051 411.083 462.239 417.721 461.801 425.009 461.338 431.058 467.101 431.058 474.276L431.058 476.776C431.058 482.101 435.07 486.751 440.396 487.101 446.208 487.476 451.058 482.863 451.058 477.114L451.108 474.301C451.108 467.401 456.708 461.801 463.608 461.801 470.521 461.801 476.108 467.401 476.108 474.301L476.108 481.351C476.108 486.676 480.133 491.326 485.446 491.676 491.271 492.051 496.108 487.439 496.108 481.689L496.108 436.902C496.108 430.239 501.133 424.427 507.783 424.002 515.058 423.527 521.108 429.289 521.108 436.477L521.108 481.352C521.108 486.677 525.133 491.327 530.446 491.677 536.271 492.052 541.108 487.44 541.108 481.69L541.108 462.403C541.108 455.74 546.133 449.928 552.783 449.503 560.058 449.028 566.108 454.791 566.108 461.978L566.108 509.29C566.108 514.615 570.133 519.265 575.446 519.615 581.271 519.99 586.108 515.377 586.108 509.64L586.083 481.44C586.071 474.69 591.546 469.19 598.308 469.19L598.895 469.19C605.62 469.19 611.083 474.628 611.108 481.353 611.108 486.678 615.133 491.328 620.446 491.678 626.271 492.053 631.108 487.441 631.108 481.691L631.108 472.691C631.941 466.299 637.589 461.411 644.293 461.828 650.948 462.242 655.996 468.045 655.996 474.713L655.996 481.353C655.996 486.678 660.021 491.328 665.333 491.678 671.158 492.053 675.996 487.441 675.996 481.691L675.996 436.904C675.996 430.241 681.021 424.429 687.659 424.004 694.947 423.529 700.996 429.291 700.996 436.479L700.996 481.354C700.996 486.679 705.021 491.329 710.333 491.679 716.158 492.054 720.996 487.442 720.996 481.692L720.996 439.934C720.996 433.39 725.848 427.639 732.367 427.067 739.774 426.416 745.996 432.245 745.996 439.517L745.996 453.706C745.996 459.023 749.992 463.677 755.296 464.044 761.119 464.447 765.996 459.828 765.996 454.067L765.996 442.417C765.996 434.317 771.875 426.83 779.913 426.617L779.913 518.514C779.913 518.57 779.96 518.617 780.016 518.617 789.481 518.559 797.278 511.08 795.808 501.701Z" class="MsftOfcResponsive_Fill_962893" fill="#962893"/></g><g id="cake_stand"><path d="M500.063 745.648C500.063 745.648 495.227 738.613 480.427 738.613 465.627 738.613 459.936 745.648 459.936 745.648 441.4 798.657 390.957 836.683 331.623 836.683L331.623 848.51 628.377 848.51 628.377 836.684C569.043 836.685 518.599 798.657 500.063 745.648Z" class="st2" fill="#E5E5E5"/><path d="M467.935 694.801C467.36 717.435 464.696 732.034 459.936 745.648L500.063 745.648C495.298 732.02 492.634 717.405 492.895 694.732 492.902 694.033 467.954 694.079 467.935 694.801Z" class="st3" fill="#D1D1D1"/><path d="M150.007 693.107C150.007 711.554 164.962 726.509 183.409 726.509 199.901 726.509 213.599 714.556 216.318 698.842 216.337 698.732 216.481 698.732 216.5 698.842 219.219 714.557 232.918 726.509 249.409 726.509 265.9 726.509 279.599 714.556 282.318 698.842 282.337 698.732 282.481 698.732 282.5 698.842 285.219 714.556 298.918 726.509 315.409 726.509 331.9 726.509 345.599 714.556 348.318 698.842 348.337 698.732 348.481 698.732 348.5 698.842 351.219 714.557 364.918 726.509 381.409 726.509 397.9 726.509 411.599 714.556 414.318 698.842 414.337 698.732 414.481 698.732 414.5 698.842 417.219 714.556 430.918 726.509 447.409 726.509 463.882 726.509 477.567 714.583 480.308 698.894 480.327 698.784 480.471 698.784 480.49 698.894 483.188 714.634 496.899 726.613 513.409 726.613 529.935 726.613 543.657 714.612 546.337 698.85 546.356 698.74 546.499 698.74 546.519 698.85 549.242 714.562 562.939 726.512 579.43 726.512 595.902 726.512 609.587 714.588 612.331 698.901 612.35 698.791 612.493 698.791 612.513 698.901 615.257 714.586 628.94 726.511 645.411 726.511 661.511 726.511 674.944 715.118 678.104 699.955 678.126 699.85 678.264 699.85 678.286 699.955 681.445 715.118 694.879 726.511 710.979 726.511 727.116 726.511 740.573 715.065 743.692 699.85 743.714 699.744 743.853 699.744 743.874 699.85 746.994 715.066 760.451 726.513 776.59 726.513 795.039 726.513 809.995 711.557 809.995 693.108L150.007 693.108Z" class="st2" fill="#E5E5E5"/></g><g><path d="M316.618 779.208 303.493 779.208C302.457 779.208 301.618 778.368 301.618 777.333 301.618 776.298 302.457 775.458 303.493 775.458L316.618 775.458C317.654 775.458 318.493 776.298 318.493 777.333 318.493 778.368 317.653 779.208 316.618 779.208Z" class="MsftOfcResponsive_Fill_962893" fill="#962893"/><path d="M351.06 752.626C350.58 752.626 350.101 752.443 349.734 752.077L340.453 742.796C339.721 742.064 339.721 740.876 340.453 740.144 341.185 739.412 342.372 739.412 343.104 740.144L352.385 749.425C353.117 750.157 353.117 751.345 352.385 752.077 352.02 752.444 351.54 752.626 351.06 752.626Z" class="MsftOfcResponsive_Fill_962893" fill="#962893"/><path d="M243.493 864.208C243.013 864.208 242.534 864.025 242.167 863.659L232.886 854.379C232.154 853.647 232.154 852.459 232.886 851.727 233.617 850.995 234.805 850.995 235.537 851.727L244.818 861.007C245.55 861.739 245.55 862.927 244.818 863.659 244.453 864.025 243.973 864.208 243.493 864.208Z" class="st2" fill="#E5E5E5"/><path d="M269.212 878.489C268.732 878.489 268.253 878.306 267.886 877.94 267.154 877.208 267.154 876.02 267.886 875.288L277.167 866.007C277.898 865.275 279.086 865.275 279.818 866.007 280.55 866.739 280.55 867.927 279.818 868.659L270.537 877.94C270.172 878.306 269.692 878.489 269.212 878.489Z" class="st4" fill="#505050"/><path d="M315.993 861.708 302.868 861.708C301.832 861.708 300.993 860.868 300.993 859.833 300.993 858.798 301.832 857.958 302.868 857.958L315.993 857.958C317.029 857.958 317.868 858.798 317.868 859.833 317.868 860.868 317.028 861.708 315.993 861.708Z" class="st2" fill="#E5E5E5"/><path d="M280.993 859.208C280.513 859.208 280.034 859.025 279.667 858.659L270.386 849.379C269.654 848.647 269.654 847.459 270.386 846.727 271.117 845.995 272.305 845.995 273.037 846.727L282.318 856.007C283.05 856.739 283.05 857.927 282.318 858.659 281.953 859.025 281.473 859.208 280.993 859.208Z" class="MsftOfcResponsive_Fill_962893" fill="#962893"/><path d="M280.273 801.708C279.793 801.708 279.314 801.525 278.947 801.159L269.666 791.879C268.934 791.147 268.934 789.959 269.666 789.227 270.397 788.495 271.585 788.495 272.317 789.227L281.598 798.507C282.33 799.239 282.33 800.427 281.598 801.159 281.233 801.525 280.753 801.708 280.273 801.708Z" class="st2" fill="#E5E5E5"/></g><g><path d="M671.915 276.386C671.436 276.386 670.955 276.203 670.589 275.837 669.858 275.105 669.858 273.918 670.589 273.186L679.87 263.905C680.602 263.173 681.79 263.173 682.522 263.905 683.253 264.637 683.253 265.824 682.522 266.556L673.241 275.837C672.875 276.203 672.395 276.386 671.915 276.386Z" class="st2" fill="#E5E5E5"/><path d="M437.196 304.386 424.071 304.386C423.035 304.386 422.196 303.547 422.196 302.511 422.196 301.475 423.035 300.636 424.071 300.636L437.196 300.636C438.232 300.636 439.071 301.475 439.071 302.511 439.071 303.547 438.231 304.386 437.196 304.386Z" class="MsftOfcResponsive_Fill_962893" fill="#962893"/><path d="M559.196 229.667C558.717 229.667 558.236 229.484 557.87 229.118 557.139 228.386 557.139 227.199 557.87 226.467L567.15 217.186C567.882 216.454 569.07 216.454 569.802 217.186 570.533 217.918 570.533 219.105 569.802 219.837L560.522 229.118C560.156 229.484 559.676 229.667 559.196 229.667Z" class="st6" fill="#737373"/><path d="M314.477 222.386C313.997 222.386 313.518 222.203 313.151 221.837L303.87 212.556C303.138 211.824 303.138 210.637 303.87 209.905 304.601 209.173 305.789 209.173 306.521 209.905L315.802 219.186C316.534 219.918 316.534 221.105 315.802 221.837 315.437 222.203 314.957 222.386 314.477 222.386Z" class="MsftOfcResponsive_Fill_962893" fill="#962893"/><path d="M539.196 278.386C538.717 278.386 538.236 278.203 537.87 277.837L528.589 268.556C527.858 267.824 527.858 266.637 528.589 265.905 529.321 265.173 530.509 265.173 531.241 265.905L540.522 275.186C541.253 275.918 541.253 277.105 540.522 277.837 540.156 278.203 539.676 278.386 539.196 278.386Z" class="st2" fill="#E5E5E5"/><path d="M255.196 258.386C254.716 258.386 254.237 258.203 253.87 257.837L244.589 248.556C243.857 247.824 243.857 246.637 244.589 245.905 245.321 245.173 246.508 245.173 247.24 245.905L256.521 255.186C257.253 255.918 257.253 257.105 256.521 257.837 256.155 258.203 255.676 258.386 255.196 258.386Z" class="st3" fill="#D1D1D1"/><path d="M543.196 136.386C542.161 136.386 541.321 135.547 541.321 134.511L541.321 121.386C541.321 120.35 542.161 119.511 543.196 119.511 544.231 119.511 545.071 120.35 545.071 121.386L545.071 134.511C545.071 135.547 544.231 136.386 543.196 136.386Z" class="MsftOfcResponsive_Fill_962893" fill="#962893"/><path d="M422.321 150.386 409.196 150.386C408.16 150.386 407.321 149.547 407.321 148.511 407.321 147.475 408.16 146.636 409.196 146.636L422.321 146.636C423.357 146.636 424.196 147.475 424.196 148.511 424.196 149.547 423.356 150.386 422.321 150.386Z" class="st2" fill="#E5E5E5"/><path d="M377.337 244.833C376.857 244.833 376.378 244.65 376.011 244.284 375.279 243.552 375.279 242.365 376.011 241.633L385.292 232.352C386.024 231.62 387.211 231.62 387.943 232.352 388.675 233.084 388.675 234.271 387.943 235.003L378.662 244.284C378.296 244.65 377.817 244.833 377.337 244.833Z" class="st6" fill="#737373"/><path d="M430.477 192.386C429.997 192.386 429.518 192.203 429.151 191.837L419.87 182.556C419.138 181.824 419.138 180.637 419.87 179.905 420.601 179.173 421.789 179.173 422.521 179.905L431.802 189.186C432.534 189.918 432.534 191.105 431.802 191.837 431.437 192.203 430.957 192.386 430.477 192.386Z" class="MsftOfcResponsive_Fill_962893" fill="#962893"/><path d="M309.196 264.386C308.716 264.386 308.237 264.203 307.87 263.837 307.138 263.105 307.138 261.918 307.87 261.186L317.151 251.905C317.883 251.173 319.07 251.173 319.802 251.905 320.534 252.637 320.534 253.824 319.802 254.556L310.521 263.837C310.155 264.203 309.676 264.386 309.196 264.386Z" class="st2" fill="#E5E5E5"/><path d="M577.196 122.386C576.717 122.386 576.236 122.203 575.87 121.837 575.139 121.105 575.139 119.918 575.87 119.186L585.15 109.905C585.882 109.173 587.07 109.173 587.802 109.905 588.533 110.637 588.533 111.824 587.802 112.556L578.522 121.837C578.156 122.203 577.676 122.386 577.196 122.386Z" class="st3" fill="#D1D1D1"/><path d="M437.196 98.386C436.16 98.386 435.321 97.547 435.321 96.511L435.321 83.386C435.321 82.35 436.16 81.511 437.196 81.511 438.232 81.511 439.071 82.35 439.071 83.386L439.071 96.511C439.071 97.547 438.231 98.386 437.196 98.386Z" class="MsftOfcResponsive_Fill_962893" fill="#962893"/><path d="M428.477 281.667C427.997 281.667 427.518 281.484 427.151 281.118L417.87 271.837C417.138 271.105 417.138 269.918 417.87 269.186 418.602 268.454 419.789 268.454 420.521 269.186L429.802 278.467C430.534 279.199 430.534 280.386 429.802 281.118 429.437 281.484 428.957 281.667 428.477 281.667Z" class="st2" fill="#E5E5E5"/></g><g><path d="M416.922 365.667C416.442 365.667 415.963 365.484 415.596 365.118 414.864 364.386 414.864 363.199 415.596 362.467L424.877 353.186C425.609 352.454 426.796 352.454 427.528 353.186 428.26 353.918 428.26 355.105 427.528 355.837L418.247 365.118C417.882 365.484 417.402 365.667 416.922 365.667Z" class="st4" fill="#505050"/><path d="M338.922 395.667C338.442 395.667 337.963 395.484 337.596 395.118 336.864 394.386 336.864 393.199 337.596 392.467L346.877 383.186C347.609 382.454 348.796 382.454 349.528 383.186 350.26 383.918 350.26 385.105 349.528 385.837L340.247 395.118C339.882 395.484 339.402 395.667 338.922 395.667Z" class="st6" fill="#737373"/><path d="M330.203 360.386C329.723 360.386 329.244 360.203 328.877 359.837 328.145 359.105 328.145 357.918 328.877 357.186L338.158 347.905C338.89 347.173 340.077 347.173 340.809 347.905 341.541 348.637 341.541 349.824 340.809 350.556L331.528 359.837C331.163 360.203 330.683 360.386 330.203 360.386Z" class="st5" fill="#FFFFFF"/><path d="M554.281 373.489C553.802 373.489 553.321 373.306 552.955 372.94L543.674 363.659C542.943 362.927 542.943 361.74 543.674 361.008 544.406 360.276 545.594 360.276 546.326 361.008L555.607 370.289C556.338 371.021 556.338 372.208 555.607 372.94 555.241 373.306 554.76 373.489 554.281 373.489Z" class="st4" fill="#505050"/><path d="M468.203 395.667C467.723 395.667 467.244 395.484 466.877 395.118L457.596 385.837C456.864 385.105 456.864 383.918 457.596 383.186 458.328 382.454 459.515 382.454 460.247 383.186L469.528 392.467C470.26 393.199 470.26 394.386 469.528 395.118 469.163 395.484 468.683 395.667 468.203 395.667Z" class="st5" fill="#FFFFFF"/><path d="M314.203 453.667C313.723 453.667 313.243 453.484 312.877 453.118 312.145 452.386 312.145 451.198 312.877 450.466L322.158 441.186C322.89 440.454 324.078 440.454 324.809 441.186 325.541 441.918 325.541 443.106 324.809 443.838L315.528 453.118C315.163 453.484 314.683 453.667 314.203 453.667Z" class="st5" fill="#FFFFFF"/><path d="M480 368.489C479.52 368.489 479.041 368.306 478.674 367.94 477.942 367.208 477.942 366.021 478.674 365.289L487.954 356.008C488.686 355.276 489.874 355.276 490.606 356.008 491.337 356.74 491.337 357.927 490.606 358.659L481.325 367.94C480.96 368.306 480.48 368.489 480 368.489Z" class="st5" fill="#FFFFFF"/><path d="M477.5 410.989C477.02 410.989 476.541 410.806 476.174 410.44 475.442 409.708 475.442 408.521 476.174 407.789L485.454 398.508C486.186 397.776 487.374 397.776 488.106 398.508 488.837 399.24 488.837 400.427 488.106 401.159L478.825 410.44C478.46 410.806 477.98 410.989 477.5 410.989Z" class="st5" fill="#FFFFFF"/><path d="M267.437 459.88C266.957 459.88 266.478 459.697 266.111 459.331L256.83 450.051C256.098 449.319 256.098 448.131 256.83 447.399 257.561 446.669 258.749 446.667 259.481 447.399L268.762 456.679C269.494 457.411 269.494 458.599 268.762 459.331 268.397 459.697 267.917 459.88 267.437 459.88Z" class="MsftOfcResponsive_Fill_962893" fill="#962893"/><path d="M305.484 416.386C305.004 416.386 304.525 416.203 304.158 415.837L294.877 406.556C294.145 405.824 294.145 404.637 294.877 403.905 295.608 403.173 296.796 403.173 297.528 403.905L306.809 413.186C307.541 413.918 307.541 415.105 306.809 415.837 306.444 416.203 305.964 416.386 305.484 416.386Z" class="st5" fill="#FFFFFF"/><path d="M383.352 444.386C382.764 444.386 382.185 444.11 381.819 443.593L374.245 432.873C373.647 432.027 373.849 430.857 374.694 430.26 375.54 429.663 376.71 429.865 377.307 430.709L384.881 441.429C385.479 442.275 385.277 443.445 384.432 444.042 384.104 444.275 383.726 444.386 383.352 444.386Z" class="st5" fill="#FFFFFF"/></g><g><path d="M354.922 665.667C354.442 665.667 353.963 665.484 353.596 665.118 352.864 664.386 352.864 663.198 353.596 662.466L362.877 653.186C363.609 652.454 364.796 652.454 365.528 653.186 366.26 653.918 366.26 655.106 365.528 655.838L356.247 665.118C355.882 665.484 355.402 665.667 354.922 665.667Z" class="st4" fill="#505050"/><path d="M308.766 652.949 295.641 652.949C294.605 652.949 293.766 652.109 293.766 651.074 293.766 650.039 294.605 649.199 295.641 649.199L308.766 649.199C309.802 649.199 310.641 650.039 310.641 651.074 310.641 652.109 309.801 652.949 308.766 652.949Z" class="MsftOfcResponsive_Fill_962893" fill="#962893"/><path d="M292.922 611.667C292.442 611.667 291.962 611.484 291.596 611.118 290.864 610.386 290.864 609.198 291.596 608.466L300.877 599.186C301.609 598.454 302.797 598.454 303.528 599.186 304.26 599.918 304.26 601.106 303.528 601.838L294.247 611.118C293.882 611.484 293.402 611.667 292.922 611.667Z" class="st1" fill="#F1F1F1"/><path d="M386.922 623.667C386.442 623.667 385.963 623.484 385.596 623.118 384.864 622.386 384.864 621.198 385.596 620.466L394.877 611.186C395.609 610.454 396.796 610.454 397.528 611.186 398.26 611.918 398.26 613.106 397.528 613.838L388.247 623.118C387.882 623.484 387.402 623.667 386.922 623.667Z" class="st1" fill="#F1F1F1"/><path d="M418.203 663.667C417.723 663.667 417.244 663.484 416.877 663.118L407.596 653.838C406.864 653.106 406.864 651.918 407.596 651.186 408.327 650.454 409.515 650.454 410.247 651.186L419.528 660.466C420.26 661.198 420.26 662.386 419.528 663.118 419.163 663.484 418.683 663.667 418.203 663.667Z" class="st5" fill="#FFFFFF"/><path d="M342.5 624.833C341.464 624.833 340.625 623.993 340.625 622.958L340.625 609.833C340.625 608.798 341.464 607.958 342.5 607.958 343.536 607.958 344.375 608.798 344.375 609.833L344.375 622.958C344.375 623.993 343.536 624.833 342.5 624.833Z" class="st5" fill="#FFFFFF"/></g><g><circle cx="704.182" cy="650.49" r="6.02" class="st5" fill="#FFFFFF"/><circle cx="614.182" cy="646.49" r="6.02" class="st5" fill="#FFFFFF"/><circle cx="556.182" cy="624.49" r="6.02" class="st5" fill="#FFFFFF"/><circle cx="573.18" cy="655.534" r="11.021" class="st5" fill="#FFFFFF"/><circle cx="733.18" cy="631.534" r="11.021" class="st5" fill="#FFFFFF"/></g><g><circle cx="613.979" cy="448.812" r="6.02" class="st5" fill="#FFFFFF"/><circle cx="738.225" cy="392.49" r="6.02" class="st5" fill="#FFFFFF"/><ellipse cx="608.428" cy="372.286" rx="19.771" ry="19.771" class="st5" fill="#FFFFFF" transform="matrix(0.4779 -0.8784 0.8784 0.4779 -9.3738 728.801)"/><circle cx="663.18" cy="393.534" r="11.021" class="st5" fill="#FFFFFF"/><circle cx="661.18" cy="351.534" r="11.021" class="st5" fill="#FFFFFF"/></g></svg>