<svg width="17" height="17" viewBox="0 0 17 17" fill="none" xmlns="http://www.w3.org/2000/svg">
<path d="M1 2C1 1.44772 1.44772 1 2 1H15C15.5523 1 16 1.44772 16 2V15C16 15.5523 15.5523 16 15 16H2C1.44772 16 1 15.5523 1 15V2Z" fill="#0078D7"/>
<path fill-rule="evenodd" clip-rule="evenodd" d="M9 8V1H8V8H1V9H8V16H9V9H16V8H9Z" fill="white" fill-opacity="0.8"/>
<path fill-rule="evenodd" clip-rule="evenodd" d="M4 13L4 4H5L5 13H4Z" fill="white"/>
<path fill-rule="evenodd" clip-rule="evenodd" d="M4.39648 5.10359L5.10359 4.39648L12.6036 11.8965L11.8965 12.6036L4.39648 5.10359Z" fill="white"/>
<path fill-rule="evenodd" clip-rule="evenodd" d="M13 5H5V4H13V5Z" fill="white"/>
<circle cx="4.5" cy="4.5" r="2.5" fill="url(#paint0_linear)"/>
<circle cx="12.5" cy="4.5" r="1.5" fill="url(#paint1_linear)"/>
<circle cx="4.5" cy="12.5" r="1.5" fill="url(#paint2_linear)"/>
<circle cx="12.5" cy="12.5" r="1.5" fill="url(#paint3_linear)"/>
<defs>
<linearGradient id="paint0_linear" x1="4.51831" y1="7.0641" x2="4.49084" y2="3.44689" gradientUnits="userSpaceOnUse">
<stop stop-color="#CCCCCC"/>
<stop offset="0.12" stop-color="#D7D7D7"/>
<stop offset="0.42" stop-color="#EBEBEB"/>
<stop offset="0.72" stop-color="#F8F8F8"/>
<stop offset="1" stop-color="#FCFCFC"/>
</linearGradient>
<linearGradient id="paint1_linear" x1="12.511" y1="6.03846" x2="12.4945" y2="3.86813" gradientUnits="userSpaceOnUse">
<stop stop-color="#CCCCCC"/>
<stop offset="0.12" stop-color="#D7D7D7"/>
<stop offset="0.42" stop-color="#EBEBEB"/>
<stop offset="0.72" stop-color="#F8F8F8"/>
<stop offset="1" stop-color="#FCFCFC"/>
</linearGradient>
<linearGradient id="paint2_linear" x1="4.51099" y1="14.0385" x2="4.49451" y2="11.8681" gradientUnits="userSpaceOnUse">
<stop stop-color="#CCCCCC"/>
<stop offset="0.12" stop-color="#D7D7D7"/>
<stop offset="0.42" stop-color="#EBEBEB"/>
<stop offset="0.72" stop-color="#F8F8F8"/>
<stop offset="1" stop-color="#FCFCFC"/>
</linearGradient>
<linearGradient id="paint3_linear" x1="12.511" y1="14.0385" x2="12.4945" y2="11.8681" gradientUnits="userSpaceOnUse">
<stop stop-color="#CCCCCC"/>
<stop offset="0.12" stop-color="#D7D7D7"/>
<stop offset="0.42" stop-color="#EBEBEB"/>
<stop offset="0.72" stop-color="#F8F8F8"/>
<stop offset="1" stop-color="#FCFCFC"/>
</linearGradient>
</defs>
</svg>
