<svg xmlns="http://www.w3.org/2000/svg" xmlns:xlink="http://www.w3.org/1999/xlink" viewBox="0 0 81 81" fill="#fff" fill-rule="evenodd" stroke="#000" stroke-linecap="round" stroke-linejoin="round"><use xlink:href="#A" x=".5" y=".5"/><symbol id="A" overflow="visible"><g fill="#b8d432" stroke="none"><path d="M49.655 36c0 .8-.552 1.333-1.379 1.333H37.517c-.828 0-1.379-.533-1.379-1.333v-7.733c0-.8.552-1.333 1.379-1.333h10.759c.828 0 1.379.533 1.379 1.333V36zm19.31 8c0 .8-.552 1.333-1.379 1.333H56.827c-.828 0-1.379-.533-1.379-1.333v-7.733c0-.8.552-1.333 1.379-1.333h10.759c.828 0 1.379.533 1.379 1.333V44zm-19.31 8c0 .8-.552 1.333-1.379 1.333H37.517c-.828 0-1.379-.533-1.379-1.333v-7.733c0-.8.552-1.333 1.379-1.333h10.759c.828 0 1.379.533 1.379 1.333V52z"/><use xlink:href="#C"/></g><path d="M78.621 0h0-8.276H9.379 4.138 1.379C.552 0 0 .533 0 1.333v16c0 .8.552 1.333 1.379 1.333h8.276c.828 0 1.379-.533 1.379-1.333v-6.667h57.931v6.667c0 .8.552 1.333 1.655 1.333h8c.828 0 1.379-.533 1.379-1.333v-8-8C80 .533 79.448 0 78.621 0zm0 61.6h-8c-.828 0-1.379.533-1.379 1.333v6.4H11.035v-6.667c0-.8-.552-1.333-1.655-1.333h-8c-.828 0-1.379.533-1.379 1.6v15.733C0 79.466.552 80 1.379 80h2.759 5.517 60.966 7.724.276c.828 0 1.379-.533 1.379-1.333V62.933c0-.8-.552-1.333-1.379-1.333z" stroke="none" fill="#0072c6"/><g fill="#b8d432"><use xlink:href="#C" y="16" stroke="none"/><use xlink:href="#C" y="32" stroke="none"/></g></symbol><defs ><path id="C" d="M30.345 28c0 .8-.552 1.333-1.379 1.333H17.931c-.828 0-1.379-.533-1.379-1.333v-8c0-.8.552-1.333 1.379-1.333H28.69c1.103 0 1.655.533 1.655 1.333v8z"/></defs></svg>