<?xml version="1.0" encoding="UTF-8"?>
<svg width="36px" height="36px" viewBox="0 0 36 36" version="1.1" xmlns="http://www.w3.org/2000/svg" xmlns:xlink="http://www.w3.org/1999/xlink">
    <title>Group 3</title>
    <defs>
        <rect id="path-1" x="0" y="0" width="36" height="36"></rect>
    </defs>
    <g id="Page-1" stroke="none" stroke-width="1" fill="none" fill-rule="evenodd">
        <g id="Group-3">
            <mask id="mask-2" fill="white">
                <use xlink:href="#path-1"></use>
            </mask>
            <g id="Rectangle"></g>
            <g id="Arizona-Cardinals-Logo-01" mask="url(#mask-2)" fill-rule="nonzero">
                <g transform="translate(-1.000000, 2.000000)">
                    <path d="M35.9407785,27.5743473 C33.2628381,27.0083239 27.9453968,27.5614832 24.9150958,34 C24.9150958,34 19.7321921,27.7866061 12.5248167,26.6931517 C12.8067052,23.2326901 8.24523742,22.312902 7.37394582,16.3632236 C7.37394582,16.3632236 3.83112042,13.4494892 2.05650444,8.8569807 L2.99826815,9.15928869 C2.99826815,9.15928869 1.62085864,7.62845252 0.563776918,4.98486568 L1.56319964,5.31290201 C1.56319964,5.31290201 0.550963806,3.93643587 0,0 C12.2301152,8.44532728 18.6687038,5.49943246 26.1067152,9.72531215 C31.1550813,12.5940219 32.3595138,15.9322739 32.7823464,19.2576617 C32.7759399,19.2640938 36.510962,22.6666667 35.9407785,27.5743473" id="path8" fill="#FFFFFF"></path>
                    <path d="M35.9984244,26.28451 C36.0822437,22.1812434 32.7939455,19.260274 32.7939455,19.260274 C32.4393251,16.6617492 31.4786263,12.9125395 26.3527496,10.1369863 C18.5704439,5.93256059 14.2698657,9.36564805 2,2 C2.25790574,3.37829294 3.06386118,5.28767123 4.09548415,6.46996839 L2.82529837,6.05900948 C3.7473114,7.96206533 5.22382177,9.69441517 5.99753899,10.2571128 L4.57905742,9.82086407 C6.087806,13.4436249 9.02793146,15.5932561 9.02793146,15.5932561 C9.69848638,21.1443625 13.8507688,22.0864067 14.1860463,25.5005269 C19.5891716,26.3224447 25.3082314,32 25.3082314,32 C28.2934903,26.9546891 32.4651157,25.9747102 35.9984244,26.28451" id="path10" fill="#000000"></path>
                    <path d="M28.4761285,19.0721617 C27.354427,21.0775478 25.4499999,20.5182224 24.7782117,18.0217213 L26.1464409,18.1172159 C24.9446179,17.3191541 23.8537324,16.152756 23.0093748,15 C22.762847,20.5182224 27.4468749,22.9942604 29,19.119909 C28.8274305,19.1130879 28.6548611,19.0994458 28.4761285,19.0721617" id="path12" fill="#FFFFFF"></path>
                    <path d="M24.8555923,11.3773585 C19.0811704,8.36477987 12.0250118,10.3207547 3,5 C3.89193016,7.5408805 9.47475224,10.5220126 9.47475224,10.5220126 L4.53940538,8.99371069 C5.79471449,11.0754717 10.9480887,13.6792453 10.9480887,13.6792453 L6.34308636,12.2641509 C8.25247758,15.2830189 12.5799906,17.3207547 12.5799906,17.3207547 L9.91741387,17.1383648 C10.2609722,19.9748428 14.3770647,22.4213836 14.595092,24.6100629 C16.458235,25.2893082 18.8565361,26.4716981 20.726286,28 C24.3006135,26.327044 23.3161869,20.6603774 16.4978764,12.6289308 C25.8730533,13.1698113 25.6153846,19.7924528 31,18.836478 C30.6035866,17.0503145 30.3525248,14.2515723 24.8555923,11.3773585" id="path14" fill="#97233F"></path>
                    <path d="M35,25.2992958 C33.7928943,24.0792254 31.2634315,22.834507 28.1819757,22.4586268 C29.492201,22.0889085 30.9844021,21.2693662 31.5970537,20 C32.907279,20.8441901 34.7270364,23.2411972 35,25.2992958 L35,25.2992958 Z M28.4124783,27 C28.9220104,25.243838 28,23.6478873 28,23.6478873 C30.6993068,23.3767606 33.677643,24.6522887 34.8847487,25.6875 C32.992201,25.3054577 30.4142114,25.8600352 28.4124783,27 L28.4124783,27 Z" id="path16" fill="#FFB612"></path>
                    <path d="M28.4761285,19.0721617 C27.354427,21.0775478 25.4499999,20.5182224 24.7782117,18.0217213 L26.1464409,18.1172159 C24.9446179,17.3191541 23.8537324,16.152756 23.0093748,15 C22.762847,20.5182224 27.4468749,22.9942604 29,19.119909 C28.8274305,19.1130879 28.6548611,19.0994458 28.4761285,19.0721617" id="path18" fill="#FFFFFF"></path>
                </g>
            </g>
        </g>
    </g>
</svg>