<?xml version="1.0" encoding="UTF-8"?>
<svg width="36px" height="36px" viewBox="0 0 36 36" version="1.1" xmlns="http://www.w3.org/2000/svg" xmlns:xlink="http://www.w3.org/1999/xlink">
    <title>Group 3</title>
    <defs>
        <rect id="path-1" x="0" y="0" width="36" height="36"></rect>
    </defs>
    <g id="Page-1" stroke="none" stroke-width="1" fill="none" fill-rule="evenodd">
        <g id="Group-3">
            <mask id="mask-2" fill="white">
                <use xlink:href="#path-1"></use>
            </mask>
            <g id="Rectangle"></g>
            <g id="cincinnati-bengals-logo" mask="url(#mask-2)" fill-rule="nonzero">
                <g transform="translate(1.000000, 6.000000)">
                    <path d="M0,16.4435776 L4.38609332,24 L24.6390014,24 C31.1737028,24 34,20.5784341 34,16.9072165 C34,14.4775704 32.2802248,12.504876 30.5293426,11.6110337 C30.4578272,11.5854352 30.4078737,11.5202056 30.4016472,11.4442881 C30.3954208,11.3683707 30.4340746,11.2958273 30.5004575,11.2588465 C32.0335904,10.1220396 33.0645667,8.66202285 33.0645667,6.40847033 C33.0645667,3.73363054 31.1625931,0 23.7324533,0 L4.57051366,0 L0.228858973,7.57871273 L3.41733107,7.57871273 C3.77233336,7.5799408 4.05947146,7.86899334 4.05946935,8.22513235 L4.05946935,15.8038451 C4.05825028,16.1591139 3.77146806,16.4468127 3.41733107,16.4480357 L0,16.4480357" id="Path" fill="#FFFFFF"></path>
                    <path d="M18.7909105,10.8891618 L15.60057,10.8891618 L15.60057,7.95762972 C15.6030417,7.65069493 15.8642194,7.40313172 16.1855407,7.40313172 L18.7909105,7.40313172 C20.3163342,7.40313172 20.8833058,8.14676082 20.8833058,9.12250537 C20.8833058,10.1519804 20.3163342,10.8956095 18.7909105,10.8956095 M18.7909105,17.6355584 L16.1855407,17.6355584 C16.0302134,17.6361282 15.8810744,17.5774395 15.7712406,17.4725202 C15.6614068,17.3676008 15.5999691,17.225135 15.6005656,17.0767578 L15.6005656,14.1430765 L18.7909105,14.1430765 C20.3163342,14.1430765 20.8833058,14.860915 20.8833058,15.8624501 C20.8833058,16.8639853 20.3163342,17.6291065 18.7909105,17.6291065 L18.7909105,17.6355584 Z M27.8849558,12.2883021 C27.8035223,12.2577021 27.74805,12.1847737 27.7427417,12.1013357 C27.7374334,12.0178977 27.7832521,11.939089 27.860207,11.8992938 C29.9638518,11.138471 31.1922904,9.78446423 31.1922904,7.39883328 C31.2215389,4.19864906 28.2674366,2 23.4459277,2 L5.20158992,2 L2,7.40743015 L4.20488976,7.40743015 C4.63854967,7.40743015 4.99010049,7.74325095 4.99010049,8.15750691 L4.99010049,16.8747313 C4.99069832,17.0740362 4.90823499,17.2653738 4.76091457,17.4065056 C4.61359414,17.5476375 4.413531,17.6269581 4.20488976,17.6269573 L2.02474876,17.6269573 L5.24883756,23 L24.3143843,23 C29.7568622,23 32,19.5440589 32,17.0036844 C32,14.7684986 30.2765862,12.8385017 27.8849558,12.2883021 Z" id="Shape" fill="#F05025"></path>
                    <path d="M12.3446873,21.4639386 C8.99133064,15.3927366 8.09710219,8.41063939 9.35125759,2 L6.18121773,2 L3,7.40092072 L5.19085971,7.40092072 C5.62176019,7.40092072 5.97107404,7.7366041 5.97107404,8.15069054 L5.97107404,14.8363171 C7.64007365,17.4131828 9.80289009,19.6621942 12.3446873,21.4639386 M28.1971223,2.59938619 C24.3497043,8.08194373 22.266152,15.0726343 23.2006208,21.4381586 C24.3508159,15.9623634 27.464962,11.0483982 31.9998288,7.55345269 C31.9998288,7.49974425 31.9998288,7.44818414 31.9998288,7.3944757 C32.0177133,5.19028133 30.6338948,3.47161125 28.2015934,2.59938619 L28.1971223,2.59938619 Z M21.745264,2 C21.0457738,3.76750158 20.4553043,5.57308796 19.9769272,7.40736573 C19.8830332,7.40736573 19.7824325,7.40736573 19.6795962,7.40736573 L17.095276,7.40736573 C16.7759993,7.40735665 16.5164835,7.65482764 16.5140275,7.96163683 L16.5140275,10.8919693 L19.2347176,10.8919693 C19.0558719,11.9425064 18.9060886,13.0295652 18.8121946,14.1445524 L16.5140275,14.1445524 L16.5140275,17.0705882 C16.5134304,17.2189048 16.5744772,17.3613123 16.6836121,17.4661887 C16.7927471,17.5710651 16.9409371,17.6297298 17.095276,17.629156 L18.6825315,17.629156 C18.7043253,19.4304348 18.8815429,21.2268736 19.2123619,23 L16.8493632,23 C14.9848969,18.6753964 12.4184612,11.3538619 14.9692479,2.01289003 L21.745264,2 Z" id="Shape" fill="#010101"></path>
                </g>
            </g>
        </g>
    </g>
</svg>