<?xml version="1.0" encoding="UTF-8"?>
<svg width="36px" height="36px" viewBox="0 0 36 36" version="1.1" xmlns="http://www.w3.org/2000/svg" xmlns:xlink="http://www.w3.org/1999/xlink">
    <title>Group 3</title>
    <defs>
        <rect id="path-1" x="0" y="0" width="36" height="36"></rect>
    </defs>
    <g id="Page-1" stroke="none" stroke-width="1" fill="none" fill-rule="evenodd">
        <g id="Group-3">
            <mask id="mask-2" fill="white">
                <use xlink:href="#path-1"></use>
            </mask>
            <g id="Rectangle"></g>
            <g id="denver-bronco-logo" mask="url(#mask-2)">
                <g transform="translate(0.000000, 8.000000)">
                    <path d="M0.00468933177,5.61027694 C0.670574443,6.45812479 1.37631887,6.99532866 2.14771395,6.99065732 C3.21453693,6.99065732 3.23329426,6.34367701 4.40328253,6.28995662 C2.91910903,4.90957624 3.19812427,1.44811478 4.80656506,0 C4.64712778,3.62729396 5.74443142,4.65031698 7.85463072,4.46112779 C6.62133646,3.76042709 6.24384525,2.28428428 6.42907386,0.464798131 C7.22157093,1.50183517 8.13599062,2.08575242 8.8112544,2.0647314 C10.0093787,2.02969636 11.7373974,0.0934267601 14.6096131,0.128461795 C17.6576788,0.165832499 20.0586166,1.85218552 21.9390387,4.7997998 C23.8288394,4.75542209 25.5310668,5.22255589 26.8206331,6.80613947 L30.8065651,8.56956957 L30.3188746,8.86152819 C31.7514654,9.72105439 33.1723329,10.7020354 34.6049238,11.7320654 L35.6670574,12.2132132 C35.1137163,13.322656 35.3083236,13.971972 36,14.3550217 L35.087925,16.7233901 C34.049238,15.3079746 32.9777257,14.3363363 31.8053927,14.331665 C30.5861665,14.331665 31.123095,15.6419753 33.8991794,15.6956957 L32.5134818,17.013013 L29.8640094,16.8401735 C29.9338122,16.6104004 29.9255708,16.3641054 29.8405627,16.1394728 C29.6529894,15.6053832 28.8855021,15.0276944 27.5381008,14.4064064 C25.7303634,15.340674 24.021102,15.1538205 22.3798359,14.0373707 C18.8276671,15.69336 18.4384525,16.7957958 18.1758499,20.9836503 L17.8053927,21 C16.5885111,17.1414748 15.8124267,14.3223223 10.3165299,13.2035369 C4.87456038,12.0917584 0.665885111,11.1598265 0,5.61261261 L0.00468933177,5.61027694 Z" id="Path" fill="#1E196A"></path>
                    <path d="M22.3895236,5 C22.7021455,5.15252708 23.2262469,5.40126354 23.3986487,5.90577617 C21.8946765,5.45378042 20.340624,5.19831282 18.7736835,5.14548736 C14.537197,5.03050542 9.39502648,6.29530686 4,10.0545126 C5.60908331,10.9180505 7.13541377,11.265343 8.68243244,11.6572202 C11.8661187,9.50072202 14.7118975,8.81552347 18.3231402,8.67238267 C18.1346476,8.2734657 17.7438702,7.84638989 17.5622736,7.44747292 C19.1161884,7.62111913 21.0286988,8.53393502 22.4676791,9.26137184 C22.4993217,9.28957707 22.5340288,9.31398446 22.5711201,9.33411552 C22.6699638,11.1081227 23.3411814,12.3471119 25.2031207,12.6944043 C25.8927278,12.6146209 26.7593341,12.4902527 27.4098635,11.9740072 C27.8282252,12.1429603 29.3108805,12.9572202 29.5499443,13.3467509 C28.8603372,13.0862816 28.3753135,12.6990975 27.5592784,12.6075812 C26.7779393,13.0452766 25.9012819,13.2752599 25.0100307,13.2763538 C22.6262887,12.9548736 22.111382,11.6877256 21.3574116,9.74241877 C20.5157216,9.54695894 19.6520902,9.46803144 18.7897743,9.50776173 C16.4474088,9.5734657 13.7326554,10.516787 11.9350794,12.4527076 C13.1212037,12.9572202 14.2337699,13.3702166 15.213012,14.1211191 C16.4381689,12.8284048 18.1289115,12.1049437 19.8908471,12.1194946 C17.9599471,12.7812274 17.2220675,13.3819495 16.2129424,15.0879061 C16.6542909,15.2615523 17.2933269,16.7750903 17.8036361,18 C18.6219699,14.5364621 20.7620508,13.6001805 22.4653804,12.8962094 C23.2308443,13.3467509 24.0284899,13.9662455 25.0399137,13.9052347 C25.8593604,13.8740484 26.6634155,13.6686479 27.4006688,13.3021661 C28.6258708,13.9216606 29.9752021,14.4754513 30.4648231,15.9232852 C31.1107552,15.9608303 31.6992199,16.0758123 32.0739064,16.1297834 C32.0739064,16.1297834 32.5336445,15.6604693 32.5336445,15.5759928 C31.1981054,15.4469314 30.4188493,14.9001805 30.4648231,14.1680505 C30.4901087,13.6518051 30.970535,13.3279783 31.6003762,13.3936823 C32.3359572,13.4711191 33.4623155,14.0648014 34.5587908,15.1747292 C34.6166632,15.1832884 34.6750202,15.1879915 34.7334913,15.1888087 C34.8530232,14.8790614 35.0438145,14.5176895 34.9909446,14.132852 C34.0415855,13.3772563 34.6185568,12.4104693 34.5771803,12.1476534 C32.6600725,11.0494585 30.8992756,9.45144404 28.9637783,8.53158845 C29.0892644,8.42323263 29.2089682,8.30808536 29.322374,8.1866426 C28.3267957,7.67377227 27.2929825,7.24221783 26.2306353,6.89602888 C25.7708972,5.71101083 23.6285177,4.92960289 22.3918223,5.01877256 L22.3895236,5 Z M25.6812483,6.7599278 C25.1847312,6.10054152 24.881304,5.82129964 24.1434244,5.5866426 C24.3207321,5.7208506 24.4680437,5.89202779 24.5755782,6.08880866 C24.3344577,6.05089634 24.0895802,6.04458774 23.8468933,6.0700361 C24.6698245,6.33519856 25.007732,6.4032491 25.6858457,6.7599278 L25.6812483,6.7599278 Z M31.9336863,11.2676895 C30.9153665,10.1929603 26.5777376,7.70794224 26.0559349,7.71496702 C26.7984119,8.39314079 27.7845501,9.21444043 27.940861,9.45379061 C28.097239,9.39798665 28.239952,9.30833395 28.3592227,9.19097473 C29.0005573,9.53122744 30.7291725,10.6740072 31.9336863,11.2676895 L31.9336863,11.2676895 Z M33.0324604,12.1194946 C33.0807329,12.8046931 33.7358596,13.1285199 34.1381305,13.4194946 C33.96343,13.2388087 33.5795487,12.6756318 33.6048343,12.4808664 C33.6255225,12.3330325 33.807119,12.2767148 33.9289496,12.1124549 C33.6350846,12.0338153 33.3263254,12.0338153 33.0324604,12.1124549 L33.0324604,12.1194946 Z" id="Shape" fill="#FFFFFF"></path>
                    <path d="M6,1.81644195 C6.46282974,2.97566066 6.79376499,4.03183771 8.26858513,4.06833163 C9.29496403,4.09623875 11.736211,3.07011552 13.5827338,3.02718149 C14.3021583,3.01000788 15.5323741,3.50160248 16.323741,4.78532987 C18.0503597,4.64364758 19.7098321,4.96565278 21,5 C19.647482,2.7180565 16.6282974,0.959908123 14.2302158,1.00069545 C10.5179856,1.06294979 9.83213429,2.78245754 7.99520384,2.62789505 C7.25923617,2.5427353 6.5694142,2.25980298 6.01678657,1.81644195 L6,1.81644195 Z" id="Path" fill="#F58220"></path>
                    <path d="M4.27922289,1 C4.04747347,1.77393775 3.95858632,2.59116063 4.01779645,3.40353833 C4.25426099,5.43289675 5.80554521,6.96397808 7.66171406,7 C10.0764688,5.98904802 12.4063746,4.97809604 15,4.72535805 C14.8509411,4.0126369 13.6814017,3.57540017 12.7847549,3.55770851 C11.3148045,3.52737995 8.76475017,4.82139848 7.0769444,4.68491997 C5.38913864,4.54844145 4.5842204,3.92670598 4.27922289,1.00252738 L4.27922289,1 Z" id="Path" fill="#F58220"></path>
                    <path d="M1.00733795,7.28861379 C1.54056258,8.57036553 2.30126376,9.00885955 3.59763555,8.9998648 C5.263351,8.9998648 6.21728496,8.41070874 7,7.9047541 C6.43742356,7.65964719 5.48593559,6.93107252 4.66897676,7.0052792 C3.23073787,7.13570306 3.1157766,8.07115696 1,7.28861379 L1.00733795,7.28861379 Z" id="Path" fill="#F58220"></path>
                    <path d="M28,9.5044245 C27.9186587,9.45132718 27.8363007,9.40154845 27.7529259,9.3550883 C27.7545824,9.37606736 27.7545824,9.3971623 27.7529259,9.41814136 C27.7315738,9.59402622 27.4997513,9.8030969 27.3868903,9.74999958 C27.2740293,9.69690227 27.2648784,9.25221225 27.4417956,9.16261053 L27.1642186,9 C27.0417857,9.13628679 26.982946,9.32574064 27.0043071,9.51488761 C27.0256682,9.70403457 27.124913,9.87235672 27.2740293,9.97234459 C27.428171,10.0246069 27.595534,10.0021193 27.733357,9.91062735 C27.8711801,9.81913541 27.9661126,9.66750175 27.9938994,9.49446875 L28,9.5044245 Z" id="Path" fill="#F58220"></path>
                </g>
            </g>
        </g>
    </g>
</svg>