<?xml version="1.0" encoding="UTF-8"?>
<svg width="36px" height="36px" viewBox="0 0 36 36" version="1.1" xmlns="http://www.w3.org/2000/svg" xmlns:xlink="http://www.w3.org/1999/xlink">
    <title>Group 3</title>
    <defs>
        <rect id="path-1" x="0" y="0" width="36" height="36"></rect>
    </defs>
    <g id="Page-1" stroke="none" stroke-width="1" fill="none" fill-rule="evenodd">
        <g id="Group-3">
            <mask id="mask-2" fill="white">
                <use xlink:href="#path-1"></use>
            </mask>
            <g id="Rectangle"></g>
            <g id="Philadelphia-Eagles-Logo-01" mask="url(#mask-2)">
                <g transform="translate(1.000000, 5.000000)">
                    <path d="M20.3863445,1.77306122 L18.6801068,3.55591837 C21.4730261,2.4 27.5702445,0.411428571 27.5702445,0.411428571 L25.6181512,2.31673469 C30.9483001,0.744489796 35,0 35,0 C35,0 33.8248103,2.71836735 32.0743186,5.44653061 C32.4135993,5.4122449 34.6262995,5.15265306 34.6262995,5.15265306 C34.6262995,5.15265306 32.6299522,8.44408163 30.328744,10.8146939 L31.6170273,11.1330612 C31.6170273,11.1330612 29.6108457,14.0130612 26.9605226,16.3689796 C23.1497612,19.7485714 21.1878337,19.2293878 21.1878337,19.2293878 C18.3604945,21.2718367 16.0937061,20.2334694 16.0937061,20.2334694 C16.0937061,20.2334694 17.0722113,17.7697959 16.0592863,17.5102041 C15.1447036,17.275102 13.7580781,17.9853061 13.5859792,18.2693878 C13.4040461,18.8914286 12.6468109,20.4685714 11.8649902,21.4236735 C10.360354,23.2555102 8.69837033,24 8.69837033,24 C8.69837033,24 7.38550155,22.8832653 7.38058443,20.9877551 C7.38058443,20.9877551 6.48075302,21.9379592 5.01053667,22.2514286 C3.98286035,22.4669388 2.58148356,22.2906122 1.14568699,21.0955102 C0.181933127,20.2922449 0,17.5983673 0,17.5983673 C0,17.5983673 0.904748525,15.8742857 2.65032312,14.3657143 C2.26187131,14.0326531 2.02584996,13.6212245 1.95209328,13.3616327 C6.59384659,11.3436735 6.5987637,9.41387755 10.2915145,7.07265306 C13.9252599,4.76571429 16.2117168,3.70285714 20.3863445,1.77306122" id="Path" stroke="none" fill="#FFFFFF" fill-rule="nonzero"></path>
                    <path d="M18.3223395,3.70939801 L16.885664,5.25833694 C19.7203166,3.96838458 25.708883,1.86660892 25.708883,1.86660892 L23.9722955,3.6147683 C30.1059807,1.66240797 34,1 34,1 C34,1 32.7277924,3.91857947 31.0347405,6.39887397 C31.8522427,6.31918579 33.5646438,6.11498484 33.5646438,6.11498484 C33.5646438,6.11498484 31.8522427,9.06344738 29.3271768,11.5636639 C29.6077397,11.6084885 30.7541777,11.8774361 30.7541777,11.8774361 C30.7541777,11.8774361 29.230431,14.1983543 26.5844327,16.5889996 C23.2031662,19.6370723 21.703606,19.2784755 21.703606,19.2784755 C21.703606,19.2784755 21.737467,19.1589433 21.7326297,18.9746644 C21.7277924,18.8700736 21.7084433,18.7804244 21.7084433,18.7704634 C19.1059807,21.290602 16.9388742,20.4389346 16.9388742,20.4389346 C16.9388742,20.4389346 17.9014952,18.0383283 16.4261214,17.5552187 C15.2845207,17.1816804 13.528584,18.142919 13.3883026,18.6608922 C13.2383465,19.2236899 12.5127529,20.7776094 11.7871592,21.6940234 C10.5391381,23.2778259 9.15567282,24 9.15567282,24 C9.15567282,24 7.89797713,23.0038978 8.33333333,20.0902988 C8.43007916,19.4527934 8.30914688,19.2087484 8.2414248,19.0991771 C8.03342128,18.7754439 6.42744063,19.1290602 6.03562005,20.0504547 C5.75989446,20.7029017 7.35620053,21.2557384 7.35620053,21.2557384 C7.35620053,21.2557384 6.61609499,22.0924643 5.32937555,22.3663924 C4.51671064,22.5357298 3.26385224,22.4859246 1.94327177,21.3055435 C1.1644679,20.608272 1,18.2574708 1,18.2574708 C1,18.2574708 1.96262093,16.4395842 3.84432718,14.8707233 C3.47185576,14.6216977 3.19129288,14.1983543 3.11873351,14.0339974 C6.90149516,12.3555652 7.41908531,9.98484192 11.6904134,7.33022954 C13.67854,6.0950628 15.7730871,4.8798181 18.3223395,3.70939801" id="Path" stroke="none" fill="#004C54" fill-rule="nonzero"></path>
                    <path d="M27.7768813,11.6716314 C27.9307991,11.7058413 28.5464701,11.8182453 28.8927851,11.9648592 C27.5989139,14.0956481 23.73654,18.2741448 21.5816912,18.4451943 C21.5576416,18.0786595 21.4181536,17.7658832 21.2498061,17.5508494 C20.4417378,19.0560856 17.9646237,19.9797533 16.9401086,19.7353968 C18.1858805,15.0926228 12.8997673,16.861764 12.4909232,18.1373051 C11.4375485,21.4458925 8.76322731,23 8.76322731,23 C8.76322731,23 7.90705974,22.0127996 8.27742436,19.7842681 C8.54678045,18.1421922 7.52707525,18.1910635 7.52707525,18.1910635 C7.11823119,18.171515 5.5742436,18.3621131 5.08363072,19.4568303 C4.68921645,20.341401 6.06485648,20.9620666 6.06485648,20.9620666 C6.06485648,20.9620666 4.07354538,22.5748196 1.77439876,20.5759832 C1.21163693,20.0872702 1,18.0151268 1,18.0151268 C2.10628394,16.148243 3.56369279,14.9655574 4.16974399,14.5257156 C3.53002327,14.276472 3.32800621,13.9392599 3.32800621,13.9392599 C6.41598138,12.4975564 7.62808379,10.1077496 10.2591156,8.32883407 C13.1595035,6.36909472 15.3768813,5.40633 15.3768813,5.40633 L14.5399535,6.47661159 C14.5399535,6.47661159 15.2422033,6.17360949 15.5452289,6.01722132 C18.3061288,4.64393763 22.9813809,3.14358855 22.9813809,3.14358855 L21.5239721,4.58040493 C21.5239721,4.58040493 23.943367,3.73981848 26.9880528,3.07516872 C28.6089992,2.72329532 32,2 32,2 C32,2 31.2015516,4.38003258 29.5132661,6.79427508 C30.5329713,6.72096812 31.6344453,6.66232255 31.6344453,6.66232255 C31.6344453,6.66232255 30.4512025,9.08145218 27.7768813,11.6716314" id="Path" stroke="none" fill="#000000" fill-rule="nonzero"></path>
                    <path d="M16.05,8.96 C16.0166667,8.99 15.9833333,9.01 15.95,9.04 C15.9785714,9.02 16.0119048,8.99 16.0404762,8.97 C16.0452381,8.96 16.05,8.96 16.05,8.96" id="Path" stroke="none" fill="#000000" fill-rule="nonzero"></path>
                    <path d="M15.985,9.005 C15.995,9.005 16.005,8.995 16.015,8.995 C16.005,8.995 15.995,8.995 15.985,9.005" id="Path" stroke="none" fill="#000000" fill-rule="nonzero"></path>
                    <path d="M19.5095907,13.8791615 C19.5095907,13.8791615 17.9918924,13.1442663 15.5942258,13.9235512 C15.5942258,13.9235512 18.896579,11.9704069 23.0789005,12.7990136 C20.3648408,11.891492 17.9226814,12.3205919 16.4791378,12.8039457 C15.633775,13.1294698 15.1295234,13.4007398 15.1295234,13.4007398 C15.1295234,13.4007398 15.3421001,13.2478422 15.7375915,13.0110974 C16.7164327,12.2909988 18.0611034,11.5117139 19.3909432,10.9691739 C20.3154044,10.5893958 22.1544394,10.1011097 22.9009294,10.0567201 C22.9009294,10.0567201 20.9778525,9.73119605 19.2228594,10.1750925 C19.2228594,10.1750925 22.0011865,9.09494451 24.7004153,9.03575832 C25.6051018,9.01602959 27.6715444,9.12453761 27.6715444,9.12453761 C24.690528,8.24167694 21.6007514,8.06905055 19.4898161,8.38964242 C18.288511,8.68557337 17.3442753,8.98150432 17.3442753,8.98150432 C17.3442753,8.98150432 17.5074155,8.89765721 17.8238086,8.76448829 C18.5851295,8.31565968 21.7045679,6.63871763 27.5084042,5.73612824 C27.5084042,5.73612824 26.7668578,5.64734895 25.8621712,5.64734895 C24.9327665,5.64734895 23.1085624,5.95807645 23.1085624,5.95807645 C24.4285149,5.35635018 26.9201107,4.77435265 30,4.47348952 C30,4.47348952 25.2936524,3.9161529 19.5985762,5.69667078 C19.5491398,5.71639951 19.5244216,5.73119605 19.5244216,5.73119605 C19.5244216,5.73119605 20.127546,5.297164 20.804825,4.84833539 C21.3041329,4.51787916 22.0259047,4 22.0259047,4 C22.0259047,4 19.104212,4.69543773 15.149298,6.56966708 C14.0320348,7.0974106 13.4437413,7.41307028 13.4437413,7.41307028 C13.6167688,7.21578298 14.4077516,6.52034525 14.6005537,6.27373613 C11.6640301,7.70900123 10.5912596,8.66091245 8.84615385,10.5055487 C7.28890647,12.1528977 7.35811746,12.4389642 5,13.7114673 C5,13.7114673 6.74016215,14.4217016 8.50504252,13.2774353 C8.81154835,13.080148 9.09827961,12.8039457 9.37017995,12.512947 C9.9930789,11.7928483 9.78544592,11.053021 10.6159779,10.5203453 C10.4973304,10.7965475 10.3045284,11.1418002 10.2847538,11.5018496 C10.6851888,10.9543773 11.471228,10.2342787 12.3413091,9.71639951 C14.5659482,8.3945746 16.0391536,8.1676942 16.0391536,8.1676942 C15.9798299,8.18742293 15.9254499,8.20715166 15.8710698,8.22688039 C12.8307297,9.48951911 12.3363654,11.1368681 12.3215345,11.3094945 C12.286929,11.6794081 13.4190231,10.8508015 14.3434843,10.7373613 C13.3695867,11.0826141 12.5341111,11.9062885 12.1287325,12.8581998 C11.955705,13.2626387 11.9062685,13.7213317 11.4267352,14.081381 C11.2932569,14.2046856 11.1152857,14.3279901 10.8779909,14.431566 C10.240261,14.7176326 9.7953332,14.5745993 9.64702393,14.4759556 C9.55803836,14.4167694 9.5036583,14.3131936 9.5036583,14.3131936 C9.81510777,14.4019729 10.2353174,14.323058 10.6159779,14.081381 C10.8977655,13.9038224 11.1103421,13.6670777 11.2240459,13.4303329 C11.2240459,13.4303329 11.2240459,13.4303329 11.2240459,13.4303329 C11.2833696,13.3020962 11.402017,13.0554871 11.2289895,12.7348952 C11.1449476,12.5721332 10.9620328,12.4833539 10.7593435,12.4537608 C10.7741744,12.4192355 10.8779909,12.1479655 11.2141586,11.7484587 C10.7593435,12.0739827 10.4676686,12.4636252 10.3144157,12.6411837 C10.5269923,12.6658446 10.7148507,12.7644883 10.8186672,12.9371147 C11.0213565,13.2774353 10.8334981,13.7657213 10.3935139,14.027127 C9.95352976,14.2885327 9.42950366,14.2244143 9.22681432,13.8840937 C9.2020961,13.8397041 9.18232153,13.7953144 9.16749061,13.7509248 C9.14277239,13.7657213 9.12299782,13.7755857 9.09827961,13.7903822 C8.95985762,13.8594328 8.68301364,13.9778052 8.68301364,13.9778052 C8.81154835,14.0073983 8.98951948,14.0221948 9.09827961,14.0024661 C9.13288511,14.4808878 9.4344473,15.2552404 11.1301167,14.8212084 C10.6456397,15.2946979 9.47894008,15.2651048 8.77199921,14.8951911 C8.86592842,14.9691739 8.97963219,15.0431566 9.11311054,15.1270037 C11.2388768,16.4438964 13.6859798,15.2059186 14.2841606,14.8606658 C14.4324698,14.7669544 14.5758355,14.6831073 14.7241447,14.6091245 C14.7241447,14.6091245 14.1061894,15.1565968 13.6859798,16 C14.4374135,15.053021 16.6027289,13.5289766 19.5095907,13.8791615" id="Path" stroke="none" fill="#FFFFFF" fill-rule="nonzero"></path>
                    <path d="M19.5095907,13.8791615 C19.5095907,13.8791615 17.9918924,13.1442663 15.5942258,13.9235512 C15.5942258,13.9235512 18.896579,11.9704069 23.0789005,12.7990136 C20.3648408,11.891492 17.9226814,12.3205919 16.4791378,12.8039457 C15.633775,13.1294698 15.1295234,13.4007398 15.1295234,13.4007398 C15.1295234,13.4007398 15.3421001,13.2478422 15.7375915,13.0110974 C16.7164327,12.2909988 18.0611034,11.5117139 19.3909432,10.9691739 C20.3154044,10.5893958 22.1544394,10.1011097 22.9009294,10.0567201 C22.9009294,10.0567201 20.9778525,9.73119605 19.2228594,10.1750925 C19.2228594,10.1750925 22.0011865,9.09494451 24.7004153,9.03575832 C25.6051018,9.01602959 27.6715444,9.12453761 27.6715444,9.12453761 C24.690528,8.24167694 21.6007514,8.06905055 19.4898161,8.38964242 C18.288511,8.68557337 17.3442753,8.98150432 17.3442753,8.98150432 C17.3442753,8.98150432 17.5074155,8.89765721 17.8238086,8.76448829 C18.5851295,8.31565968 21.7045679,6.63871763 27.5084042,5.73612824 C27.5084042,5.73612824 26.7668578,5.64734895 25.8621712,5.64734895 C24.9327665,5.64734895 23.1085624,5.95807645 23.1085624,5.95807645 C24.4285149,5.35635018 26.9201107,4.77435265 30,4.47348952 C30,4.47348952 25.2936524,3.9161529 19.5985762,5.69667078 C19.5491398,5.71639951 19.5244216,5.73119605 19.5244216,5.73119605 C19.5244216,5.73119605 20.127546,5.297164 20.804825,4.84833539 C21.3041329,4.51787916 22.0259047,4 22.0259047,4 C22.0259047,4 19.104212,4.69543773 15.149298,6.56966708 C14.0320348,7.0974106 13.4437413,7.41307028 13.4437413,7.41307028 C13.6167688,7.21578298 14.4077516,6.52034525 14.6005537,6.27373613 C11.6640301,7.70900123 10.5912596,8.66091245 8.84615385,10.5055487 C7.28890647,12.1528977 7.35811746,12.4389642 5,13.7114673 C5,13.7114673 6.74016215,14.4217016 8.50504252,13.2774353 C8.81154835,13.080148 9.09827961,12.8039457 9.37017995,12.512947 C9.9930789,11.7928483 9.78544592,11.053021 10.6159779,10.5203453 C10.4973304,10.7965475 10.3045284,11.1418002 10.2847538,11.5018496 C10.6851888,10.9543773 11.471228,10.2342787 12.3413091,9.71639951 C14.5659482,8.3945746 16.0391536,8.1676942 16.0391536,8.1676942 C15.9798299,8.18742293 15.9254499,8.20715166 15.8710698,8.22688039 C12.8307297,9.48951911 12.3363654,11.1368681 12.3215345,11.3094945 C12.286929,11.6794081 13.4190231,10.8508015 14.3434843,10.7373613 C13.3695867,11.0826141 12.5341111,11.9062885 12.1287325,12.8581998 C11.955705,13.2626387 11.9062685,13.7213317 11.4267352,14.081381 C11.2932569,14.2046856 11.1152857,14.3279901 10.8779909,14.431566 C10.240261,14.7176326 9.7953332,14.5745993 9.64702393,14.4759556 C9.55803836,14.4167694 9.5036583,14.3131936 9.5036583,14.3131936 C9.81510777,14.4019729 10.2353174,14.323058 10.6159779,14.081381 C10.8977655,13.9038224 11.1103421,13.6670777 11.2240459,13.4303329 C11.2240459,13.4303329 11.2240459,13.4303329 11.2240459,13.4303329 C11.2833696,13.3020962 11.402017,13.0554871 11.2289895,12.7348952 C11.1449476,12.5721332 10.9620328,12.4833539 10.7593435,12.4537608 C10.7741744,12.4192355 10.8779909,12.1479655 11.2141586,11.7484587 C10.7593435,12.0739827 10.4676686,12.4636252 10.3144157,12.6411837 C10.5269923,12.6658446 10.7148507,12.7644883 10.8186672,12.9371147 C11.0213565,13.2774353 10.8334981,13.7657213 10.3935139,14.027127 C9.95352976,14.2885327 9.42950366,14.2244143 9.22681432,13.8840937 C9.2020961,13.8397041 9.18232153,13.7953144 9.16749061,13.7509248 C9.14277239,13.7657213 9.12299782,13.7755857 9.09827961,13.7903822 C8.95985762,13.8594328 8.68301364,13.9778052 8.68301364,13.9778052 C8.81154835,14.0073983 8.98951948,14.0221948 9.09827961,14.0024661 C9.13288511,14.4808878 9.4344473,15.2552404 11.1301167,14.8212084 C10.6456397,15.2946979 9.47894008,15.2651048 8.77199921,14.8951911 C8.86592842,14.9691739 8.97963219,15.0431566 9.11311054,15.1270037 C11.2388768,16.4438964 13.6859798,15.2059186 14.2841606,14.8606658 C14.4324698,14.7669544 14.5758355,14.6831073 14.7241447,14.6091245 C14.7241447,14.6091245 14.1061894,15.1565968 13.6859798,16 C14.4374135,15.053021 16.6027289,13.5289766 19.5095907,13.8791615" id="Path" stroke="#FFFFFF" stroke-width="0.2344" fill="none"></path>
                    <path d="M11.5425532,11.6545914 C11.6329787,11.9730413 12.2180851,11.6444819 12.2180851,11.6444819 C12.2180851,11.6444819 11.4255319,12.2813816 11.106383,12.968829 C11.106383,13.0092671 11.106383,13.1457456 11,13.3378265 C11.0797872,13.3529907 11.1595745,13.3631003 11.2234043,13.3580455 C11.4308511,13.3378265 11.6702128,13.1962932 11.6702128,13.1962932 C11.6702128,13.1962932 11.6755319,13.6057287 11.2180851,14 C11.7340426,13.6310025 11.7925532,13.1609099 11.9787234,12.7464195 C12.4148936,11.7708509 13.3138298,10.9216512 14.3617021,10.5728728 C13.3670213,10.6891323 12.1489362,11.5433867 12.1808511,11.1592249 C12.1968085,10.9823083 12.7287234,9.29401853 16,8 C15.9680851,8.01010952 15.8882979,8.04043808 15.8776596,8.04043808 C12.8829787,9.11204718 11.3085106,10.800337 11.5425532,11.6545914" id="Path" stroke="none" fill="#A4ABAE" fill-rule="nonzero"></path>
                    <path d="M10.6149034,13.2678578 C10.7803883,13.4241082 10.6149034,13.6505118 10.2439892,13.7748744 C9.87307501,13.8992369 9.43368432,13.8737267 9.26819951,13.7174763 C9.23966765,13.691966 9.2282549,13.6664557 9.21684216,13.6409455 C9.14836569,13.6696445 9.07418284,13.6951548 9,13.7174763 C9.01711912,13.7493641 9.03994461,13.7780631 9.06847647,13.8035734 C9.30243775,14.0235995 9.90731324,14.0650537 10.4151804,13.8960481 C10.9230476,13.7270426 11.1398897,13.4113531 10.9059284,13.191327 C10.7860946,13.0797196 10.5692525,13.0159439 10.3238784,13 C10.2668147,13.0382654 10.2040446,13.0829084 10.1355681,13.1307401 C10.3409976,13.1339289 10.5236015,13.1785719 10.6149034,13.2678578" id="Path" stroke="none" fill="#004C54" fill-rule="nonzero"></path>
                    <path d="M9.70245051,12.8901844 C9.9561132,12.717462 10.0692858,12.4030188 9.9561132,12.1860087 C9.88977065,12.0664317 9.76879306,12 9.62830296,12 C9.53074039,12.1372921 9.4136653,12.2922993 9.28098021,12.438449 C9.2731752,12.5624548 9.30049272,12.717462 9.42927531,12.8281815 C9.42927531,12.8281815 9.2770777,12.8414678 9.17951513,12.7617498 C9.12488009,12.7130333 9.10146507,12.6598879 9.08975757,12.6288865 C9.05853754,12.6554591 9.03122002,12.6820318 9,12.7086045 C9.00780501,12.7440347 9.01561001,12.7838937 9.03512253,12.8148952 C9.15219761,13.0274765 9.44878783,13.0629067 9.70245051,12.8901844" id="Path" stroke="none" fill="#000000" fill-rule="nonzero"></path>
                    <path d="M9.25581395,13.8262483 C9.54651163,14.0412992 10,13.9960253 10,13.9960253 C9.60465116,13.7130636 9.53488372,13.3169172 9.55813953,13 C9.38372093,13.169777 9.19767442,13.3282356 9,13.4866942 C9.01162791,13.5659235 9.08139535,13.7130636 9.25581395,13.8262483" id="Path" stroke="none" fill="#FFFFFF" fill-rule="nonzero"></path>
                    <path d="M27.6779544,9.63055429 C27.6779544,9.63055429 25.6558397,9.50856469 24.7705598,9.53074462 C22.1292329,9.5972844 19.4105045,10.8116354 19.4105045,10.8116354 C21.1278507,10.318132 23.0096752,10.6785559 23.0096752,10.6785559 C22.2791983,10.7284607 20.4747754,11.2774139 19.5749827,11.7043775 C18.2736697,12.3198705 16.9578438,13.1904326 16,14 C17.5335176,12.9575434 21.8970283,10.5066614 27.4360746,11.859637 C27.4360746,11.859637 27.7988943,11.5380281 28.7615757,10.329222 C29.7823082,9.04278621 30,8.24985381 30,8.24985381 C30,8.24985381 25.2978576,7.67317569 21.8970283,8.27203374 C21.1617139,8.39956832 20.3731859,8.59918767 19.6717346,8.79880701 C21.7373877,8.44392817 24.7608846,8.63800254 27.6779544,9.63055429" id="Path" stroke="none" fill="#A4ABAE" fill-rule="nonzero"></path>
                    <path d="M16.9183673,14.3402911 C20.6800292,13.3055991 23.2951895,14.5608853 23.6126093,15.8791984 C23.6126093,15.8791984 23.6268222,15.8739462 23.6505102,15.8581894 C23.8021137,15.763649 24.3848397,15.4905324 25.266035,14.5293718 C26.1898688,13.5209411 26.7725948,12.7120956 27,12.1658623 C23.1483236,10.0281992 18.9034257,11.3149989 16.8188776,12.2078802 C18.2022595,11.6931604 20.5426385,11.230963 23.143586,12.202628 C19.1355685,11.3202511 15.9708455,13.4001395 15.9708455,13.4001395 C18.2638484,12.570285 19.7230321,13.3528693 19.7230321,13.3528693 C16.9420554,12.97996 14.8669825,14.6029032 14.1516035,15.611334 C14.0947522,15.7373878 14.0426385,15.8634417 14,16 C14.6443149,15.3224606 15.3312682,14.7762273 16.9183673,14.3402911" id="Path" stroke="none" fill="#A4ABAE" fill-rule="nonzero"></path>
                    <path d="M30.315,4.20772059 C27.2,4.53860294 24.685,5.18933824 23.345,5.86213235 C23.345,5.86213235 25.19,5.51470588 26.13,5.51470588 C27.045,5.51470588 27.795,5.61397059 27.795,5.61397059 C21.925,6.62316176 18.77,8.49816176 18,9 C18.78,8.63602941 20.47,7.93014706 22.885,7.40625 C25.165,6.90992647 27.815,6.78308824 28.88,6.66727941 C30.4,5.04595588 31,3 31,3 C31,3 28.35,3.23713235 25.345,3.84926471 C22.22,4.48897059 20.195,5.38786765 19.795,5.57536765 C25.56,3.58455882 30.315,4.20772059 30.315,4.20772059" id="Path" stroke="none" fill="#A4ABAE" fill-rule="nonzero"></path>
                    <path d="M15,16.2116524 C15,16.2116524 16.0226443,15.3145079 17.7611395,15.6412823 C20.3330898,16.122532 20.2563915,18 20.2563915,18 C20.2563915,18 21.4119795,17.4236886 22,16.2413591 C22,16.2413591 21.2739226,15.4392763 19.9598247,15.165974 C16.5390796,14.4648942 15,16.2116524 15,16.2116524" id="Path" stroke="none" fill="#A4ABAE" fill-rule="nonzero"></path>
                    <path d="M7.40197398,16.0807818 C7.15522656,16.1491857 6.62718708,16.2175896 6.87886945,15.8710098 C6.87886945,15.8710098 7.19964109,15.7114007 7.62404666,15.5061889 C7.80663975,15.647557 7.99910274,15.7433225 8.49753253,15.7889251 C8.49753253,15.7889251 7.59937192,16.0260586 7.40197398,16.0807818 L7.40197398,16.0807818 Z M8.4333782,15 C7.79676985,15.1778502 6.98743831,15.1276873 6.54329296,15.018241 C6.03005832,15.3465798 4.17945267,16.0762215 3,17.9185668 C3.05921938,18.5433225 3.12830866,19.3413681 3.40960072,19.7791531 C4.5397039,21.4299674 6.51861821,20.8188925 6.51861821,20.8188925 C6.51861821,20.8188925 3.51323463,19.5876221 6.72588605,17.7908795 C7.75235532,17.2162866 10.5899507,16.7876221 12.277703,17.2892508 C12.4208165,17.3394137 12.5984747,17.4534202 12.5886048,17.485342 C12.4109466,18.2833876 11.705249,20.5087948 10.5257963,21.142671 C9.87438313,20.2625407 11.5917452,18.2469055 9.83983849,18.1693811 C9.83983849,18.1693811 10.274114,18.7941368 10.0865859,19.6332248 C10.0026918,20.0026059 9.73126963,20.9830619 10.2148946,22 C10.2148946,22 12.8797667,20.5270358 13.6693585,17.1296417 C13.7729924,16.7921824 13.8420817,16.5094463 14,16.2540717 C10.5800808,17.5081433 8.4333782,15 8.4333782,15" id="Shape" stroke="none" fill="#A4ABAE" fill-rule="nonzero"></path>
                    <path d="M5.0787463,15.5807462 C4.78001478,16.1328135 5.40676523,16.0180983 5.69963927,15.9105527 C5.9339385,15.8245162 7,15.4445218 7,15.4445218 C6.40839444,15.3728247 6.17995269,15.2222609 5.9632259,15 C5.45948255,15.3298065 5.0787463,15.5807462 5.0787463,15.5807462" id="Path" stroke="none" fill="#000000" fill-rule="nonzero"></path>
                </g>
            </g>
        </g>
    </g>
</svg>