<?xml version="1.0" encoding="UTF-8"?>
<svg width="36px" height="36px" viewBox="0 0 36 36" version="1.1" xmlns="http://www.w3.org/2000/svg" xmlns:xlink="http://www.w3.org/1999/xlink">
    <title>Group 3</title>
    <defs>
        <rect id="path-1" x="0" y="0" width="36" height="36"></rect>
    </defs>
    <g id="Page-1" stroke="none" stroke-width="1" fill="none" fill-rule="evenodd">
        <g id="Group-3">
            <mask id="mask-2" fill="white">
                <use xlink:href="#path-1"></use>
            </mask>
            <g id="Rectangle"></g>
            <g id="jacksonville-jaguars-logo" mask="url(#mask-2)">
                <g transform="translate(0.000000, 5.000000)" id="Path">
                    <path d="M29.410934,18.0850824 C29.410934,18.0850824 31.917375,17.3825672 33.1098049,15.3850824 C34.5126637,15.0923677 36,13.5374675 36,12.158196 C36.0139816,11.1622947 35.5272128,10.2259704 34.7043877,9.66660885 C34.7043877,9.66660885 34.2367681,8.43720729 32.4247422,7.25698179 C32.7172905,6.91036517 32.8932025,6.48014779 32.9274333,6.02758023 C32.9274333,5.37658283 32.4247422,4.97614918 31.5245745,4.32281006 C30.6244068,3.66947095 29.7639868,3.34397225 28.6604045,2.66019081 C27.5568223,1.97640937 25.1205243,0.786816999 23.5516605,0.451951431 C22.4310971,0.173766396 21.282947,0.0221707702 20.1286852,0 C18.3166593,0 17.6315966,0.292714657 17.6315966,0.292714657 C17.6315966,0.292714657 17.0821435,0.0585429315 15.8546421,0.0585429315 C14.6271407,0.0585429315 13.8836256,0.159236774 11.2719702,0.868777103 C8.66031477,1.57831743 6.64721244,2.07476149 4.51720522,2.20823938 C2.387198,2.34171726 1.41922545,2.4424111 0.75988183,2.4424111 C0.100538211,2.4424111 0,3.36973114 0,3.6366869 C0,5.41873374 2.33809794,7.760451 3.57495175,8.42784042 C3.50919194,8.8455138 3.47247341,9.26725694 3.46506115,9.69002602 C3.46506115,10.2848222 3.64977088,12.6499566 5.63481603,14.933131 C8.27452861,17.7267997 10.862803,18.1038161 12.6163765,19.239549 C14.3699499,20.3752819 14.9544744,21.6140503 15.8897136,23.0190807 C17.2925724,25.3865568 19.6797704,27 22.2610305,27 C26.450902,27 28.3400851,22.9113617 28.3400851,22.0332177 C28.3400851,21.4548135 27.6386557,21.3307025 27.6386557,21.3307025 C27.6386557,21.3307025 28.1810945,19.6493495 27.7555606,18.1038161 C27.3276195,18.8008402 26.8385865,19.4583344 26.2942494,20.0685169 C26.2942494,20.0685169 25.209372,19.13183 25.4268151,18.0616652 C26.0566238,17.8433142 26.6278258,17.4827557 27.096217,17.0078925 C27.8796142,16.8450401 28.5953483,16.448246 29.149067,15.8698179 C29.2319192,16.0140973 29.3298936,16.1491188 29.4413292,16.2725932 L30.0001347,15.8627927 L30.0352061,16.4060711 L30.2853826,16.3475282 C30.1072828,16.9772959 29.8104582,17.5670949 29.410934,18.0850824 L29.410934,18.0850824 Z" stroke="none" fill="#231F20" fill-rule="nonzero"></path>
                    <path d="M25.9748066,21 C25.9748066,21 26.247292,20.4396355 25,20 C25.0830456,20.2242229 25.1114791,20.4543565 25.0844321,20.6833713 L25.9748066,21 Z" stroke="none" fill="#185465" fill-rule="nonzero"></path>
                    <path d="M29,11.1799855 C30.0068399,11.1381941 31.3009576,11.3450614 31.2735978,12.1140228 C31.5269459,12.3951628 31.7501957,12.6914489 31.9411765,13 C32.4271449,12.6857938 32.7929689,12.2771718 33,11.817304 C30.3679891,10.9020728 29.5608755,10.862371 29,11.1799855 Z" stroke="none" fill="#185465" fill-rule="nonzero"></path>
                    <path d="M27.4749147,10.5603983 L29.2210313,11.9188402 L26.7999059,12.7753947 C26.7999059,12.7753947 26.9944397,12.2288951 26.8397502,12.1552849 C25.0936336,11.2318121 22.1123446,10.4109474 19.1052741,9.86444775 C16.0982035,9.31794813 14.511464,9.27779713 14.511464,9.27779713 L15.5286648,9.47409088 L16.5763347,9.88006202 L12.9903504,10.1231986 L12.9903504,10.8392246 L11.8958048,10.9351409 C11.6473641,10.4198698 11.3684542,10.5893962 11.0403249,10.3819494 C10.8309505,10.2362732 10.6830262,10.0243097 10.6231319,9.78414576 C10.590319,9.65700095 10.4285981,9.6659234 10.1262504,9.5833908 C9.82390274,9.5008582 9.69968236,9.57000714 9.63640029,9.67261523 C9.57311821,9.77522332 9.9012475,9.76183966 9.9012475,9.76183966 C9.78405847,9.88006202 9.28717697,9.9157518 9.28717697,9.9157518 L9.28717697,9.95367218 L9.57311821,9.99828439 C9.44715288,10.173988 9.46360509,10.4088551 9.61296248,10.5670901 C9.74085558,10.6604366 9.9186688,10.6604366 10.0465619,10.5670901 C10.0465619,10.5670901 9.91531018,10.745539 9.96218579,10.8035349 C10.0090614,10.8615307 9.80749627,11.0466714 9.80749627,11.2318121 C9.80749627,11.5797874 10.2575022,11.7493138 10.2575022,11.7493138 L8.25591349,12.5166439 L8.0848175,12.8200069 C8.09888742,12.9685654 8.03157531,13.1135476 7.90669018,13.203672 C7.79256435,13.264207 7.69841791,13.3538076 7.63481162,13.4624228 C7.57387333,13.5293411 6.90589584,14 6.90589584,14 C6.66211401,13.7916452 6.45272749,13.5495058 6.28479398,13.2817434 C6.51569626,13.0970929 6.65364855,12.8280269 6.66448644,12.5411806 L6.33166959,12.4965684 C6.71136205,12.2735073 6.75120632,12.0905972 6.75120632,12.0905972 C6.6808929,12.1798217 6.53323472,12.1218258 6.53323472,12.1218258 C6.4629213,11.7805423 6.21448056,11.7582362 6.13010445,11.5217915 C6.04572835,11.2853468 5.69416126,11.3611875 5.69416126,11.3611875 C5.76802721,11.2689157 5.85753594,11.189006 5.95900847,11.1247428 C6.06682238,10.6786207 6.19338653,10.665237 6.19338653,10.5113249 C6.19338653,10.1856557 5.55822198,10.1254292 5.53478417,10.20127 C5.51134637,10.2771107 5.66603589,10.3551821 5.66603589,10.3551821 C5.46293529,10.4077949 5.27045705,10.4922255 5.09649719,10.6050105 C4.83399376,8.66214858 5.19024842,8.30078964 5.19024842,8.30078964 C6.94574012,8.24056315 7.78950114,7.38400864 7.78950114,7.38400864 L6.97620926,7.41300658 L6.32463825,7.08956803 L7.76606334,6.62337039 C10.0629684,6.57206635 11.7247088,5.07978778 11.7247088,5.07978778 C11.7247088,5.07978778 10.3746912,5.86942397 8.91217207,5.86942397 C7.63222085,5.83942325 6.40091418,5.39663593 5.41993892,4.61359014 L5.38243843,4.44406373 C5.64494186,4.40837396 5.59103491,4.26784549 5.7011926,4.14293129 C5.81135029,4.01801709 5.99416518,4.08939663 5.98713384,4.03809258 C5.98010249,3.98678854 5.85588212,3.9800967 5.85588212,3.9800967 L5.85588212,3.89087228 C5.85588212,3.89087228 6.24494971,3.89087228 6.24494971,3.72803769 C6.24494971,3.56520311 5.97307115,3.70573159 5.60978515,3.53620517 L5.40587624,3.09008303 C6.50734734,3.00428643 7.59847683,2.82436909 8.6660751,2.55250585 C8.75521221,2.70326162 8.90794129,2.81045044 9.08561184,2.84694647 L8.85123377,2.98078311 C8.95862803,2.99966173 9.06789152,3.00714286 9.17701928,3.00308921 C9.29029602,2.97008454 9.4078058,2.95207072 9.5262426,2.94955456 C9.6949948,2.94955456 9.93640421,2.98078311 9.89890372,2.84694647 C9.86140323,2.71310982 9.59421223,2.62388539 9.59421223,2.62388539 L9.61765004,2.56588952 L10.013749,2.66180578 C9.94999674,2.5379761 9.94999674,2.39304797 10.013749,2.26921829 L13.3348861,1.55542287 C13.3348861,1.55542287 13.5364513,2.02608172 13.9091124,2.00154501 C14.49037,1.92793485 14.4200566,2.12868982 14.7153729,2.15099592 C14.5790919,1.99380811 14.4619388,1.82244793 14.3661496,1.64018607 L14.4130252,1.61118813 L14.778655,1.88332264 C15.1349097,1.59557386 15.5614777,1.74502478 15.5849155,1.68479829 C15.6083533,1.6245718 15.3903817,1.46173722 15.430226,1.42604744 C15.4700703,1.39035767 15.7255424,1.64910852 15.793512,1.6044963 C15.8614817,1.55988409 15.6856981,1.18291088 15.6856981,1.18291088 C16.6484049,1.16094088 17.6115685,1.20118436 18.5685483,1.30336386 L18.5849548,1.36135973 C18.2521379,1.42827806 18.6388617,1.77625333 18.6388617,1.77625333 L18.5451105,1.80525126 C18.5451105,1.80525126 18.3435453,1.60672691 18.2591692,1.60672691 C18.1747931,1.60672691 18.0951046,1.68033707 18.0951046,1.8119431 C18.0951046,1.94354913 18.390421,2.10861432 18.5919861,2.10861432 C18.7214681,2.10510488 18.847647,2.06892503 18.9576159,2.00377562 C18.9576159,2.08630821 19.4779352,2.04838783 19.4544974,1.93016546 C19.4310596,1.8119431 19.1427745,1.59111264 19.1427745,1.59111264 L19.693563,1.84317165 L19.8951281,1.52419432 C20.6552813,1.66599788 21.4046192,1.85602378 22.1381262,2.09300005 C22.0022804,2.10863791 21.8722092,2.15448631 21.7584337,2.22683669 C21.6435885,2.28483257 21.7584337,2.44989776 21.7584337,2.44989776 C21.7333175,2.43380569 21.702249,2.42850632 21.6728239,2.43529525 C21.6433987,2.44208418 21.6183292,2.46033565 21.6037442,2.48558753 C21.6908021,2.65253558 21.8777342,2.75038392 22.0725003,2.73095471 L22.011562,2.59711807 C22.1015038,2.59735585 22.1818433,2.65070025 22.2131272,2.73095471 C22.2131272,2.73095471 22.4217237,2.73095471 22.6256326,2.7086486 C22.7735744,2.71321375 22.9155872,2.76507581 23.0287628,2.85586891 L22.9889186,2.73095471 L23.1365768,2.55250585 L23.2373593,2.67742005 L23.4904876,2.67742005 L23.7693975,2.91386479 L23.8092418,2.69080372 C23.8381432,2.75060387 23.8914963,2.79654496 23.9569,2.81794853 C24.008509,2.7577855 24.0712649,2.70713204 24.1420586,2.66849761 C24.095183,2.5212773 24.437375,2.31606112 24.437375,2.31606112 C24.4842506,1.97477768 24.0248696,1.93016546 23.9170557,1.95247157 C23.8092418,1.97477768 23.8936179,2.10192249 23.8233045,2.11530615 C23.7529911,2.12868982 23.7459597,1.95247157 23.6920528,1.96139401 C23.6381458,1.97031646 23.6615836,2.10861432 23.6615836,2.10861432 C23.6615836,2.10861432 23.4272055,2.08630821 23.3592359,2.13761226 C23.2670714,2.2338639 23.1839403,2.33761181 23.1107952,2.44766715 L21.7678089,1.80525126 L22.14047,1.67141462 L22.2107834,1.75394722 C22.3584416,1.06022729 21.4795238,1.11822317 21.4256169,1.13383744 C21.3717099,1.14945172 21.5357746,1.47289027 21.456086,1.49519638 C21.3763975,1.51750248 21.221708,1.25875164 21.1537383,1.25875164 C21.0228922,1.31027969 20.8980056,1.37456684 20.7810772,1.45058416 C20.3883232,1.30406579 19.9794974,1.20006024 19.5623113,1.14052927 C19.9905012,1.04691948 20.4284555,0.999776073 20.8677971,1 C22.505858,1.02283275 24.1196426,1.38036392 25.5998902,2.04838783 C26.1670851,2.29375501 26.1811478,2.49450997 26.1811478,2.49450997 C26.102665,2.45484115 26.0202257,2.42271047 25.9350508,2.39859371 C25.9186444,2.55473646 26.8585004,2.9160954 26.8585004,2.9160954 C26.6405288,2.69303433 26.7014671,2.5837344 26.7014671,2.5837344 C26.9663143,2.87817501 27.1045974,2.76887509 27.1842859,2.80679547 C27.2639745,2.84471585 30.078855,4.28569037 30.3812027,4.44629434 C30.6835504,4.60689831 30.7069882,4.78757778 30.6155808,4.82326755 C30.5241733,4.85895732 30.421047,4.65374114 30.421047,4.65374114 C30.2968266,4.76527167 30.2968266,5.03071435 30.3812027,5.05302045 C30.4655788,5.07532656 30.3812027,4.9794103 30.4983917,4.99279397 C30.6155808,5.00617763 30.5827678,5.09763267 30.7773016,5.14224488 C30.9195797,5.17991787 31.0553683,5.23702041 31.1804319,5.3117713 L31.1968384,5.11101633 L31.5155925,5.48798954 C31.7231942,5.48679891 31.9218505,5.56832767 32.06344,5.71282678 C32.2050295,5.8573259 32.2766363,6.05161396 32.2609148,6.24862779 C32.2675011,6.48462876 32.1646337,6.71143133 31.9796611,6.86873757 C31.0532892,6.20393826 30.0258504,5.67741512 28.9327463,5.30731007 C29.8702585,5.75343222 31.5249676,7.09179864 32.0218491,7.64945132 C32.5187306,8.20710399 32.6101381,8.35878552 32.6101381,8.61530575 C32.6101381,8.87182598 32.4320108,9.06142789 32.4320108,9.17741965 C32.4234457,9.2944076 32.5115263,9.39773001 32.6335759,9.41386439 C32.867954,9.41386439 33.2640529,8.92759125 33.2640529,8.92759125 C33.2640529,8.92759125 34,9.42947866 34,10.0562803 C34,10.6830819 33.1703017,10.4399453 32.5023242,10.9886755 C31.3261454,10.5439324 30.0950609,10.2440882 28.838995,10.0964313 C27.9260681,9.98240883 27.003265,9.95774322 26.0850528,10.0228211 L27.4749147,10.5603983 Z" stroke="none" fill="#C9942B" fill-rule="nonzero"></path>
                    <path d="M5.63027037,3.68002717 C6.57290981,4.4485183 7.72107367,4.87776494 8.90839674,4.90557065 C10.367163,4.90557065 11.7182193,4.02377717 11.7182193,4.02377717 C11.7182193,4.02377717 10.0580825,5.69021739 7.76339402,5.74750906 L6.32335994,6.26811594 L6.97430218,6.62930254 L7.78680921,6.59692029 C7.78680921,6.59692029 6.94386243,7.55344203 5.19006482,7.62069746 C5.19006482,7.62069746 4.83415396,8.02423007 5.09640407,10.1938406 C5.26884765,10.0646357 5.46036465,9.96697588 5.66305163,9.9048913 C5.66305163,9.9048913 5.50851139,9.81521739 5.53192657,9.7330163 C5.55534176,9.65081522 6.18989337,9.71557971 6.18989337,10.0792572 C6.18989337,10.2511322 6.06579287,10.2760417 5.95574148,10.7642663 C5.85436688,10.8360296 5.76494453,10.9252654 5.69114986,11.0283062 C5.69114986,11.0283062 6.04003616,10.9436141 6.12667236,11.207654 C6.21330856,11.4716938 6.45916803,11.4966033 6.5294136,11.8777174 C6.5294136,11.8777174 6.67692929,11.9424819 6.74717485,11.8428442 C6.74717485,11.8428442 6.70736903,12.0495924 6.32804298,12.2961957 L6.66053865,12.3460145 C6.65242424,12.6711246 6.51341661,12.9768609 6.27887108,13.185462 C6.44352901,13.4883704 6.65036783,13.7629982 6.89234902,14 C6.89234902,14 7.55968189,13.4744112 7.62056138,13.399683 C7.68410628,13.2783914 7.77816187,13.1783337 7.89217756,13.1107337 C8.01694218,13.0100911 8.08418933,12.8481881 8.07013299,12.6822917 L8.24106387,12.3435236 L10.2266718,11.4941123 C10.2266718,11.4941123 9.77710022,11.3048007 9.77710022,10.9162138 C9.77710022,10.7094656 9.97847084,10.5052083 9.93164047,10.4379529 C9.88481009,10.3706975 10.0159351,10.173913 10.0159351,10.173913 C9.88816547,10.2781538 9.71052384,10.2781538 9.58275416,10.173913 C9.43354091,9.99721068 9.41710457,9.7349325 9.54294834,9.53872283 L9.25728304,9.48890399 L9.25728304,9.44655797 C9.25728304,9.44655797 9.75368503,9.4067029 9.87076098,9.27468297 C9.87076098,9.27468297 9.54528986,9.28962862 9.60616935,9.17504529 C9.66704884,9.06046196 9.79349085,8.9857337 10.0955468,9.07540761 C10.3976027,9.16508152 10.5638506,9.1576087 10.5919488,9.29959239 C10.6517853,9.56778554 10.7995668,9.80448698 11.0087391,9.96716486 C11.3365518,10.1988225 11.6151925,10.0095109 11.8633935,10.5849185 L12.9568828,10.477808 L12.9568828,9.67821558 L16.5394066,9.4067029 L15.5067968,8.93342391 L14.4905776,8.71422101 C14.4905776,8.71422101 16.0711029,8.75905797 19.0799546,9.36933877 C19.7262138,9.5013587 20.3701314,9.64583333 21,9.80276268 C20.6307207,9.39178552 20.2398407,9.00340597 19.8292406,8.63949275 C18.0357961,8.12017108 16.2126212,7.72494496 14.3711602,7.45629529 C14.3711602,7.45629529 16.0781274,7.5160779 19.2157626,8.2035779 C18.1269564,7.26200181 17.213764,7.0004529 17.213764,6.57450181 C17.213764,6.29800725 17.7195321,5.87205616 17.7195321,5.87205616 L18.4571105,5.25430254 L20.0961737,4.58174819 L20.0470018,4.08355978 L20.1734439,3.97146739 C20.1734439,3.97146739 20.0540264,3.63519022 20.4193033,3.66508152 L20.440377,3.63519022 C20.440377,3.63519022 18.951171,3.03736413 15.4412343,3 L15.7994867,3.38111413 C15.5649623,3.39262553 15.3299418,3.3826248 15.097031,3.35122283 C15.0194397,3.60127621 15.0503252,3.87508041 15.1813257,4.09850543 L14.8043412,4.06861413 L15.3101092,4.33763587 C15.22455,4.33141529 15.1404074,4.36329096 15.0778016,4.42564079 C15.0151958,4.48799062 14.9797555,4.57520896 14.9799551,4.66644022 C14.9799551,4.95788043 14.5514571,4.97282609 14.5514571,4.97282609 L14.600629,5.15964674 L14.3055977,5.01766304 L14.4812116,5.24932065 C13.666363,5.30163043 13.4205035,5.10733696 13.5961174,4.84578804 C13.666363,4.7486413 13.5961174,4.62907609 13.4486018,4.48709239 L13.4486018,4.32269022 C13.4486018,4.32269022 13.8349524,4.38994565 13.9543698,4.4048913 C13.8022722,4.28374183 13.630966,4.19262279 13.4486018,4.13586957 C13.4977737,3.90421196 13.6827536,4.01630435 13.792805,3.69497283 C13.9288611,3.73056806 14.0626075,3.77549904 14.1932047,3.8294837 C14.1932047,3.8294837 14.1159346,3.6576087 13.6593385,3.52309783 C13.6593385,3.52309783 13.8934903,3.49320652 14.0737873,3.47826087 C14.1642209,3.47834442 14.2386086,3.40250701 14.2423766,3.30638587 C12.5798983,3.43342391 10.9221029,3.97146739 9.92461591,4.24796196 L10.2617946,3.859375 C9.61174424,4.04932825 8.94292737,4.15718152 8.26916209,4.18070652 C7.3372376,4.18070652 6.47790018,3.91417572 5.63027037,3.68002717 Z" stroke="none" fill="#8B6728" fill-rule="nonzero"></path>
                    <path d="M28.8994858,10 L28.5769719,9.96661108 C27.8128343,9.89239394 27.042114,9.87061116 26.2733015,9.90150269 L26.1371755,9.85141931 C25.8634884,9.53752031 25.4615242,9.30914811 25,9.20534374 C25.5383668,9.06885005 26.099986,8.99958334 26.6649255,9 C27.6052419,9 28.1895365,9.25041878 28.5979144,9.25041878 C28.9560305,9.25041878 28.9057686,9.07011861 28.9057686,9.07011861 C29.1151931,9.21536041 28.9685959,9.45576063 28.535087,9.47579398 C28.5808022,9.67775628 28.7089006,9.86203222 28.8994858,10 Z" stroke="none" fill="#8B6728" fill-rule="nonzero"></path>
                    <path d="M31.916244,6 C31.9711283,6.12597355 32.0000529,6.27079679 31.9998103,6.41841004 C32.0040037,6.63975117 31.9385094,6.85246527 31.8207398,7 C31.556702,6.7335901 31.2827344,6.48707665 31,6.26150628 C31.534227,6.32635983 31.7640341,6.28451883 31.916244,6 Z" stroke="#231F20" stroke-width="0.1" fill="none"></path>
                    <path d="M18,13.1303505 C19.9012075,13.958475 19.6663008,16.0021507 19.7694841,17.2637089 C19.791438,19.5834261 20.1207464,20.9563694 22.0131723,22 C22.0131723,22 23.5499451,21.0943901 24,19.5228907 C22.9923161,18.7819372 23.0472009,17.4961649 23.0472009,16.8326967 C23.0472009,15.0626411 22.687157,13.7090691 20.9023052,13.3628065 C22.1383095,14.295052 22.1778266,17.3581441 22.1778266,17.7722064 C22.1778266,19.1790495 22.5532382,19.8255678 22.5532382,19.8255678 C22.5532382,19.8255678 21.9187706,19.6270116 21.7321625,17.375094 C21.6377607,13.4766131 19.5499451,12.6291172 18,13.1303505 Z" stroke="none" fill="#185465" fill-rule="nonzero"></path>
                    <path d="M23.5426916,7.95615104 C24.1422001,7.6225485 24.8060985,7.43999406 25.4828632,7.4226553 C26.2342101,7.43340077 26.982346,7.5289448 27.7146347,7.70767357 C27.9184094,7.43070858 28.0189418,7.08384044 27.9970502,6.73325213 C27.9970502,5.66138855 27.0946981,5.00365408 27.0946981,5.00365408 C27.2715404,5.3511647 27.3660984,5.73908121 27.3702255,6.13398295 C27.3702255,6.90133983 26.7640653,7.25213155 26.075247,7.25213155 C25.412657,7.2305049 24.7671723,7.02379234 24.2039572,6.65286236 L22.8538732,6.07064555 L22.5852341,5.53714982 L22.619675,5.0499391 C22.6801671,4.94965266 22.7695521,4.87275948 22.8745378,4.83069428 L22.8400969,4.65529842 L22.9847487,4.79415347 C22.9847487,4.79415347 23.4049279,4.6406821 23.4049279,4.30694275 C23.4049279,4.10962241 23.2051706,4 23.0605187,4 C22.9158669,4 22.8745378,4.06577345 22.7643269,4.06577345 C22.6541159,4.06577345 22.6885568,3.94884287 22.4887995,4.06577345 C22.2890422,4.18270402 21.6828821,4.38733252 21.6828821,4.38733252 C21.6828821,4.38733252 21.3522493,4.48964677 21.2007092,4.24847747 C21.0985635,4.08737188 20.9242623,3.99490765 20.741497,4.00487211 C20.4567854,4.05602923 20.7139443,4.22411693 20.7139443,4.22411693 L20.6932797,4.25334957 C20.6932797,4.25334957 20.3947918,4.20219245 20.4361209,4.49695493 L20.1468172,5.43239951 L18.5786074,5.86845311 L18,6.47015834 L18,6.52862363 C18.4667149,6.37009528 18.957769,6.30807218 19.4465185,6.34591961 L20.0228299,7.1863581 L21.193821,7.88063337 L22.1650549,8.15103532 L22.8125441,8.40682095 C22.8125441,8.40682095 23.597797,8.79415347 24.7389394,10 C24.7458276,9.99512789 24.7320512,9.34470158 23.5426916,7.95615104 Z" stroke="none" fill="#231F20" fill-rule="nonzero"></path>
                    <path d="M23.2090164,5 C23.1368656,5.03946176 23.0756373,5.0959062 23.0307377,5.16434953 L23,5.57015084 L23.2397541,6.01450327 L24.4446721,6.49943583 C24.9473283,6.80838607 25.5234082,6.98055844 26.1147541,6.99857144 C26.4352194,7.01345075 26.7501045,6.91168754 27,6.71248152 C26.8140935,6.78466262 26.6156338,6.81982684 26.4159836,6.81596085 C26.0614754,6.81596085 25.7663934,6.68204642 25.0409836,6.12812763 C24.4806843,5.67728096 23.8651664,5.29824428 23.2090164,5 L23.2090164,5 Z" stroke="none" fill="#8B6728" fill-rule="nonzero"></path>
                    <path d="M26.9773233,6 C27.1906947,6.28986815 27.3078357,6.63629268 27.313028,6.99279019 C27.3342251,7.30407318 27.2368824,7.61205308 27.0395731,7.85796683 C26.330519,7.69927579 25.6061204,7.61444344 24.8786127,7.60490267 C24.2233208,7.62029754 23.580487,7.78238535 23,8.07858688 C23.584937,8.06755505 24.1010692,8.44885951 24.247221,9 C25.376387,8.33887456 26.6842913,8.02453152 28,8.09805335 C27.946643,7.31723143 27.4619831,6.55155011 26.9773233,6 Z" stroke="none" fill="#8B6728" fill-rule="nonzero"></path>
                    <path d="M28.9975717,8.68305332 C28.9975717,8.68305332 29.0481205,9 28.68796,9 C28.2772505,9 27.6896201,8.55979627 26.7439354,8.55979627 C26.1757706,8.55906051 25.6109451,8.68082333 25.0695047,8.92076333 L25,8.90022049 C25.3327499,8.62353308 25.6857933,8.39725193 26.0531011,8.22524144 C26.9629804,7.81144994 28.4604901,7.96992328 28.9975717,8.68305332 Z" stroke="none" fill="#231F20" fill-rule="nonzero"></path>
                    <path d="M19.6975748,9.24259182 C17.8254385,8.69698017 15.9222582,8.28191299 14,8 C14,8 15.7803395,8.06278359 19.0528428,8.78479483 C21.7929538,9.34199917 25.5197002,10.6159828 26.8531232,11.4504813 C27.0143062,11.6388321 26.9996532,11.6152882 26.9996532,11.7722472 C26.9996532,11.9292061 26.8384702,11.9998377 26.7212462,11.9998377 C26.6040222,11.9998377 26.6040222,12.0155336 26.1277997,11.7382394 C25.6515772,11.4609452 23.2851177,10.3072968 19.6975748,9.24259182 Z" stroke="none" fill="#231F20" fill-rule="nonzero"></path>
                    <path d="M29.2930954,4 C29.2801647,4.03631285 29.2586136,4.03910615 29.2349073,4.05586592 C29.21019,4.07830643 29.1823942,4.09442367 29.153013,4.10335196 C29.0969801,4.11731844 29.0280165,4.11731844 29,4.19273743 C29.0215511,4.19273743 29.0301716,4.25698324 29.0409471,4.2849162 C29.0544675,4.31804045 29.0719214,4.34820382 29.0926699,4.37430168 C29.143181,4.4235467 29.1894267,4.47974058 29.2305971,4.54189944 C29.18965,4.54189944 29.1508579,4.50837989 29.1206863,4.48603352 C29.0905147,4.46368715 29.038792,4.46368715 29.0150858,4.44134078 C29.0215434,4.53094646 29.0577205,4.61249432 29.114221,4.66480447 C29.1832214,4.74873952 29.2667255,4.81003897 29.3577488,4.84357542 L29.4267124,4.87150838 C29.4547289,4.87150838 29.4849004,4.87150838 29.5129169,4.89385475 C29.5409334,4.91620112 29.5926561,4.95530726 29.6314481,4.97206704 C29.6522686,4.98163879 29.6740423,4.98728306 29.6961015,4.98882682 C29.7111873,4.98882682 29.7585998,5.01396648 29.7693754,4.98882682 C29.7801509,4.96368715 29.7542896,4.90502793 29.7478242,4.88826816 C29.7413589,4.87150838 29.6961015,4.81564246 29.6767055,4.77094972 C29.6573095,4.72625698 29.6896362,4.70949721 29.7370487,4.73463687 C29.7791459,4.76423053 29.8194861,4.79784286 29.857735,4.83519553 C29.8988643,4.87723508 29.9467263,4.90682111 29.9978174,4.92178771 C30.0045438,4.83926219 29.9956678,4.75585485 29.971956,4.67877095 C29.9497817,4.58640686 29.9170949,4.49885001 29.8749759,4.41899441 C29.8262153,4.35808722 29.772778,4.30380124 29.7154975,4.25698324 C29.6891993,4.23278036 29.6610315,4.21218556 29.6314481,4.19553073 C29.6163623,4.19553073 29.5818805,4.16201117 29.5689499,4.16759777 C29.5560192,4.17318436 29.5517089,4.20111732 29.5366232,4.20949721 C29.4805902,4.24301676 29.4439533,4.18156425 29.420247,4.13407821 C29.3984576,4.09130415 29.3747087,4.05026214 29.3491283,4.01117318 L29.2930954,4 Z" stroke="none" fill="#231F20" fill-rule="nonzero"></path>
                    <path d="M27.2576929,3 C27.2576929,3.04016664 27.2739839,3.09935958 27.2576929,3.13107009 C27.241402,3.16278059 27.1792003,3.13107009 27.1480994,3.10358765 C27.1169985,3.07610521 27.0784927,3.04439471 27.0666447,3.10358765 C27.0547968,3.16278059 27.0962646,3.1944911 27.1051506,3.23042967 C27.1303533,3.25833556 27.1423853,3.3041355 27.1362514,3.34881556 C27.1166516,3.35639674 27.0957106,3.34831781 27.0814547,3.32767522 C27.0491223,3.3136081 27.0206557,3.28553349 27,3.24734194 C27.0014556,3.27408677 27.0081246,3.29971668 27.0192529,3.32133312 C27.0303329,3.34951006 27.0454765,3.37400897 27.0636827,3.39321027 L27.1599473,3.50736809 C27.1901136,3.55755779 27.2336096,3.58745207 27.2799078,3.5898154 C27.3381795,3.58796206 27.3962545,3.60011101 27.4517031,3.62575397 C27.4858086,3.6380535 27.5157334,3.66728024 27.5361198,3.70820129 C27.5535667,3.75631889 27.5783675,3.79822307 27.6086885,3.83081524 C27.6506896,3.88510158 27.6974923,3.9312988 27.7479019,3.96822743 C27.7701168,3.98302567 27.8678624,4.03164844 27.8752674,3.96822743 C27.8611761,3.94798996 27.8505348,3.92339684 27.8441665,3.89635029 C27.8202863,3.86299869 27.8038052,3.82035808 27.7967747,3.77373633 C27.7967747,3.73991179 27.7967747,3.73145566 27.8175086,3.72722759 C27.8346906,3.72124465 27.8527223,3.73037788 27.8634195,3.75048196 C27.8841534,3.78642053 27.8945203,3.83081524 27.9137732,3.86463978 C27.9340836,3.89731828 27.9609874,3.92021272 27.9907849,3.93017483 C28.0115188,3.89212222 27.9907849,3.87732398 27.9907849,3.83292928 C27.9907849,3.78853457 27.9981899,3.75682406 27.9907849,3.72722759 C27.9802976,3.70596451 27.9659662,3.68916027 27.9493171,3.67860482 C27.9493171,3.67860482 27.9122922,3.66380658 27.9078493,3.65746448 C27.9034063,3.65112238 27.9404311,3.60038557 27.9567221,3.59404347 C27.9606477,3.53342399 27.9460752,3.47333128 27.9167352,3.42914884 C27.8831916,3.39717673 27.8565298,3.35253149 27.8397235,3.30019278 C27.8115847,3.30019278 27.8115847,3.34035942 27.7908507,3.35515766 C27.7701168,3.3699559 27.7464209,3.34035942 27.728649,3.31921909 C27.6946967,3.28299875 27.6629857,3.24268405 27.6338654,3.19871917 C27.6168645,3.16388274 27.5932213,3.13673661 27.5657397,3.12049992 C27.53435,3.11323724 27.5023458,3.11323724 27.4709561,3.12049992 C27.4430019,3.12239617 27.4154684,3.13097124 27.3895014,3.14586832 C27.3702485,3.14586832 27.3450716,3.16700866 27.3287806,3.14586832 C27.3124897,3.12472799 27.3198947,3.08244731 27.3036038,3.05707891 L27.2576929,3 Z" stroke="none" fill="#231F20" fill-rule="nonzero"></path>
                    <path d="M26.03146,4 C26.0505658,4.02186373 26.0711902,4.04141642 26.0930727,4.05841121 C26.1099799,4.07969505 26.1295939,4.0970812 26.1510611,4.10981308 C26.1963646,4.17056075 26.096697,4.22196262 26.0731392,4.25 C26.0495814,4.27803738 25.9825323,4.35280374 26.004278,4.4228972 C26.0169308,4.45134957 26.027837,4.48103525 26.0368964,4.51168224 C26.0368964,4.54906542 26.0368964,4.59579439 26.0477693,4.63317757 C26.0717823,4.70117726 26.1125567,4.75703463 26.1637461,4.79205607 C26.2072374,4.81074766 26.2181102,4.74766355 26.2434802,4.72196262 C26.2678512,4.7089815 26.2952189,4.7089815 26.31959,4.72196262 C26.3489487,4.73444466 26.3793731,4.74229009 26.4101969,4.7453271 C26.4283183,4.7453271 26.5388587,4.7453271 26.4989916,4.80373832 C26.4591246,4.86214953 26.3975119,4.78504673 26.3648934,4.82242991 C26.3648934,4.85280374 26.4065726,4.85981308 26.4228818,4.87149533 C26.4456644,4.88689694 26.466954,4.90571931 26.4863067,4.92757009 C26.5130224,4.95686166 26.5457562,4.97552915 26.5805379,4.98130841 C26.6043718,4.98856714 26.6291895,4.98856714 26.6530234,4.98130841 C26.6765812,4.98130841 26.6965147,4.95560748 26.7182603,4.94626168 C26.7472212,4.94372431 26.7762822,4.94372431 26.805243,4.94626168 C26.8330402,4.93568133 26.8626163,4.93568133 26.8904135,4.94626168 C26.9215978,4.96654629 26.9536657,4.98448901 26.9864568,5 C26.9712262,4.9706839 26.9584688,4.9393534 26.9484019,4.90654206 C26.9341757,4.87470364 26.9278517,4.83801224 26.9302805,4.80140187 C26.9393412,4.76401869 26.9864568,4.77570093 26.9973296,4.73130841 C27.0082024,4.68691589 26.9828325,4.67056075 26.9755839,4.63551402 C26.9702982,4.59731569 26.9549334,4.56264766 26.9320926,4.53738318 C26.9139713,4.51635514 26.8922256,4.4953271 26.8741042,4.47196262 C26.8622488,4.45619732 26.8535423,4.43695358 26.8487343,4.41588785 C26.8214088,4.34643758 26.7816543,4.28637097 26.7327575,4.24065421 C26.6830857,4.19949064 26.6302543,4.16504055 26.5751014,4.13785047 C26.5442951,4.11915888 26.5261737,4.09345794 26.489931,4.0911215 C26.4536882,4.08878505 26.4156333,4.0911215 26.412009,4.11682243 C26.4083847,4.14252336 26.4410032,4.17757009 26.4464396,4.20560748 C26.4518761,4.23364486 26.4301304,4.26869159 26.3938876,4.2546729 C26.3508298,4.22701805 26.3106463,4.19247809 26.2742865,4.15186916 C26.2452923,4.12850467 26.2162981,4.11214953 26.1854918,4.0911215 C26.1546854,4.07009346 26.1293155,4.03271028 26.0948849,4.01168224 L26.03146,4 Z" stroke="none" fill="#231F20" fill-rule="nonzero"></path>
                    <path d="M25,4.52498931 C25,4.52498931 25,4.51206059 24.9903476,4.51206059 C24.9806951,4.51206059 24.9903476,4.51206059 24.9903476,4.51206059 C24.9903476,4.51206059 24.9549553,4.4625005 24.9469116,4.44526221 C24.9372011,4.41759653 24.9228937,4.39327333 24.9050844,4.37415426 C24.8664747,4.33536811 24.82143,4.29873674 24.7812116,4.26426015 C24.7368651,4.22678386 24.6981287,4.17855318 24.6669911,4.12204425 C24.6575797,4.09663023 24.6468275,4.07214726 24.6348164,4.04878151 C24.6169662,4.02707907 24.5954284,4.01154537 24.5720756,4.003531 C24.514161,3.98413792 24.446594,4.04878151 24.4112017,4.09618682 C24.3758095,4.14359212 24.3565046,4.19530699 24.3178949,4.19099742 C24.2792852,4.18668784 24.2133269,4.13712776 24.157021,4.12850861 C24.1489774,4.24486708 24.2535454,4.23624793 24.2873289,4.31812981 L24.2953726,4.31812981 C24.2953726,4.34829682 24.3146774,4.38061862 24.2953726,4.40432127 C24.2760677,4.42802392 24.237458,4.40432127 24.2133269,4.38492819 C24.1891958,4.36553512 24.1908046,4.36553512 24.1779346,4.35907076 C24.1650647,4.3526064 24.1554123,4.33105853 24.1409337,4.3202846 C24.1284009,4.3148483 24.1146884,4.31763805 24.103926,4.32781365 C24.0931636,4.33798925 24.0866091,4.35436149 24.0862366,4.37199947 C24.0862366,4.38923777 24.0991065,4.40432127 24.1007152,4.42371435 C24.1023976,4.44160021 24.1023976,4.45969815 24.1007152,4.47758401 C24.1003736,4.50583589 24.093015,4.53313025 24.0798016,4.55515632 C24.0621055,4.58101376 24.0363657,4.59394247 24.0395831,4.6370382 C24.0428006,4.68013393 24.0878453,4.70168179 24.1135851,4.72322966 C24.1393249,4.74477752 24.1602385,4.75986103 24.1666735,4.79002804 C24.1715726,4.79193248 24.1756199,4.79657611 24.1777771,4.8027679 C24.1799344,4.80895969 24.1799918,4.81609723 24.1779346,4.82234983 C24.1505861,4.84174291 24.1151938,4.80942111 24.0862366,4.80080197 C24.0589433,4.79750623 24.0314841,4.79750623 24.0041909,4.80080197 C23.9784511,4.86975513 24.0781929,4.9387083 24.1151938,4.95594659 C24.1723064,4.97657629 24.231451,4.98529772 24.2905463,4.98180403 C24.3307648,4.98180403 24.366157,4.99688753 24.4063755,4.99904232 C24.446594,5.0011971 24.4755513,4.99904232 24.5109435,4.99904232 C24.5412891,4.99515711 24.5707877,4.98345008 24.5978154,4.96456573 C24.6248301,4.94558259 24.6475931,4.91732419 24.6637737,4.88268385 C24.6943397,4.82665941 24.7329494,4.77494453 24.7667329,4.72107487 C24.8005164,4.66720521 24.8519961,4.61979991 24.8117776,4.55515632 C24.7928089,4.53196409 24.7723525,4.51105376 24.7506455,4.49266751 C24.7345582,4.47758401 24.7039921,4.42802392 24.7265145,4.4000117 C24.7490368,4.37199947 24.7812116,4.4000117 24.7940815,4.4000117 C24.8183658,4.41707754 24.8419908,4.4357762 24.864866,4.45603614 C24.881026,4.466407 24.8961576,4.47943622 24.9099106,4.4948223 C24.9270653,4.50775389 24.9447945,4.51926759 24.962999,4.52929888 L25,4.52498931 Z" stroke="none" fill="#231F20" fill-rule="nonzero"></path>
                    <path d="M25,3.48101269 C25.0074383,3.4966949 25.0198355,3.5071497 25.0260341,3.52021821 C25.0322327,3.53328672 25.0557874,3.57249224 25.0632258,3.58556074 C25.0742712,3.61192484 25.086293,3.63639644 25.0991777,3.65874438 L25.1351296,3.71363211 C25.1450474,3.73454172 25.1661226,3.74238282 25.1723212,3.77636094 C25.1975195,3.78508172 25.2218328,3.80275748 25.2442251,3.82863496 L25.3124097,3.88090899 C25.3743498,3.92840025 25.4399086,3.9514365 25.5058062,3.94886522 C25.511731,3.89618205 25.5062835,3.84067193 25.4909295,3.79727055 C25.4748132,3.75545133 25.4500188,3.71885951 25.448779,3.66135808 C25.4872104,3.61953886 25.5442376,3.74761022 25.5727511,3.79727055 C25.6012647,3.84693087 25.6483741,3.93056932 25.6818466,3.99329815 C25.7002009,4.00223395 25.7192797,4.00223395 25.737634,3.99329815 C25.7611887,3.97761594 25.7624285,3.95147893 25.7773051,3.92011451 C25.8095379,3.84954458 25.8628459,3.86522678 25.9012772,3.86261308 C25.9450908,3.86739579 25.9846718,3.80778956 25.9967357,3.71885951 C26.0010881,3.67578104 26.0010881,3.63125291 25.9967357,3.58817444 C25.9910051,3.55119978 25.9821887,3.5166798 25.9707016,3.48624009 C25.9537893,3.4376213 25.9327773,3.39597976 25.9087156,3.36339613 C25.8851609,3.32680431 25.8330926,3.2954399 25.8194556,3.23793847 C25.8058187,3.18043704 25.8430103,3.16736854 25.8653253,3.18043704 C25.8876403,3.19350555 25.9136744,3.26668918 25.93351,3.23271107 C25.93351,3.20657405 25.9087156,3.18827815 25.8975581,3.16998224 C25.8864006,3.15168633 25.8678048,3.11770821 25.8541678,3.0889575 C25.8282719,3.03039688 25.7917132,2.99804374 25.7537504,3.00009165 C25.7154566,3.00564741 25.6775983,3.02055822 25.6409358,3.04452457 C25.6173811,3.04452457 25.5442376,3.04452457 25.5318403,3.08111639 C25.5504362,3.12032191 25.6372166,3.22486996 25.6186208,3.3058947 C25.6099428,3.34248652 25.569032,3.34248652 25.555395,3.32680431 C25.5417581,3.31112211 25.5355595,3.28498509 25.524402,3.26930289 C25.5132445,3.25362068 25.4896898,3.24055217 25.4834912,3.21441516 C25.4661222,3.19362639 25.449543,3.17003252 25.4339024,3.14384522 C25.415828,3.12172523 25.3972056,3.10165822 25.3781149,3.08373009 C25.3349833,3.04957105 25.2881903,3.04142534 25.2429853,3.06020678 C25.2208572,3.07256283 25.1995986,3.09101787 25.1797596,3.11509451 C25.1611637,3.14123152 25.1475268,3.18043704 25.1276913,3.20396035 C25.1041697,3.22309968 25.0817194,3.24764216 25.0607463,3.27714399 C25.0396711,3.31634951 25.0669449,3.35032763 25.0805819,3.38430574 C25.0942188,3.41828386 25.1090955,3.43135237 25.1190132,3.46271678 C25.128931,3.4940812 25.1190132,3.52544561 25.1314104,3.55681003 C25.1028275,3.56955662 25.0731699,3.54970678 25.053308,3.504536 L25,3.48101269 Z" stroke="none" fill="#231F20" fill-rule="nonzero"></path>
                    <path d="M23.1709503,3.08348405 C23.1841003,3.07108495 23.2151822,3.11448182 23.2247458,3.12894744 C23.2343095,3.14341307 23.261805,3.16821128 23.2677822,3.18887646 C23.2845186,3.24673896 23.2139867,3.28393628 23.1936639,3.30666798 C23.1733412,3.32939967 23.1255229,3.35419789 23.1147638,3.40586083 C23.1040047,3.45752378 23.1470411,3.51125324 23.151823,3.56291619 C23.1548118,3.58605178 23.1548118,3.61004219 23.151823,3.63317779 C23.1212538,3.63379645 23.0915674,3.61546884 23.068141,3.58151485 C23.0461795,3.55907957 23.0234206,3.53906342 23,3.52158583 C23,3.57324877 23.041841,3.63317779 23.068141,3.64764342 C23.0753138,3.67864118 23.1063956,3.69104029 23.1219366,3.70963895 C23.1374775,3.72823761 23.1566048,3.76543493 23.151823,3.80263225 C23.1470411,3.83982957 23.1147638,3.82536395 23.0944411,3.80263225 C23.0749168,3.77905744 23.0512226,3.76808632 23.0274955,3.77163448 C23.0274955,3.80676529 23.0083682,3.82536395 23.0155409,3.86256127 C23.0227137,3.89975859 23.0382546,3.91009118 23.0490137,3.93282287 C23.0602479,3.96650328 23.0794857,3.98993319 23.1016138,3.99688493 C23.1282583,4.00103836 23.1550649,4.00103836 23.1817094,3.99688493 C23.2235503,3.99688493 23.2665868,3.99688493 23.3084278,3.99688493 C23.328139,3.99355858 23.3477054,3.98803639 23.3670051,3.98035278 C23.3885233,3.98035278 23.4076506,3.9472885 23.4267779,3.93695591 C23.4459052,3.92662332 23.4506871,3.93695591 23.4471007,3.89562555 C23.4441692,3.86893488 23.4389302,3.84315906 23.4315598,3.81916439 C23.4208007,3.78816663 23.3801551,3.74890279 23.3813506,3.71377199 C23.4124325,3.69723984 23.4267779,3.73237065 23.4506871,3.75923538 C23.4707525,3.78143073 23.4924693,3.79881065 23.5152417,3.81089832 C23.5650476,3.82947641 23.6169843,3.82006398 23.6634783,3.78403359 C23.7080502,3.74778344 23.7485309,3.69810003 23.7830239,3.63731083 C23.8153013,3.58978092 23.8655104,3.61044609 23.9025696,3.56291619 C23.9396287,3.51538628 23.8930059,3.46785637 23.8882241,3.42239297 C23.8834423,3.37692958 23.8942014,3.37279655 23.9157196,3.37073003 C23.9260033,3.36764376 23.9365178,3.36764376 23.9468015,3.37073003 C23.958756,3.37073003 23.9647333,3.39139521 23.9754924,3.39552824 C23.9862515,3.39966128 23.9958152,3.37279655 23.9982061,3.3438653 C24.000598,3.30954742 24.000598,3.27485728 23.9982061,3.24053941 C23.9898379,3.1702778 23.9360424,3.13928003 23.903765,3.10828227 C23.8714877,3.0772845 23.8344286,3.05041977 23.7985649,3.02355504 C23.755889,2.99820507 23.7100493,2.99320793 23.6658692,3.00908941 C23.6802147,3.02562155 23.6826056,3.04422021 23.6933647,3.06488539 C23.7041238,3.08555057 23.712492,3.08555057 23.7136875,3.09588316 C23.7148829,3.10621575 23.6754329,3.12068137 23.6634783,3.11654834 C23.61566,3.09381664 23.5809918,2.9966903 23.5295872,3.04835325 C23.51275,3.06829607 23.4971288,3.09114515 23.4829644,3.11654834 C23.4630275,3.13394036 23.440253,3.13904376 23.4184097,3.13101396 C23.3970043,3.12604991 23.3758308,3.11845341 23.3550506,3.10828227 C23.3335323,3.10828227 23.3096232,3.10828227 23.2893004,3.08968361 C23.2745576,3.07882684 23.2587025,3.07320472 23.2426776,3.07315146 L23.1709503,3.08348405 Z" stroke="none" fill="#231F20" fill-rule="nonzero"></path>
                    <path d="M20.2998973,4 C20.2988223,3.97888638 20.2832485,3.95978605 20.2589604,3.94979332 C20.2281738,3.93602091 20.1999466,3.91913363 20.1750398,3.89958665 C20.1484308,3.87605227 20.0624633,3.80701809 20.1115876,3.77720787 C20.1318632,3.76932047 20.1531205,3.76301302 20.1750398,3.75838037 L20.224164,3.73798391 C20.2503041,3.72709652 20.2755916,3.71504729 20.2998973,3.70189786 C20.3551621,3.67679452 20.3797242,3.6360016 20.422708,3.59991555 C20.4503576,3.57989311 20.4726113,3.55590529 20.488207,3.52931241 C20.5045094,3.50375599 20.5310461,3.48286517 20.5639402,3.46969198 C20.6314861,3.43988177 20.7051725,3.50264011 20.7686247,3.50734699 C20.7219683,3.48671325 20.6937148,3.44821177 20.6949383,3.40693364 C20.7049036,3.38289919 20.7280866,3.36340908 20.7583905,3.35358905 C20.7960245,3.34058419 20.8322931,3.32537242 20.8668732,3.30808924 C20.9794497,3.25474465 21.0715577,3.11981421 20.922138,3.05548691 C20.8696694,3.02757485 20.8045685,3.01736772 20.7420157,3.02724565 C20.7215473,3.02724565 20.7010788,3.04764211 20.6806104,3.05391795 C20.6508359,3.06374557 20.6188656,3.06907298 20.5864555,3.06960753 C20.5116854,3.07180875 20.4369629,3.064384 20.3653963,3.04764211 C20.3265063,3.03822836 20.2814757,3.03509044 20.2405388,3.02253877 C20.1933657,3.00532785 20.1411874,2.99776105 20.0890723,3.00057335 C20.0890723,3.01469398 20.1156813,3.01155606 20.1259155,3.01940086 C20.1341326,3.02963094 20.1403397,3.04073272 20.1443371,3.05234899 C20.1627587,3.08843504 20.1443371,3.09784879 20.0993065,3.10255566 C20.0542759,3.10726254 19.9437463,3.08529712 19.9150905,3.15119338 C19.8864347,3.21708964 19.790233,3.20924485 19.6899376,3.20924485 C19.6571881,3.20924485 19.6203449,3.20924485 19.6203449,3.23434819 C19.6203449,3.25945153 19.6551413,3.27671007 19.6817502,3.2908307 C19.763624,3.33319258 19.843451,3.36143384 19.8864347,3.43674385 C19.9294184,3.51205387 19.855732,3.47753678 19.8045609,3.4540024 C19.7564802,3.42801949 19.705839,3.40493867 19.6530944,3.38496822 C19.5712206,3.35829592 19.4934405,3.32220987 19.4095199,3.29710653 C19.3403242,3.2846279 19.2675689,3.29187785 19.2048355,3.317503 C19.1461261,3.33587121 19.0946412,3.36560476 19.0554158,3.40379572 C19.02676,3.43831281 18.9837763,3.51048491 19.0062916,3.54970887 C19.0433637,3.60245541 19.0985804,3.6464083 19.1659454,3.67679452 C19.1938936,3.69157858 19.2193334,3.70897072 19.2416787,3.72857016 C19.2583273,3.74716958 19.2682177,3.76883043 19.2703345,3.7913285 C19.2302182,3.79328334 19.1899752,3.78956039 19.1516175,3.78034579 C19.1331959,3.78034579 19.0410879,3.75053558 19.0410879,3.78034579 C19.0779311,3.78034579 19.1147743,3.82270767 19.1516175,3.83525934 C19.1811189,3.84181515 19.2098707,3.85021096 19.237585,3.86036268 C19.264194,3.87134539 19.2948966,3.89331081 19.3317398,3.8901729 C19.2989903,3.94037957 19.5241432,3.93096582 19.5589396,3.93096582 C19.624119,3.93752842 19.6904048,3.93104207 19.751343,3.91213832 C19.7820456,3.90115561 19.8086546,3.91213832 19.8127483,3.87762123 C19.8154773,3.85892437 19.8096925,3.84007911 19.7963735,3.82427663 C19.7840925,3.80701809 19.763624,3.76936308 19.7963735,3.75681141 C19.829123,3.74425974 19.8884815,3.7913285 19.90895,3.80544913 C19.9530056,3.83811906 20.0009771,3.86753616 20.0522291,3.89331081 C20.0905807,3.91351145 20.1309619,3.93134889 20.1729929,3.94665541 L20.2998973,4 Z" stroke="none" fill="#231F20" fill-rule="nonzero"></path>
                    <path d="M16.807565,3 C16.807565,2.9735911 16.817385,2.93727887 16.817385,2.90756886 L16.817385,2.8233905 C16.817385,2.8233905 16.817385,2.79202993 16.817385,2.7854277 C16.817385,2.77882548 16.8394801,2.76892214 16.8456177,2.76397047 C16.8650737,2.74881119 16.8839217,2.73228268 16.902083,2.71445379 C16.9330936,2.67782602 16.9567357,2.63127615 16.9708233,2.57910819 C16.9934196,2.52369333 17.0032472,2.46049324 16.999056,2.39754702 C16.9910849,2.36757431 16.9807995,2.33880752 16.9683683,2.3117181 C16.9608216,2.28878287 16.949487,2.26846174 16.9352256,2.25229808 C16.9007855,2.21386953 16.8572203,2.19336666 16.812475,2.19452861 C16.7678177,2.18620624 16.722385,2.18956903 16.6786768,2.20443195 C16.6579877,2.2153779 16.6358354,2.22043605 16.6136189,2.21928695 C16.5841588,2.21928695 16.5706562,2.19782973 16.5559261,2.16646916 C16.5440381,2.14243812 16.5337681,2.11702887 16.5252385,2.09054358 C16.5178734,2.06908635 16.5141909,2.04267745 16.5068259,2.02287078 C16.4994608,2.0030641 16.4749107,1.98325743 16.4724557,2.02287078 C16.4743422,2.03462954 16.4768025,2.04620849 16.4798207,2.05753246 C16.4805747,2.07457314 16.4805747,2.09165901 16.4798207,2.10869969 C16.4995765,2.21223284 16.5094757,2.31872001 16.5092809,2.42560647 C16.5092809,2.43716036 16.5092809,2.4470637 16.5019158,2.45201537 C16.4945508,2.45696704 16.4761382,2.42725703 16.4663181,2.41240202 L16.434403,2.35133144 C16.4098528,2.29851365 16.3938952,2.24734641 16.349705,2.22753974 C16.3093945,2.21867746 16.2682054,2.23372763 16.2367744,2.26880364 C16.2067956,2.29070022 16.179135,2.31790152 16.1545315,2.34968089 C16.126638,2.38597432 16.114184,2.4386935 16.1213888,2.48997816 C16.1299813,2.53949484 16.1668065,2.57580708 16.1692615,2.63027543 C16.1692615,2.70950212 16.0956111,2.63027543 16.0771985,2.61046876 C16.0489843,2.58008982 16.0245387,2.54387639 16.0047757,2.50318261 C15.9962239,2.5582101 15.9991985,2.61534938 16.0133682,2.66823822 C16.0296946,2.72881563 16.0542526,2.78478475 16.0857911,2.83329383 C16.1017487,2.85144995 16.1213888,2.86960607 16.1373464,2.88446107 C16.1578051,2.89946894 16.1791552,2.91216682 16.2011767,2.92242386 C16.2483428,2.95754574 16.3038626,2.96643315 16.3558425,2.9471822 C16.4235144,2.8973017 16.4946359,2.85639517 16.5682012,2.82504105 C16.6101285,2.81260863 16.6540025,2.82204779 16.6909518,2.85144995 C16.7093973,2.86733893 16.726662,2.88557922 16.7425071,2.9059183 C16.7535547,2.91912275 16.7682848,2.96203721 16.7793323,2.96863943 L16.807565,3 Z" stroke="none" fill="#231F20" fill-rule="nonzero"></path>
                    <path d="M17.879988,4.7791198 C17.8428693,4.74418753 17.7930619,4.71517489 17.7345889,4.69442519 C17.7045859,4.68581218 17.6607354,4.67145716 17.6907384,4.64418263 C17.7207414,4.6169081 17.7461285,4.6212146 17.7692078,4.60829509 C17.824835,4.57529595 17.8681628,4.53511688 17.8961435,4.49058394 C17.9162173,4.46886508 17.9243222,4.4436592 17.9192227,4.41880885 C17.9052097,4.39868619 17.8856873,4.38022919 17.8615247,4.36425978 C17.8395354,4.35082185 17.8256768,4.33307511 17.82229,4.31401722 C17.882296,4.28674269 17.9469178,4.33842075 18,4.34559826 C17.9861525,4.33124324 17.9769208,4.31401722 17.9630732,4.3010977 C17.9421509,4.28274099 17.9121687,4.26913258 17.8776801,4.26233916 C17.8453692,4.25372614 17.8061345,4.24224213 17.8176741,4.21353209 C17.8292137,4.18482206 17.8730643,4.19199957 17.8961435,4.17764455 C17.9192227,4.16328953 17.909991,4.15754753 17.9146069,4.14175701 C17.9192227,4.12596649 17.9261465,4.11304697 17.9146069,4.10299846 C17.9030673,4.09294995 17.852293,4.06854641 17.8269058,4.0599334 L17.7253572,4.02261036 C17.702278,4.01399735 17.6445799,3.99533582 17.6145769,4.00107783 C17.5199521,4.02117486 17.6607354,4.14462801 17.4991808,4.07428842 C17.4278993,4.04426329 17.350216,4.02058737 17.2683886,4.00394883 C17.1883818,3.99438243 17.1055333,4.0046886 17.0375963,4.03265887 C16.9542289,4.06014646 16.8669185,4.08273396 16.7768011,4.10012745 C16.7358206,4.10611605 16.6973024,4.11736159 16.6637129,4.133144 C16.6198624,4.15898303 16.6637129,4.17046704 16.6798683,4.19343507 C16.7008541,4.21434349 16.7201118,4.23590402 16.7375664,4.25803265 C16.7588007,4.2757554 16.7686729,4.29775852 16.7652615,4.31975923 C16.6982444,4.31064644 16.6331778,4.29667441 16.571396,4.27812968 L16.4836949,4.26377466 C16.4398444,4.25516165 16.423689,4.25229064 16.3959939,4.27669417 C16.3682988,4.3010977 16.3821464,4.32406573 16.363683,4.34703376 C16.3452196,4.37000179 16.3013691,4.3800503 16.2667502,4.38722781 C16.2146398,4.40142031 16.1644697,4.41822313 16.1167353,4.43747037 C16.0784501,4.4471997 16.044434,4.46245288 16.0174946,4.48197093 C15.9690282,4.53221349 16.0313421,4.58532706 16.0821164,4.61547259 C16.1328907,4.64561813 16.1975126,4.67002166 16.1813571,4.71021571 C16.1375066,4.71021571 16.0382659,4.6987317 16.0105708,4.72313523 C16.0276656,4.73104227 16.0438598,4.73967592 16.0590372,4.74897426 C16.095964,4.76620028 16.1351986,4.77624879 16.1721254,4.79203931 C16.2090522,4.80782983 16.2829057,4.82936236 16.3290641,4.85233039 C16.3752226,4.87529842 16.3867622,4.88247593 16.3429117,4.88965343 C16.2990611,4.89683094 16.2390552,4.88965343 16.1905888,4.88965343 C16.1905888,4.88965343 16.2090522,4.88965343 16.2182839,4.89970195 C16.2275155,4.90975046 16.2482868,4.92123447 16.2644423,4.92697648 C16.2961224,4.93294491 16.3285447,4.93726628 16.361375,4.939896 C16.4300987,4.94705647 16.4979557,4.95712842 16.5644722,4.97004153 C16.6567891,4.99300956 16.7629536,5.0188486 16.8483467,4.98009005 C16.8021882,4.97147704 16.6637129,4.9442025 16.6960238,4.89539544 C16.7144872,4.86812091 16.7814169,4.88534693 16.8068041,4.89539544 C16.8444993,4.91334261 16.8846578,4.92919413 16.9268161,4.942767 C17.1091419,4.99588057 17.2499252,4.8609434 17.3560896,4.79921682 C17.3995916,4.76476073 17.4568987,4.73802742 17.52226,4.72169973 C17.5799581,4.71308672 17.7161255,4.71165121 17.7530523,4.75471627 L17.879988,4.7791198 Z" stroke="none" fill="#231F20" fill-rule="nonzero"></path>
                    <path d="M7.58982773,9.239387 C7.54993079,9.24181454 7.50994313,9.24181454 7.47004619,9.239387 C7.42866711,9.239387 7.39382158,9.19608507 7.35897604,9.19849073 C7.27612031,9.10581482 7.16844575,9.04508052 7.05189972,9.02528304 C6.94144697,8.99157232 6.82478631,8.99157232 6.71433356,9.02528304 C6.61571242,9.1025224 6.52894799,9.19673851 6.4573477,9.30433988 C6.41356567,9.35665368 6.37487822,9.41390164 6.34192186,9.47514191 C6.31091828,9.55123649 6.29177429,9.63256944 6.28529785,9.71570815 C6.25480801,9.88410452 6.11542585,9.83117995 6,9.89613284 C6.08711385,9.89613284 6.17858339,9.89613284 6.26569724,9.89613284 C6.35281109,9.89613284 6.46605909,9.89613284 6.48348186,9.94905741 C6.42685786,9.99235933 6.32014339,10.0043876 6.26569724,10.0813688 C6.29400924,10.1078311 6.32014339,10.1078311 6.34192186,10.1439161 C6.36487885,10.1879518 6.38314891,10.2347723 6.39636801,10.2834445 C6.40655689,10.3632383 6.40655689,10.4442169 6.39636801,10.5240107 C6.39420163,10.6276638 6.39856787,10.7313577 6.40943509,10.8343412 C6.41787757,10.9303268 6.43390962,11.025312 6.4573477,11.1182093 C6.56735084,11.0941589 6.68055504,11.0941589 6.79055817,11.1182093 C6.7774911,11.1615113 6.71433356,11.1807566 6.67731017,11.2048132 L6.53357232,11.3010397 C6.48205197,11.3315482 6.44379782,11.3836543 6.42741424,11.4456379 C6.41103066,11.5076215 6.41789326,11.5742783 6.44645847,11.6306154 C6.4874994,11.7475423 6.56463842,11.8446796 6.66424309,11.904861 C6.7746293,11.9745597 6.90102802,12.0071658 7.02794341,11.9986818 C7.26968434,11.9674082 7.40688865,11.6354268 7.56151573,11.4670304 C7.66387451,11.3587756 7.81196805,11.3299076 7.8947262,11.1903792 C7.97504621,11.0464466 8.01096097,10.877631 7.99708498,10.7092467 C7.9824754,10.6400945 7.95584845,10.5747338 7.91868251,10.5167937 C7.87474651,10.4615471 7.81840997,10.4200607 7.75534405,10.3965106 C7.68525982,10.358624 7.60218177,10.3650478 7.53755943,10.4133503 C7.47819547,10.4366605 7.41693099,10.4535787 7.35462034,10.4638692 C7.39606431,10.4079843 7.44621745,10.3607318 7.50271389,10.3243407 C7.52667019,10.3075011 7.59853912,10.2786332 7.61378404,10.2521709 C7.62346979,10.2005972 7.62346979,10.1473765 7.61378404,10.0958028 C7.59981944,10.042893 7.57609132,9.9937488 7.54409296,9.95146307 C7.48891331,9.85517694 7.44844604,9.74952146 7.42431142,9.63872696 C7.41881136,9.58894033 7.40476755,9.54076875 7.38293234,9.49679287 C7.3524425,9.45830228 7.28928496,9.41259469 7.25008373,9.4438683 C7.27839573,9.37410409 7.46786835,9.34523614 7.53102589,9.31396253 L7.58982773,9.239387 Z" stroke="none" fill="#231F20" fill-rule="nonzero"></path>
                    <path d="M9.82483512,7.17205715 C9.82483512,7.14146921 9.75694151,7.09749905 9.74249606,7.08029334 C9.70969166,7.05308337 9.67264655,7.03608755 9.6341552,7.03058794 C9.60103232,7.01492119 9.56659138,7.00464964 9.53159251,7 C9.49114526,7 9.48247799,7.03441143 9.45214254,7.06117587 C9.38280439,7.1242635 9.29757624,7.06117587 9.22679354,7.09749905 C9.16433823,7.13119437 9.11769207,7.20215147 9.10111814,7.28867366 C9.12856449,7.28867366 9.12711995,7.30587937 9.14734358,7.31734985 C9.1580678,7.32321299 9.1691941,7.32769445 9.18056811,7.33073207 C9.21123821,7.34138845 9.24275941,7.3471645 9.27446352,7.34793779 C9.28011579,7.36164007 9.28011579,7.37820566 9.27446352,7.39190795 C9.25279535,7.39190795 9.22679354,7.40720192 9.20223628,7.40911366 C9.1772809,7.41293857 9.15207533,7.41293857 9.12711995,7.40911366 C9.09533996,7.40911366 9.02022363,7.35367303 9,7.40911366 C9.04478089,7.46264255 9,7.50661271 9,7.56587684 C9.01149599,7.63450679 9.0330937,7.69946803 9.06355997,7.75705145 L9.07511633,7.75705145 C9.08956178,7.84499177 9.16901175,7.91190288 9.21957082,7.94822606 C9.27224554,7.9693079 9.32649225,7.98276879 9.38135985,7.98837273 C9.41806318,7.99700786 9.45531877,8.00084981 9.4925898,7.9998432 C9.4925898,7.94822606 9.45936527,7.92719685 9.42614074,7.90999114 C9.3929162,7.89278542 9.32791169,7.87175621 9.36546985,7.83160955 C9.40302802,7.79146288 9.4795889,7.84308002 9.50992434,7.84881526 C9.54025978,7.8545505 9.59515249,7.87557971 9.64137792,7.8794032 C9.71071608,7.8794032 9.81038967,7.90999114 9.86239329,7.84308002 C9.88590286,7.80227051 9.90577636,7.75800772 9.92161963,7.71116954 C9.94473234,7.66719938 9.98806869,7.64808192 9.99673596,7.59646478 C10.001088,7.55140342 10.001088,7.50579216 9.99673596,7.46073081 C9.99673596,7.40146668 9.9721787,7.38234922 9.95195507,7.33646731 C9.92401407,7.31490515 9.89700699,7.29129001 9.87106056,7.26573271 C9.84600327,7.24506726 9.81676292,7.23505931 9.78727695,7.23705651 C9.75838606,7.23705651 9.71071608,7.23705651 9.69338154,7.21793905 C9.676047,7.19882159 9.69338154,7.16058667 9.71938334,7.14720445 L9.82483512,7.17205715 Z" stroke="none" fill="#231F20" fill-rule="nonzero"></path>
                    <path d="M12,6.51871045 C11.9722479,6.50495932 11.933395,6.51871045 11.8917669,6.51871045 C11.8507337,6.51083887 11.8116317,6.50069004 11.7752081,6.48845796 C11.6946851,6.46544478 11.606223,6.45005664 11.5143386,6.44307924 C11.4949121,6.40320096 11.4699352,6.38944983 11.5143386,6.35369689 C11.5567592,6.32890196 11.5896775,6.30047431 11.6114709,6.269815 C11.6442352,6.20595805 11.6097976,6.13822006 11.519889,6.08967519 C11.2809286,6.01442882 10.9946799,5.98508344 10.7150786,6.00716841 C10.7400555,6.02366977 10.7816836,6.02917022 10.8122109,6.04567158 C10.8427382,6.06217293 10.8566142,6.08417474 10.9259944,6.08279963 C10.945279,6.0940274 10.9569318,6.10798108 10.9592969,6.12267791 L10.9787234,6.12267791 C11.0203515,6.17905754 10.5929695,6.14192949 10.5263645,6.14055438 C10.4805298,6.13632611 10.433217,6.14181288 10.3959297,6.15568062 C10.3570768,6.17080686 10.3515264,6.19693401 10.3043478,6.21206025 C10.2571693,6.22718649 10.1517114,6.24093762 10.0851064,6.26431455 C9.96840754,6.31037992 9.83836206,6.3474662 9.69935245,6.37432359 C9.63274746,6.38532449 9.5439408,6.39082494 9.58279371,6.43482856 C9.62164662,6.47883217 9.68547641,6.48845796 9.71877891,6.50633443 C9.73138437,6.50843074 9.74502636,6.50843074 9.75763182,6.50633443 C9.76738144,6.52445382 9.74833263,6.54333115 9.71322849,6.55033805 C9.65217391,6.56683941 9.59944496,6.53933715 9.54949121,6.52558602 L9.32747456,6.4609557 C9.30694829,6.49919828 9.31181362,6.53969918 9.3413506,6.5764652 C9.3413506,6.59709189 9.38020352,6.61359325 9.37742831,6.63421994 C9.3746531,6.65484664 9.3413506,6.66859777 9.31082331,6.68647424 C9.16373728,6.78135703 9.58834413,6.78960771 9.67437558,6.84461223 C9.57724329,6.87899006 9.41350601,6.84461223 9.31637373,6.83361133 C9.21376752,6.81642573 9.1026062,6.81642573 9,6.83361133 C9.17196065,6.88383395 9.3595075,6.91961172 9.55504163,6.93949503 C9.66209329,6.95247602 9.77048511,6.96257497 9.87974098,6.96974751 C9.97075549,6.98294002 10.0634767,6.99304755 10.1572618,7 C10.2425954,6.99939621 10.3278119,6.99664243 10.4125809,6.99174932 C10.489222,6.98977874 10.5615534,6.97357703 10.6151711,6.94637059 C10.6698112,6.92094616 10.7428833,6.90755448 10.8177613,6.90924254 C10.893293,6.91415564 10.9697967,6.91415564 11.0453284,6.90924254 C11.1480111,6.8941163 11.3228492,6.8514878 11.3228492,6.79373305 C11.3228492,6.7359783 11.1785384,6.70160048 11.2617946,6.63421994 C11.2950971,6.6080928 11.3283996,6.60534257 11.3783534,6.59159144 C11.4283071,6.57784031 11.453284,6.55996384 11.4949121,6.54758782 C11.5943489,6.52296284 11.7099925,6.5199732 11.8140611,6.53933715 L12,6.51871045 Z" stroke="none" fill="#231F20" fill-rule="nonzero"></path>
                    <path d="M13.9654127,7.80351238 C13.9167884,7.79269627 13.8723924,7.85110324 13.8258823,7.85975613 C13.7684845,7.86944068 13.7099241,7.86944068 13.6525264,7.85975613 C13.5433219,7.83773172 13.4443934,7.7791265 13.3713515,7.69318811 C13.2360493,7.52878331 13.1747405,7.32111409 13.0288679,7.1675254 C12.9908141,7.12426098 12.923163,7.09397588 12.9062503,7.04205858 C12.8132313,7.02111276 12.7182027,7.0109537 12.6229613,7.01177348 C12.5870217,7.01177348 12.4115516,6.97067228 12.4115516,7.04205858 C12.4686323,7.04205858 12.7307802,7.11560809 12.6419882,7.22593237 C12.5785653,7.3016451 12.3481287,7.22593237 12.2593367,7.24323813 C12.1705446,7.2605439 12.1832292,7.31895087 12.1578601,7.38168428 C12.1324909,7.44441769 12.1050076,7.49200855 12.0796385,7.54608908 C12.0542693,7.6001696 11.9718196,7.8056756 12.0098733,7.88138834 C12.047927,7.95710107 12.1282627,7.90951021 12.1768869,7.92465276 C12.2285337,7.93405982 12.278451,7.95157198 12.3248737,7.97657006 C12.26165,8.02586035 12.189935,8.06255107 12.113464,8.08473111 C12.0373565,8.24913591 12.3248737,8.41570393 12.4284644,8.50006955 C12.4792027,8.54333397 12.5658807,8.59092483 12.593364,8.65365824 C12.6335318,8.75532963 12.5235988,8.78777795 12.4538336,8.8245527 C12.4538336,8.87863323 12.551082,8.90459188 12.5870217,8.91757121 C12.6257322,8.93298318 12.6662415,8.94316405 12.7075252,8.9478563 C12.7467473,8.95378379 12.7850958,8.96468369 12.8216864,8.98030462 C12.954621,9.01683792 13.0960338,9.00221411 13.2191365,8.93920342 C13.2719586,8.90439493 13.3320929,8.88289593 13.3946066,8.87647001 C13.4643718,8.87647001 13.5341369,8.87647001 13.6060162,8.87647001 C13.715045,8.85792252 13.820598,8.82216391 13.9189025,8.77047218 C13.9717549,8.74235031 14.0055805,8.72071809 13.9992382,8.66231113 C13.9904758,8.60715542 13.9670739,8.55552267 13.9315871,8.51304888 C13.8914193,8.45896835 13.840681,8.40705105 13.798399,8.35513374 C13.7561171,8.30321644 13.7138352,8.29023711 13.6800096,8.25346235 C13.6520151,8.22248603 13.6310769,8.18554684 13.6187008,8.1453013 C13.5996739,8.08256789 13.6187008,8.05444602 13.6694391,8.03065059 C13.7201774,8.00685516 13.8364528,7.93114242 13.929473,7.89220444 L13.9654127,7.80351238 Z" stroke="none" fill="#231F20" fill-rule="nonzero"></path>
                    <path d="M15.9228792,7.69234104 C15.8650386,7.68068431 15.8251928,7.63017182 15.7686375,7.61851509 C15.7643202,7.60581242 15.7616997,7.5919493 15.7609254,7.57771654 C15.7976461,7.54829787 15.8404437,7.54134215 15.8804627,7.55828866 C15.9175303,7.58855054 15.9581225,7.60768263 16,7.61462951 C15.9781491,7.62628624 15.9485861,7.54663193 15.9344473,7.52720405 C15.9203085,7.50777617 15.8830334,7.4864055 15.8573265,7.45726367 C15.8084833,7.40869397 15.7866324,7.32515408 15.7287918,7.27658438 C15.7056555,7.25715649 15.5244216,7.206644 15.5565553,7.14058921 C15.5706941,7.1095046 15.6465296,7.14058921 15.6272494,7.09784787 C15.5961573,7.06609676 15.5624527,7.04062474 15.5269923,7.02207913 C15.4937499,7.01012081 15.4596034,7.00489427 15.4254499,7.00653682 C15.3858127,6.99782106 15.3455497,6.99782106 15.3059126,7.00653682 C15.2789203,7.00653682 15.2943445,7.00653682 15.2802057,7.03762143 C15.2730185,7.06548763 15.2639745,7.09217645 15.2532134,7.11727575 C15.2249357,7.16778824 15.188946,7.14058921 15.1465296,7.14836036 C15.1298201,7.14836036 15.062982,7.17167382 15.062982,7.20470121 C15.062982,7.23772861 15.1439589,7.26492765 15.1658098,7.27658438 C15.1876607,7.2882411 15.2493573,7.31738293 15.2249357,7.36789542 C15.2005141,7.41840791 15.1452442,7.36789542 15.1285347,7.35818148 C15.0891111,7.3259706 15.0448014,7.30989691 15,7.31155456 C15,7.37760936 15.1131105,7.43977858 15.151671,7.46697761 C15.1670951,7.47863434 15.2095116,7.49417665 15.1915167,7.54274635 C15.1735219,7.59131606 15.1336761,7.55828866 15.1143959,7.55828866 C15.1497868,7.56392986 15.1830853,7.58637446 15.2095116,7.62240067 C15.246109,7.65034219 15.2805875,7.68421631 15.3123393,7.72342565 C15.3419023,7.77005256 15.3251928,7.8127939 15.340617,7.86719197 C15.3570141,7.91122377 15.3815925,7.94702287 15.4113111,7.97015974 C15.4661568,8.00994675 15.5299872,8.00994675 15.5848329,7.97015974 C15.6105398,7.94684629 15.6452442,7.92159004 15.6696658,7.89439101 C15.6940874,7.86719197 15.7030848,7.82445063 15.7313625,7.79336602 C15.7596401,7.76228141 15.7956298,7.71371171 15.8329049,7.72148286 L15.9228792,7.69234104 Z" stroke="none" fill="#231F20" fill-rule="nonzero"></path>
                    <path d="M9,4.01748429 C8.87012987,4.01748429 8.76387249,4.05818711 8.63872491,4.06327496 C8.4976204,4.05233123 8.35789436,4.03362077 8.22077922,4.00730859 C8.07910272,3.99713288 7.95631641,3.98526123 7.85478158,4.06497091 C7.7681753,4.13960953 7.66903457,4.20625868 7.5596222,4.26339716 C7.49586777,4.29731617 7.51003542,4.32445139 7.46517119,4.36006635 C7.42030697,4.39568132 7.37780401,4.38720157 7.33293979,4.39228942 C7.27737584,4.40021661 7.22286525,4.41156485 7.17001181,4.42620843 C7.11183408,4.43232225 7.05480267,4.44313166 7,4.4584315 C7.04140239,4.46362601 7.08374519,4.46362601 7.12514758,4.4584315 C7.18563706,4.46157868 7.24523175,4.47070999 7.30224321,4.48556671 C7.41086187,4.50591812 7.46517119,4.53135738 7.37780401,4.60767517 C7.32585596,4.65346584 7.29988194,4.70264841 7.35655254,4.74674313 C7.38741151,4.76647455 7.42249249,4.78250862 7.46044864,4.79422976 C7.48878394,4.80440546 7.52420307,4.80949331 7.55489965,4.82136497 C7.58559622,4.83323663 7.58087367,4.85019613 7.62337662,4.85019613 C7.62687535,4.8602167 7.62687535,4.87070269 7.62337662,4.88072325 C7.52892562,4.90446656 7.34002361,4.84171638 7.28335301,4.91803417 C7.36996802,4.97932884 7.49093776,5.00870713 7.61157025,4.99774385 C7.75067822,5.00333307 7.88868922,4.97721648 8.00590319,4.92312202 C8.05484636,4.89438751 8.1177873,4.88094777 8.18063754,4.8858111 C8.22609768,4.89005486 8.27213137,4.89005486 8.3175915,4.8858111 C8.3553719,4.8858111 8.35773318,4.86885159 8.38606848,4.84850018 C8.43500453,4.809258 8.50655213,4.78857746 8.57969303,4.79253381 C8.63873091,4.79129517 8.69401227,4.77144266 8.73081464,4.73826338 C8.81941937,4.69713053 8.85259503,4.61553793 8.80873672,4.54662094 C8.79215726,4.51903764 8.78103021,4.48992451 8.77567887,4.46012745 C8.77567887,4.41094488 8.80873672,4.38720157 8.82054309,4.3481947 C8.82901872,4.31185829 8.82159376,4.27452824 8.79929162,4.2413498 C8.77805096,4.21642504 8.76138401,4.18963327 8.74970484,4.16164011 C8.74970484,4.08871422 8.86540732,4.09888993 8.9244392,4.07345067 L9,4.01748429 Z" stroke="none" fill="#231F20" fill-rule="nonzero"></path>
                    <path d="M13.3511999,2.01042461 C13.2062268,2.01042461 13.0876125,2.08501765 12.9558188,2.03131066 C12.9048434,2.00782538 12.8392077,1.99705763 12.7739434,2.00147345 C12.7048594,1.99593809 12.6347159,2.00613134 12.5788887,2.0298188 C12.4576385,2.07755835 12.3153013,2.10291998 12.2045946,2.14767581 C12.0938879,2.19243163 12.0833444,2.2088421 11.9726376,2.21033396 C11.8990473,2.20583392 11.8248145,2.20583392 11.7512242,2.21033396 C11.588533,2.23647223 11.4422879,2.28820492 11.3294843,2.35952005 C11.2504081,2.39980029 11.0896197,2.5325759 11.1370655,2.59672592 C11.2211665,2.61730433 11.3165519,2.61730433 11.4006529,2.59672592 C11.4217399,2.59672592 11.4902726,2.56987242 11.5166314,2.58180731 C11.5429901,2.5937422 11.5166314,2.64595733 11.4744574,2.65938407 C11.3848377,2.69518873 11.2899462,2.72800967 11.2108699,2.76083061 C11.1317937,2.79365155 11.042174,2.80111085 11,2.85780156 C11.0882683,2.85962616 11.176629,2.85612541 11.2635874,2.84735854 C11.3363278,2.83222074 11.4128269,2.82366199 11.4902726,2.8219969 C11.4902726,2.84288296 11.5561695,2.85034226 11.5878,2.86675273 C11.6210829,2.8895632 11.6571981,2.91100094 11.6958708,2.93090274 C11.7519132,2.95413136 11.8155141,2.97086236 11.8830179,2.98013415 C12.0566676,2.99886704 12.2339607,3.00438601 12.4101928,2.99654462 C12.5604376,2.99654462 12.7133183,2.99654462 12.8582914,2.99654462 C12.9293426,2.99529092 12.9996072,2.98773992 13.0665255,2.97416671 C13.1419675,2.95582627 13.2074579,2.92648202 13.2563084,2.88913064 C13.2194062,2.86675273 13.0375309,2.88913064 12.9769058,2.88913064 C12.9320959,2.83094807 13.0480744,2.81602946 13.119243,2.8070783 C13.1949347,2.79929909 13.2652528,2.77965809 13.3222053,2.75038758 C13.432912,2.70115618 13.4619066,2.62507127 13.5515264,2.5668887 C13.5963114,2.54235327 13.6479717,2.52218856 13.7044071,2.50721427 C13.7709303,2.48191864 13.8335377,2.45347106 13.8915542,2.4221782 C14.0032499,2.35765117 14.0316916,2.26046955 13.9627228,2.17900489 C13.8920076,2.13441526 13.8007277,2.10186763 13.6991353,2.08501765 C13.5842757,2.09218721 13.4740628,2.11468441 13.3775587,2.15065953 C13.3432923,2.16259442 13.0797049,2.22972815 13.1139712,2.15065953 C13.14033,2.10142812 13.3222053,2.09396882 13.3775587,2.04921299 L13.3511999,2.01042461 Z" stroke="none" fill="#231F20" fill-rule="nonzero"></path>
                    <path d="M14.8805031,4.07359551 C14.8388212,4.19509181 14.8554128,4.32812819 14.9257862,4.43668625 L14.7283019,4.42216262 L15,4.55287529 C14.9540377,4.54985283 14.9088363,4.56534063 14.8752046,4.59563525 C14.8415728,4.62592987 14.8225343,4.66830764 14.8226415,4.71263522 C14.8226415,4.85424061 14.5924528,4.86150242 14.5924528,4.86150242 L14.6188679,4.95227511 L14.4603774,4.88328787 L14.554717,4.995846 C14.1169811,5.02126235 13.9849057,4.92685876 14.0792453,4.799777 C14.1169811,4.7525752 14.0792453,4.69448068 14,4.62549344 L14,4.54561348 C14,4.54561348 14.2075472,4.57829164 14.2716981,4.58555346 C14.1899914,4.52668918 14.0979659,4.48241613 14,4.45484079 C14.0264151,4.34228266 14.1257862,4.39674627 14.1849057,4.24061725 C14.2579948,4.25791232 14.3298433,4.27974344 14.4,4.30597359 C14.4,4.30597359 14.3584906,4.22246272 14.1132075,4.15710638 C14.1132075,4.15710638 14.2389937,4.14258275 14.3358491,4.13532094 C14.3844299,4.13536153 14.4243909,4.09851354 14.4264151,4.05181007 C14.490566,4.04454825 14.518239,4.00218767 14.6188679,4.00218767 C14.7124421,3.99200149 14.8064241,4.01765191 14.8805031,4.07359551 L14.8805031,4.07359551 Z" stroke="none" fill="#231F20" fill-rule="nonzero"></path>
                    <path d="M25.9741248,15.3319293 C25.9741248,15.3319293 26.1567732,16.5832765 25,18 C25,18 27.0261796,17.6361722 28.0952816,15.0370082 C28.178982,15.430154 28.2020508,15.836709 28.1634703,16.2387426 C28.1634703,16.2387426 28.7211568,16.07061 29.6076104,14.6428614 C29.6576651,14.9482657 29.7777597,15.2334176 29.95586,15.4697428 L30.7302892,14.7310621 C30.805869,14.9884872 30.8493124,15.2565977 30.8593607,15.5276245 C31.1027154,15.399192 31.3329915,15.2411533 31.5461187,15.0563021 C31.5461187,15.0563021 31.5461187,15.5689686 30.7375951,17.330226 C31.8773212,16.6604521 33,15.2051408 33,14.5739546 C32.9669441,14.236274 32.7081056,13.9855168 32.4082192,14.0006502 C32.1921236,14.0147762 31.9867737,14.1120205 31.8261796,14.2762773 C31.6996352,14.1236137 31.5240335,14.0351722 31.3391172,14.0309692 C31.1216048,14.0560951 30.9201696,14.1720521 30.7741248,14.3562092 C30.7741248,14.3562092 30.8082192,14.0805821 30.5038052,14.0805821 C30.1993912,14.0805821 28.8161339,15.1472591 25.9741248,15.3319293 Z" stroke="none" fill="#FFFFFF" fill-rule="nonzero"></path>
                    <path d="M27.9952367,19.0784314 C27.52237,19.9545598 26.9696276,20.7757642 26.3455124,21.5294118 C26.3455124,21.5294118 26.1999485,21.1204482 26.0262933,21.0308123 C25.7644099,21.2472839 25.5200456,21.4881401 25.29592,21.7507003 C25.1888377,21.5304578 25.0576242,21.3253904 24.9051959,21.140056 C24.721401,21.3001111 24.550519,21.4772366 24.3944453,21.6694678 C24.3944453,21.6694678 24.9051959,20.6890756 24.4123216,19 C24.4123216,19 23.7662221,21.210084 22.042439,22.4705882 C21.9607189,22.5490196 21.9326277,23 22.5787271,23 C23.2043065,22.9801958 23.7908924,22.6620734 24.1850376,22.1288515 C24.8612887,22.0165145 25.5478667,21.9995702 26.2280398,22.0784314 C26.2280398,22.0784314 26.5727964,22.4397759 26.8281717,22.4397759 C27.083547,22.4397759 28.0769568,21.2689076 27.9952367,19.0784314 Z" stroke="none" fill="#FFFFFF" fill-rule="nonzero"></path>
                    <path d="M6,3.16302187 L5.60273253,3.16302187 L5.60273253,3 C5.60273253,3 6,3.0139165 2,3.10536779 C2,3.10536779 3.58276406,3.5526839 4.44666316,4 C4.55592549,3.94026838 4.67546246,3.89921645 4.79978981,3.87872763 C4.94272202,3.87872763 4.95743563,3.81510934 5.12979506,3.80914513 C5.30215449,3.80318091 5.28744088,3.70178926 5.28744088,3.70178926 L5.55018392,3.70178926 C5.49241204,3.60071671 5.39123842,3.52822236 5.27272727,3.50298211 C5.50191897,3.3659254 5.74567655,3.25198206 6,3.16302187 Z" stroke="none" fill="#FFFFFF" fill-rule="nonzero"></path>
                    <path d="M1,4.00088053 C1.26886322,4.11012615 1.50732733,4.28461352 1.69457014,4.50910675 C1.69457014,5.32318858 2.37330317,6.01308843 3.23076923,6.73518361 L2.66289593,6.73518361 C3.10318389,7.00055181 3.57647729,7.2047402 4.07013575,7.34229548 C3.88322056,7.44291832 3.67530204,7.49654172 3.4638009,7.49867277 C3.4638009,7.49867277 4.20588235,8 5.95248869,8 C7.40723982,8 8.0361991,7.54006677 8.0361991,7.54006677 L6.85746606,7.37679047 C6.85746606,7.37679047 8.93438914,7.17212018 10,6.28444904 C10,6.28444904 9.34615385,6.71908594 7.10859729,6.71908594 C4.87104072,6.71908594 3.88461538,6.07058008 3.88461538,6.07058008 C3.88461538,6.07058008 5.19230769,6.31664436 6.02488688,6.1510684 C4.14253394,4.82186135 3.24660633,3.9686852 1,4.00088053 Z" stroke="none" fill="#FFFFFF" fill-rule="nonzero"></path>
                    <path d="M31,13.1644849 C31.6668415,13.1915935 32.2980377,13.4909312 32.7618026,14 C32.7618026,14 33.9484979,13.7723392 34.5171674,12.9755265 C33.9635193,13.0051224 33.806867,12.891292 33.806867,12.7706318 C33.806867,12.6499715 33.9356223,12.6294821 34.2682403,12.6294821 L34.7103004,12.6294821 C34.7103004,12.6294821 34.9592275,12.5384178 35,11.7188389 C34.5708155,12.1400114 34.0493562,12.2606716 33.9635193,12.0648833 C33.8562232,11.8235629 34.7317597,11.7188389 34.9871245,11.2953899 C35.000662,11.0736291 34.9560995,10.8522187 34.8583691,10.6556631 C34.5386266,11.2293682 34.3476395,11.3181559 34.2145923,11.2202618 C34,11.0700057 34.6437768,10.8150256 34.7253219,10.3915766 L34.4206009,10 C33.5236052,11.9282869 32.0021459,11.5344337 31,13.1644849 Z" stroke="none" fill="#FFFFFF" fill-rule="nonzero"></path>
                    <path d="M8.2057264,13.7095859 C8.29916567,13.6126755 8.40317062,13.525948 8.5159036,13.4509359 L8.44827098,13.6937039 L8.49024985,13.6937039 C8.61150556,13.5541418 8.77459817,13.4549756 8.95668173,13.4100964 C8.95668173,13.4100964 8.84007376,13.530346 9.01498571,13.5961429 C9.3484845,13.7163925 9.7566124,13.6528644 10.1973905,13.7095859 C10.3480403,13.7742249 10.5213679,13.7649506 10.6638224,13.6846285 C10.8126994,13.627287 10.9703079,13.5943209 11.1302543,13.5870675 C10.9579057,13.6492529 10.7995271,13.7432416 10.6638224,13.8638684 C10.8153059,13.9628227 10.9109531,14.1246143 10.9226921,14.3017584 C10.9357685,14.5714291 10.7864473,14.8238772 10.540218,14.9483834 C10.3372808,15.0400821 10.1832693,15.2104946 10.1157649,15.4180374 L10.365306,15.263755 C10.3328641,15.5739933 10.0699607,15.8132911 9.74961592,15.8241634 C9.43244224,15.8241634 9.3484845,15.6539989 9.24120517,15.6539989 C9.17357255,15.6539989 8.96601036,15.8808849 8.96601036,15.8808849 C8.96601036,15.8808849 8.98233548,15.6539989 9.35781314,15.2887124 C9.22299456,15.3388659 9.10060015,15.4161856 8.9986606,15.5155984 C8.46692826,15.2070335 7.86756329,15.1752694 7.86756329,14.7056154 C7.88695657,14.539204 7.94346723,14.3789194 8.03314661,14.2359614 C7.94650451,14.2457632 7.87272704,14.3017827 7.84190954,14.3811685 L7.81625579,14.129325 L7,14.7850255 C7.40708988,15.1962407 7.84690105,15.5755615 8.3153379,15.9194555 C9.46070172,16.7446744 10.7022351,17.4354102 12.0141427,17.9773114 C13.4134383,18.5445264 14.5958431,19.2002269 15.2535121,19.8967669 C15.911181,20.5933069 16.4848922,21.6142938 17.0842572,22.4741917 C17.6836222,23.3340896 19.0829178,24.8383437 20.5078672,25.1968236 L20.2163473,25.546228 C21.0263805,25.6538892 21.8482592,25.6454807 22.655786,25.5212706 L22.2150079,26 C24.4958597,25.773114 26.3615872,24.7680091 27.4017303,22.8485536 C27.4017303,22.8485536 27.0122597,22.5150312 25.9208091,22.5150312 C24.3139513,22.5150312 22.8400266,23.5201361 21.4150772,23.5201361 C20.0414353,23.5201361 18.9919636,22.2972206 18.2176867,21.1310267 C17.4434097,19.9648327 16.0884251,17.3306863 16.0884251,15.39308 C16.0884251,12.250709 18.369277,11.976177 18.369277,11.976177 C18.369277,11.976177 15.4377527,11.3431651 13.5906824,11.2070335 C18.0964144,11.3998866 23.0988963,12.6568349 25.4986883,13.8139535 C25.5687851,13.884568 25.5842507,13.9910302 25.5370135,14.0777769 C25.4897763,14.1645237 25.3905519,14.2118766 25.2911261,14.195122 C25.0742353,14.195122 24.4002412,13.74135 22.6931005,13.190017 C23.1082249,13.984118 24.1157178,15.377198 26.0560744,15.377198 C27.879823,15.377198 28.6214497,14.211004 30.995588,14.1474759 C31.0608884,12.8111174 30.4032195,12.509359 28.8966445,11.781055 C28.0424433,11.3619163 27.1490599,11.0230751 26.2286542,10.7691435 L26.168018,10.7691435 C26.6880498,11.0373565 27.1814606,11.3517991 27.6419428,11.7084515 L27.4646986,11.8060125 C27.8595795,12.0893264 28.2106463,12.4262801 28.5071739,12.8065797 C28.5071739,12.8065797 27.5323313,13.1968236 26.914309,13.1605218 C26.8985813,13.2711766 26.7952416,13.3495938 26.6810931,13.3374929 C26.5318349,13.3374929 25.9651202,13.0470788 24.5821496,12.4707884 C23.1991791,11.894498 19.5353567,10.6398185 14.5981753,10 C14.5981753,10 15.3934416,10.226886 15.6942902,10.372093 C15.4475822,10.3069399 15.1907155,10.2861794 14.9363384,10.3108338 L15.2931588,10.5377198 C15.2931588,10.5377198 12.9213527,10.4401588 11.5080641,10.7328417 C11.5080641,10.7328417 12.4269349,10.9892229 12.7907518,11.4475326 C12.4789035,11.451914 12.1675127,11.4723623 11.857888,11.5087918 C11.9014559,11.5900463 11.9321218,11.677252 11.9488422,11.7674419 C11.9488422,11.8491208 11.6479937,12.0510493 11.6479937,12.0510493 L11.8812096,12.0510493 L11.8812096,12.6023823 C11.8812096,12.6023823 11.5640359,13.0380034 10.6824797,12.8292683 L10.7151299,12.6908678 L10.190394,12.7407828 C10.3797246,12.6536082 10.5607802,12.5503529 10.731455,12.4322178 C10.731455,12.4322178 10.1927262,12.6591038 10.0761182,12.3732275 C10.0761182,12.3732275 8.29434846,12.802042 7.43611381,13.4849688 C7.70029436,13.5241732 7.95719653,13.6006042 8.19872993,13.7118548" stroke="none" fill="#FFFFFF" fill-rule="nonzero"></path>
                    <path d="M20.2330615,4.86749805 C20.2330615,4.86749805 18.7377666,5.1340608 18,6.41777085 L18.1185696,6.3826968 C18.1185696,6.3826968 18.7641154,5.61106781 20.509724,5.61106781 C22.5363864,5.61106781 23.8406524,6.83164458 25,7 C24.5384086,6.86804144 24.1440705,6.54804984 23.902133,6.10911925 C23.8691724,6.22188425 23.8738267,6.34331556 23.9153074,6.45284489 C23.0787327,5.95479345 22.597867,5.75136399 22.531995,4.99376461 C22.4012946,5.13006842 22.3297072,5.31811353 22.3343789,5.51286048 L22.1982434,5.40062354 C22.1982434,5.40062354 22.1653074,5.54793453 22.3892723,5.67420109 C22.466123,5.71628995 22.3475533,5.82852689 22.3475533,5.82852689 C22.1826114,5.79646687 22.02335,5.73730415 21.8754705,5.65315666 C21.8754705,5.65315666 22.0467378,5.63912705 21.9874529,5.56897896 C21.8849641,5.46680114 21.7922859,5.35400756 21.7107905,5.23226812 C21.6053952,5.09197194 21.8886449,5.16212003 21.8886449,5.16212003 C21.8038388,5.05035792 21.6804109,4.97958242 21.5461104,4.96570538 C21.5883998,4.90872581 21.6570248,4.88165923 21.7239649,4.89555729 C21.8425345,4.91660171 21.6976161,4.76227592 21.8557089,4.71317225 C22.0768198,4.62989574 22.2618353,4.46362931 22.3760979,4.24551832 C22.4792974,4.07014809 22.6703262,4.29462198 22.6703262,4.29462198 C22.6703262,4.29462198 22.6176286,4 22.1982434,4 C21.8938441,4.00641532 21.5980911,4.10895774 21.3484944,4.29462198 L21.6427227,4.45362432 C21.5459235,4.46310331 21.4484509,4.44620563 21.359473,4.40452065 C21.2013802,4.33437256 21.0959849,4.54481684 21.0959849,4.76929072 C21.0959849,5.07794232 21.4319322,5.14809041 21.4319322,5.31644583 C21.4319322,5.48480125 21.4055834,5.62509743 21.2804266,5.45674201 L21.293601,5.61106781 C20.9708281,5.35853468 20.6875784,5.37724084 20.4899624,5.00779423 L20.7205144,5.10600156 C20.7205144,5.10600156 20.7007528,5.01480904 20.4438519,4.87217459 C20.4438519,4.87217459 20.4043287,4.75993765 20.476788,4.75993765 L20.476788,4.45128605 L19.890527,4.45128605 L19.890527,4.51208106 L20.2330615,4.86749805 Z" stroke="none" fill="#FFFFFF" fill-rule="nonzero"></path>
                    <path d="M24,7.6357082 L24,7.59815309 L22.9785624,7.36155588 L22.9558638,7.42915508 C23.0012105,7.4633563 23.0234449,7.51094961 23.0163934,7.55872022 C23.0127799,7.62915204 22.9699441,7.69528395 22.8981682,7.74124175 C22.8263923,7.78719955 22.7321573,7.80883353 22.6380832,7.8009507 C22.5342321,7.80469381 22.4333825,7.77441076 22.3620779,7.718072 C22.2907732,7.66173324 22.2561567,7.58498264 22.2673392,7.50802082 C22.2673392,7.50802082 22.5472888,7.50802082 22.5472888,7.37845568 C22.5472888,7.18129133 21.445145,6.97286045 20,7.00290454 C21.2484237,7.71832945 21.9722573,8 22.5018916,8 C23.1298865,8.00187056 24,7.6357082 24,7.6357082 Z" stroke="none" fill="#185465" fill-rule="nonzero"></path>
                    <path d="M22.7576419,8 C22.7576419,8 23,8 23,7.71487603 C23,7.42975207 22.6091703,7.14876033 22,7 C22,7 22.3973799,7.47933884 22.7576419,8 Z" stroke="none" fill="#FFFFFF" fill-rule="nonzero"></path>
                    <path d="M19.5702082,6.01005299 C19.3802541,5.9932604 19.1890006,5.99751618 19,6.02274128 C19.0948835,6.23241928 19.22976,6.42198374 19.3972237,6.5810261 C19.3972237,6.5810261 19.1281367,6.56199366 19.0064068,6.53661708 C19.8328884,7.34866772 20.5888948,7.63415427 21.7827015,7.61512183 L21.6054458,7.71028402 C22.082975,7.73221176 22.5538366,7.83003238 23,8 C21.2103577,6.83479192 21.3192739,7.32963528 19.5702082,6.01005299 Z" stroke="none" fill="#FFFFFF" fill-rule="nonzero"></path>
                    <path d="M15,13.3266119 C14.8492947,13.3319874 14.7008232,13.3532444 14.5601173,13.3895909 C14.5601173,13.3895909 14.2851906,13 13.8870968,13 C13.4890029,13 12.8489736,13.2665622 12.8489736,13.2665622 L12.8797654,13.1684322 C12.1891496,13.1684322 12,13.1933308 12,13.3661569 C12,13.5389829 12.2749267,13.5594877 12.5806452,13.7484246 C12.6590051,13.6971949 12.7615961,13.6656241 12.8709677,13.6590824 L12.494868,13.8948874 C12.6505513,13.8304835 12.8490483,13.8345241 12.9985337,13.9051398 C13.2646628,14.0252392 13.8782991,13.8890289 14.1290323,13.7952927 C14.076848,13.8666254 13.9952134,13.9265759 13.893695,13.9681187 C13.893695,13.9681187 14.4589443,14.0838243 14.7096774,13.8743826 C14.8592375,13.7176674 14.6239003,13.4979733 14.6239003,13.4979733 C14.7316933,13.4253911 14.8593581,13.3672235 15,13.3266119 Z" stroke="none" fill="#231F20" fill-rule="nonzero"></path>
                    <path d="M13.6202532,15.1191223 C13.07173,15.2821317 12.4683544,15.1400209 11.8206751,15.1191223 L11.9113924,15 C11.7828179,15.0204318 11.6582518,15.0606232 11.5421941,15.1191223 C11.3755274,15.2089864 11,15.2382445 11,15.5600836 C11.0084991,15.7298508 11.0908371,15.8876422 11.2257384,15.9926855 L11.4367089,15.7607106 C11.4527407,15.8465866 11.4337763,15.9352568 11.3839662,16.0073145 C12.1434599,16.492163 12.9957806,16.2163009 13.335443,16.5527691 L13.7341772,16.2831766 C13.7341772,16.2831766 13.7489451,16.3646813 13.5464135,16.6865204 C13.7094757,16.8830287 13.9520793,16.9978323 14.2088608,17 C14.4493671,17 14.5991561,16.9561129 14.6308017,16.6259143 L14.7278481,16.5151515 L14.5780591,16.5151515 C14.598337,16.4131759 14.5795331,16.3073745 14.5253165,16.2183908 C14.5253165,16.2183908 14.5843882,16.1494253 14.7658228,16.276907 C14.7658228,16.276907 14.8333333,16.276907 14.9156118,16.1807732 L15,16.0825496 L14.9092827,16.0825496 C14.8481013,15.6269592 14.4873418,15.4033438 14.2299578,15.4994775 C14.1981921,15.3162694 14.0334261,15.1853375 13.8459916,15.1943574 C13.7194093,15.1943574 13.4704641,15.3427377 13.2827004,15.3427377 L13.6202532,15.1191223 Z" stroke="none" fill="#231F20" fill-rule="nonzero"></path>
                </g>
            </g>
        </g>
    </g>
</svg>