<?xml version="1.0" encoding="UTF-8"?>
<svg width="36px" height="36px" viewBox="0 0 36 36" version="1.1" xmlns="http://www.w3.org/2000/svg" xmlns:xlink="http://www.w3.org/1999/xlink">
    <title>Group 3</title>
    <defs>
        <rect id="path-1" x="0" y="0" width="36" height="36"></rect>
    </defs>
    <g id="Page-1" stroke="none" stroke-width="1" fill="none" fill-rule="evenodd">
        <g id="Group-3">
            <mask id="mask-2" fill="white">
                <use xlink:href="#path-1"></use>
            </mask>
            <g id="Rectangle"></g>
            <g id="Medipol-İstanbul-Basaksehir-Futbol-Kulubu-Logo-01-01" mask="url(#mask-2)" fill-rule="nonzero">
                <g transform="translate(1.000000, 8.000000)">
                    <path d="M27.0962274,9.71394948 C27.0962274,9.71394948 27.5117551,8.83763823 27.3236741,7.76331435 C27.3236741,7.76331435 26.5363587,7.48525405 25.1104429,7.76331435 C25.1104429,7.76331435 24.4281028,9.23787654 23.5576818,9.95409247 C23.5576818,9.95409247 24.218152,8.46267813 23.8244943,7.3462239 C23.8244943,7.3462239 25.0229634,6.8870031 26.4926189,6.98811594 C27.9622745,7.08922877 28.2903226,7.38835425 28.2903226,7.38835425 C28.2903226,7.38835425 27.9229087,9.07778122 27.0962274,9.71394948 L27.0962274,9.71394948 Z M26.1514489,12.797891 C26.833789,12.317605 26.7594314,11.3738852 26.7594314,11.3738852 C26.9256424,11.7446323 27.0174959,12.2459834 26.9256424,12.5998783 C26.833789,12.9537733 26.5932203,13.3118812 25.5959541,13.400355 C24.5986878,13.4888287 24.0256971,13.1854902 24.0256971,13.1854902 C24.4674686,12.7599737 24.9004921,11.6056021 24.9004921,11.6056021 C25.1235648,12.4229309 24.9354839,12.802104 24.9354839,12.802104 C25.4166211,12.9453472 26.1514489,12.797891 26.1514489,12.797891 L26.1514489,12.797891 Z M27.7217059,12.6420087 C27.9622745,14.3314357 26.4007654,15.0392255 25.5347184,15.0392255 C24.6686714,15.0392255 23.4745763,14.6853306 23.0196829,13.2655379 C22.5647895,11.8457451 22.5647895,10.0931226 23.1509021,9.23787654 C23.1509021,9.23787654 22.7616184,10.9273035 22.9759431,11.8878755 C23.1946419,12.8484474 23.6057955,13.6615631 24.4062329,13.8090193 C25.2066703,13.9564756 26.4007654,13.9143452 26.833789,13.4340592 C27.2668125,12.9537733 27.4417715,12.2670486 27.0087479,11.3275418 C26.5757244,10.3880351 25.7096774,9.17889406 27.1399672,7.96975306 C27.1399672,7.96975306 26.5101148,8.69860808 26.7506834,9.7645059 C26.9868781,10.8261907 27.4811372,10.9525817 27.7217059,12.6420087 L27.7217059,12.6420087 Z M22.1186441,5.65679693 C18.8512849,5.22285434 16.1744122,5.86744867 16.1744122,5.86744867 C18.8031711,5.05011991 21.1957354,5.15123275 22.3767086,5.28183683 C22.2673592,5.41244091 22.1842537,5.53883195 22.1186441,5.65679693 L22.1186441,5.65679693 Z M21.9655549,6.43620837 C18.7725533,6.2213436 16.2443958,6.97547683 16.2443958,6.97547683 C18.5451066,6.1244438 20.6971022,6.01069186 21.9786769,6.04439613 C21.948059,6.19606539 21.952433,6.32666947 21.9655549,6.43620837 L21.9655549,6.43620837 Z M16.5943138,10.8809601 C15.3739748,9.44010222 15.8901039,7.51895833 15.8901039,7.51895833 C15.8901039,7.51895833 15.9338436,9.17046799 17.429743,10.623965 C18.9256424,12.0816751 20.7802078,12.4777003 20.7802078,12.4777003 C20.7802078,12.4777003 17.8102788,12.321818 16.5943138,10.8809601 L16.5943138,10.8809601 Z M23.1509021,4.61617732 C22.9846911,4.72992926 22.8403499,4.83946817 22.7135046,4.94900708 C19.2186987,4.15274349 16.1612903,4.71729016 16.1612903,4.71729016 C19.9447786,3.76093125 23.1509021,4.61617732 23.1509021,4.61617732 Z M20.4259158,2.85512876 L20.4259158,2.85512876 L20.4259158,2.85512876 C20.4784035,2.83406359 21.5456534,2.40433403 22.6303991,2.64026398 C23.7457627,2.88462 24.4368507,3.61347503 24.4368507,3.61347503 C24.4368507,3.61347503 23.4352105,3.32277563 21.5850191,3.35647991 C21.5850191,3.35647991 21.5106616,3.22587583 21.7031165,2.9562416 C21.6943685,2.9562416 21.4013122,2.8719809 20.4259158,2.85512876 L20.4259158,2.85512876 L20.4259158,2.85512876 Z M28.6271186,3.15425423 C29.1957354,3.04471533 29.7162384,3.32698866 29.961181,3.54606647 C29.961181,3.54606647 28.6446145,3.31013652 28.0278841,3.85783105 C28.0235101,3.85783105 28.0585019,3.26379314 28.6271186,3.15425423 Z M34.9081465,7.33779783 C33.6221979,6.65949922 32.1612903,6.45306051 31.0415528,6.41093017 C31.0415528,6.41093017 30.5866594,6.41935623 30.5166758,6.4151432 C30.5385457,6.2339827 30.5341717,6.07388738 30.5035539,5.93064419 C30.7834882,5.92221812 31.1334062,5.91379205 31.1858939,5.90957902 L31.2296337,5.90536598 C33.4734828,5.83374439 34.6632039,6.40671713 34.6632039,6.40671713 L34.5494806,6.32245643 C33.4559869,5.83374439 32.3012575,5.65679693 31.2996173,5.62730568 L31.2602515,5.62730568 C31.2602515,5.62730568 30.7747403,5.62730568 30.4073264,5.63151872 C30.306725,5.42508001 30.1580098,5.27341076 30.0092947,5.15965882 C30.481684,5.15544578 31.0284308,5.15965882 31.343357,5.17229792 L31.3652269,5.17229792 C33.092947,5.18915006 34.0333516,5.58517534 34.0333516,5.58517534 L33.9196282,5.50091464 C33.0623291,5.14701971 32.1875342,4.99113742 31.3652269,4.93636797 C31.3652269,4.93636797 30.2936031,4.88159852 29.4712958,4.88581155 C29.7118644,5.05854598 29.8911974,5.31132807 29.9086933,5.66943603 C29.9655549,6.78167723 28.7758338,7.22825892 28.7758338,7.22825892 C29.0557682,7.04709843 29.5587753,6.44042141 29.427556,5.65258389 C29.2963368,4.86474638 28.2378349,4.48978628 28.2378349,4.48978628 C28.2378349,4.48978628 26.995626,5.01641563 26.7244396,5.98962668 C26.7244396,5.98962668 26.7463095,4.97428528 24.9879716,4.31705185 C24.9879716,4.31705185 25.8146528,4.07690886 26.7025697,4.13589135 C27.5904866,4.19487384 28.2334609,4.49399931 28.2334609,4.49399931 C28.2334609,4.49399931 28.395298,4.07690886 29.2700929,3.93366568 C30.1448879,3.79042249 31.0852925,3.9968612 31.0852925,3.9968612 C30.9103335,3.68930966 30.7091307,3.24272796 29.8343357,2.89725911 C28.9595407,2.55179025 28.1722253,2.86355483 28.1722253,2.86355483 C28.1722253,2.86355483 28.1153636,2.45489045 27.4767633,2.05886517 C26.4401312,1.41427084 23.702023,1.03088467 23.172772,1.00139343 C22.643521,0.97611522 23.5708037,1.3005189 23.9382176,1.50695761 C24.3581192,1.73867453 24.8305085,2.13048677 24.8698742,2.50123383 C24.8786222,2.60234667 24.8567523,2.68660737 24.8086386,2.76244199 C24.7692728,2.65711612 24.6949153,2.52651204 24.5549481,2.35377761 C23.8026244,1.42690995 21.8999453,1.0224586 20.4740295,1.11514537 C19.0437397,1.20783214 17.9108803,1.72603542 17.9108803,1.72603542 C17.9283762,1.85242647 17.3860033,2.29479513 15.8857299,2.45489045 C14.4598141,2.6065597 13.4494259,2.35377761 13.086386,2.3032212 L13.0601422,2.29900816 C12.911427,2.28215602 12.8020776,2.28636906 12.7583379,2.39169493 L12.7539639,2.40433403 L12.7495899,2.42118617 C12.745216,2.49280776 12.7889557,2.58970756 12.7889557,2.58970756 L12.7670858,2.55179025 C12.8676873,2.74137682 13.4756698,3.8157007 14.2761072,4.3718213 C14.2761072,4.3718213 14.7528704,4.2749215 15.3214872,4.21593901 C15.3214872,4.21593901 6.55166758,8.32364798 3,14.7485261 C4.5483871,14.5715787 6.58665938,14.4620397 8.79551668,14.6474133 L8.78239475,14.6474133 L8.78239475,14.6474133 C9.10169492,14.12921 10.7025697,11.2432811 14.5123018,9.46959346 C14.5123018,9.46959346 11.695462,11.3570331 10.6938218,14.8833432 C11.9666484,15.0897819 13.2700929,15.4141856 14.5429196,15.8902586 C18.6369601,17.4280163 22.0880262,19.0331825 25.9808639,18.9994783 L26.6413341,18.969987 L26.6413341,18.965774 C25.609076,16.8929608 24.5899399,15.940815 24.5899399,15.940815 C25.3597594,16.0756321 25.9808639,15.8607673 25.9939858,15.8607673 C26.0508475,15.8397021 26.1033352,15.818637 26.1427009,15.8017848 C27.4155276,15.1403384 27.6298524,14.0238841 27.7304538,13.2234075 C27.8485511,12.2965398 27.6779661,11.7025019 27.6779661,11.7025019 C27.6779661,11.7025019 29.8824494,8.9176859 30.4423182,6.72690778 C30.4423182,6.72690778 30.7266266,6.68899046 30.9409513,6.6932035 C33.5653362,6.72269474 35,7.42627156 35,7.42627156 L34.9081465,7.33779783 L34.9081465,7.33779783 Z M32.0650629,2.59813363 C32.0738108,2.58128149 32.0781848,2.56442936 32.0825588,2.54757722 L32.0956807,2.50544687 L32.0956807,2.50544687 C32.043193,2.36641672 31.9425916,2.35799065 31.7326408,2.37062975 C31.4220886,2.42539921 31.1377802,2.46331652 30.8972116,2.48438169 L30.8972116,2.48438169 L30.8578458,2.48859473 L30.831602,2.49280776 L30.7266266,2.50123383 L30.7135046,2.50123383 C30.4029524,2.52651204 30.2061236,2.52651204 30.2061236,2.52651204 C30.997813,3.10369781 31.0896665,3.9968612 31.0896665,3.9968612 L31.1290323,3.96315692 C31.7370148,3.54185344 32.0650629,2.59813363 32.0650629,2.59813363 L32.0650629,2.59813363 Z" id="path8" fill="#000000"></path>
                    <path d="M24.2119266,6.84289625 C24.5834862,7.97531457 23.9600917,9.48805452 23.9600917,9.48805452 C24.7816514,8.76159748 25.4256881,7.26595064 25.4256881,7.26595064 C26.7715596,6.98391438 27.5146789,7.26595064 27.5146789,7.26595064 C27.6922018,8.3556362 27.3,9.24447775 27.3,9.24447775 C28.0802752,8.59921297 28.4311927,6.88135574 28.4311927,6.88135574 C28.4311927,6.88135574 28.1215596,6.57795309 26.7344037,6.47539445 C25.3472477,6.37710909 24.2119266,6.84289625 24.2119266,6.84289625 L24.2119266,6.84289625 Z M28.7408257,2.59098593 C28.2041284,2.70209113 28.1752294,3.30462314 28.1752294,3.30462314 C28.7573394,2.74909717 30,2.98840067 30,2.98840067 C29.7688073,2.761917 29.2775229,2.47988074 28.7408257,2.59098593 Z M26.4041284,12.3725163 C26.4041284,12.3725163 25.7105505,12.522081 25.256422,12.3767896 C25.256422,12.3767896 25.433945,11.9921947 25.2233945,11.163179 C25.2233945,11.163179 24.8188073,12.3340568 24.3977064,12.7656577 C24.3977064,12.7656577 24.9385321,13.0733337 25.8798165,12.9835949 C26.8211009,12.893856 27.0481651,12.5349008 27.1348624,12.1716723 C27.2215596,11.812717 27.1348624,11.3041971 26.9779817,10.9281488 C26.9779817,10.932422 27.0481651,11.8853627 26.4041284,12.3725163 L26.4041284,12.3725163 Z M23.0766055,2.07391945 C22.0527523,1.83461596 21.0495413,2.26621691 21,2.28758329 C21.0495413,2.26621691 22.0073394,1.85170907 23.006422,2.05682635 C22.4366972,1.94572115 22.1972477,2.39014193 22.1972477,2.39014193 C22.0155963,2.66790491 22.0857798,2.79610322 22.0857798,2.79610322 C23.8362385,2.761917 24.7775229,3.05677309 24.7775229,3.05677309 C24.7775229,3.05677309 24.1293578,2.31749623 23.0766055,2.07391945 L23.0766055,2.07391945 Z" id="path10" fill="#BFC0BF"></path>
                    <path d="M30.3401583,6.24572997 C29.7810538,8.52798063 27.5795796,11.4290723 27.5795796,11.4290723 L27.5795796,11.4290723 C29.2437892,10.0026657 30.3532624,7.48341206 30.8381108,6.21061842 C30.6197106,6.20622948 30.3401583,6.24572997 30.3401583,6.24572997 L30.3401583,6.24572997 Z M30.4056784,5.91217026 C30.4755665,5.91217026 30.9298389,5.90778131 30.9298389,5.90778131 C30.973519,5.76733512 31.021567,5.58299949 31.0739831,5.38988597 C31.021567,5.39427492 30.6721267,5.4030528 30.3925744,5.41183069 C30.4231504,5.55666583 30.4275184,5.72783463 30.4056784,5.91217026 L30.4056784,5.91217026 Z M26.6448266,9.4013804 C26.4089544,8.29097768 27.033579,7.53169044 27.033579,7.53169044 C25.6052416,8.79131724 26.4701065,10.050944 26.9025389,11.0296785 C27.3349713,12.0084129 27.1602512,12.7238107 26.7278187,13.2241503 C26.2953863,13.7244898 25.1072891,13.7683793 24.3035763,13.6147662 C23.5042315,13.4611532 23.0936391,12.6140871 22.8752389,11.613408 C22.6612067,10.6127288 23.049959,8.85276245 23.049959,8.85276245 C22.4646465,9.743718 22.4646465,11.5695185 22.9189189,13.0485925 C23.3731914,14.5276665 24.5656566,14.8963378 25.4305214,14.8963378 C26.2953863,14.8963378 27.8547639,14.1589952 27.6145236,12.3990289 C27.3786514,10.6390625 26.8850669,10.5073942 26.6448266,9.4013804 L26.6448266,9.4013804 Z M32,1.72511809 L31.995632,1.69439548 L31.991264,1.68122865 L31.982528,1.65489499 L31.97816,1.64172816 L31.969424,1.61978344 L31.965056,1.61100555 L31.951952,1.59344978 L31.9432159,1.58467189 L31.9301119,1.56711612 L31.9213759,1.55833823 L31.9039039,1.5451714 L31.8951679,1.54078246 L31.8776959,1.53200457 L31.8689599,1.52761562 L31.8514879,1.51883774 L31.8427518,1.51444879 L31.8252798,1.51005985 L31.8165438,1.50567091 L31.7990718,1.50128196 L31.7947038,1.50128196 L31.7772318,1.49689302 L31.7728638,1.49689302 L31.7597598,1.49689302 L31.7553918,1.49689302 L31.7422877,1.49689302 C30.6502867,1.51005985 29.7504778,1.13699965 29.7504778,1.13699965 L29.6762217,1.11066599 C27.2476112,0.219710439 24.7272727,-0.0392372318 22.4821185,0.004652204 L22.4821185,0.00026326042 C21.4774775,0.00904114757 20.7480207,0.0924310755 20.7480207,0.0924310755 C17.5244335,0.364545577 15.2137592,1.14138859 15.2137592,1.14138859 C15.2137592,1.14138859 14.3357903,1.39155837 13.1695332,1.33011316 C13.1695332,1.33011316 12.7371007,1.32133528 12.6497406,1.59783872 C12.5754846,1.77339647 12.5667486,1.98406576 12.7327327,2.44490483 C12.9249249,2.975967 13.6849577,3.9722572 13.6893257,3.98103508 C11.3830194,4.92026901 5.38138138,8.30414451 0,15.107007 C0,15.107007 1.13568114,14.8085589 2.92656293,14.5978896 C6.47338247,7.90913958 15.2312312,3.62553065 15.2312312,3.62553065 C14.6633907,3.68697586 14.1872782,3.78792157 14.1872782,3.78792157 C13.3879334,3.21296996 12.7807808,2.0894004 12.6803167,1.89189794 L12.7021567,1.93139843 C12.7021567,1.93139843 12.6584767,1.83045273 12.6628447,1.75584069 L12.6672127,1.73828492 L12.6715807,1.72511809 C12.7196287,1.61978344 12.8288288,1.61100555 12.972973,1.62856133 L12.999181,1.63295027 C13.3617254,1.68561759 14.3663664,1.94895421 15.7947038,1.79095224 C17.2929293,1.62417238 17.8345618,1.16333331 17.8170898,1.031665 C17.8170898,1.031665 18.952771,0.487435997 20.3767404,0.395268182 C21.8050778,0.298711424 23.7051597,0.720050007 24.4520885,1.68561759 C24.5874966,1.86117534 24.6661207,2.00162153 24.7054327,2.11134512 C24.7534808,2.03673308 24.7753208,1.94456526 24.7665848,1.83923062 C24.7272727,1.45300358 24.2555283,1.04483183 23.8361998,0.803439935 C23.4649195,0.592770643 22.5432705,0.250433044 23.0717991,0.276766706 C23.6003276,0.307489311 26.3346983,0.706883176 27.3699154,1.37839154 C28.007644,1.79095224 28.0644281,2.21667977 28.0644281,2.21667977 C28.0644281,2.21667977 28.8506689,1.89189794 29.7242697,2.25179131 C30.6022386,2.61168469 30.7987988,3.07691271 30.973519,3.39730559 C30.973519,3.39730559 30.8817909,2.46684955 30.0911821,1.86556428 C30.0911821,1.86556428 30.2877423,1.86556428 30.5978706,1.83923062 L30.6109746,1.83923062 L30.7158067,1.83045273 L30.7420147,1.82606379 L30.7813268,1.82167484 L30.7813268,1.82167484 C31.021567,1.79973013 31.3054873,1.76022963 31.6156156,1.70317337 C31.8296478,1.68561759 31.9301119,1.69878442 31.97816,1.84361956 L31.97816,1.84361956 L31.965056,1.887509 C31.960688,1.90506477 31.951952,1.92262055 31.9475839,1.94017632 C31.9475839,1.94017632 31.6199836,2.92329968 31.012831,3.36658298 L30.973519,3.40169453 C30.973519,3.40169453 30.03003,3.1866363 29.1607972,3.33586038 C28.2915643,3.48508446 28.1255801,3.91958987 28.1255801,3.91958987 C28.1255801,3.91958987 29.1826372,4.31020585 29.3136773,5.1309383 C29.4447174,5.95167075 28.9423969,6.58367862 28.6628447,6.7724032 C28.6628447,6.7724032 29.8509419,6.30717518 29.7941578,5.14849407 C29.7766858,4.77104493 29.5932296,4.51209726 29.3573574,4.33215057 C30.1829102,4.32776163 31.2487032,4.38481789 31.2487032,4.38481789 C31.2530713,4.06442501 31.2006552,3.8010884 31.0783511,3.57286333 C31.7117117,3.01985644 31.9432159,2.18156822 31.97816,1.85239745 L31.97816,1.85239745 L31.97816,1.85239745 C31.982528,1.83923062 31.986896,1.81289696 31.986896,1.80411907 L31.986896,1.7865633 C31.986896,1.77339647 31.986896,1.76461858 31.986896,1.75145175 L32,1.72511809 L32,1.72511809 Z M24.8888889,3.72647636 C26.6448266,4.41115155 26.6229866,5.46888696 26.6229866,5.46888696 C26.8938029,4.45504099 28.1299481,3.91520093 28.1299481,3.91520093 C28.1299481,3.91520093 27.4878515,3.60358594 26.6011466,3.54214073 C25.7144417,3.48069552 24.8888889,3.72647636 24.8888889,3.72647636 L24.8888889,3.72647636 Z M29.8989899,4.61304296 C30.047502,4.73154444 30.1960142,4.8895464 30.2964783,5.10460464 C30.6633907,5.09582675 31.1482391,5.1002157 31.1482391,5.1002157 C31.1831832,4.94221373 31.2137592,4.7886007 31.2355992,4.63937662 L31.2355992,4.62620979 C30.9167349,4.61304296 30.3707344,4.60865401 29.8989899,4.61304296 L29.8989899,4.61304296 Z M25.8935299,15.7609596 C25.8804259,15.7653486 25.2601693,15.9847958 24.4914005,15.8443496 C24.4914005,15.8443496 25.5091455,16.8318619 26.5399945,18.9956111 L26.5399945,19 L26.5793066,18.9956111 C26.4788425,18.0124877 26.0595141,16.3622449 25.963418,16.0550189 L25.8935299,15.7609596 Z M17.3366093,10.3011138 C15.8427518,8.78253936 15.7990718,7.06646242 15.7990718,7.06646242 C15.7990718,7.06646242 15.2880153,9.07220963 16.5023205,10.5688394 C17.7209937,12.0698581 20.6825007,12.232249 20.6825007,12.232249 C20.6825007,12.232249 18.8304668,11.8196883 17.3366093,10.3011138 L17.3366093,10.3011138 Z M8.70543271,14.4925549 L8.70543271,14.4925549 L8.72290472,14.4925549 C8.77968878,14.4969439 8.95877696,14.5144997 8.96751297,14.5144997 C8.99372099,14.5144997 9.2994813,14.5496112 9.2994813,14.5496112 C9.73191373,14.5978896 10.1730822,14.6593348 10.6186186,14.7339468 C11.6188916,11.0560121 14.4318864,9.09415435 14.4318864,9.09415435 C10.6229866,10.9462885 9.02429702,13.9527149 8.70543271,14.4925549 L8.70543271,14.4925549 Z M16.0742561,4.143426 C16.0742561,4.143426 19.1274911,3.55530756 22.6175266,4.38481789 C22.7441987,4.27070536 22.8883429,4.15659283 23.0543271,4.03809135 C23.0543271,4.03809135 19.8525799,3.1471358 16.0742561,4.143426 Z M16.0917281,5.33721865 C16.0917281,5.33721865 18.7649468,4.67009923 22.027846,5.11777147 C22.0889981,4.99488105 22.1763582,4.86321274 22.2855583,4.72715549 C21.1061971,4.59548718 18.7168987,4.49015254 16.0917281,5.33721865 L16.0917281,5.33721865 Z M22.4559105,1.96650998 C21.3988534,1.75584069 20.3854764,2.18156822 20.3330603,2.20351294 L20.3330603,2.20351294 L20.3330603,2.20351294 L20.3330603,2.20351294 C21.3071253,2.22106871 21.6041496,2.30445864 21.6041496,2.30445864 C21.6041496,2.30445864 21.8574939,1.85239745 22.4559105,1.96650998 L22.4559105,1.96650998 Z M16.1572482,6.5002887 C16.1572482,6.5002887 18.6863227,5.7146678 21.8705979,5.93850392 C21.8531259,5.82439139 21.8531259,5.68833413 21.8837019,5.53033217 C20.6082446,5.49522062 18.4548185,5.60933315 16.1572482,6.5002887 Z" id="path12" fill="#0085CA"></path>
                </g>
            </g>
        </g>
    </g>
</svg>