<?xml version="1.0" encoding="UTF-8"?>
<svg width="36px" height="36px" viewBox="0 0 36 36" version="1.1" xmlns="http://www.w3.org/2000/svg" xmlns:xlink="http://www.w3.org/1999/xlink">
    <title>Group 3</title>
    <defs>
        <rect id="path-1" x="0" y="0" width="36" height="36"></rect>
    </defs>
    <g id="Page-1" stroke="none" stroke-width="1" fill="none" fill-rule="evenodd">
        <g id="Group-3">
            <mask id="mask-2" fill="white">
                <use xlink:href="#path-1"></use>
            </mask>
            <g id="Rectangle"></g>
            <g id="New-England-Patriots-01" mask="url(#mask-2)">
                <g transform="translate(0.000000, 10.000000)">
                    <g id="Group" stroke-width="1" fill="none" fill-rule="evenodd">
                        <path d="M35.0297041,1.28966097 C31.6793972,2.27032517 28.9183157,-0.065528252 24.7645194,0.00346319919 L24.7596498,0.00346319919 C24.7596498,0.00346319919 19.0475712,-0.169015429 13.5546261,1.92043995 C8.02272388,3.92119204 4.22928038,5.434076 0.650100707,5.86773655 C-0.192345666,6.00079149 -0.270259781,7.29684518 0.737754086,7.36090867 C4.04910399,7.48903566 6.28913481,7.25249354 8.47559967,6.80897706 C8.16394321,7.77978534 9.13300002,7.87834456 9.14760892,7.87834456 C11.7479925,8.20851793 13.8565433,7.93748009 15.9115281,7.50381954 C15.3856078,8.14445444 15.8092658,8.72102586 16.2621416,8.81465711 C24.0145961,10.2043421 26.9704628,14.1762785 29.8045888,17 C30.5983388,16.8965128 32.3027101,15.871497 31.7524416,13.8017534 C31.7524416,13.8017534 31.9618358,13.3434531 31.9618358,12.978784 L32.9406319,12.3874287 C32.9406319,12.3874287 32.5267132,10.2979733 32.4731472,10.0565032 C33.0088068,9.77560947 33.9876028,9.27788543 33.9876028,9.27788543 C33.9876028,9.27788543 35.7552793,2.97995152 35.9695431,2.17176595 C36.1594588,1.45228367 35.4144051,1.17631787 35.0297041,1.28966097 Z M0.742623719,6.61678659 C6.93679589,5.76424937 12.0499097,2.78776105 17.3091125,1.58533862 C17.47468,2.23582944 17.7765972,3.53188313 17.7765972,3.53188313 C10.2481458,5.13347039 9.45439575,6.89768036 0.742623719,6.61678659 Z M9.14273928,7.13422248 C13.2575785,6.5280833 15.7459606,4.97577565 18.0785144,4.47805161 C18.2148641,5.05955098 18.3950405,5.65583424 18.5119117,6.12399051 C12.390784,7.80935311 9.14273928,7.13422248 9.14273928,7.13422248 Z M33.3594203,8.7653775 C32.7701948,9.05119923 32.1955782,9.35180484 31.6209616,9.67212229 C31.8206165,10.4408842 31.9277484,11.2687816 32.1079248,12.0326155 L31.2119125,12.5599073 L31.2167821,13.1167669 L30.9343434,13.860889 C31.2654784,14.3044054 31.1729554,14.9450403 30.9148649,15.3885568 C30.6957315,15.748298 30.3451179,16.0193358 29.999374,16.2213822 C29.999374,16.2213822 24.9641743,9.29759727 16.388752,8.08531891 C18.8040896,7.70093797 19.7195804,6.58229087 23.8879856,6.59214679 C22.4076174,5.76424937 20.5133305,5.70018588 18.7797414,6.09442275 C18.6872184,5.72482569 18.3658227,4.39427627 18.3658227,4.39427627 C19.4809685,4.07395882 20.6350713,3.93597592 21.8135223,3.85220058 C20.6837676,3.41854003 19.4371418,3.36926043 18.13695,3.48260352 C17.9811217,2.82718474 17.8496417,2.19147779 17.6743349,1.50649124 C19.8900176,0.99398332 22.3686604,0.737729358 24.7450409,0.752513241 C27.5207313,0.777153045 31.2411303,2.04856693 31.2411303,2.04856693 C32.4974954,2.40338011 33.958385,2.39845215 35.2439679,2.00914324 C35.0589219,2.82225678 33.3594203,8.7653775 33.3594203,8.7653775 Z" id="Shape" fill="#FFFFFF" fill-rule="nonzero"></path>
                        <path d="M31.6891364,4.64067431 C31.6063527,4.30064502 31.4407852,3.31998082 31.3920889,3.23127752 L30.5447729,4.3400687 C30.5447729,4.3400687 29.4052789,4.03946309 28.7673571,3.90640815 C29.1666669,4.33021278 29.5562375,4.71459372 29.9117207,5.13839835 C29.575716,5.65583424 29.1471884,6.14370236 28.7917053,6.63649844 C29.4393663,6.4147402 30.1016363,6.21762177 30.754167,5.98600761 C31.2265214,6.46894777 31.7280935,6.99131161 32.1907085,7.45453993 C32.1127944,6.82868891 31.9277484,6.19790993 31.8693128,5.60162667 L33.3448114,5.09404671 C32.8140215,4.92156808 32.2345352,4.80822498 31.6891364,4.64067431 Z" id="Path" fill="#FFFFFF" fill-rule="nonzero"></path>
                    </g>
                    <path d="M31.9664256,2.25253853 C31.9664256,2.25253853 28.2174587,1.01971091 25.4204545,1.0005973 C23.0307335,0.986262095 20.5330579,1.22996058 18.2954545,1.73169275 C18.4721074,2.39589057 18.6045971,3.01230438 18.7616219,3.6478318 C20.0717975,3.53792856 21.3279959,3.58093418 22.4664256,4.00621192 C21.2789256,4.08744475 20.1159607,4.21646159 18.9922521,4.5318361 C18.9922521,4.5318361 19.3161157,5.82200454 19.4093492,6.18038466 C21.15625,5.79811253 23.0650826,5.86501015 24.5568182,6.66300323 C20.356405,6.65344642 19.4338843,7.73336519 17,8.11085892 C25.6412707,9.29112412 30.7151343,16 30.7151343,16 C31.0684401,15.8040855 31.4217459,15.5460518 31.637655,15.1924501 C31.8977273,14.7576156 31.9909607,14.1364234 31.6572831,13.7111456 L31.9418905,12.989607 L31.9369835,12.4496476 L32.839876,11.9383586 C32.6583161,11.1977064 32.5503616,10.3949349 32.3491736,9.64950424 C32.9232955,9.33890814 33.5072314,9.04742564 34.1009814,8.77027834 C34.1009814,8.77027834 35.8135331,3.00752598 36,2.21908971 C34.7045455,2.59180504 33.232438,2.59180504 31.9664256,2.25253853 Z M30.9359504,11.6277625 L30.7200413,11.895353 C30.9653926,11.9813642 31.2352789,12.1390515 31.4757231,12.2346195 L31.456095,12.5308804 L30.7985537,12.549994 C30.4992252,12.7650221 30.263688,12.9752718 29.9594525,13.1902998 C29.9594525,13.1902998 30.6022727,13.085175 30.9359504,12.9943854 L31.5542355,12.9943854 C31.4855372,13.1711862 31.4119318,13.3240951 31.3334194,13.4865607 L30.7200413,13.5104528 C30.7200413,13.5104528 31.0929752,13.9405089 31.3481405,14.2176562 C31.637655,14.6954964 30.8427169,15.2784614 30.8427169,15.2784614 C29.4245868,13.7350376 27.883781,12.1151595 25.9994835,11.0734679 C26.1908574,10.7867638 26.4754649,10.6290766 26.8091426,10.6673038 C27.5108471,10.801099 28.1095041,11.2598256 28.276343,11.431848 C28.4922521,11.6564329 28.8897211,12.2346195 29.0074897,12.3206307 C28.9486054,11.8571258 28.7768595,11.3888424 28.6639979,10.9205591 L26.5392562,9.50137379 C26.7600723,8.92318719 27.5304752,8.52180146 28.1978306,8.50268785 C28.8455579,8.48357424 29.478564,8.48835265 29.9594525,8.86106797 C28.8504649,8.84673277 28.4529959,9.38669215 28.291064,9.88842432 C28.28125,9.92665154 30.5532025,9.87886752 30.5532025,9.87886752 C30.6366219,9.65428264 30.6709711,9.40580576 30.8378099,9.21466969 C31.0095558,8.97097121 31.3334194,8.88495998 31.6131198,8.87540318 C31.6670971,9.05698244 32.1627066,11.6086489 32.1627066,11.6086489 C31.7505165,11.6086489 31.3775826,11.5990921 30.9359504,11.6277625 Z M32.9282025,7.49444511 C32.4620351,7.04527536 31.9517045,6.53876478 31.4806302,6.07048142 C30.8279959,6.2902879 30.1606405,6.48142396 29.5030992,6.70123044 C29.856405,6.21861187 30.2931302,5.74555011 30.6317149,5.24859634 C30.2735021,4.8376538 29.8809401,4.46493848 29.478564,4.05399594 C30.1164773,4.17823438 31.2696281,4.47449528 31.2696281,4.47449528 L32.1234504,3.39935492 C32.1725207,3.49014455 32.3393595,4.43626807 32.4227789,4.76597778 C32.9723657,4.92844344 33.5563017,5.04312507 34.0960744,5.21036913 L32.6043388,5.7025445 C32.6632231,6.27595269 32.8496901,6.8875881 32.9282025,7.49444511 Z" id="Shape" fill="#0D254C" fill-rule="nonzero"></path>
                    <path d="M30.7,9.73924572 C30.5380952,9.93659022 30.5047619,10.1882045 30.4238095,10.4250179 C30.4238095,10.4250179 28.2238095,10.474354 28.2285714,10.4348851 C28.3857143,9.92178938 28.7761905,9.35935756 29.847619,9.37415839 C29.3809524,8.99427023 28.7666667,8.98933662 28.1380952,9.00413746 C27.4904762,9.02387191 26.7428571,9.43829536 26.5285714,10.0352625 L28.5857143,11.5005454 C28.6952381,11.9840394 28.8619048,12.4675334 28.9190476,12.9460939 C28.8047619,12.8622224 28.4190476,12.2652553 28.2095238,12.0284419 C28.047619,11.8508319 27.4619048,11.3772051 26.7857143,11.2390639 C26.4619048,11.2045286 26.1857143,11.3624042 26,11.658421 C27.8238095,12.7339485 29.3238095,14.4064432 30.7,16 C30.7,16 31.4666667,15.3980993 31.1904762,14.904738 C30.9428571,14.6185885 30.5809524,14.1745634 30.5809524,14.1745634 L31.1761905,14.1498953 C31.252381,13.9870861 31.3238095,13.8292105 31.3904762,13.6417332 L30.7904762,13.6417332 C30.4666667,13.7354719 29.8428571,13.8440113 29.8428571,13.8440113 C30.1333333,13.6219988 30.3619048,13.4049198 30.6571429,13.1829073 L31.2952381,13.1631728 L31.3142857,12.8572888 C31.0809524,12.7635502 30.8190476,12.600741 30.5809524,12.5070023 L30.7904762,12.23072 C31.2142857,12.2011184 31.5809524,12.2109856 32,12.206052 C32,12.206052 31.5190476,9.5715029 31.4666667,9.38402562 C31.1809524,9.39389284 30.8714286,9.48269787 30.7,9.73924572 Z" id="Path" fill="#D6D6D6" fill-rule="nonzero"></path>
                    <g id="Group" stroke-width="1" fill="none" fill-rule="evenodd" transform="translate(1.000000, 2.000000)">
                        <path d="M17.5608553,3.05580335 C15.1973684,3.58069474 12.6759868,5.2125353 8.50657895,5.85695642 C8.50657895,5.85695642 11.7976974,6.57413475 18,4.79677975 C17.8815789,4.29787308 17.6990132,3.6690428 17.5608553,3.05580335 Z" id="Path" fill="#C0001D" fill-rule="nonzero"></path>
                        <path d="M16.7861842,0 C11.4572368,1.26805445 6.27631579,4.40700891 0,5.3060803 C8.82730263,5.60230614 9.63157895,3.74180002 17.2598684,2.05279307 C17.2549342,2.05799001 16.9539474,0.68599667 16.7861842,0 Z" id="Path" fill="#C0001D" fill-rule="nonzero"></path>
                    </g>
                </g>
            </g>
        </g>
    </g>
</svg>