<?xml version="1.0" encoding="UTF-8"?>
<svg width="36px" height="36px" viewBox="0 0 36 36" version="1.1" xmlns="http://www.w3.org/2000/svg" xmlns:xlink="http://www.w3.org/1999/xlink">
    <title>SF</title>
    <defs>
        <rect id="path-1" x="0" y="0" width="36" height="36"></rect>
    </defs>
    <g id="Page-1" stroke="none" stroke-width="1" fill="none" fill-rule="evenodd">
        <g id="SF">
            <mask id="mask-2" fill="white">
                <use xlink:href="#path-1"></use>
            </mask>
            <g id="Rectangle"></g>
            <g id="SF-49ers-01" mask="url(#mask-2)" fill-rule="nonzero">
                <g transform="translate(0.000000, 7.000000)">
                    <ellipse id="Oval" fill="#FFFFFF" cx="18" cy="10.5" rx="18" ry="10.5"></ellipse>
                    <ellipse id="Oval" fill="#0C0D0C" cx="17.5" cy="11" rx="17.5" ry="10"></ellipse>
                    <ellipse id="Oval" fill="#C7A564" cx="18.5" cy="10.5" rx="15.5" ry="9.5"></ellipse>
                    <ellipse id="Oval" fill="#C9203D" cx="19" cy="10.5" rx="14" ry="8.5"></ellipse>
                    <path d="M29.7168819,9.69882418 L29.6785777,9.69882418 L29.6785777,9.40257404 L29.3987903,9.40257404 L24.1128084,9.40257404 C23.9928995,8.82241752 23.633173,8.28392117 23.1185641,7.86423347 C22.6122823,7.32419415 21.8761752,6.91993615 21.0384786,6.7656392 L20.6904099,6.69929151 C19.8860213,6.54345159 19.253169,6.41847107 16.7001097,6.43081482 C16.7001097,6.43081482 16.2088165,6.41538513 15.7325119,6.35675229 C15.612603,6.32897884 15.5060174,6.29503351 15.4144203,6.25800224 C15.4493937,6.06050215 15.8390975,5.79048249 16.2770979,5.73802152 C16.3220637,5.73030668 19.0849635,5.25970098 21.929468,6.96622523 L21.9994148,7.00788541 L23.8679945,7.00788541 L23.8679945,4.35706384 L23.5482375,4.35706384 L23.5482375,4.0608137 L20.9835204,4.0608137 C20.9835204,4.0608137 20.6787521,4.27682942 20.5521816,4.36632165 C19.8144091,4.19505204 16.1971587,3.46214154 13.0728669,4.72891948 C11.7605311,5.23192753 10.9461501,6.18085376 11.0027738,7.14366672 C11.032751,7.62970211 11.2825611,8.05247575 11.7172307,8.38112825 C12.0369876,8.74989795 12.5382732,9.03843325 13.1911103,9.2127888 C14.1154077,9.45966391 14.8981461,9.5614999 15.6575688,9.60161711 L15.6575688,9.68648043 L15.6575688,10.8097622 L15.9773258,10.8097622 L15.9773258,11.1060124 L16.9532506,11.1060124 C17.357943,11.1060124 17.4611978,11.3127703 17.4861788,11.3899187 C16.2421245,11.3143132 14.3485638,10.9856607 12.9546234,9.79140235 L12.902996,9.73894139 L12.8930036,9.73894139 C12.8163952,9.67105073 12.7397867,9.60007414 12.6665091,9.52755457 L12.5832391,9.44423422 L11.1809716,9.44423422 L11.1809716,13.2167946 L11.5007286,13.2167946 L11.5007286,13.5130447 L12.6448589,13.5130447 C12.8130644,13.5238455 13.3443272,13.4682986 13.7107154,12.4761693 C14.3052634,12.6674975 15.7724815,13.0763844 17.5777759,13.1226735 L17.5777759,15.46953 C17.5144906,16.2579875 15.6409148,16.5048626 14.9880777,16.5280071 L14.7182828,16.5372649 L14.7182828,17.7037499 L15.0380397,17.7037499 L15.0380397,18 L23.263454,18 L23.263454,16.8844331 L23.0536135,16.8335151 C23.0153093,16.8242573 22.9803359,16.8149994 22.9436971,16.8057416 L22.9436971,16.5511517 L22.6872253,16.5310931 C22.2242439,16.4925188 21.8695136,16.4184563 21.5930571,16.3274211 C21.0767828,16.0589444 20.9868512,15.8398427 20.9768588,15.8058974 L20.9768588,14.5545491 L23.3883591,14.5545491 C23.6431654,14.5900374 23.8613329,14.6934164 24.0461924,14.8276547 C24.3942611,15.2241979 24.5508088,15.676288 24.5541396,15.6840028 L24.6157594,15.8676162 L24.8222691,15.8691591 L24.8289307,15.8691591 C24.8572425,15.9355068 24.8738965,15.97871 24.8738965,15.9802529 L24.9355163,16.1638663 L25.142026,16.1638663 L26.2311981,16.1638663 L26.2311981,11.6244501 L25.9497454,11.6244501 L25.9114412,11.6244501 L25.9114412,11.3282 L25.6299885,11.3282 L24.622421,11.3282 L24.5757898,11.5365008 C24.2377134,13.043982 22.3558106,13.0223804 20.6820829,12.7955639 C21.0101668,12.7122436 21.3399162,12.6134935 21.6680001,12.4915989 C22.5639857,12.1614035 23.2368076,11.7123994 23.6564886,11.1877897 L27.2687428,11.1877897 C27.5202183,11.1955046 27.735055,11.2525945 27.9149183,11.3621453 C28.2946296,11.8774971 28.2563254,12.6350951 28.2563254,12.6443529 L28.2413368,12.9190015 L28.5377781,12.9190015 L28.5777478,12.9190015 C28.5777478,12.9313453 28.5777478,12.9390601 28.5777478,12.9406031 L28.5610938,13.2152516 L28.8575351,13.2152516 L30,13.2152516 L30,9.70191012 L29.7168819,9.69882418 L29.7168819,9.69882418 Z" id="Path" fill="#0C0D0C"></path>
                    <path d="M24,9.9669951 L27.3000918,9.9669951 C29.1850719,10.0180523 29.0492505,12 29.0492505,12 L30,12 L30,9 L24.3046803,9 C24.3028449,8.99845548 24.2899969,9.66993503 24,9.9669951" id="Path" fill="#FFFFFF"></path>
                    <path d="M17.6899577,12.9095941 L17.6899577,15.6568266 C17.6069246,17.097786 15,17.2158672 15,17.2158672 L15,18 L22.209776,18 L22.209776,17.2158672 C20.0665831,16.998155 20.0571831,15.7121771 20.0571831,15.7121771 L20.0571831,13.8782288 L22.6186746,13.8782288 C23.7905374,14.0756458 24.2401692,15.804428 24.2401692,15.804428 L25,15.804428 L25,11 L24.2668024,11 C23.7576375,13.8948339 19.9913834,12.5922509 19.7125176,12.6642066 C19.7125176,12.6642066 18.785054,12.9372694 17.6899577,12.9095941" id="Path" fill="#FFFFFF"></path>
                    <path d="M19.767218,9.71356471 C20.7851084,10.0384262 20.8795687,10.8851964 20.283492,11.6769354 C19.5212957,12.4615735 18.356829,12.4935271 18.356829,12.4935271 C18.356829,12.4935271 14.4367294,12.955079 12.1501404,10.258551 L11.1729656,10.258551 L11.1729656,13.9988963 L12.0296222,13.9988963 C12.0296222,13.9988963 12.5507821,14.0858811 12.8862788,12.7154271 C12.8862788,12.7154271 16.9106103,14.5012777 20.7395069,12.8432414 C24.4478853,11.2384611 23.0358677,7.72179089 20.4854415,7.16970384 C19.5050094,6.9584551 19.1141395,6.77560956 16.2982474,6.79158635 C16.2982474,6.79158635 15.7901165,6.77383436 15.2950146,6.70105118 C13.7429353,6.2785537 14.6256499,5.18503081 15.5360511,5.05721645 C15.5360511,5.05721645 18.3323997,4.45719902 21.2492665,6.51643043 L22.7215432,6.51643043 L22.7215432,4.06487994 L20.5799017,4.06487994 L20.1255154,4.44299743 C20.1255154,4.44299743 16.1565571,3.23586177 12.8618494,4.80691332 C10.6469198,5.80457544 10.212077,8.30228112 12.6322133,9.0620665 C14.7624544,9.73131671 16.1207274,9.45083519 18.2802837,9.54137036 C18.8796176,9.56799836 19.4040347,9.59285115 19.767218,9.71356471" id="Path" fill="#FFFFFF"></path>
                    <path d="M16.103493,11.0763941 L15,11.0763941 L15,10 C15.8559144,10 17.6013433,10.0077023 18.8356992,10 C20.0788972,10 20.2433601,10.7817818 19.7199083,11.3113137 C19.2265196,11.8100366 18.1919949,12.1643416 16.9682495,11.9217197 C16.9682495,11.9217197 16.8674497,11.0763941 16.103493,11.0763941" id="Path" fill="#FFFFFF"></path>
                </g>
            </g>
        </g>
    </g>
</svg>